%TF.GenerationSoftware,KiCad,Pcbnew,(7.0.0)*%
%TF.CreationDate,2023-04-15T00:39:35-04:00*%
%TF.ProjectId,NoU2-panelized2,4e6f5532-2d70-4616-9e65-6c697a656432,rev?*%
%TF.SameCoordinates,Original*%
%TF.FileFunction,Legend,Bot*%
%TF.FilePolarity,Positive*%
%FSLAX46Y46*%
G04 Gerber Fmt 4.6, Leading zero omitted, Abs format (unit mm)*
G04 Created by KiCad (PCBNEW (7.0.0)) date 2023-04-15 00:39:35*
%MOMM*%
%LPD*%
G01*
G04 APERTURE LIST*
G04 Aperture macros list*
%AMRoundRect*
0 Rectangle with rounded corners*
0 $1 Rounding radius*
0 $2 $3 $4 $5 $6 $7 $8 $9 X,Y pos of 4 corners*
0 Add a 4 corners polygon primitive as box body*
4,1,4,$2,$3,$4,$5,$6,$7,$8,$9,$2,$3,0*
0 Add four circle primitives for the rounded corners*
1,1,$1+$1,$2,$3*
1,1,$1+$1,$4,$5*
1,1,$1+$1,$6,$7*
1,1,$1+$1,$8,$9*
0 Add four rect primitives between the rounded corners*
20,1,$1+$1,$2,$3,$4,$5,0*
20,1,$1+$1,$4,$5,$6,$7,0*
20,1,$1+$1,$6,$7,$8,$9,0*
20,1,$1+$1,$8,$9,$2,$3,0*%
G04 Aperture macros list end*
%ADD10C,0.300000*%
%ADD11C,0.350000*%
%ADD12C,0.203200*%
%ADD13C,0.254000*%
%ADD14C,0.500000*%
%ADD15C,2.100000*%
%ADD16C,1.500000*%
%ADD17O,1.700000X1.700000*%
%ADD18R,1.700000X1.700000*%
%ADD19C,3.200000*%
%ADD20RoundRect,0.800000X0.000000X0.600000X0.000000X0.600000X0.000000X-0.600000X0.000000X-0.600000X0*%
%ADD21RoundRect,0.800000X-0.600000X0.000000X-0.600000X0.000000X0.600000X0.000000X0.600000X0.000000X0*%
%ADD22C,2.032000*%
%ADD23C,1.700000*%
G04 APERTURE END LIST*
D10*
X2428572Y-53491785D02*
X2285715Y-53563214D01*
X2285715Y-53563214D02*
X2000001Y-53563214D01*
X2000001Y-53563214D02*
X1857144Y-53491785D01*
X1857144Y-53491785D02*
X1714286Y-53348928D01*
X1714286Y-53348928D02*
X1642858Y-53206071D01*
X1642858Y-53206071D02*
X1642858Y-52920357D01*
X1642858Y-52920357D02*
X1714286Y-52777500D01*
X1714286Y-52777500D02*
X1857144Y-52634642D01*
X1857144Y-52634642D02*
X2000001Y-52563214D01*
X2000001Y-52563214D02*
X2285715Y-52563214D01*
X2285715Y-52563214D02*
X2428572Y-52634642D01*
X2142858Y-54063214D02*
X1785715Y-53991785D01*
X1785715Y-53991785D02*
X1428572Y-53777500D01*
X1428572Y-53777500D02*
X1214286Y-53420357D01*
X1214286Y-53420357D02*
X1142858Y-53063214D01*
X1142858Y-53063214D02*
X1214286Y-52706071D01*
X1214286Y-52706071D02*
X1428572Y-52348928D01*
X1428572Y-52348928D02*
X1785715Y-52134642D01*
X1785715Y-52134642D02*
X2142858Y-52063214D01*
X2142858Y-52063214D02*
X2500001Y-52134642D01*
X2500001Y-52134642D02*
X2857144Y-52348928D01*
X2857144Y-52348928D02*
X3071429Y-52706071D01*
X3071429Y-52706071D02*
X3142858Y-53063214D01*
X3142858Y-53063214D02*
X3071429Y-53420357D01*
X3071429Y-53420357D02*
X2857144Y-53777500D01*
X2857144Y-53777500D02*
X2500001Y-53991785D01*
X2500001Y-53991785D02*
X2142858Y-54063214D01*
X4614287Y-53706071D02*
X4685715Y-53777500D01*
X4685715Y-53777500D02*
X4828573Y-53848928D01*
X4828573Y-53848928D02*
X5185715Y-53848928D01*
X5185715Y-53848928D02*
X5328573Y-53777500D01*
X5328573Y-53777500D02*
X5400001Y-53706071D01*
X5400001Y-53706071D02*
X5471430Y-53563214D01*
X5471430Y-53563214D02*
X5471430Y-53420357D01*
X5471430Y-53420357D02*
X5400001Y-53206071D01*
X5400001Y-53206071D02*
X4542858Y-52348928D01*
X4542858Y-52348928D02*
X5471430Y-52348928D01*
X6400001Y-53848928D02*
X6542858Y-53848928D01*
X6542858Y-53848928D02*
X6685715Y-53777500D01*
X6685715Y-53777500D02*
X6757144Y-53706071D01*
X6757144Y-53706071D02*
X6828572Y-53563214D01*
X6828572Y-53563214D02*
X6900001Y-53277500D01*
X6900001Y-53277500D02*
X6900001Y-52920357D01*
X6900001Y-52920357D02*
X6828572Y-52634642D01*
X6828572Y-52634642D02*
X6757144Y-52491785D01*
X6757144Y-52491785D02*
X6685715Y-52420357D01*
X6685715Y-52420357D02*
X6542858Y-52348928D01*
X6542858Y-52348928D02*
X6400001Y-52348928D01*
X6400001Y-52348928D02*
X6257144Y-52420357D01*
X6257144Y-52420357D02*
X6185715Y-52491785D01*
X6185715Y-52491785D02*
X6114286Y-52634642D01*
X6114286Y-52634642D02*
X6042858Y-52920357D01*
X6042858Y-52920357D02*
X6042858Y-53277500D01*
X6042858Y-53277500D02*
X6114286Y-53563214D01*
X6114286Y-53563214D02*
X6185715Y-53706071D01*
X6185715Y-53706071D02*
X6257144Y-53777500D01*
X6257144Y-53777500D02*
X6400001Y-53848928D01*
X7471429Y-53706071D02*
X7542857Y-53777500D01*
X7542857Y-53777500D02*
X7685715Y-53848928D01*
X7685715Y-53848928D02*
X8042857Y-53848928D01*
X8042857Y-53848928D02*
X8185715Y-53777500D01*
X8185715Y-53777500D02*
X8257143Y-53706071D01*
X8257143Y-53706071D02*
X8328572Y-53563214D01*
X8328572Y-53563214D02*
X8328572Y-53420357D01*
X8328572Y-53420357D02*
X8257143Y-53206071D01*
X8257143Y-53206071D02*
X7400000Y-52348928D01*
X7400000Y-52348928D02*
X8328572Y-52348928D01*
X8828571Y-53848928D02*
X9757143Y-53848928D01*
X9757143Y-53848928D02*
X9257143Y-53277500D01*
X9257143Y-53277500D02*
X9471428Y-53277500D01*
X9471428Y-53277500D02*
X9614286Y-53206071D01*
X9614286Y-53206071D02*
X9685714Y-53134642D01*
X9685714Y-53134642D02*
X9757143Y-52991785D01*
X9757143Y-52991785D02*
X9757143Y-52634642D01*
X9757143Y-52634642D02*
X9685714Y-52491785D01*
X9685714Y-52491785D02*
X9614286Y-52420357D01*
X9614286Y-52420357D02*
X9471428Y-52348928D01*
X9471428Y-52348928D02*
X9042857Y-52348928D01*
X9042857Y-52348928D02*
X8900000Y-52420357D01*
X8900000Y-52420357D02*
X8828571Y-52491785D01*
X11228571Y-52777500D02*
X11942857Y-52777500D01*
X11085714Y-52348928D02*
X11585714Y-53848928D01*
X11585714Y-53848928D02*
X12085714Y-52348928D01*
X12799999Y-52348928D02*
X12657142Y-52420357D01*
X12657142Y-52420357D02*
X12585713Y-52563214D01*
X12585713Y-52563214D02*
X12585713Y-53848928D01*
X13157142Y-53348928D02*
X13728570Y-53348928D01*
X13371427Y-52348928D02*
X13371427Y-53634642D01*
X13371427Y-53634642D02*
X13442856Y-53777500D01*
X13442856Y-53777500D02*
X13585713Y-53848928D01*
X13585713Y-53848928D02*
X13728570Y-53848928D01*
X14228570Y-52348928D02*
X14228570Y-53348928D01*
X14228570Y-53063214D02*
X14299999Y-53206071D01*
X14299999Y-53206071D02*
X14371428Y-53277500D01*
X14371428Y-53277500D02*
X14514285Y-53348928D01*
X14514285Y-53348928D02*
X14657142Y-53348928D01*
X15728570Y-52420357D02*
X15585713Y-52348928D01*
X15585713Y-52348928D02*
X15299999Y-52348928D01*
X15299999Y-52348928D02*
X15157141Y-52420357D01*
X15157141Y-52420357D02*
X15085713Y-52563214D01*
X15085713Y-52563214D02*
X15085713Y-53134642D01*
X15085713Y-53134642D02*
X15157141Y-53277500D01*
X15157141Y-53277500D02*
X15299999Y-53348928D01*
X15299999Y-53348928D02*
X15585713Y-53348928D01*
X15585713Y-53348928D02*
X15728570Y-53277500D01*
X15728570Y-53277500D02*
X15799999Y-53134642D01*
X15799999Y-53134642D02*
X15799999Y-52991785D01*
X15799999Y-52991785D02*
X15085713Y-52848928D01*
X17085713Y-52348928D02*
X17085713Y-53848928D01*
X17085713Y-52420357D02*
X16942855Y-52348928D01*
X16942855Y-52348928D02*
X16657141Y-52348928D01*
X16657141Y-52348928D02*
X16514284Y-52420357D01*
X16514284Y-52420357D02*
X16442855Y-52491785D01*
X16442855Y-52491785D02*
X16371427Y-52634642D01*
X16371427Y-52634642D02*
X16371427Y-53063214D01*
X16371427Y-53063214D02*
X16442855Y-53206071D01*
X16442855Y-53206071D02*
X16514284Y-53277500D01*
X16514284Y-53277500D02*
X16657141Y-53348928D01*
X16657141Y-53348928D02*
X16942855Y-53348928D01*
X16942855Y-53348928D02*
X17085713Y-53277500D01*
X18014284Y-52348928D02*
X17871427Y-52420357D01*
X17871427Y-52420357D02*
X17799998Y-52491785D01*
X17799998Y-52491785D02*
X17728570Y-52634642D01*
X17728570Y-52634642D02*
X17728570Y-53063214D01*
X17728570Y-53063214D02*
X17799998Y-53206071D01*
X17799998Y-53206071D02*
X17871427Y-53277500D01*
X17871427Y-53277500D02*
X18014284Y-53348928D01*
X18014284Y-53348928D02*
X18228570Y-53348928D01*
X18228570Y-53348928D02*
X18371427Y-53277500D01*
X18371427Y-53277500D02*
X18442856Y-53206071D01*
X18442856Y-53206071D02*
X18514284Y-53063214D01*
X18514284Y-53063214D02*
X18514284Y-52634642D01*
X18514284Y-52634642D02*
X18442856Y-52491785D01*
X18442856Y-52491785D02*
X18371427Y-52420357D01*
X18371427Y-52420357D02*
X18228570Y-52348928D01*
X18228570Y-52348928D02*
X18014284Y-52348928D01*
X19985713Y-52420357D02*
X20199999Y-52348928D01*
X20199999Y-52348928D02*
X20557141Y-52348928D01*
X20557141Y-52348928D02*
X20699999Y-52420357D01*
X20699999Y-52420357D02*
X20771427Y-52491785D01*
X20771427Y-52491785D02*
X20842856Y-52634642D01*
X20842856Y-52634642D02*
X20842856Y-52777500D01*
X20842856Y-52777500D02*
X20771427Y-52920357D01*
X20771427Y-52920357D02*
X20699999Y-52991785D01*
X20699999Y-52991785D02*
X20557141Y-53063214D01*
X20557141Y-53063214D02*
X20271427Y-53134642D01*
X20271427Y-53134642D02*
X20128570Y-53206071D01*
X20128570Y-53206071D02*
X20057141Y-53277500D01*
X20057141Y-53277500D02*
X19985713Y-53420357D01*
X19985713Y-53420357D02*
X19985713Y-53563214D01*
X19985713Y-53563214D02*
X20057141Y-53706071D01*
X20057141Y-53706071D02*
X20128570Y-53777500D01*
X20128570Y-53777500D02*
X20271427Y-53848928D01*
X20271427Y-53848928D02*
X20628570Y-53848928D01*
X20628570Y-53848928D02*
X20842856Y-53777500D01*
X21342855Y-53348928D02*
X21699998Y-52348928D01*
X22057141Y-53348928D02*
X21699998Y-52348928D01*
X21699998Y-52348928D02*
X21557141Y-51991785D01*
X21557141Y-51991785D02*
X21485712Y-51920357D01*
X21485712Y-51920357D02*
X21342855Y-51848928D01*
X22557141Y-52420357D02*
X22699998Y-52348928D01*
X22699998Y-52348928D02*
X22985712Y-52348928D01*
X22985712Y-52348928D02*
X23128569Y-52420357D01*
X23128569Y-52420357D02*
X23199998Y-52563214D01*
X23199998Y-52563214D02*
X23199998Y-52634642D01*
X23199998Y-52634642D02*
X23128569Y-52777500D01*
X23128569Y-52777500D02*
X22985712Y-52848928D01*
X22985712Y-52848928D02*
X22771427Y-52848928D01*
X22771427Y-52848928D02*
X22628569Y-52920357D01*
X22628569Y-52920357D02*
X22557141Y-53063214D01*
X22557141Y-53063214D02*
X22557141Y-53134642D01*
X22557141Y-53134642D02*
X22628569Y-53277500D01*
X22628569Y-53277500D02*
X22771427Y-53348928D01*
X22771427Y-53348928D02*
X22985712Y-53348928D01*
X22985712Y-53348928D02*
X23128569Y-53277500D01*
X23628570Y-53348928D02*
X24199998Y-53348928D01*
X23842855Y-53848928D02*
X23842855Y-52563214D01*
X23842855Y-52563214D02*
X23914284Y-52420357D01*
X23914284Y-52420357D02*
X24057141Y-52348928D01*
X24057141Y-52348928D02*
X24199998Y-52348928D01*
X25271427Y-52420357D02*
X25128570Y-52348928D01*
X25128570Y-52348928D02*
X24842856Y-52348928D01*
X24842856Y-52348928D02*
X24699998Y-52420357D01*
X24699998Y-52420357D02*
X24628570Y-52563214D01*
X24628570Y-52563214D02*
X24628570Y-53134642D01*
X24628570Y-53134642D02*
X24699998Y-53277500D01*
X24699998Y-53277500D02*
X24842856Y-53348928D01*
X24842856Y-53348928D02*
X25128570Y-53348928D01*
X25128570Y-53348928D02*
X25271427Y-53277500D01*
X25271427Y-53277500D02*
X25342856Y-53134642D01*
X25342856Y-53134642D02*
X25342856Y-52991785D01*
X25342856Y-52991785D02*
X24628570Y-52848928D01*
X25985712Y-52348928D02*
X25985712Y-53348928D01*
X25985712Y-53206071D02*
X26057141Y-53277500D01*
X26057141Y-53277500D02*
X26199998Y-53348928D01*
X26199998Y-53348928D02*
X26414284Y-53348928D01*
X26414284Y-53348928D02*
X26557141Y-53277500D01*
X26557141Y-53277500D02*
X26628570Y-53134642D01*
X26628570Y-53134642D02*
X26628570Y-52348928D01*
X26628570Y-53134642D02*
X26699998Y-53277500D01*
X26699998Y-53277500D02*
X26842855Y-53348928D01*
X26842855Y-53348928D02*
X27057141Y-53348928D01*
X27057141Y-53348928D02*
X27199998Y-53277500D01*
X27199998Y-53277500D02*
X27271427Y-53134642D01*
X27271427Y-53134642D02*
X27271427Y-52348928D01*
X27914284Y-52420357D02*
X28057141Y-52348928D01*
X28057141Y-52348928D02*
X28342855Y-52348928D01*
X28342855Y-52348928D02*
X28485712Y-52420357D01*
X28485712Y-52420357D02*
X28557141Y-52563214D01*
X28557141Y-52563214D02*
X28557141Y-52634642D01*
X28557141Y-52634642D02*
X28485712Y-52777500D01*
X28485712Y-52777500D02*
X28342855Y-52848928D01*
X28342855Y-52848928D02*
X28128570Y-52848928D01*
X28128570Y-52848928D02*
X27985712Y-52920357D01*
X27985712Y-52920357D02*
X27914284Y-53063214D01*
X27914284Y-53063214D02*
X27914284Y-53134642D01*
X27914284Y-53134642D02*
X27985712Y-53277500D01*
X27985712Y-53277500D02*
X28128570Y-53348928D01*
X28128570Y-53348928D02*
X28342855Y-53348928D01*
X28342855Y-53348928D02*
X28485712Y-53277500D01*
X45428572Y-53491785D02*
X45285715Y-53563214D01*
X45285715Y-53563214D02*
X45000001Y-53563214D01*
X45000001Y-53563214D02*
X44857144Y-53491785D01*
X44857144Y-53491785D02*
X44714286Y-53348928D01*
X44714286Y-53348928D02*
X44642858Y-53206071D01*
X44642858Y-53206071D02*
X44642858Y-52920357D01*
X44642858Y-52920357D02*
X44714286Y-52777500D01*
X44714286Y-52777500D02*
X44857144Y-52634642D01*
X44857144Y-52634642D02*
X45000001Y-52563214D01*
X45000001Y-52563214D02*
X45285715Y-52563214D01*
X45285715Y-52563214D02*
X45428572Y-52634642D01*
X45142858Y-54063214D02*
X44785715Y-53991785D01*
X44785715Y-53991785D02*
X44428572Y-53777500D01*
X44428572Y-53777500D02*
X44214286Y-53420357D01*
X44214286Y-53420357D02*
X44142858Y-53063214D01*
X44142858Y-53063214D02*
X44214286Y-52706071D01*
X44214286Y-52706071D02*
X44428572Y-52348928D01*
X44428572Y-52348928D02*
X44785715Y-52134642D01*
X44785715Y-52134642D02*
X45142858Y-52063214D01*
X45142858Y-52063214D02*
X45500001Y-52134642D01*
X45500001Y-52134642D02*
X45857144Y-52348928D01*
X45857144Y-52348928D02*
X46071429Y-52706071D01*
X46071429Y-52706071D02*
X46142858Y-53063214D01*
X46142858Y-53063214D02*
X46071429Y-53420357D01*
X46071429Y-53420357D02*
X45857144Y-53777500D01*
X45857144Y-53777500D02*
X45500001Y-53991785D01*
X45500001Y-53991785D02*
X45142858Y-54063214D01*
X47614287Y-53706071D02*
X47685715Y-53777500D01*
X47685715Y-53777500D02*
X47828573Y-53848928D01*
X47828573Y-53848928D02*
X48185715Y-53848928D01*
X48185715Y-53848928D02*
X48328573Y-53777500D01*
X48328573Y-53777500D02*
X48400001Y-53706071D01*
X48400001Y-53706071D02*
X48471430Y-53563214D01*
X48471430Y-53563214D02*
X48471430Y-53420357D01*
X48471430Y-53420357D02*
X48400001Y-53206071D01*
X48400001Y-53206071D02*
X47542858Y-52348928D01*
X47542858Y-52348928D02*
X48471430Y-52348928D01*
X49400001Y-53848928D02*
X49542858Y-53848928D01*
X49542858Y-53848928D02*
X49685715Y-53777500D01*
X49685715Y-53777500D02*
X49757144Y-53706071D01*
X49757144Y-53706071D02*
X49828572Y-53563214D01*
X49828572Y-53563214D02*
X49900001Y-53277500D01*
X49900001Y-53277500D02*
X49900001Y-52920357D01*
X49900001Y-52920357D02*
X49828572Y-52634642D01*
X49828572Y-52634642D02*
X49757144Y-52491785D01*
X49757144Y-52491785D02*
X49685715Y-52420357D01*
X49685715Y-52420357D02*
X49542858Y-52348928D01*
X49542858Y-52348928D02*
X49400001Y-52348928D01*
X49400001Y-52348928D02*
X49257144Y-52420357D01*
X49257144Y-52420357D02*
X49185715Y-52491785D01*
X49185715Y-52491785D02*
X49114286Y-52634642D01*
X49114286Y-52634642D02*
X49042858Y-52920357D01*
X49042858Y-52920357D02*
X49042858Y-53277500D01*
X49042858Y-53277500D02*
X49114286Y-53563214D01*
X49114286Y-53563214D02*
X49185715Y-53706071D01*
X49185715Y-53706071D02*
X49257144Y-53777500D01*
X49257144Y-53777500D02*
X49400001Y-53848928D01*
X50471429Y-53706071D02*
X50542857Y-53777500D01*
X50542857Y-53777500D02*
X50685715Y-53848928D01*
X50685715Y-53848928D02*
X51042857Y-53848928D01*
X51042857Y-53848928D02*
X51185715Y-53777500D01*
X51185715Y-53777500D02*
X51257143Y-53706071D01*
X51257143Y-53706071D02*
X51328572Y-53563214D01*
X51328572Y-53563214D02*
X51328572Y-53420357D01*
X51328572Y-53420357D02*
X51257143Y-53206071D01*
X51257143Y-53206071D02*
X50400000Y-52348928D01*
X50400000Y-52348928D02*
X51328572Y-52348928D01*
X51828571Y-53848928D02*
X52757143Y-53848928D01*
X52757143Y-53848928D02*
X52257143Y-53277500D01*
X52257143Y-53277500D02*
X52471428Y-53277500D01*
X52471428Y-53277500D02*
X52614286Y-53206071D01*
X52614286Y-53206071D02*
X52685714Y-53134642D01*
X52685714Y-53134642D02*
X52757143Y-52991785D01*
X52757143Y-52991785D02*
X52757143Y-52634642D01*
X52757143Y-52634642D02*
X52685714Y-52491785D01*
X52685714Y-52491785D02*
X52614286Y-52420357D01*
X52614286Y-52420357D02*
X52471428Y-52348928D01*
X52471428Y-52348928D02*
X52042857Y-52348928D01*
X52042857Y-52348928D02*
X51900000Y-52420357D01*
X51900000Y-52420357D02*
X51828571Y-52491785D01*
X54228571Y-52777500D02*
X54942857Y-52777500D01*
X54085714Y-52348928D02*
X54585714Y-53848928D01*
X54585714Y-53848928D02*
X55085714Y-52348928D01*
X55799999Y-52348928D02*
X55657142Y-52420357D01*
X55657142Y-52420357D02*
X55585713Y-52563214D01*
X55585713Y-52563214D02*
X55585713Y-53848928D01*
X56157142Y-53348928D02*
X56728570Y-53348928D01*
X56371427Y-52348928D02*
X56371427Y-53634642D01*
X56371427Y-53634642D02*
X56442856Y-53777500D01*
X56442856Y-53777500D02*
X56585713Y-53848928D01*
X56585713Y-53848928D02*
X56728570Y-53848928D01*
X57228570Y-52348928D02*
X57228570Y-53348928D01*
X57228570Y-53063214D02*
X57299999Y-53206071D01*
X57299999Y-53206071D02*
X57371428Y-53277500D01*
X57371428Y-53277500D02*
X57514285Y-53348928D01*
X57514285Y-53348928D02*
X57657142Y-53348928D01*
X58728570Y-52420357D02*
X58585713Y-52348928D01*
X58585713Y-52348928D02*
X58299999Y-52348928D01*
X58299999Y-52348928D02*
X58157141Y-52420357D01*
X58157141Y-52420357D02*
X58085713Y-52563214D01*
X58085713Y-52563214D02*
X58085713Y-53134642D01*
X58085713Y-53134642D02*
X58157141Y-53277500D01*
X58157141Y-53277500D02*
X58299999Y-53348928D01*
X58299999Y-53348928D02*
X58585713Y-53348928D01*
X58585713Y-53348928D02*
X58728570Y-53277500D01*
X58728570Y-53277500D02*
X58799999Y-53134642D01*
X58799999Y-53134642D02*
X58799999Y-52991785D01*
X58799999Y-52991785D02*
X58085713Y-52848928D01*
X60085713Y-52348928D02*
X60085713Y-53848928D01*
X60085713Y-52420357D02*
X59942855Y-52348928D01*
X59942855Y-52348928D02*
X59657141Y-52348928D01*
X59657141Y-52348928D02*
X59514284Y-52420357D01*
X59514284Y-52420357D02*
X59442855Y-52491785D01*
X59442855Y-52491785D02*
X59371427Y-52634642D01*
X59371427Y-52634642D02*
X59371427Y-53063214D01*
X59371427Y-53063214D02*
X59442855Y-53206071D01*
X59442855Y-53206071D02*
X59514284Y-53277500D01*
X59514284Y-53277500D02*
X59657141Y-53348928D01*
X59657141Y-53348928D02*
X59942855Y-53348928D01*
X59942855Y-53348928D02*
X60085713Y-53277500D01*
X61014284Y-52348928D02*
X60871427Y-52420357D01*
X60871427Y-52420357D02*
X60799998Y-52491785D01*
X60799998Y-52491785D02*
X60728570Y-52634642D01*
X60728570Y-52634642D02*
X60728570Y-53063214D01*
X60728570Y-53063214D02*
X60799998Y-53206071D01*
X60799998Y-53206071D02*
X60871427Y-53277500D01*
X60871427Y-53277500D02*
X61014284Y-53348928D01*
X61014284Y-53348928D02*
X61228570Y-53348928D01*
X61228570Y-53348928D02*
X61371427Y-53277500D01*
X61371427Y-53277500D02*
X61442856Y-53206071D01*
X61442856Y-53206071D02*
X61514284Y-53063214D01*
X61514284Y-53063214D02*
X61514284Y-52634642D01*
X61514284Y-52634642D02*
X61442856Y-52491785D01*
X61442856Y-52491785D02*
X61371427Y-52420357D01*
X61371427Y-52420357D02*
X61228570Y-52348928D01*
X61228570Y-52348928D02*
X61014284Y-52348928D01*
X62985713Y-52420357D02*
X63199999Y-52348928D01*
X63199999Y-52348928D02*
X63557141Y-52348928D01*
X63557141Y-52348928D02*
X63699999Y-52420357D01*
X63699999Y-52420357D02*
X63771427Y-52491785D01*
X63771427Y-52491785D02*
X63842856Y-52634642D01*
X63842856Y-52634642D02*
X63842856Y-52777500D01*
X63842856Y-52777500D02*
X63771427Y-52920357D01*
X63771427Y-52920357D02*
X63699999Y-52991785D01*
X63699999Y-52991785D02*
X63557141Y-53063214D01*
X63557141Y-53063214D02*
X63271427Y-53134642D01*
X63271427Y-53134642D02*
X63128570Y-53206071D01*
X63128570Y-53206071D02*
X63057141Y-53277500D01*
X63057141Y-53277500D02*
X62985713Y-53420357D01*
X62985713Y-53420357D02*
X62985713Y-53563214D01*
X62985713Y-53563214D02*
X63057141Y-53706071D01*
X63057141Y-53706071D02*
X63128570Y-53777500D01*
X63128570Y-53777500D02*
X63271427Y-53848928D01*
X63271427Y-53848928D02*
X63628570Y-53848928D01*
X63628570Y-53848928D02*
X63842856Y-53777500D01*
X64342855Y-53348928D02*
X64699998Y-52348928D01*
X65057141Y-53348928D02*
X64699998Y-52348928D01*
X64699998Y-52348928D02*
X64557141Y-51991785D01*
X64557141Y-51991785D02*
X64485712Y-51920357D01*
X64485712Y-51920357D02*
X64342855Y-51848928D01*
X65557141Y-52420357D02*
X65699998Y-52348928D01*
X65699998Y-52348928D02*
X65985712Y-52348928D01*
X65985712Y-52348928D02*
X66128569Y-52420357D01*
X66128569Y-52420357D02*
X66199998Y-52563214D01*
X66199998Y-52563214D02*
X66199998Y-52634642D01*
X66199998Y-52634642D02*
X66128569Y-52777500D01*
X66128569Y-52777500D02*
X65985712Y-52848928D01*
X65985712Y-52848928D02*
X65771427Y-52848928D01*
X65771427Y-52848928D02*
X65628569Y-52920357D01*
X65628569Y-52920357D02*
X65557141Y-53063214D01*
X65557141Y-53063214D02*
X65557141Y-53134642D01*
X65557141Y-53134642D02*
X65628569Y-53277500D01*
X65628569Y-53277500D02*
X65771427Y-53348928D01*
X65771427Y-53348928D02*
X65985712Y-53348928D01*
X65985712Y-53348928D02*
X66128569Y-53277500D01*
X66628570Y-53348928D02*
X67199998Y-53348928D01*
X66842855Y-53848928D02*
X66842855Y-52563214D01*
X66842855Y-52563214D02*
X66914284Y-52420357D01*
X66914284Y-52420357D02*
X67057141Y-52348928D01*
X67057141Y-52348928D02*
X67199998Y-52348928D01*
X68271427Y-52420357D02*
X68128570Y-52348928D01*
X68128570Y-52348928D02*
X67842856Y-52348928D01*
X67842856Y-52348928D02*
X67699998Y-52420357D01*
X67699998Y-52420357D02*
X67628570Y-52563214D01*
X67628570Y-52563214D02*
X67628570Y-53134642D01*
X67628570Y-53134642D02*
X67699998Y-53277500D01*
X67699998Y-53277500D02*
X67842856Y-53348928D01*
X67842856Y-53348928D02*
X68128570Y-53348928D01*
X68128570Y-53348928D02*
X68271427Y-53277500D01*
X68271427Y-53277500D02*
X68342856Y-53134642D01*
X68342856Y-53134642D02*
X68342856Y-52991785D01*
X68342856Y-52991785D02*
X67628570Y-52848928D01*
X68985712Y-52348928D02*
X68985712Y-53348928D01*
X68985712Y-53206071D02*
X69057141Y-53277500D01*
X69057141Y-53277500D02*
X69199998Y-53348928D01*
X69199998Y-53348928D02*
X69414284Y-53348928D01*
X69414284Y-53348928D02*
X69557141Y-53277500D01*
X69557141Y-53277500D02*
X69628570Y-53134642D01*
X69628570Y-53134642D02*
X69628570Y-52348928D01*
X69628570Y-53134642D02*
X69699998Y-53277500D01*
X69699998Y-53277500D02*
X69842855Y-53348928D01*
X69842855Y-53348928D02*
X70057141Y-53348928D01*
X70057141Y-53348928D02*
X70199998Y-53277500D01*
X70199998Y-53277500D02*
X70271427Y-53134642D01*
X70271427Y-53134642D02*
X70271427Y-52348928D01*
X70914284Y-52420357D02*
X71057141Y-52348928D01*
X71057141Y-52348928D02*
X71342855Y-52348928D01*
X71342855Y-52348928D02*
X71485712Y-52420357D01*
X71485712Y-52420357D02*
X71557141Y-52563214D01*
X71557141Y-52563214D02*
X71557141Y-52634642D01*
X71557141Y-52634642D02*
X71485712Y-52777500D01*
X71485712Y-52777500D02*
X71342855Y-52848928D01*
X71342855Y-52848928D02*
X71128570Y-52848928D01*
X71128570Y-52848928D02*
X70985712Y-52920357D01*
X70985712Y-52920357D02*
X70914284Y-53063214D01*
X70914284Y-53063214D02*
X70914284Y-53134642D01*
X70914284Y-53134642D02*
X70985712Y-53277500D01*
X70985712Y-53277500D02*
X71128570Y-53348928D01*
X71128570Y-53348928D02*
X71342855Y-53348928D01*
X71342855Y-53348928D02*
X71485712Y-53277500D01*
D11*
X45804761Y-58536666D02*
X46757142Y-58536666D01*
X45614285Y-57965238D02*
X46280951Y-59965238D01*
X46280951Y-59965238D02*
X46947618Y-57965238D01*
X47899999Y-57965238D02*
X47709523Y-58060476D01*
X47709523Y-58060476D02*
X47614285Y-58250952D01*
X47614285Y-58250952D02*
X47614285Y-59965238D01*
X48376190Y-59298571D02*
X49138094Y-59298571D01*
X48661904Y-57965238D02*
X48661904Y-59679523D01*
X48661904Y-59679523D02*
X48757142Y-59870000D01*
X48757142Y-59870000D02*
X48947618Y-59965238D01*
X48947618Y-59965238D02*
X49138094Y-59965238D01*
X49804761Y-57965238D02*
X49804761Y-59298571D01*
X49804761Y-58917619D02*
X49899999Y-59108095D01*
X49899999Y-59108095D02*
X49995237Y-59203333D01*
X49995237Y-59203333D02*
X50185713Y-59298571D01*
X50185713Y-59298571D02*
X50376190Y-59298571D01*
X51804761Y-58060476D02*
X51614285Y-57965238D01*
X51614285Y-57965238D02*
X51233332Y-57965238D01*
X51233332Y-57965238D02*
X51042856Y-58060476D01*
X51042856Y-58060476D02*
X50947618Y-58250952D01*
X50947618Y-58250952D02*
X50947618Y-59012857D01*
X50947618Y-59012857D02*
X51042856Y-59203333D01*
X51042856Y-59203333D02*
X51233332Y-59298571D01*
X51233332Y-59298571D02*
X51614285Y-59298571D01*
X51614285Y-59298571D02*
X51804761Y-59203333D01*
X51804761Y-59203333D02*
X51899999Y-59012857D01*
X51899999Y-59012857D02*
X51899999Y-58822380D01*
X51899999Y-58822380D02*
X50947618Y-58631904D01*
X53614285Y-57965238D02*
X53614285Y-59965238D01*
X53614285Y-58060476D02*
X53423809Y-57965238D01*
X53423809Y-57965238D02*
X53042856Y-57965238D01*
X53042856Y-57965238D02*
X52852380Y-58060476D01*
X52852380Y-58060476D02*
X52757142Y-58155714D01*
X52757142Y-58155714D02*
X52661904Y-58346190D01*
X52661904Y-58346190D02*
X52661904Y-58917619D01*
X52661904Y-58917619D02*
X52757142Y-59108095D01*
X52757142Y-59108095D02*
X52852380Y-59203333D01*
X52852380Y-59203333D02*
X53042856Y-59298571D01*
X53042856Y-59298571D02*
X53423809Y-59298571D01*
X53423809Y-59298571D02*
X53614285Y-59203333D01*
X54852380Y-57965238D02*
X54661904Y-58060476D01*
X54661904Y-58060476D02*
X54566666Y-58155714D01*
X54566666Y-58155714D02*
X54471428Y-58346190D01*
X54471428Y-58346190D02*
X54471428Y-58917619D01*
X54471428Y-58917619D02*
X54566666Y-59108095D01*
X54566666Y-59108095D02*
X54661904Y-59203333D01*
X54661904Y-59203333D02*
X54852380Y-59298571D01*
X54852380Y-59298571D02*
X55138095Y-59298571D01*
X55138095Y-59298571D02*
X55328571Y-59203333D01*
X55328571Y-59203333D02*
X55423809Y-59108095D01*
X55423809Y-59108095D02*
X55519047Y-58917619D01*
X55519047Y-58917619D02*
X55519047Y-58346190D01*
X55519047Y-58346190D02*
X55423809Y-58155714D01*
X55423809Y-58155714D02*
X55328571Y-58060476D01*
X55328571Y-58060476D02*
X55138095Y-57965238D01*
X55138095Y-57965238D02*
X54852380Y-57965238D01*
X57576190Y-57965238D02*
X57576190Y-59965238D01*
X57576190Y-59965238D02*
X58719047Y-57965238D01*
X58719047Y-57965238D02*
X58719047Y-59965238D01*
X59957142Y-57965238D02*
X59766666Y-58060476D01*
X59766666Y-58060476D02*
X59671428Y-58155714D01*
X59671428Y-58155714D02*
X59576190Y-58346190D01*
X59576190Y-58346190D02*
X59576190Y-58917619D01*
X59576190Y-58917619D02*
X59671428Y-59108095D01*
X59671428Y-59108095D02*
X59766666Y-59203333D01*
X59766666Y-59203333D02*
X59957142Y-59298571D01*
X59957142Y-59298571D02*
X60242857Y-59298571D01*
X60242857Y-59298571D02*
X60433333Y-59203333D01*
X60433333Y-59203333D02*
X60528571Y-59108095D01*
X60528571Y-59108095D02*
X60623809Y-58917619D01*
X60623809Y-58917619D02*
X60623809Y-58346190D01*
X60623809Y-58346190D02*
X60528571Y-58155714D01*
X60528571Y-58155714D02*
X60433333Y-58060476D01*
X60433333Y-58060476D02*
X60242857Y-57965238D01*
X60242857Y-57965238D02*
X59957142Y-57965238D01*
X61480952Y-59965238D02*
X61480952Y-58346190D01*
X61480952Y-58346190D02*
X61576190Y-58155714D01*
X61576190Y-58155714D02*
X61671428Y-58060476D01*
X61671428Y-58060476D02*
X61861904Y-57965238D01*
X61861904Y-57965238D02*
X62242857Y-57965238D01*
X62242857Y-57965238D02*
X62433333Y-58060476D01*
X62433333Y-58060476D02*
X62528571Y-58155714D01*
X62528571Y-58155714D02*
X62623809Y-58346190D01*
X62623809Y-58346190D02*
X62623809Y-59965238D01*
X64490476Y-59965238D02*
X65157142Y-57965238D01*
X65157142Y-57965238D02*
X65823809Y-59965238D01*
X66395238Y-59774761D02*
X66490476Y-59870000D01*
X66490476Y-59870000D02*
X66680952Y-59965238D01*
X66680952Y-59965238D02*
X67157143Y-59965238D01*
X67157143Y-59965238D02*
X67347619Y-59870000D01*
X67347619Y-59870000D02*
X67442857Y-59774761D01*
X67442857Y-59774761D02*
X67538095Y-59584285D01*
X67538095Y-59584285D02*
X67538095Y-59393809D01*
X67538095Y-59393809D02*
X67442857Y-59108095D01*
X67442857Y-59108095D02*
X66300000Y-57965238D01*
X66300000Y-57965238D02*
X67538095Y-57965238D01*
X68395238Y-58155714D02*
X68490476Y-58060476D01*
X68490476Y-58060476D02*
X68395238Y-57965238D01*
X68395238Y-57965238D02*
X68300000Y-58060476D01*
X68300000Y-58060476D02*
X68395238Y-58155714D01*
X68395238Y-58155714D02*
X68395238Y-57965238D01*
X69442857Y-57965238D02*
X69823809Y-57965238D01*
X69823809Y-57965238D02*
X70014286Y-58060476D01*
X70014286Y-58060476D02*
X70109524Y-58155714D01*
X70109524Y-58155714D02*
X70300000Y-58441428D01*
X70300000Y-58441428D02*
X70395238Y-58822380D01*
X70395238Y-58822380D02*
X70395238Y-59584285D01*
X70395238Y-59584285D02*
X70300000Y-59774761D01*
X70300000Y-59774761D02*
X70204762Y-59870000D01*
X70204762Y-59870000D02*
X70014286Y-59965238D01*
X70014286Y-59965238D02*
X69633333Y-59965238D01*
X69633333Y-59965238D02*
X69442857Y-59870000D01*
X69442857Y-59870000D02*
X69347619Y-59774761D01*
X69347619Y-59774761D02*
X69252381Y-59584285D01*
X69252381Y-59584285D02*
X69252381Y-59108095D01*
X69252381Y-59108095D02*
X69347619Y-58917619D01*
X69347619Y-58917619D02*
X69442857Y-58822380D01*
X69442857Y-58822380D02*
X69633333Y-58727142D01*
X69633333Y-58727142D02*
X70014286Y-58727142D01*
X70014286Y-58727142D02*
X70204762Y-58822380D01*
X70204762Y-58822380D02*
X70300000Y-58917619D01*
X70300000Y-58917619D02*
X70395238Y-59108095D01*
X2804761Y-58536666D02*
X3757142Y-58536666D01*
X2614285Y-57965238D02*
X3280951Y-59965238D01*
X3280951Y-59965238D02*
X3947618Y-57965238D01*
X4899999Y-57965238D02*
X4709523Y-58060476D01*
X4709523Y-58060476D02*
X4614285Y-58250952D01*
X4614285Y-58250952D02*
X4614285Y-59965238D01*
X5376190Y-59298571D02*
X6138094Y-59298571D01*
X5661904Y-57965238D02*
X5661904Y-59679523D01*
X5661904Y-59679523D02*
X5757142Y-59870000D01*
X5757142Y-59870000D02*
X5947618Y-59965238D01*
X5947618Y-59965238D02*
X6138094Y-59965238D01*
X6804761Y-57965238D02*
X6804761Y-59298571D01*
X6804761Y-58917619D02*
X6899999Y-59108095D01*
X6899999Y-59108095D02*
X6995237Y-59203333D01*
X6995237Y-59203333D02*
X7185713Y-59298571D01*
X7185713Y-59298571D02*
X7376190Y-59298571D01*
X8804761Y-58060476D02*
X8614285Y-57965238D01*
X8614285Y-57965238D02*
X8233332Y-57965238D01*
X8233332Y-57965238D02*
X8042856Y-58060476D01*
X8042856Y-58060476D02*
X7947618Y-58250952D01*
X7947618Y-58250952D02*
X7947618Y-59012857D01*
X7947618Y-59012857D02*
X8042856Y-59203333D01*
X8042856Y-59203333D02*
X8233332Y-59298571D01*
X8233332Y-59298571D02*
X8614285Y-59298571D01*
X8614285Y-59298571D02*
X8804761Y-59203333D01*
X8804761Y-59203333D02*
X8899999Y-59012857D01*
X8899999Y-59012857D02*
X8899999Y-58822380D01*
X8899999Y-58822380D02*
X7947618Y-58631904D01*
X10614285Y-57965238D02*
X10614285Y-59965238D01*
X10614285Y-58060476D02*
X10423809Y-57965238D01*
X10423809Y-57965238D02*
X10042856Y-57965238D01*
X10042856Y-57965238D02*
X9852380Y-58060476D01*
X9852380Y-58060476D02*
X9757142Y-58155714D01*
X9757142Y-58155714D02*
X9661904Y-58346190D01*
X9661904Y-58346190D02*
X9661904Y-58917619D01*
X9661904Y-58917619D02*
X9757142Y-59108095D01*
X9757142Y-59108095D02*
X9852380Y-59203333D01*
X9852380Y-59203333D02*
X10042856Y-59298571D01*
X10042856Y-59298571D02*
X10423809Y-59298571D01*
X10423809Y-59298571D02*
X10614285Y-59203333D01*
X11852380Y-57965238D02*
X11661904Y-58060476D01*
X11661904Y-58060476D02*
X11566666Y-58155714D01*
X11566666Y-58155714D02*
X11471428Y-58346190D01*
X11471428Y-58346190D02*
X11471428Y-58917619D01*
X11471428Y-58917619D02*
X11566666Y-59108095D01*
X11566666Y-59108095D02*
X11661904Y-59203333D01*
X11661904Y-59203333D02*
X11852380Y-59298571D01*
X11852380Y-59298571D02*
X12138095Y-59298571D01*
X12138095Y-59298571D02*
X12328571Y-59203333D01*
X12328571Y-59203333D02*
X12423809Y-59108095D01*
X12423809Y-59108095D02*
X12519047Y-58917619D01*
X12519047Y-58917619D02*
X12519047Y-58346190D01*
X12519047Y-58346190D02*
X12423809Y-58155714D01*
X12423809Y-58155714D02*
X12328571Y-58060476D01*
X12328571Y-58060476D02*
X12138095Y-57965238D01*
X12138095Y-57965238D02*
X11852380Y-57965238D01*
X14576190Y-57965238D02*
X14576190Y-59965238D01*
X14576190Y-59965238D02*
X15719047Y-57965238D01*
X15719047Y-57965238D02*
X15719047Y-59965238D01*
X16957142Y-57965238D02*
X16766666Y-58060476D01*
X16766666Y-58060476D02*
X16671428Y-58155714D01*
X16671428Y-58155714D02*
X16576190Y-58346190D01*
X16576190Y-58346190D02*
X16576190Y-58917619D01*
X16576190Y-58917619D02*
X16671428Y-59108095D01*
X16671428Y-59108095D02*
X16766666Y-59203333D01*
X16766666Y-59203333D02*
X16957142Y-59298571D01*
X16957142Y-59298571D02*
X17242857Y-59298571D01*
X17242857Y-59298571D02*
X17433333Y-59203333D01*
X17433333Y-59203333D02*
X17528571Y-59108095D01*
X17528571Y-59108095D02*
X17623809Y-58917619D01*
X17623809Y-58917619D02*
X17623809Y-58346190D01*
X17623809Y-58346190D02*
X17528571Y-58155714D01*
X17528571Y-58155714D02*
X17433333Y-58060476D01*
X17433333Y-58060476D02*
X17242857Y-57965238D01*
X17242857Y-57965238D02*
X16957142Y-57965238D01*
X18480952Y-59965238D02*
X18480952Y-58346190D01*
X18480952Y-58346190D02*
X18576190Y-58155714D01*
X18576190Y-58155714D02*
X18671428Y-58060476D01*
X18671428Y-58060476D02*
X18861904Y-57965238D01*
X18861904Y-57965238D02*
X19242857Y-57965238D01*
X19242857Y-57965238D02*
X19433333Y-58060476D01*
X19433333Y-58060476D02*
X19528571Y-58155714D01*
X19528571Y-58155714D02*
X19623809Y-58346190D01*
X19623809Y-58346190D02*
X19623809Y-59965238D01*
X21490476Y-59965238D02*
X22157142Y-57965238D01*
X22157142Y-57965238D02*
X22823809Y-59965238D01*
X23395238Y-59774761D02*
X23490476Y-59870000D01*
X23490476Y-59870000D02*
X23680952Y-59965238D01*
X23680952Y-59965238D02*
X24157143Y-59965238D01*
X24157143Y-59965238D02*
X24347619Y-59870000D01*
X24347619Y-59870000D02*
X24442857Y-59774761D01*
X24442857Y-59774761D02*
X24538095Y-59584285D01*
X24538095Y-59584285D02*
X24538095Y-59393809D01*
X24538095Y-59393809D02*
X24442857Y-59108095D01*
X24442857Y-59108095D02*
X23300000Y-57965238D01*
X23300000Y-57965238D02*
X24538095Y-57965238D01*
X25395238Y-58155714D02*
X25490476Y-58060476D01*
X25490476Y-58060476D02*
X25395238Y-57965238D01*
X25395238Y-57965238D02*
X25300000Y-58060476D01*
X25300000Y-58060476D02*
X25395238Y-58155714D01*
X25395238Y-58155714D02*
X25395238Y-57965238D01*
X26442857Y-57965238D02*
X26823809Y-57965238D01*
X26823809Y-57965238D02*
X27014286Y-58060476D01*
X27014286Y-58060476D02*
X27109524Y-58155714D01*
X27109524Y-58155714D02*
X27300000Y-58441428D01*
X27300000Y-58441428D02*
X27395238Y-58822380D01*
X27395238Y-58822380D02*
X27395238Y-59584285D01*
X27395238Y-59584285D02*
X27300000Y-59774761D01*
X27300000Y-59774761D02*
X27204762Y-59870000D01*
X27204762Y-59870000D02*
X27014286Y-59965238D01*
X27014286Y-59965238D02*
X26633333Y-59965238D01*
X26633333Y-59965238D02*
X26442857Y-59870000D01*
X26442857Y-59870000D02*
X26347619Y-59774761D01*
X26347619Y-59774761D02*
X26252381Y-59584285D01*
X26252381Y-59584285D02*
X26252381Y-59108095D01*
X26252381Y-59108095D02*
X26347619Y-58917619D01*
X26347619Y-58917619D02*
X26442857Y-58822380D01*
X26442857Y-58822380D02*
X26633333Y-58727142D01*
X26633333Y-58727142D02*
X27014286Y-58727142D01*
X27014286Y-58727142D02*
X27204762Y-58822380D01*
X27204762Y-58822380D02*
X27300000Y-58917619D01*
X27300000Y-58917619D02*
X27395238Y-59108095D01*
D12*
X1245638Y-51014192D02*
X1245638Y-50433621D01*
X1245638Y-50433621D02*
X1206933Y-50317507D01*
X1206933Y-50317507D02*
X1129524Y-50240097D01*
X1129524Y-50240097D02*
X1013409Y-50201392D01*
X1013409Y-50201392D02*
X936000Y-50201392D01*
X2019733Y-50201392D02*
X1632685Y-50201392D01*
X1632685Y-50201392D02*
X1632685Y-51014192D01*
X2755123Y-50278802D02*
X2716419Y-50240097D01*
X2716419Y-50240097D02*
X2600304Y-50201392D01*
X2600304Y-50201392D02*
X2522895Y-50201392D01*
X2522895Y-50201392D02*
X2406781Y-50240097D01*
X2406781Y-50240097D02*
X2329371Y-50317507D01*
X2329371Y-50317507D02*
X2290666Y-50394916D01*
X2290666Y-50394916D02*
X2251962Y-50549735D01*
X2251962Y-50549735D02*
X2251962Y-50665849D01*
X2251962Y-50665849D02*
X2290666Y-50820668D01*
X2290666Y-50820668D02*
X2329371Y-50898078D01*
X2329371Y-50898078D02*
X2406781Y-50975488D01*
X2406781Y-50975488D02*
X2522895Y-51014192D01*
X2522895Y-51014192D02*
X2600304Y-51014192D01*
X2600304Y-51014192D02*
X2716419Y-50975488D01*
X2716419Y-50975488D02*
X2755123Y-50936783D01*
X3335695Y-51014192D02*
X3335695Y-50433621D01*
X3335695Y-50433621D02*
X3296990Y-50317507D01*
X3296990Y-50317507D02*
X3219581Y-50240097D01*
X3219581Y-50240097D02*
X3103466Y-50201392D01*
X3103466Y-50201392D02*
X3026057Y-50201392D01*
X4109790Y-50201392D02*
X3722742Y-50201392D01*
X3722742Y-50201392D02*
X3722742Y-51014192D01*
X4845180Y-50278802D02*
X4806476Y-50240097D01*
X4806476Y-50240097D02*
X4690361Y-50201392D01*
X4690361Y-50201392D02*
X4612952Y-50201392D01*
X4612952Y-50201392D02*
X4496838Y-50240097D01*
X4496838Y-50240097D02*
X4419428Y-50317507D01*
X4419428Y-50317507D02*
X4380723Y-50394916D01*
X4380723Y-50394916D02*
X4342019Y-50549735D01*
X4342019Y-50549735D02*
X4342019Y-50665849D01*
X4342019Y-50665849D02*
X4380723Y-50820668D01*
X4380723Y-50820668D02*
X4419428Y-50898078D01*
X4419428Y-50898078D02*
X4496838Y-50975488D01*
X4496838Y-50975488D02*
X4612952Y-51014192D01*
X4612952Y-51014192D02*
X4690361Y-51014192D01*
X4690361Y-51014192D02*
X4806476Y-50975488D01*
X4806476Y-50975488D02*
X4845180Y-50936783D01*
X5425752Y-51014192D02*
X5425752Y-50433621D01*
X5425752Y-50433621D02*
X5387047Y-50317507D01*
X5387047Y-50317507D02*
X5309638Y-50240097D01*
X5309638Y-50240097D02*
X5193523Y-50201392D01*
X5193523Y-50201392D02*
X5116114Y-50201392D01*
X6199847Y-50201392D02*
X5812799Y-50201392D01*
X5812799Y-50201392D02*
X5812799Y-51014192D01*
X6935237Y-50278802D02*
X6896533Y-50240097D01*
X6896533Y-50240097D02*
X6780418Y-50201392D01*
X6780418Y-50201392D02*
X6703009Y-50201392D01*
X6703009Y-50201392D02*
X6586895Y-50240097D01*
X6586895Y-50240097D02*
X6509485Y-50317507D01*
X6509485Y-50317507D02*
X6470780Y-50394916D01*
X6470780Y-50394916D02*
X6432076Y-50549735D01*
X6432076Y-50549735D02*
X6432076Y-50665849D01*
X6432076Y-50665849D02*
X6470780Y-50820668D01*
X6470780Y-50820668D02*
X6509485Y-50898078D01*
X6509485Y-50898078D02*
X6586895Y-50975488D01*
X6586895Y-50975488D02*
X6703009Y-51014192D01*
X6703009Y-51014192D02*
X6780418Y-51014192D01*
X6780418Y-51014192D02*
X6896533Y-50975488D01*
X6896533Y-50975488D02*
X6935237Y-50936783D01*
X7515809Y-51014192D02*
X7515809Y-50433621D01*
X7515809Y-50433621D02*
X7477104Y-50317507D01*
X7477104Y-50317507D02*
X7399695Y-50240097D01*
X7399695Y-50240097D02*
X7283580Y-50201392D01*
X7283580Y-50201392D02*
X7206171Y-50201392D01*
X8289904Y-50201392D02*
X7902856Y-50201392D01*
X7902856Y-50201392D02*
X7902856Y-51014192D01*
X9025294Y-50278802D02*
X8986590Y-50240097D01*
X8986590Y-50240097D02*
X8870475Y-50201392D01*
X8870475Y-50201392D02*
X8793066Y-50201392D01*
X8793066Y-50201392D02*
X8676952Y-50240097D01*
X8676952Y-50240097D02*
X8599542Y-50317507D01*
X8599542Y-50317507D02*
X8560837Y-50394916D01*
X8560837Y-50394916D02*
X8522133Y-50549735D01*
X8522133Y-50549735D02*
X8522133Y-50665849D01*
X8522133Y-50665849D02*
X8560837Y-50820668D01*
X8560837Y-50820668D02*
X8599542Y-50898078D01*
X8599542Y-50898078D02*
X8676952Y-50975488D01*
X8676952Y-50975488D02*
X8793066Y-51014192D01*
X8793066Y-51014192D02*
X8870475Y-51014192D01*
X8870475Y-51014192D02*
X8986590Y-50975488D01*
X8986590Y-50975488D02*
X9025294Y-50936783D01*
X44245638Y-51014192D02*
X44245638Y-50433621D01*
X44245638Y-50433621D02*
X44206933Y-50317507D01*
X44206933Y-50317507D02*
X44129524Y-50240097D01*
X44129524Y-50240097D02*
X44013409Y-50201392D01*
X44013409Y-50201392D02*
X43936000Y-50201392D01*
X45019733Y-50201392D02*
X44632685Y-50201392D01*
X44632685Y-50201392D02*
X44632685Y-51014192D01*
X45755123Y-50278802D02*
X45716419Y-50240097D01*
X45716419Y-50240097D02*
X45600304Y-50201392D01*
X45600304Y-50201392D02*
X45522895Y-50201392D01*
X45522895Y-50201392D02*
X45406781Y-50240097D01*
X45406781Y-50240097D02*
X45329371Y-50317507D01*
X45329371Y-50317507D02*
X45290666Y-50394916D01*
X45290666Y-50394916D02*
X45251962Y-50549735D01*
X45251962Y-50549735D02*
X45251962Y-50665849D01*
X45251962Y-50665849D02*
X45290666Y-50820668D01*
X45290666Y-50820668D02*
X45329371Y-50898078D01*
X45329371Y-50898078D02*
X45406781Y-50975488D01*
X45406781Y-50975488D02*
X45522895Y-51014192D01*
X45522895Y-51014192D02*
X45600304Y-51014192D01*
X45600304Y-51014192D02*
X45716419Y-50975488D01*
X45716419Y-50975488D02*
X45755123Y-50936783D01*
X46335695Y-51014192D02*
X46335695Y-50433621D01*
X46335695Y-50433621D02*
X46296990Y-50317507D01*
X46296990Y-50317507D02*
X46219581Y-50240097D01*
X46219581Y-50240097D02*
X46103466Y-50201392D01*
X46103466Y-50201392D02*
X46026057Y-50201392D01*
X47109790Y-50201392D02*
X46722742Y-50201392D01*
X46722742Y-50201392D02*
X46722742Y-51014192D01*
X47845180Y-50278802D02*
X47806476Y-50240097D01*
X47806476Y-50240097D02*
X47690361Y-50201392D01*
X47690361Y-50201392D02*
X47612952Y-50201392D01*
X47612952Y-50201392D02*
X47496838Y-50240097D01*
X47496838Y-50240097D02*
X47419428Y-50317507D01*
X47419428Y-50317507D02*
X47380723Y-50394916D01*
X47380723Y-50394916D02*
X47342019Y-50549735D01*
X47342019Y-50549735D02*
X47342019Y-50665849D01*
X47342019Y-50665849D02*
X47380723Y-50820668D01*
X47380723Y-50820668D02*
X47419428Y-50898078D01*
X47419428Y-50898078D02*
X47496838Y-50975488D01*
X47496838Y-50975488D02*
X47612952Y-51014192D01*
X47612952Y-51014192D02*
X47690361Y-51014192D01*
X47690361Y-51014192D02*
X47806476Y-50975488D01*
X47806476Y-50975488D02*
X47845180Y-50936783D01*
X48425752Y-51014192D02*
X48425752Y-50433621D01*
X48425752Y-50433621D02*
X48387047Y-50317507D01*
X48387047Y-50317507D02*
X48309638Y-50240097D01*
X48309638Y-50240097D02*
X48193523Y-50201392D01*
X48193523Y-50201392D02*
X48116114Y-50201392D01*
X49199847Y-50201392D02*
X48812799Y-50201392D01*
X48812799Y-50201392D02*
X48812799Y-51014192D01*
X49935237Y-50278802D02*
X49896533Y-50240097D01*
X49896533Y-50240097D02*
X49780418Y-50201392D01*
X49780418Y-50201392D02*
X49703009Y-50201392D01*
X49703009Y-50201392D02*
X49586895Y-50240097D01*
X49586895Y-50240097D02*
X49509485Y-50317507D01*
X49509485Y-50317507D02*
X49470780Y-50394916D01*
X49470780Y-50394916D02*
X49432076Y-50549735D01*
X49432076Y-50549735D02*
X49432076Y-50665849D01*
X49432076Y-50665849D02*
X49470780Y-50820668D01*
X49470780Y-50820668D02*
X49509485Y-50898078D01*
X49509485Y-50898078D02*
X49586895Y-50975488D01*
X49586895Y-50975488D02*
X49703009Y-51014192D01*
X49703009Y-51014192D02*
X49780418Y-51014192D01*
X49780418Y-51014192D02*
X49896533Y-50975488D01*
X49896533Y-50975488D02*
X49935237Y-50936783D01*
X50515809Y-51014192D02*
X50515809Y-50433621D01*
X50515809Y-50433621D02*
X50477104Y-50317507D01*
X50477104Y-50317507D02*
X50399695Y-50240097D01*
X50399695Y-50240097D02*
X50283580Y-50201392D01*
X50283580Y-50201392D02*
X50206171Y-50201392D01*
X51289904Y-50201392D02*
X50902856Y-50201392D01*
X50902856Y-50201392D02*
X50902856Y-51014192D01*
X52025294Y-50278802D02*
X51986590Y-50240097D01*
X51986590Y-50240097D02*
X51870475Y-50201392D01*
X51870475Y-50201392D02*
X51793066Y-50201392D01*
X51793066Y-50201392D02*
X51676952Y-50240097D01*
X51676952Y-50240097D02*
X51599542Y-50317507D01*
X51599542Y-50317507D02*
X51560837Y-50394916D01*
X51560837Y-50394916D02*
X51522133Y-50549735D01*
X51522133Y-50549735D02*
X51522133Y-50665849D01*
X51522133Y-50665849D02*
X51560837Y-50820668D01*
X51560837Y-50820668D02*
X51599542Y-50898078D01*
X51599542Y-50898078D02*
X51676952Y-50975488D01*
X51676952Y-50975488D02*
X51793066Y-51014192D01*
X51793066Y-51014192D02*
X51870475Y-51014192D01*
X51870475Y-51014192D02*
X51986590Y-50975488D01*
X51986590Y-50975488D02*
X52025294Y-50936783D01*
D13*
X22308940Y-37993562D02*
X21292940Y-37654895D01*
X21292940Y-37654895D02*
X22308940Y-37316228D01*
X21292940Y-36977562D02*
X22308940Y-36977562D01*
X21292940Y-36493752D02*
X22308940Y-36493752D01*
X22308940Y-36493752D02*
X21292940Y-35913180D01*
X21292940Y-35913180D02*
X22308940Y-35913180D01*
X65308940Y-37993562D02*
X64292940Y-37654895D01*
X64292940Y-37654895D02*
X65308940Y-37316228D01*
X64292940Y-36977562D02*
X65308940Y-36977562D01*
X64292940Y-36493752D02*
X65308940Y-36493752D01*
X65308940Y-36493752D02*
X64292940Y-35913180D01*
X64292940Y-35913180D02*
X65308940Y-35913180D01*
X22209760Y-41566494D02*
X22258140Y-41663256D01*
X22258140Y-41663256D02*
X22258140Y-41808399D01*
X22258140Y-41808399D02*
X22209760Y-41953542D01*
X22209760Y-41953542D02*
X22112998Y-42050304D01*
X22112998Y-42050304D02*
X22016236Y-42098685D01*
X22016236Y-42098685D02*
X21822712Y-42147066D01*
X21822712Y-42147066D02*
X21677569Y-42147066D01*
X21677569Y-42147066D02*
X21484045Y-42098685D01*
X21484045Y-42098685D02*
X21387283Y-42050304D01*
X21387283Y-42050304D02*
X21290521Y-41953542D01*
X21290521Y-41953542D02*
X21242140Y-41808399D01*
X21242140Y-41808399D02*
X21242140Y-41711637D01*
X21242140Y-41711637D02*
X21290521Y-41566494D01*
X21290521Y-41566494D02*
X21338902Y-41518113D01*
X21338902Y-41518113D02*
X21677569Y-41518113D01*
X21677569Y-41518113D02*
X21677569Y-41711637D01*
X21242140Y-41082685D02*
X22258140Y-41082685D01*
X22258140Y-41082685D02*
X21242140Y-40502113D01*
X21242140Y-40502113D02*
X22258140Y-40502113D01*
X21242140Y-40018304D02*
X22258140Y-40018304D01*
X22258140Y-40018304D02*
X22258140Y-39776399D01*
X22258140Y-39776399D02*
X22209760Y-39631256D01*
X22209760Y-39631256D02*
X22112998Y-39534494D01*
X22112998Y-39534494D02*
X22016236Y-39486113D01*
X22016236Y-39486113D02*
X21822712Y-39437732D01*
X21822712Y-39437732D02*
X21677569Y-39437732D01*
X21677569Y-39437732D02*
X21484045Y-39486113D01*
X21484045Y-39486113D02*
X21387283Y-39534494D01*
X21387283Y-39534494D02*
X21290521Y-39631256D01*
X21290521Y-39631256D02*
X21242140Y-39776399D01*
X21242140Y-39776399D02*
X21242140Y-40018304D01*
X65209760Y-41566494D02*
X65258140Y-41663256D01*
X65258140Y-41663256D02*
X65258140Y-41808399D01*
X65258140Y-41808399D02*
X65209760Y-41953542D01*
X65209760Y-41953542D02*
X65112998Y-42050304D01*
X65112998Y-42050304D02*
X65016236Y-42098685D01*
X65016236Y-42098685D02*
X64822712Y-42147066D01*
X64822712Y-42147066D02*
X64677569Y-42147066D01*
X64677569Y-42147066D02*
X64484045Y-42098685D01*
X64484045Y-42098685D02*
X64387283Y-42050304D01*
X64387283Y-42050304D02*
X64290521Y-41953542D01*
X64290521Y-41953542D02*
X64242140Y-41808399D01*
X64242140Y-41808399D02*
X64242140Y-41711637D01*
X64242140Y-41711637D02*
X64290521Y-41566494D01*
X64290521Y-41566494D02*
X64338902Y-41518113D01*
X64338902Y-41518113D02*
X64677569Y-41518113D01*
X64677569Y-41518113D02*
X64677569Y-41711637D01*
X64242140Y-41082685D02*
X65258140Y-41082685D01*
X65258140Y-41082685D02*
X64242140Y-40502113D01*
X64242140Y-40502113D02*
X65258140Y-40502113D01*
X64242140Y-40018304D02*
X65258140Y-40018304D01*
X65258140Y-40018304D02*
X65258140Y-39776399D01*
X65258140Y-39776399D02*
X65209760Y-39631256D01*
X65209760Y-39631256D02*
X65112998Y-39534494D01*
X65112998Y-39534494D02*
X65016236Y-39486113D01*
X65016236Y-39486113D02*
X64822712Y-39437732D01*
X64822712Y-39437732D02*
X64677569Y-39437732D01*
X64677569Y-39437732D02*
X64484045Y-39486113D01*
X64484045Y-39486113D02*
X64387283Y-39534494D01*
X64387283Y-39534494D02*
X64290521Y-39631256D01*
X64290521Y-39631256D02*
X64242140Y-39776399D01*
X64242140Y-39776399D02*
X64242140Y-40018304D01*
%LPC*%
D14*
%TO.C,REF\u002A\u002A*%
X43250000Y-7100600D03*
%TD*%
%TO.C,REF\u002A\u002A*%
X40750000Y-52999000D03*
%TD*%
%TO.C,REF\u002A\u002A*%
X43250000Y-58000999D03*
%TD*%
D15*
%TO.C,J19*%
X6994695Y-5547743D03*
X11994695Y-5547743D03*
%TD*%
%TO.C,J19*%
X49994695Y-5547743D03*
X54994695Y-5547743D03*
%TD*%
D16*
%TO.C,U4*%
X74020000Y-34072000D03*
X76020000Y-34072000D03*
X78020000Y-34072000D03*
X74020000Y-38572000D03*
X76020000Y-38572000D03*
X78020000Y-38572000D03*
%TD*%
%TO.C,U4*%
X31020000Y-34072000D03*
X33020000Y-34072000D03*
X35020000Y-34072000D03*
X31020000Y-38572000D03*
X33020000Y-38572000D03*
X35020000Y-38572000D03*
%TD*%
D17*
%TO.C,U18*%
X34797999Y-26923999D03*
X34797999Y-29463999D03*
X37337999Y-26923999D03*
X37337999Y-29463999D03*
X32257999Y-26923999D03*
X32257999Y-29463999D03*
%TD*%
%TO.C,U18*%
X77797999Y-26923999D03*
X77797999Y-29463999D03*
X80337999Y-26923999D03*
X80337999Y-29463999D03*
X75257999Y-26923999D03*
X75257999Y-29463999D03*
%TD*%
D14*
%TO.C,REF\u002A\u002A*%
X40750000Y-56000199D03*
%TD*%
%TO.C,REF\u002A\u002A*%
X43250000Y-52999000D03*
%TD*%
%TO.C,REF\u002A\u002A*%
X43250000Y-8101000D03*
%TD*%
%TO.C,REF\u002A\u002A*%
X40750000Y-5099801D03*
%TD*%
%TO.C,REF\u002A\u002A*%
X40750000Y-57000599D03*
%TD*%
%TO.C,REF\u002A\u002A*%
X43250000Y-5099801D03*
%TD*%
D15*
%TO.C,J11*%
X7732163Y-55530120D03*
X2732163Y-55530120D03*
%TD*%
%TO.C,J11*%
X50732163Y-55530120D03*
X45732163Y-55530120D03*
%TD*%
D14*
%TO.C,REF\u002A\u002A*%
X43250000Y-4099401D03*
%TD*%
%TO.C,REF\u002A\u002A*%
X40750000Y-4099401D03*
%TD*%
%TO.C,REF\u002A\u002A*%
X40750000Y-6100200D03*
%TD*%
D15*
%TO.C,J18*%
X17154695Y-5547743D03*
X22154695Y-5547743D03*
%TD*%
%TO.C,J18*%
X60154695Y-5547743D03*
X65154695Y-5547743D03*
%TD*%
D18*
%TO.C,J5*%
X27177999Y-6599999D03*
D17*
X27177999Y-9139999D03*
X27177999Y-11679999D03*
X27177999Y-14219999D03*
X27177999Y-16759999D03*
X27177999Y-19299999D03*
X27177999Y-21839999D03*
X27177999Y-24379999D03*
X27177999Y-26919999D03*
X27177999Y-29459999D03*
X27177999Y-31999999D03*
X27177999Y-34539999D03*
X27177999Y-37079999D03*
X27177999Y-39619999D03*
X27177999Y-42159999D03*
%TD*%
D18*
%TO.C,J5*%
X70177999Y-6599999D03*
D17*
X70177999Y-9139999D03*
X70177999Y-11679999D03*
X70177999Y-14219999D03*
X70177999Y-16759999D03*
X70177999Y-19299999D03*
X70177999Y-21839999D03*
X70177999Y-24379999D03*
X70177999Y-26919999D03*
X70177999Y-29459999D03*
X70177999Y-31999999D03*
X70177999Y-34539999D03*
X70177999Y-37079999D03*
X70177999Y-39619999D03*
X70177999Y-42159999D03*
%TD*%
D14*
%TO.C,REF\u002A\u002A*%
X43250000Y-56000199D03*
%TD*%
%TO.C,REF\u002A\u002A*%
X43250000Y-3099001D03*
%TD*%
D15*
%TO.C,J17*%
X38212163Y-55530120D03*
X33212163Y-55530120D03*
%TD*%
%TO.C,J17*%
X81212163Y-55530120D03*
X76212163Y-55530120D03*
%TD*%
D19*
%TO.C,REF\u002A\u002A*%
X53000000Y-14000000D03*
%TD*%
%TO.C,REF\u002A\u002A*%
X10000000Y-14000000D03*
%TD*%
D14*
%TO.C,REF\u002A\u002A*%
X43250000Y-6100200D03*
%TD*%
%TO.C,REF\u002A\u002A*%
X43250000Y-57000599D03*
%TD*%
%TO.C,REF\u002A\u002A*%
X40750000Y-3099001D03*
%TD*%
%TO.C,REF\u002A\u002A*%
X40750000Y-7100600D03*
%TD*%
%TO.C,REF\u002A\u002A*%
X40750000Y-58000999D03*
%TD*%
%TO.C,REF\u002A\u002A*%
X40750000Y-8101000D03*
%TD*%
%TO.C,REF\u002A\u002A*%
X43250000Y-53999400D03*
%TD*%
D17*
%TO.C,U17*%
X34839999Y-21829999D03*
X34839999Y-24369999D03*
X37379999Y-21829999D03*
X37379999Y-24369999D03*
X32299999Y-21829999D03*
X32299999Y-24369999D03*
%TD*%
%TO.C,U17*%
X77839999Y-21829999D03*
X77839999Y-24369999D03*
X80379999Y-21829999D03*
X80379999Y-24369999D03*
X75299999Y-21829999D03*
X75299999Y-24369999D03*
%TD*%
D14*
%TO.C,REF\u002A\u002A*%
X43250000Y-54999800D03*
%TD*%
%TO.C,REF\u002A\u002A*%
X40750000Y-53999400D03*
%TD*%
D20*
%TO.C,J10*%
X72095000Y-46700000D03*
X78745000Y-46700000D03*
D21*
X74645000Y-42000000D03*
%TD*%
D20*
%TO.C,J10*%
X29095000Y-46700000D03*
X35745000Y-46700000D03*
D21*
X31645000Y-42000000D03*
%TD*%
D15*
%TO.C,J15*%
X17892163Y-55530120D03*
X12892163Y-55530120D03*
%TD*%
%TO.C,J15*%
X60892163Y-55530120D03*
X55892163Y-55530120D03*
%TD*%
D14*
%TO.C,REF\u002A\u002A*%
X40750000Y-54999800D03*
%TD*%
D18*
%TO.C,J2*%
X1777999Y-6603999D03*
D17*
X1777999Y-9143999D03*
X1777999Y-11683999D03*
X1777999Y-14223999D03*
X1777999Y-16763999D03*
X1777999Y-19303999D03*
X1777999Y-21843999D03*
X1777999Y-24383999D03*
X1777999Y-26923999D03*
X1777999Y-29463999D03*
X1777999Y-32003999D03*
X1777999Y-34543999D03*
X1777999Y-37083999D03*
X1777999Y-39623999D03*
X1777999Y-42163999D03*
%TD*%
D18*
%TO.C,J2*%
X44777999Y-6603999D03*
D17*
X44777999Y-9143999D03*
X44777999Y-11683999D03*
X44777999Y-14223999D03*
X44777999Y-16763999D03*
X44777999Y-19303999D03*
X44777999Y-21843999D03*
X44777999Y-24383999D03*
X44777999Y-26923999D03*
X44777999Y-29463999D03*
X44777999Y-32003999D03*
X44777999Y-34543999D03*
X44777999Y-37083999D03*
X44777999Y-39623999D03*
X44777999Y-42163999D03*
%TD*%
D15*
%TO.C,J16*%
X71052163Y-55530120D03*
X66052163Y-55530120D03*
%TD*%
%TO.C,J16*%
X28052163Y-55530120D03*
X23052163Y-55530120D03*
%TD*%
D22*
%TO.C,J14*%
X23342600Y-36880800D03*
%TD*%
%TO.C,J14*%
X66342600Y-36880800D03*
%TD*%
%TO.C,J13*%
X66342600Y-40792400D03*
%TD*%
%TO.C,J13*%
X23342600Y-40792400D03*
%TD*%
D19*
%TO.C,REF\u002A\u002A*%
X37500000Y-3500000D03*
%TD*%
%TO.C,REF\u002A\u002A*%
X80500000Y-3500000D03*
%TD*%
%TO.C,REF\u002A\u002A*%
X46500000Y-47000000D03*
%TD*%
%TO.C,REF\u002A\u002A*%
X3500000Y-47000000D03*
%TD*%
D23*
%TO.C,J4*%
X48588000Y-11684000D03*
D17*
X48587999Y-14223999D03*
X48587999Y-16763999D03*
X48587999Y-19303999D03*
X48587999Y-21843999D03*
X48587999Y-24383999D03*
%TD*%
D23*
%TO.C,J4*%
X5588000Y-11684000D03*
D17*
X5587999Y-14223999D03*
X5587999Y-16763999D03*
X5587999Y-19303999D03*
X5587999Y-21843999D03*
X5587999Y-24383999D03*
%TD*%
D23*
%TO.C,J3*%
X37338000Y-9144000D03*
D17*
X37337999Y-11683999D03*
X37337999Y-14223999D03*
X37337999Y-16763999D03*
%TD*%
D23*
%TO.C,J3*%
X80338000Y-9144000D03*
D17*
X80337999Y-11683999D03*
X80337999Y-14223999D03*
X80337999Y-16763999D03*
%TD*%
D23*
%TO.C,J1*%
X32258000Y-4064000D03*
D17*
X32257999Y-6603999D03*
X32257999Y-9143999D03*
X32257999Y-11683999D03*
X32257999Y-14223999D03*
X32257999Y-16763999D03*
%TD*%
D23*
%TO.C,J1*%
X75258000Y-4064000D03*
D17*
X75257999Y-6603999D03*
X75257999Y-9143999D03*
X75257999Y-11683999D03*
X75257999Y-14223999D03*
X75257999Y-16763999D03*
%TD*%
M02*
