%TF.GenerationSoftware,KiCad,Pcbnew,(6.0.5)*%
%TF.CreationDate,2022-06-07T03:25:40-04:00*%
%TF.ProjectId,NoU2-panelized,4e6f5532-2d70-4616-9e65-6c697a65642e,rev?*%
%TF.SameCoordinates,Original*%
%TF.FileFunction,Paste,Top*%
%TF.FilePolarity,Positive*%
%FSLAX46Y46*%
G04 Gerber Fmt 4.6, Leading zero omitted, Abs format (unit mm)*
G04 Created by KiCad (PCBNEW (6.0.5)) date 2022-06-07 03:25:40*
%MOMM*%
%LPD*%
G01*
G04 APERTURE LIST*
G04 Aperture macros list*
%AMRoundRect*
0 Rectangle with rounded corners*
0 $1 Rounding radius*
0 $2 $3 $4 $5 $6 $7 $8 $9 X,Y pos of 4 corners*
0 Add a 4 corners polygon primitive as box body*
4,1,4,$2,$3,$4,$5,$6,$7,$8,$9,$2,$3,0*
0 Add four circle primitives for the rounded corners*
1,1,$1+$1,$2,$3*
1,1,$1+$1,$4,$5*
1,1,$1+$1,$6,$7*
1,1,$1+$1,$8,$9*
0 Add four rect primitives between the rounded corners*
20,1,$1+$1,$2,$3,$4,$5,0*
20,1,$1+$1,$4,$5,$6,$7,0*
20,1,$1+$1,$6,$7,$8,$9,0*
20,1,$1+$1,$8,$9,$2,$3,0*%
G04 Aperture macros list end*
%ADD10RoundRect,0.225000X0.250000X-0.225000X0.250000X0.225000X-0.250000X0.225000X-0.250000X-0.225000X0*%
%ADD11RoundRect,0.250000X-0.250000X-0.475000X0.250000X-0.475000X0.250000X0.475000X-0.250000X0.475000X0*%
%ADD12RoundRect,0.250000X0.475000X-0.250000X0.475000X0.250000X-0.475000X0.250000X-0.475000X-0.250000X0*%
%ADD13RoundRect,0.249997X-0.625003X0.312503X-0.625003X-0.312503X0.625003X-0.312503X0.625003X0.312503X0*%
%ADD14RoundRect,0.200000X0.200000X0.275000X-0.200000X0.275000X-0.200000X-0.275000X0.200000X-0.275000X0*%
%ADD15RoundRect,0.225000X-0.250000X0.225000X-0.250000X-0.225000X0.250000X-0.225000X0.250000X0.225000X0*%
%ADD16RoundRect,0.243750X-0.243750X-0.456250X0.243750X-0.456250X0.243750X0.456250X-0.243750X0.456250X0*%
%ADD17RoundRect,0.150000X-0.512500X-0.150000X0.512500X-0.150000X0.512500X0.150000X-0.512500X0.150000X0*%
%ADD18RoundRect,0.225000X0.225000X0.250000X-0.225000X0.250000X-0.225000X-0.250000X0.225000X-0.250000X0*%
%ADD19R,3.556000X2.540000*%
%ADD20RoundRect,0.100000X0.100000X-0.687500X0.100000X0.687500X-0.100000X0.687500X-0.100000X-0.687500X0*%
%ADD21RoundRect,0.250000X-1.075000X0.375000X-1.075000X-0.375000X1.075000X-0.375000X1.075000X0.375000X0*%
%ADD22RoundRect,0.249997X0.625003X-0.312503X0.625003X0.312503X-0.625003X0.312503X-0.625003X-0.312503X0*%
%ADD23RoundRect,0.250000X0.375000X1.075000X-0.375000X1.075000X-0.375000X-1.075000X0.375000X-1.075000X0*%
%ADD24RoundRect,0.200000X-0.275000X0.200000X-0.275000X-0.200000X0.275000X-0.200000X0.275000X0.200000X0*%
%ADD25RoundRect,0.200000X0.275000X-0.200000X0.275000X0.200000X-0.275000X0.200000X-0.275000X-0.200000X0*%
%ADD26RoundRect,0.200000X-0.200000X-0.275000X0.200000X-0.275000X0.200000X0.275000X-0.200000X0.275000X0*%
%ADD27RoundRect,0.225000X-0.225000X-0.250000X0.225000X-0.250000X0.225000X0.250000X-0.225000X0.250000X0*%
%ADD28RoundRect,0.250000X-0.475000X0.250000X-0.475000X-0.250000X0.475000X-0.250000X0.475000X0.250000X0*%
%ADD29RoundRect,0.100000X-0.100000X0.687500X-0.100000X-0.687500X0.100000X-0.687500X0.100000X0.687500X0*%
%ADD30R,0.900000X0.800000*%
%ADD31RoundRect,0.250000X1.500000X0.550000X-1.500000X0.550000X-1.500000X-0.550000X1.500000X-0.550000X0*%
%ADD32RoundRect,0.150000X0.150000X-0.512500X0.150000X0.512500X-0.150000X0.512500X-0.150000X-0.512500X0*%
%ADD33R,1.300000X1.700000*%
G04 APERTURE END LIST*
D10*
%TO.C,C14*%
X40440400Y-43181600D03*
X40440400Y-41631600D03*
%TD*%
D11*
%TO.C,C24*%
X81703000Y-33923000D03*
X83603000Y-33923000D03*
%TD*%
D12*
%TO.C,C2*%
X91606500Y-61543000D03*
X91606500Y-59643000D03*
%TD*%
D13*
%TO.C,R7*%
X84685000Y-53415500D03*
X84685000Y-56340500D03*
%TD*%
%TO.C,R7*%
X41685000Y-53415500D03*
X41685000Y-56340500D03*
%TD*%
D14*
%TO.C,R10*%
X35398000Y-57773600D03*
X33748000Y-57773600D03*
%TD*%
D15*
%TO.C,C5*%
X77192000Y-50039000D03*
X77192000Y-51589000D03*
%TD*%
D14*
%TO.C,R11*%
X27854200Y-57773600D03*
X26204200Y-57773600D03*
%TD*%
D16*
%TO.C,D1*%
X96599900Y-49188400D03*
X98474900Y-49188400D03*
%TD*%
D17*
%TO.C,U11*%
X86262500Y-41300000D03*
X86262500Y-42250000D03*
X86262500Y-43200000D03*
X88537500Y-43200000D03*
X88537500Y-42250000D03*
X88537500Y-41300000D03*
%TD*%
D15*
%TO.C,C1*%
X44225000Y-59640200D03*
X44225000Y-61190200D03*
%TD*%
D14*
%TO.C,R11*%
X70854200Y-57773600D03*
X69204200Y-57773600D03*
%TD*%
D18*
%TO.C,C4*%
X90286000Y-65012600D03*
X88736000Y-65012600D03*
%TD*%
D13*
%TO.C,R6*%
X69699000Y-53415500D03*
X69699000Y-56340500D03*
%TD*%
D10*
%TO.C,C7*%
X37113000Y-31904000D03*
X37113000Y-30354000D03*
%TD*%
D19*
%TO.C,U3*%
X80875000Y-53227000D03*
D20*
X78600000Y-56089500D03*
X79250000Y-56089500D03*
X79900000Y-56089500D03*
X80550000Y-56089500D03*
X81200000Y-56089500D03*
X81850000Y-56089500D03*
X82500000Y-56089500D03*
X83150000Y-56089500D03*
X83150000Y-50364500D03*
X82500000Y-50364500D03*
X81850000Y-50364500D03*
X81200000Y-50364500D03*
X80550000Y-50364500D03*
X79900000Y-50364500D03*
X79250000Y-50364500D03*
X78600000Y-50364500D03*
%TD*%
D21*
%TO.C,L1*%
X85066000Y-59701000D03*
X85066000Y-62501000D03*
%TD*%
D22*
%TO.C,R8*%
X36732000Y-28654500D03*
X36732000Y-25729500D03*
%TD*%
D23*
%TO.C,L2*%
X45117000Y-37860000D03*
X42317000Y-37860000D03*
%TD*%
D24*
%TO.C,R9*%
X44098000Y-25859000D03*
X44098000Y-27509000D03*
%TD*%
D15*
%TO.C,C5*%
X34192000Y-50039000D03*
X34192000Y-51589000D03*
%TD*%
D25*
%TO.C,R2*%
X48390600Y-64339000D03*
X48390600Y-62689000D03*
%TD*%
%TO.C,R5*%
X95175200Y-50089600D03*
X95175200Y-48439600D03*
%TD*%
D26*
%TO.C,R4*%
X41647400Y-44286200D03*
X43297400Y-44286200D03*
%TD*%
D27*
%TO.C,C13*%
X40402000Y-40095200D03*
X41952000Y-40095200D03*
%TD*%
%TO.C,C13*%
X83402000Y-40095200D03*
X84952000Y-40095200D03*
%TD*%
D25*
%TO.C,R12*%
X52175200Y-52731200D03*
X52175200Y-51081200D03*
%TD*%
D28*
%TO.C,C9*%
X34166600Y-52939940D03*
X34166600Y-54839940D03*
%TD*%
D19*
%TO.C,U2*%
X83542000Y-28716000D03*
D29*
X85817000Y-25853500D03*
X85167000Y-25853500D03*
X84517000Y-25853500D03*
X83867000Y-25853500D03*
X83217000Y-25853500D03*
X82567000Y-25853500D03*
X81917000Y-25853500D03*
X81267000Y-25853500D03*
X81267000Y-31578500D03*
X81917000Y-31578500D03*
X82567000Y-31578500D03*
X83217000Y-31578500D03*
X83867000Y-31578500D03*
X84517000Y-31578500D03*
X85167000Y-31578500D03*
X85817000Y-31578500D03*
%TD*%
D22*
%TO.C,R8*%
X79732000Y-28654500D03*
X79732000Y-25729500D03*
%TD*%
D15*
%TO.C,C6*%
X41301460Y-50023760D03*
X41301460Y-51573760D03*
%TD*%
D12*
%TO.C,C23*%
X38230600Y-48639800D03*
X38230600Y-46739800D03*
%TD*%
D30*
%TO.C,Q1*%
X96562800Y-50829200D03*
X96562800Y-52729200D03*
X98562800Y-51779200D03*
%TD*%
D24*
%TO.C,R3*%
X84558000Y-41569400D03*
X84558000Y-43219400D03*
%TD*%
D28*
%TO.C,C9*%
X77166600Y-52939940D03*
X77166600Y-54839940D03*
%TD*%
%TO.C,C8*%
X26549140Y-50102760D03*
X26549140Y-52002760D03*
%TD*%
D16*
%TO.C,D1*%
X53599900Y-49188400D03*
X55474900Y-49188400D03*
%TD*%
D11*
%TO.C,C12*%
X87481500Y-44527500D03*
X89381500Y-44527500D03*
%TD*%
D19*
%TO.C,U2*%
X40542000Y-28716000D03*
D29*
X42817000Y-25853500D03*
X42167000Y-25853500D03*
X41517000Y-25853500D03*
X40867000Y-25853500D03*
X40217000Y-25853500D03*
X39567000Y-25853500D03*
X38917000Y-25853500D03*
X38267000Y-25853500D03*
X38267000Y-31578500D03*
X38917000Y-31578500D03*
X39567000Y-31578500D03*
X40217000Y-31578500D03*
X40867000Y-31578500D03*
X41517000Y-31578500D03*
X42167000Y-31578500D03*
X42817000Y-31578500D03*
%TD*%
D10*
%TO.C,C3*%
X44225000Y-65025600D03*
X44225000Y-63475600D03*
%TD*%
D31*
%TO.C,C17*%
X36536400Y-44997400D03*
X31136400Y-44997400D03*
%TD*%
D32*
%TO.C,U10*%
X45408600Y-62213100D03*
X46358600Y-62213100D03*
X47308600Y-62213100D03*
X47308600Y-59938100D03*
X46358600Y-59938100D03*
X45408600Y-59938100D03*
%TD*%
D11*
%TO.C,C12*%
X44481500Y-44527500D03*
X46381500Y-44527500D03*
%TD*%
D19*
%TO.C,U3*%
X37875000Y-53227000D03*
D20*
X35600000Y-56089500D03*
X36250000Y-56089500D03*
X36900000Y-56089500D03*
X37550000Y-56089500D03*
X38200000Y-56089500D03*
X38850000Y-56089500D03*
X39500000Y-56089500D03*
X40150000Y-56089500D03*
X40150000Y-50364500D03*
X39500000Y-50364500D03*
X38850000Y-50364500D03*
X38200000Y-50364500D03*
X37550000Y-50364500D03*
X36900000Y-50364500D03*
X36250000Y-50364500D03*
X35600000Y-50364500D03*
%TD*%
D26*
%TO.C,R1*%
X45686000Y-63895000D03*
X47336000Y-63895000D03*
%TD*%
D15*
%TO.C,C1*%
X87225000Y-59640200D03*
X87225000Y-61190200D03*
%TD*%
D11*
%TO.C,C24*%
X38703000Y-33923000D03*
X40603000Y-33923000D03*
%TD*%
D12*
%TO.C,C10*%
X87225000Y-31571000D03*
X87225000Y-29671000D03*
%TD*%
D30*
%TO.C,Q1*%
X53562800Y-50829200D03*
X53562800Y-52729200D03*
X55562800Y-51779200D03*
%TD*%
D25*
%TO.C,R2*%
X91390600Y-64339000D03*
X91390600Y-62689000D03*
%TD*%
D12*
%TO.C,C22*%
X29366000Y-48639800D03*
X29366000Y-46739800D03*
%TD*%
D18*
%TO.C,C11*%
X88838200Y-40095200D03*
X87288200Y-40095200D03*
%TD*%
D33*
%TO.C,D2*%
X52533400Y-54395400D03*
X56033400Y-54395400D03*
%TD*%
D28*
%TO.C,C8*%
X69549140Y-50102760D03*
X69549140Y-52002760D03*
%TD*%
D13*
%TO.C,R6*%
X26699000Y-53415500D03*
X26699000Y-56340500D03*
%TD*%
D17*
%TO.C,U11*%
X43262500Y-41300000D03*
X43262500Y-42250000D03*
X43262500Y-43200000D03*
X45537500Y-43200000D03*
X45537500Y-42250000D03*
X45537500Y-41300000D03*
%TD*%
D12*
%TO.C,C2*%
X48606500Y-61543000D03*
X48606500Y-59643000D03*
%TD*%
D21*
%TO.C,L1*%
X42066000Y-59701000D03*
X42066000Y-62501000D03*
%TD*%
D12*
%TO.C,C23*%
X81230600Y-48639800D03*
X81230600Y-46739800D03*
%TD*%
%TO.C,C22*%
X72366000Y-48639800D03*
X72366000Y-46739800D03*
%TD*%
D15*
%TO.C,C6*%
X84301460Y-50023760D03*
X84301460Y-51573760D03*
%TD*%
D25*
%TO.C,R12*%
X95175200Y-52731200D03*
X95175200Y-51081200D03*
%TD*%
D14*
%TO.C,R10*%
X78398000Y-57773600D03*
X76748000Y-57773600D03*
%TD*%
D26*
%TO.C,R1*%
X88686000Y-63895000D03*
X90336000Y-63895000D03*
%TD*%
D24*
%TO.C,R3*%
X41558000Y-41569400D03*
X41558000Y-43219400D03*
%TD*%
D18*
%TO.C,C11*%
X45838200Y-40095200D03*
X44288200Y-40095200D03*
%TD*%
D24*
%TO.C,R9*%
X87098000Y-25859000D03*
X87098000Y-27509000D03*
%TD*%
D10*
%TO.C,C7*%
X80113000Y-31904000D03*
X80113000Y-30354000D03*
%TD*%
D19*
%TO.C,U1*%
X73495000Y-53227000D03*
D20*
X71220000Y-56089500D03*
X71870000Y-56089500D03*
X72520000Y-56089500D03*
X73170000Y-56089500D03*
X73820000Y-56089500D03*
X74470000Y-56089500D03*
X75120000Y-56089500D03*
X75770000Y-56089500D03*
X75770000Y-50364500D03*
X75120000Y-50364500D03*
X74470000Y-50364500D03*
X73820000Y-50364500D03*
X73170000Y-50364500D03*
X72520000Y-50364500D03*
X71870000Y-50364500D03*
X71220000Y-50364500D03*
%TD*%
D10*
%TO.C,C3*%
X87225000Y-65025600D03*
X87225000Y-63475600D03*
%TD*%
D18*
%TO.C,C4*%
X47286000Y-65012600D03*
X45736000Y-65012600D03*
%TD*%
D33*
%TO.C,D2*%
X95533400Y-54395400D03*
X99033400Y-54395400D03*
%TD*%
D12*
%TO.C,C10*%
X44225000Y-31571000D03*
X44225000Y-29671000D03*
%TD*%
D31*
%TO.C,C17*%
X79536400Y-44997400D03*
X74136400Y-44997400D03*
%TD*%
D23*
%TO.C,L2*%
X88117000Y-37860000D03*
X85317000Y-37860000D03*
%TD*%
D25*
%TO.C,R5*%
X52175200Y-50089600D03*
X52175200Y-48439600D03*
%TD*%
D26*
%TO.C,R4*%
X84647400Y-44286200D03*
X86297400Y-44286200D03*
%TD*%
D32*
%TO.C,U10*%
X88408600Y-62213100D03*
X89358600Y-62213100D03*
X90308600Y-62213100D03*
X90308600Y-59938100D03*
X89358600Y-59938100D03*
X88408600Y-59938100D03*
%TD*%
D19*
%TO.C,U1*%
X30495000Y-53227000D03*
D20*
X28220000Y-56089500D03*
X28870000Y-56089500D03*
X29520000Y-56089500D03*
X30170000Y-56089500D03*
X30820000Y-56089500D03*
X31470000Y-56089500D03*
X32120000Y-56089500D03*
X32770000Y-56089500D03*
X32770000Y-50364500D03*
X32120000Y-50364500D03*
X31470000Y-50364500D03*
X30820000Y-50364500D03*
X30170000Y-50364500D03*
X29520000Y-50364500D03*
X28870000Y-50364500D03*
X28220000Y-50364500D03*
%TD*%
D10*
%TO.C,C14*%
X83440400Y-43181600D03*
X83440400Y-41631600D03*
%TD*%
M02*
