%TF.GenerationSoftware,KiCad,Pcbnew,(7.0.0)*%
%TF.CreationDate,2023-04-25T01:58:54-04:00*%
%TF.ProjectId,NoU2-panelized2,4e6f5532-2d70-4616-9e65-6c697a656432,rev?*%
%TF.SameCoordinates,Original*%
%TF.FileFunction,Paste,Top*%
%TF.FilePolarity,Positive*%
%FSLAX46Y46*%
G04 Gerber Fmt 4.6, Leading zero omitted, Abs format (unit mm)*
G04 Created by KiCad (PCBNEW (7.0.0)) date 2023-04-25 01:58:54*
%MOMM*%
%LPD*%
G01*
G04 APERTURE LIST*
G04 Aperture macros list*
%AMRoundRect*
0 Rectangle with rounded corners*
0 $1 Rounding radius*
0 $2 $3 $4 $5 $6 $7 $8 $9 X,Y pos of 4 corners*
0 Add a 4 corners polygon primitive as box body*
4,1,4,$2,$3,$4,$5,$6,$7,$8,$9,$2,$3,0*
0 Add four circle primitives for the rounded corners*
1,1,$1+$1,$2,$3*
1,1,$1+$1,$4,$5*
1,1,$1+$1,$6,$7*
1,1,$1+$1,$8,$9*
0 Add four rect primitives between the rounded corners*
20,1,$1+$1,$2,$3,$4,$5,0*
20,1,$1+$1,$4,$5,$6,$7,0*
20,1,$1+$1,$6,$7,$8,$9,0*
20,1,$1+$1,$8,$9,$2,$3,0*%
G04 Aperture macros list end*
%ADD10R,3.556000X2.540000*%
%ADD11RoundRect,0.100000X0.100000X-0.687500X0.100000X0.687500X-0.100000X0.687500X-0.100000X-0.687500X0*%
%ADD12RoundRect,0.135000X0.135000X0.185000X-0.135000X0.185000X-0.135000X-0.185000X0.135000X-0.185000X0*%
%ADD13RoundRect,0.200000X0.275000X-0.200000X0.275000X0.200000X-0.275000X0.200000X-0.275000X-0.200000X0*%
%ADD14RoundRect,0.200000X-0.275000X0.200000X-0.275000X-0.200000X0.275000X-0.200000X0.275000X0.200000X0*%
%ADD15RoundRect,0.150000X-0.512500X-0.150000X0.512500X-0.150000X0.512500X0.150000X-0.512500X0.150000X0*%
%ADD16RoundRect,0.250000X-0.250000X-0.250000X0.250000X-0.250000X0.250000X0.250000X-0.250000X0.250000X0*%
%ADD17RoundRect,0.135000X-0.135000X-0.185000X0.135000X-0.185000X0.135000X0.185000X-0.135000X0.185000X0*%
%ADD18RoundRect,0.250000X1.500000X0.550000X-1.500000X0.550000X-1.500000X-0.550000X1.500000X-0.550000X0*%
%ADD19RoundRect,0.150000X0.150000X-0.512500X0.150000X0.512500X-0.150000X0.512500X-0.150000X-0.512500X0*%
%ADD20RoundRect,0.243750X-0.243750X-0.456250X0.243750X-0.456250X0.243750X0.456250X-0.243750X0.456250X0*%
%ADD21RoundRect,0.100000X-0.100000X0.687500X-0.100000X-0.687500X0.100000X-0.687500X0.100000X0.687500X0*%
%ADD22RoundRect,0.200000X0.200000X0.275000X-0.200000X0.275000X-0.200000X-0.275000X0.200000X-0.275000X0*%
%ADD23RoundRect,0.200000X-0.200000X-0.275000X0.200000X-0.275000X0.200000X0.275000X-0.200000X0.275000X0*%
%ADD24RoundRect,0.150000X-0.150000X0.400000X-0.150000X-0.400000X0.150000X-0.400000X0.150000X0.400000X0*%
%ADD25RoundRect,0.250000X0.375000X1.075000X-0.375000X1.075000X-0.375000X-1.075000X0.375000X-1.075000X0*%
%ADD26RoundRect,0.250000X-1.075000X0.375000X-1.075000X-0.375000X1.075000X-0.375000X1.075000X0.375000X0*%
%ADD27RoundRect,0.250000X-0.250000X-0.475000X0.250000X-0.475000X0.250000X0.475000X-0.250000X0.475000X0*%
%ADD28RoundRect,0.250000X0.475000X-0.250000X0.475000X0.250000X-0.475000X0.250000X-0.475000X-0.250000X0*%
%ADD29RoundRect,0.225000X0.250000X-0.225000X0.250000X0.225000X-0.250000X0.225000X-0.250000X-0.225000X0*%
%ADD30RoundRect,0.225000X-0.225000X-0.250000X0.225000X-0.250000X0.225000X0.250000X-0.225000X0.250000X0*%
%ADD31RoundRect,0.225000X0.225000X0.250000X-0.225000X0.250000X-0.225000X-0.250000X0.225000X-0.250000X0*%
%ADD32RoundRect,0.250000X-0.475000X0.250000X-0.475000X-0.250000X0.475000X-0.250000X0.475000X0.250000X0*%
%ADD33RoundRect,0.225000X-0.250000X0.225000X-0.250000X-0.225000X0.250000X-0.225000X0.250000X0.225000X0*%
G04 APERTURE END LIST*
D10*
%TO.C,U1*%
X187491965Y-227222344D03*
D11*
X185216966Y-230084845D03*
X185866966Y-230084845D03*
X186516966Y-230084845D03*
X187166966Y-230084845D03*
X187816966Y-230084845D03*
X188466966Y-230084845D03*
X189116966Y-230084845D03*
X189766966Y-230084845D03*
X189766966Y-224359845D03*
X189116966Y-224359845D03*
X188466966Y-224359845D03*
X187816966Y-224359845D03*
X187166966Y-224359845D03*
X186516966Y-224359845D03*
X185866966Y-224359845D03*
X185216966Y-224359845D03*
%TD*%
D10*
%TO.C,U1*%
X101491965Y-227222344D03*
D11*
X99216966Y-230084845D03*
X99866966Y-230084845D03*
X100516966Y-230084845D03*
X101166966Y-230084845D03*
X101816966Y-230084845D03*
X102466966Y-230084845D03*
X103116966Y-230084845D03*
X103766966Y-230084845D03*
X103766966Y-224359845D03*
X103116966Y-224359845D03*
X102466966Y-224359845D03*
X101816966Y-224359845D03*
X101166966Y-224359845D03*
X100516966Y-224359845D03*
X99866966Y-224359845D03*
X99216966Y-224359845D03*
%TD*%
D10*
%TO.C,U1*%
X144491965Y-227222344D03*
D11*
X142216966Y-230084845D03*
X142866966Y-230084845D03*
X143516966Y-230084845D03*
X144166966Y-230084845D03*
X144816966Y-230084845D03*
X145466966Y-230084845D03*
X146116966Y-230084845D03*
X146766966Y-230084845D03*
X146766966Y-224359845D03*
X146116966Y-224359845D03*
X145466966Y-224359845D03*
X144816966Y-224359845D03*
X144166966Y-224359845D03*
X143516966Y-224359845D03*
X142866966Y-224359845D03*
X142216966Y-224359845D03*
%TD*%
D10*
%TO.C,U1*%
X58491965Y-164222344D03*
D11*
X56216966Y-167084845D03*
X56866966Y-167084845D03*
X57516966Y-167084845D03*
X58166966Y-167084845D03*
X58816966Y-167084845D03*
X59466966Y-167084845D03*
X60116966Y-167084845D03*
X60766966Y-167084845D03*
X60766966Y-161359845D03*
X60116966Y-161359845D03*
X59466966Y-161359845D03*
X58816966Y-161359845D03*
X58166966Y-161359845D03*
X57516966Y-161359845D03*
X56866966Y-161359845D03*
X56216966Y-161359845D03*
%TD*%
D10*
%TO.C,U1*%
X15491965Y-164222344D03*
D11*
X13216966Y-167084845D03*
X13866966Y-167084845D03*
X14516966Y-167084845D03*
X15166966Y-167084845D03*
X15816966Y-167084845D03*
X16466966Y-167084845D03*
X17116966Y-167084845D03*
X17766966Y-167084845D03*
X17766966Y-161359845D03*
X17116966Y-161359845D03*
X16466966Y-161359845D03*
X15816966Y-161359845D03*
X15166966Y-161359845D03*
X14516966Y-161359845D03*
X13866966Y-161359845D03*
X13216966Y-161359845D03*
%TD*%
D10*
%TO.C,U1*%
X101491965Y-164222344D03*
D11*
X99216966Y-167084845D03*
X99866966Y-167084845D03*
X100516966Y-167084845D03*
X101166966Y-167084845D03*
X101816966Y-167084845D03*
X102466966Y-167084845D03*
X103116966Y-167084845D03*
X103766966Y-167084845D03*
X103766966Y-161359845D03*
X103116966Y-161359845D03*
X102466966Y-161359845D03*
X101816966Y-161359845D03*
X101166966Y-161359845D03*
X100516966Y-161359845D03*
X99866966Y-161359845D03*
X99216966Y-161359845D03*
%TD*%
D10*
%TO.C,U1*%
X144491965Y-101222344D03*
D11*
X142216966Y-104084845D03*
X142866966Y-104084845D03*
X143516966Y-104084845D03*
X144166966Y-104084845D03*
X144816966Y-104084845D03*
X145466966Y-104084845D03*
X146116966Y-104084845D03*
X146766966Y-104084845D03*
X146766966Y-98359845D03*
X146116966Y-98359845D03*
X145466966Y-98359845D03*
X144816966Y-98359845D03*
X144166966Y-98359845D03*
X143516966Y-98359845D03*
X142866966Y-98359845D03*
X142216966Y-98359845D03*
%TD*%
D10*
%TO.C,U1*%
X15491965Y-227222344D03*
D11*
X13216966Y-230084845D03*
X13866966Y-230084845D03*
X14516966Y-230084845D03*
X15166966Y-230084845D03*
X15816966Y-230084845D03*
X16466966Y-230084845D03*
X17116966Y-230084845D03*
X17766966Y-230084845D03*
X17766966Y-224359845D03*
X17116966Y-224359845D03*
X16466966Y-224359845D03*
X15816966Y-224359845D03*
X15166966Y-224359845D03*
X14516966Y-224359845D03*
X13866966Y-224359845D03*
X13216966Y-224359845D03*
%TD*%
D10*
%TO.C,U1*%
X58491965Y-227222344D03*
D11*
X56216966Y-230084845D03*
X56866966Y-230084845D03*
X57516966Y-230084845D03*
X58166966Y-230084845D03*
X58816966Y-230084845D03*
X59466966Y-230084845D03*
X60116966Y-230084845D03*
X60766966Y-230084845D03*
X60766966Y-224359845D03*
X60116966Y-224359845D03*
X59466966Y-224359845D03*
X58816966Y-224359845D03*
X58166966Y-224359845D03*
X57516966Y-224359845D03*
X56866966Y-224359845D03*
X56216966Y-224359845D03*
%TD*%
D10*
%TO.C,U1*%
X187491965Y-164222344D03*
D11*
X185216966Y-167084845D03*
X185866966Y-167084845D03*
X186516966Y-167084845D03*
X187166966Y-167084845D03*
X187816966Y-167084845D03*
X188466966Y-167084845D03*
X189116966Y-167084845D03*
X189766966Y-167084845D03*
X189766966Y-161359845D03*
X189116966Y-161359845D03*
X188466966Y-161359845D03*
X187816966Y-161359845D03*
X187166966Y-161359845D03*
X186516966Y-161359845D03*
X185866966Y-161359845D03*
X185216966Y-161359845D03*
%TD*%
D10*
%TO.C,U1*%
X101491965Y-101222344D03*
D11*
X99216966Y-104084845D03*
X99866966Y-104084845D03*
X100516966Y-104084845D03*
X101166966Y-104084845D03*
X101816966Y-104084845D03*
X102466966Y-104084845D03*
X103116966Y-104084845D03*
X103766966Y-104084845D03*
X103766966Y-98359845D03*
X103116966Y-98359845D03*
X102466966Y-98359845D03*
X101816966Y-98359845D03*
X101166966Y-98359845D03*
X100516966Y-98359845D03*
X99866966Y-98359845D03*
X99216966Y-98359845D03*
%TD*%
D10*
%TO.C,U1*%
X15491965Y-101222344D03*
D11*
X13216966Y-104084845D03*
X13866966Y-104084845D03*
X14516966Y-104084845D03*
X15166966Y-104084845D03*
X15816966Y-104084845D03*
X16466966Y-104084845D03*
X17116966Y-104084845D03*
X17766966Y-104084845D03*
X17766966Y-98359845D03*
X17116966Y-98359845D03*
X16466966Y-98359845D03*
X15816966Y-98359845D03*
X15166966Y-98359845D03*
X14516966Y-98359845D03*
X13866966Y-98359845D03*
X13216966Y-98359845D03*
%TD*%
D10*
%TO.C,U1*%
X144491965Y-38222344D03*
D11*
X142216966Y-41084845D03*
X142866966Y-41084845D03*
X143516966Y-41084845D03*
X144166966Y-41084845D03*
X144816966Y-41084845D03*
X145466966Y-41084845D03*
X146116966Y-41084845D03*
X146766966Y-41084845D03*
X146766966Y-35359845D03*
X146116966Y-35359845D03*
X145466966Y-35359845D03*
X144816966Y-35359845D03*
X144166966Y-35359845D03*
X143516966Y-35359845D03*
X142866966Y-35359845D03*
X142216966Y-35359845D03*
%TD*%
D10*
%TO.C,U1*%
X187491965Y-38222344D03*
D11*
X185216966Y-41084845D03*
X185866966Y-41084845D03*
X186516966Y-41084845D03*
X187166966Y-41084845D03*
X187816966Y-41084845D03*
X188466966Y-41084845D03*
X189116966Y-41084845D03*
X189766966Y-41084845D03*
X189766966Y-35359845D03*
X189116966Y-35359845D03*
X188466966Y-35359845D03*
X187816966Y-35359845D03*
X187166966Y-35359845D03*
X186516966Y-35359845D03*
X185866966Y-35359845D03*
X185216966Y-35359845D03*
%TD*%
D10*
%TO.C,U1*%
X58491965Y-101222344D03*
D11*
X56216966Y-104084845D03*
X56866966Y-104084845D03*
X57516966Y-104084845D03*
X58166966Y-104084845D03*
X58816966Y-104084845D03*
X59466966Y-104084845D03*
X60116966Y-104084845D03*
X60766966Y-104084845D03*
X60766966Y-98359845D03*
X60116966Y-98359845D03*
X59466966Y-98359845D03*
X58816966Y-98359845D03*
X58166966Y-98359845D03*
X57516966Y-98359845D03*
X56866966Y-98359845D03*
X56216966Y-98359845D03*
%TD*%
D10*
%TO.C,U1*%
X101491965Y-38222344D03*
D11*
X99216966Y-41084845D03*
X99866966Y-41084845D03*
X100516966Y-41084845D03*
X101166966Y-41084845D03*
X101816966Y-41084845D03*
X102466966Y-41084845D03*
X103116966Y-41084845D03*
X103766966Y-41084845D03*
X103766966Y-35359845D03*
X103116966Y-35359845D03*
X102466966Y-35359845D03*
X101816966Y-35359845D03*
X101166966Y-35359845D03*
X100516966Y-35359845D03*
X99866966Y-35359845D03*
X99216966Y-35359845D03*
%TD*%
D10*
%TO.C,U1*%
X144491965Y-164222344D03*
D11*
X142216966Y-167084845D03*
X142866966Y-167084845D03*
X143516966Y-167084845D03*
X144166966Y-167084845D03*
X144816966Y-167084845D03*
X145466966Y-167084845D03*
X146116966Y-167084845D03*
X146766966Y-167084845D03*
X146766966Y-161359845D03*
X146116966Y-161359845D03*
X145466966Y-161359845D03*
X144816966Y-161359845D03*
X144166966Y-161359845D03*
X143516966Y-161359845D03*
X142866966Y-161359845D03*
X142216966Y-161359845D03*
%TD*%
D10*
%TO.C,U1*%
X58491965Y-38222344D03*
D11*
X56216966Y-41084845D03*
X56866966Y-41084845D03*
X57516966Y-41084845D03*
X58166966Y-41084845D03*
X58816966Y-41084845D03*
X59466966Y-41084845D03*
X60116966Y-41084845D03*
X60766966Y-41084845D03*
X60766966Y-35359845D03*
X60116966Y-35359845D03*
X59466966Y-35359845D03*
X58816966Y-35359845D03*
X58166966Y-35359845D03*
X57516966Y-35359845D03*
X56866966Y-35359845D03*
X56216966Y-35359845D03*
%TD*%
D10*
%TO.C,U1*%
X15491965Y-38222344D03*
D11*
X13216966Y-41084845D03*
X13866966Y-41084845D03*
X14516966Y-41084845D03*
X15166966Y-41084845D03*
X15816966Y-41084845D03*
X16466966Y-41084845D03*
X17116966Y-41084845D03*
X17766966Y-41084845D03*
X17766966Y-35359845D03*
X17116966Y-35359845D03*
X16466966Y-35359845D03*
X15816966Y-35359845D03*
X15166966Y-35359845D03*
X14516966Y-35359845D03*
X13866966Y-35359845D03*
X13216966Y-35359845D03*
%TD*%
D10*
%TO.C,U1*%
X187491965Y-101222344D03*
D11*
X185216966Y-104084845D03*
X185866966Y-104084845D03*
X186516966Y-104084845D03*
X187166966Y-104084845D03*
X187816966Y-104084845D03*
X188466966Y-104084845D03*
X189116966Y-104084845D03*
X189766966Y-104084845D03*
X189766966Y-98359845D03*
X189116966Y-98359845D03*
X188466966Y-98359845D03*
X187816966Y-98359845D03*
X187166966Y-98359845D03*
X186516966Y-98359845D03*
X185866966Y-98359845D03*
X185216966Y-98359845D03*
%TD*%
D12*
%TO.C,R5*%
X218861000Y-161560000D03*
X217841000Y-161560000D03*
%TD*%
%TO.C,R5*%
X175861000Y-224560000D03*
X174841000Y-224560000D03*
%TD*%
%TO.C,R5*%
X46861000Y-224560000D03*
X45841000Y-224560000D03*
%TD*%
%TO.C,R5*%
X132861000Y-224560000D03*
X131841000Y-224560000D03*
%TD*%
%TO.C,R5*%
X89861000Y-161560000D03*
X88841000Y-161560000D03*
%TD*%
%TO.C,R5*%
X89861000Y-224560000D03*
X88841000Y-224560000D03*
%TD*%
%TO.C,R5*%
X218861000Y-224560000D03*
X217841000Y-224560000D03*
%TD*%
%TO.C,R5*%
X132861000Y-161560000D03*
X131841000Y-161560000D03*
%TD*%
%TO.C,R5*%
X175861000Y-98560000D03*
X174841000Y-98560000D03*
%TD*%
%TO.C,R5*%
X218861000Y-98560000D03*
X217841000Y-98560000D03*
%TD*%
%TO.C,R5*%
X132861000Y-98560000D03*
X131841000Y-98560000D03*
%TD*%
%TO.C,R5*%
X46861000Y-98560000D03*
X45841000Y-98560000D03*
%TD*%
%TO.C,R5*%
X218861000Y-35560000D03*
X217841000Y-35560000D03*
%TD*%
%TO.C,R5*%
X175861000Y-35560000D03*
X174841000Y-35560000D03*
%TD*%
%TO.C,R5*%
X175861000Y-161560000D03*
X174841000Y-161560000D03*
%TD*%
%TO.C,R5*%
X89861000Y-35560000D03*
X88841000Y-35560000D03*
%TD*%
%TO.C,R5*%
X46861000Y-161560000D03*
X45841000Y-161560000D03*
%TD*%
%TO.C,R5*%
X46861000Y-35560000D03*
X45841000Y-35560000D03*
%TD*%
%TO.C,R5*%
X89861000Y-98560000D03*
X88841000Y-98560000D03*
%TD*%
%TO.C,R5*%
X132861000Y-35560000D03*
X131841000Y-35560000D03*
%TD*%
D13*
%TO.C,R8*%
X21733000Y-201509000D03*
X21733000Y-199859000D03*
%TD*%
%TO.C,R8*%
X64733000Y-138509000D03*
X64733000Y-136859000D03*
%TD*%
%TO.C,R8*%
X150733000Y-75509000D03*
X150733000Y-73859000D03*
%TD*%
%TO.C,R8*%
X21733000Y-75509000D03*
X21733000Y-73859000D03*
%TD*%
%TO.C,R8*%
X107733000Y-75509000D03*
X107733000Y-73859000D03*
%TD*%
%TO.C,R8*%
X193733000Y-138509000D03*
X193733000Y-136859000D03*
%TD*%
%TO.C,R8*%
X107733000Y-138509000D03*
X107733000Y-136859000D03*
%TD*%
%TO.C,R8*%
X193733000Y-12509000D03*
X193733000Y-10859000D03*
%TD*%
%TO.C,R8*%
X193733000Y-201509000D03*
X193733000Y-199859000D03*
%TD*%
%TO.C,R8*%
X150733000Y-201509000D03*
X150733000Y-199859000D03*
%TD*%
%TO.C,R8*%
X64733000Y-201509000D03*
X64733000Y-199859000D03*
%TD*%
%TO.C,R8*%
X64733000Y-75509000D03*
X64733000Y-73859000D03*
%TD*%
%TO.C,R8*%
X107733000Y-201509000D03*
X107733000Y-199859000D03*
%TD*%
%TO.C,R8*%
X21733000Y-138509000D03*
X21733000Y-136859000D03*
%TD*%
%TO.C,R8*%
X193733000Y-75509000D03*
X193733000Y-73859000D03*
%TD*%
%TO.C,R8*%
X150733000Y-138509000D03*
X150733000Y-136859000D03*
%TD*%
%TO.C,R8*%
X21733000Y-12509000D03*
X21733000Y-10859000D03*
%TD*%
%TO.C,R8*%
X150733000Y-12509000D03*
X150733000Y-10859000D03*
%TD*%
%TO.C,R8*%
X64733000Y-12509000D03*
X64733000Y-10859000D03*
%TD*%
%TO.C,R8*%
X107733000Y-12509000D03*
X107733000Y-10859000D03*
%TD*%
D14*
%TO.C,R7*%
X198813000Y-228561000D03*
X198813000Y-230211000D03*
%TD*%
%TO.C,R7*%
X112813000Y-228561000D03*
X112813000Y-230211000D03*
%TD*%
%TO.C,R7*%
X112813000Y-165561000D03*
X112813000Y-167211000D03*
%TD*%
%TO.C,R7*%
X198813000Y-165561000D03*
X198813000Y-167211000D03*
%TD*%
%TO.C,R7*%
X155813000Y-228561000D03*
X155813000Y-230211000D03*
%TD*%
%TO.C,R7*%
X69813000Y-228561000D03*
X69813000Y-230211000D03*
%TD*%
%TO.C,R7*%
X26813000Y-228561000D03*
X26813000Y-230211000D03*
%TD*%
%TO.C,R7*%
X69813000Y-165561000D03*
X69813000Y-167211000D03*
%TD*%
%TO.C,R7*%
X26813000Y-165561000D03*
X26813000Y-167211000D03*
%TD*%
%TO.C,R7*%
X155813000Y-102561000D03*
X155813000Y-104211000D03*
%TD*%
%TO.C,R7*%
X26813000Y-102561000D03*
X26813000Y-104211000D03*
%TD*%
%TO.C,R7*%
X198813000Y-39561000D03*
X198813000Y-41211000D03*
%TD*%
%TO.C,R7*%
X26813000Y-39561000D03*
X26813000Y-41211000D03*
%TD*%
%TO.C,R7*%
X112813000Y-102561000D03*
X112813000Y-104211000D03*
%TD*%
%TO.C,R7*%
X69813000Y-102561000D03*
X69813000Y-104211000D03*
%TD*%
%TO.C,R7*%
X155813000Y-39561000D03*
X155813000Y-41211000D03*
%TD*%
%TO.C,R7*%
X155813000Y-165561000D03*
X155813000Y-167211000D03*
%TD*%
%TO.C,R7*%
X112813000Y-39561000D03*
X112813000Y-41211000D03*
%TD*%
%TO.C,R7*%
X69813000Y-39561000D03*
X69813000Y-41211000D03*
%TD*%
%TO.C,R7*%
X198813000Y-102561000D03*
X198813000Y-104211000D03*
%TD*%
D15*
%TO.C,U11*%
X200263500Y-152300000D03*
X200263500Y-153250000D03*
X200263500Y-154200000D03*
X202538500Y-154200000D03*
X202538500Y-153250000D03*
X202538500Y-152300000D03*
%TD*%
%TO.C,U11*%
X71263500Y-215300000D03*
X71263500Y-216250000D03*
X71263500Y-217200000D03*
X73538500Y-217200000D03*
X73538500Y-216250000D03*
X73538500Y-215300000D03*
%TD*%
%TO.C,U11*%
X200263500Y-215300000D03*
X200263500Y-216250000D03*
X200263500Y-217200000D03*
X202538500Y-217200000D03*
X202538500Y-216250000D03*
X202538500Y-215300000D03*
%TD*%
%TO.C,U11*%
X28263500Y-215300000D03*
X28263500Y-216250000D03*
X28263500Y-217200000D03*
X30538500Y-217200000D03*
X30538500Y-216250000D03*
X30538500Y-215300000D03*
%TD*%
%TO.C,U11*%
X157263500Y-215300000D03*
X157263500Y-216250000D03*
X157263500Y-217200000D03*
X159538500Y-217200000D03*
X159538500Y-216250000D03*
X159538500Y-215300000D03*
%TD*%
%TO.C,U11*%
X28263500Y-152300000D03*
X28263500Y-153250000D03*
X28263500Y-154200000D03*
X30538500Y-154200000D03*
X30538500Y-153250000D03*
X30538500Y-152300000D03*
%TD*%
%TO.C,U11*%
X114263500Y-215300000D03*
X114263500Y-216250000D03*
X114263500Y-217200000D03*
X116538500Y-217200000D03*
X116538500Y-216250000D03*
X116538500Y-215300000D03*
%TD*%
%TO.C,U11*%
X71263500Y-152300000D03*
X71263500Y-153250000D03*
X71263500Y-154200000D03*
X73538500Y-154200000D03*
X73538500Y-153250000D03*
X73538500Y-152300000D03*
%TD*%
%TO.C,U11*%
X157263500Y-152300000D03*
X157263500Y-153250000D03*
X157263500Y-154200000D03*
X159538500Y-154200000D03*
X159538500Y-153250000D03*
X159538500Y-152300000D03*
%TD*%
%TO.C,U11*%
X157263500Y-89300000D03*
X157263500Y-90250000D03*
X157263500Y-91200000D03*
X159538500Y-91200000D03*
X159538500Y-90250000D03*
X159538500Y-89300000D03*
%TD*%
%TO.C,U11*%
X200263500Y-89300000D03*
X200263500Y-90250000D03*
X200263500Y-91200000D03*
X202538500Y-91200000D03*
X202538500Y-90250000D03*
X202538500Y-89300000D03*
%TD*%
%TO.C,U11*%
X114263500Y-89300000D03*
X114263500Y-90250000D03*
X114263500Y-91200000D03*
X116538500Y-91200000D03*
X116538500Y-90250000D03*
X116538500Y-89300000D03*
%TD*%
%TO.C,U11*%
X28263500Y-89300000D03*
X28263500Y-90250000D03*
X28263500Y-91200000D03*
X30538500Y-91200000D03*
X30538500Y-90250000D03*
X30538500Y-89300000D03*
%TD*%
%TO.C,U11*%
X200263500Y-26300000D03*
X200263500Y-27250000D03*
X200263500Y-28200000D03*
X202538500Y-28200000D03*
X202538500Y-27250000D03*
X202538500Y-26300000D03*
%TD*%
%TO.C,U11*%
X71263500Y-26300000D03*
X71263500Y-27250000D03*
X71263500Y-28200000D03*
X73538500Y-28200000D03*
X73538500Y-27250000D03*
X73538500Y-26300000D03*
%TD*%
%TO.C,U11*%
X71263500Y-89300000D03*
X71263500Y-90250000D03*
X71263500Y-91200000D03*
X73538500Y-91200000D03*
X73538500Y-90250000D03*
X73538500Y-89300000D03*
%TD*%
%TO.C,U11*%
X157263500Y-26300000D03*
X157263500Y-27250000D03*
X157263500Y-28200000D03*
X159538500Y-28200000D03*
X159538500Y-27250000D03*
X159538500Y-26300000D03*
%TD*%
%TO.C,U11*%
X114263500Y-26300000D03*
X114263500Y-27250000D03*
X114263500Y-28200000D03*
X116538500Y-28200000D03*
X116538500Y-27250000D03*
X116538500Y-26300000D03*
%TD*%
%TO.C,U11*%
X28263500Y-26300000D03*
X28263500Y-27250000D03*
X28263500Y-28200000D03*
X30538500Y-28200000D03*
X30538500Y-27250000D03*
X30538500Y-26300000D03*
%TD*%
%TO.C,U11*%
X114263500Y-152300000D03*
X114263500Y-153250000D03*
X114263500Y-154200000D03*
X116538500Y-154200000D03*
X116538500Y-153250000D03*
X116538500Y-152300000D03*
%TD*%
D14*
%TO.C,R6*%
X97319000Y-228561000D03*
X97319000Y-230211000D03*
%TD*%
%TO.C,R6*%
X183319000Y-102561000D03*
X183319000Y-104211000D03*
%TD*%
%TO.C,R6*%
X183319000Y-228561000D03*
X183319000Y-230211000D03*
%TD*%
%TO.C,R6*%
X140319000Y-102561000D03*
X140319000Y-104211000D03*
%TD*%
%TO.C,R6*%
X183319000Y-165561000D03*
X183319000Y-167211000D03*
%TD*%
%TO.C,R6*%
X97319000Y-165561000D03*
X97319000Y-167211000D03*
%TD*%
%TO.C,R6*%
X11319000Y-165561000D03*
X11319000Y-167211000D03*
%TD*%
%TO.C,R6*%
X140319000Y-228561000D03*
X140319000Y-230211000D03*
%TD*%
%TO.C,R6*%
X54319000Y-228561000D03*
X54319000Y-230211000D03*
%TD*%
%TO.C,R6*%
X54319000Y-165561000D03*
X54319000Y-167211000D03*
%TD*%
%TO.C,R6*%
X11319000Y-228561000D03*
X11319000Y-230211000D03*
%TD*%
%TO.C,R6*%
X140319000Y-165561000D03*
X140319000Y-167211000D03*
%TD*%
%TO.C,R6*%
X11319000Y-102561000D03*
X11319000Y-104211000D03*
%TD*%
%TO.C,R6*%
X183319000Y-39561000D03*
X183319000Y-41211000D03*
%TD*%
%TO.C,R6*%
X140319000Y-39561000D03*
X140319000Y-41211000D03*
%TD*%
%TO.C,R6*%
X54319000Y-39561000D03*
X54319000Y-41211000D03*
%TD*%
%TO.C,R6*%
X11319000Y-39561000D03*
X11319000Y-41211000D03*
%TD*%
%TO.C,R6*%
X97319000Y-102561000D03*
X97319000Y-104211000D03*
%TD*%
%TO.C,R6*%
X54319000Y-102561000D03*
X54319000Y-104211000D03*
%TD*%
%TO.C,R6*%
X97319000Y-39561000D03*
X97319000Y-41211000D03*
%TD*%
D16*
%TO.C,D3*%
X173085000Y-226084000D03*
X175585000Y-226084000D03*
%TD*%
%TO.C,D3*%
X130085000Y-226084000D03*
X132585000Y-226084000D03*
%TD*%
%TO.C,D3*%
X87085000Y-226084000D03*
X89585000Y-226084000D03*
%TD*%
%TO.C,D3*%
X44085000Y-226084000D03*
X46585000Y-226084000D03*
%TD*%
%TO.C,D3*%
X216085000Y-226084000D03*
X218585000Y-226084000D03*
%TD*%
%TO.C,D3*%
X173085000Y-163084000D03*
X175585000Y-163084000D03*
%TD*%
%TO.C,D3*%
X216085000Y-163084000D03*
X218585000Y-163084000D03*
%TD*%
%TO.C,D3*%
X44085000Y-163084000D03*
X46585000Y-163084000D03*
%TD*%
%TO.C,D3*%
X173085000Y-100084000D03*
X175585000Y-100084000D03*
%TD*%
%TO.C,D3*%
X216085000Y-100084000D03*
X218585000Y-100084000D03*
%TD*%
%TO.C,D3*%
X44085000Y-100084000D03*
X46585000Y-100084000D03*
%TD*%
%TO.C,D3*%
X216085000Y-37084000D03*
X218585000Y-37084000D03*
%TD*%
%TO.C,D3*%
X173085000Y-37084000D03*
X175585000Y-37084000D03*
%TD*%
%TO.C,D3*%
X130085000Y-37084000D03*
X132585000Y-37084000D03*
%TD*%
%TO.C,D3*%
X87085000Y-37084000D03*
X89585000Y-37084000D03*
%TD*%
%TO.C,D3*%
X44085000Y-37084000D03*
X46585000Y-37084000D03*
%TD*%
%TO.C,D3*%
X87085000Y-100084000D03*
X89585000Y-100084000D03*
%TD*%
%TO.C,D3*%
X87085000Y-163084000D03*
X89585000Y-163084000D03*
%TD*%
%TO.C,D3*%
X130085000Y-163084000D03*
X132585000Y-163084000D03*
%TD*%
%TO.C,D3*%
X130085000Y-100084000D03*
X132585000Y-100084000D03*
%TD*%
D17*
%TO.C,R14*%
X86809000Y-224560000D03*
X87829000Y-224560000D03*
%TD*%
%TO.C,R14*%
X172809000Y-161560000D03*
X173829000Y-161560000D03*
%TD*%
%TO.C,R14*%
X172809000Y-98560000D03*
X173829000Y-98560000D03*
%TD*%
%TO.C,R14*%
X129809000Y-161560000D03*
X130829000Y-161560000D03*
%TD*%
%TO.C,R14*%
X43809000Y-98560000D03*
X44829000Y-98560000D03*
%TD*%
%TO.C,R14*%
X215809000Y-98560000D03*
X216829000Y-98560000D03*
%TD*%
%TO.C,R14*%
X129809000Y-35560000D03*
X130829000Y-35560000D03*
%TD*%
%TO.C,R14*%
X129809000Y-224560000D03*
X130829000Y-224560000D03*
%TD*%
%TO.C,R14*%
X215809000Y-161560000D03*
X216829000Y-161560000D03*
%TD*%
%TO.C,R14*%
X86809000Y-98560000D03*
X87829000Y-98560000D03*
%TD*%
%TO.C,R14*%
X86809000Y-161560000D03*
X87829000Y-161560000D03*
%TD*%
%TO.C,R14*%
X215809000Y-35560000D03*
X216829000Y-35560000D03*
%TD*%
%TO.C,R14*%
X172809000Y-224560000D03*
X173829000Y-224560000D03*
%TD*%
%TO.C,R14*%
X215809000Y-224560000D03*
X216829000Y-224560000D03*
%TD*%
%TO.C,R14*%
X43809000Y-224560000D03*
X44829000Y-224560000D03*
%TD*%
%TO.C,R14*%
X43809000Y-161560000D03*
X44829000Y-161560000D03*
%TD*%
%TO.C,R14*%
X129809000Y-98560000D03*
X130829000Y-98560000D03*
%TD*%
%TO.C,R14*%
X86809000Y-35560000D03*
X87829000Y-35560000D03*
%TD*%
%TO.C,R14*%
X43809000Y-35560000D03*
X44829000Y-35560000D03*
%TD*%
%TO.C,R14*%
X172809000Y-35560000D03*
X173829000Y-35560000D03*
%TD*%
D18*
%TO.C,C17*%
X107537400Y-218997400D03*
X102137400Y-218997400D03*
%TD*%
%TO.C,C17*%
X150537400Y-218997400D03*
X145137400Y-218997400D03*
%TD*%
%TO.C,C17*%
X21537400Y-218997400D03*
X16137400Y-218997400D03*
%TD*%
%TO.C,C17*%
X64537400Y-155997400D03*
X59137400Y-155997400D03*
%TD*%
%TO.C,C17*%
X150537400Y-92997400D03*
X145137400Y-92997400D03*
%TD*%
%TO.C,C17*%
X193537400Y-92997400D03*
X188137400Y-92997400D03*
%TD*%
%TO.C,C17*%
X64537400Y-92997400D03*
X59137400Y-92997400D03*
%TD*%
%TO.C,C17*%
X107537400Y-29997400D03*
X102137400Y-29997400D03*
%TD*%
%TO.C,C17*%
X21537400Y-29997400D03*
X16137400Y-29997400D03*
%TD*%
%TO.C,C17*%
X21537400Y-92997400D03*
X16137400Y-92997400D03*
%TD*%
%TO.C,C17*%
X107537400Y-155997400D03*
X102137400Y-155997400D03*
%TD*%
%TO.C,C17*%
X107537400Y-92997400D03*
X102137400Y-92997400D03*
%TD*%
%TO.C,C17*%
X150537400Y-155997400D03*
X145137400Y-155997400D03*
%TD*%
%TO.C,C17*%
X193537400Y-218997400D03*
X188137400Y-218997400D03*
%TD*%
%TO.C,C17*%
X150537400Y-29997400D03*
X145137400Y-29997400D03*
%TD*%
%TO.C,C17*%
X64537400Y-218997400D03*
X59137400Y-218997400D03*
%TD*%
%TO.C,C17*%
X193537400Y-155997400D03*
X188137400Y-155997400D03*
%TD*%
%TO.C,C17*%
X21537400Y-155997400D03*
X16137400Y-155997400D03*
%TD*%
%TO.C,C17*%
X193537400Y-29997400D03*
X188137400Y-29997400D03*
%TD*%
%TO.C,C17*%
X64537400Y-29997400D03*
X59137400Y-29997400D03*
%TD*%
D19*
%TO.C,U10*%
X116409600Y-236213100D03*
X117359600Y-236213100D03*
X118309600Y-236213100D03*
X118309600Y-233938100D03*
X117359600Y-233938100D03*
X116409600Y-233938100D03*
%TD*%
%TO.C,U10*%
X159409600Y-236213100D03*
X160359600Y-236213100D03*
X161309600Y-236213100D03*
X161309600Y-233938100D03*
X160359600Y-233938100D03*
X159409600Y-233938100D03*
%TD*%
%TO.C,U10*%
X73409600Y-236213100D03*
X74359600Y-236213100D03*
X75309600Y-236213100D03*
X75309600Y-233938100D03*
X74359600Y-233938100D03*
X73409600Y-233938100D03*
%TD*%
%TO.C,U10*%
X202409600Y-173213100D03*
X203359600Y-173213100D03*
X204309600Y-173213100D03*
X204309600Y-170938100D03*
X203359600Y-170938100D03*
X202409600Y-170938100D03*
%TD*%
%TO.C,U10*%
X159409600Y-173213100D03*
X160359600Y-173213100D03*
X161309600Y-173213100D03*
X161309600Y-170938100D03*
X160359600Y-170938100D03*
X159409600Y-170938100D03*
%TD*%
%TO.C,U10*%
X30409600Y-173213100D03*
X31359600Y-173213100D03*
X32309600Y-173213100D03*
X32309600Y-170938100D03*
X31359600Y-170938100D03*
X30409600Y-170938100D03*
%TD*%
%TO.C,U10*%
X202409600Y-110213100D03*
X203359600Y-110213100D03*
X204309600Y-110213100D03*
X204309600Y-107938100D03*
X203359600Y-107938100D03*
X202409600Y-107938100D03*
%TD*%
%TO.C,U10*%
X116409600Y-110213100D03*
X117359600Y-110213100D03*
X118309600Y-110213100D03*
X118309600Y-107938100D03*
X117359600Y-107938100D03*
X116409600Y-107938100D03*
%TD*%
%TO.C,U10*%
X73409600Y-47213100D03*
X74359600Y-47213100D03*
X75309600Y-47213100D03*
X75309600Y-44938100D03*
X74359600Y-44938100D03*
X73409600Y-44938100D03*
%TD*%
%TO.C,U10*%
X30409600Y-110213100D03*
X31359600Y-110213100D03*
X32309600Y-110213100D03*
X32309600Y-107938100D03*
X31359600Y-107938100D03*
X30409600Y-107938100D03*
%TD*%
%TO.C,U10*%
X73409600Y-110213100D03*
X74359600Y-110213100D03*
X75309600Y-110213100D03*
X75309600Y-107938100D03*
X74359600Y-107938100D03*
X73409600Y-107938100D03*
%TD*%
%TO.C,U10*%
X30409600Y-47213100D03*
X31359600Y-47213100D03*
X32309600Y-47213100D03*
X32309600Y-44938100D03*
X31359600Y-44938100D03*
X30409600Y-44938100D03*
%TD*%
%TO.C,U10*%
X202409600Y-47213100D03*
X203359600Y-47213100D03*
X204309600Y-47213100D03*
X204309600Y-44938100D03*
X203359600Y-44938100D03*
X202409600Y-44938100D03*
%TD*%
%TO.C,U10*%
X73409600Y-173213100D03*
X74359600Y-173213100D03*
X75309600Y-173213100D03*
X75309600Y-170938100D03*
X74359600Y-170938100D03*
X73409600Y-170938100D03*
%TD*%
%TO.C,U10*%
X202409600Y-236213100D03*
X203359600Y-236213100D03*
X204309600Y-236213100D03*
X204309600Y-233938100D03*
X203359600Y-233938100D03*
X202409600Y-233938100D03*
%TD*%
%TO.C,U10*%
X30409600Y-236213100D03*
X31359600Y-236213100D03*
X32309600Y-236213100D03*
X32309600Y-233938100D03*
X31359600Y-233938100D03*
X30409600Y-233938100D03*
%TD*%
%TO.C,U10*%
X159409600Y-110213100D03*
X160359600Y-110213100D03*
X161309600Y-110213100D03*
X161309600Y-107938100D03*
X160359600Y-107938100D03*
X159409600Y-107938100D03*
%TD*%
%TO.C,U10*%
X116409600Y-47213100D03*
X117359600Y-47213100D03*
X118309600Y-47213100D03*
X118309600Y-44938100D03*
X117359600Y-44938100D03*
X116409600Y-44938100D03*
%TD*%
%TO.C,U10*%
X116409600Y-173213100D03*
X117359600Y-173213100D03*
X118309600Y-173213100D03*
X118309600Y-170938100D03*
X117359600Y-170938100D03*
X116409600Y-170938100D03*
%TD*%
%TO.C,U10*%
X159409600Y-47213100D03*
X160359600Y-47213100D03*
X161309600Y-47213100D03*
X161309600Y-44938100D03*
X160359600Y-44938100D03*
X159409600Y-44938100D03*
%TD*%
D20*
%TO.C,D1*%
X216163500Y-223036000D03*
X218038500Y-223036000D03*
%TD*%
%TO.C,D1*%
X130163500Y-223036000D03*
X132038500Y-223036000D03*
%TD*%
%TO.C,D1*%
X173163500Y-34036000D03*
X175038500Y-34036000D03*
%TD*%
%TO.C,D1*%
X87163500Y-160036000D03*
X89038500Y-160036000D03*
%TD*%
%TO.C,D1*%
X87163500Y-34036000D03*
X89038500Y-34036000D03*
%TD*%
%TO.C,D1*%
X216163500Y-160036000D03*
X218038500Y-160036000D03*
%TD*%
%TO.C,D1*%
X44163500Y-223036000D03*
X46038500Y-223036000D03*
%TD*%
%TO.C,D1*%
X216163500Y-97036000D03*
X218038500Y-97036000D03*
%TD*%
%TO.C,D1*%
X173163500Y-160036000D03*
X175038500Y-160036000D03*
%TD*%
%TO.C,D1*%
X130163500Y-160036000D03*
X132038500Y-160036000D03*
%TD*%
%TO.C,D1*%
X44163500Y-160036000D03*
X46038500Y-160036000D03*
%TD*%
%TO.C,D1*%
X216163500Y-34036000D03*
X218038500Y-34036000D03*
%TD*%
%TO.C,D1*%
X130163500Y-34036000D03*
X132038500Y-34036000D03*
%TD*%
%TO.C,D1*%
X44163500Y-97036000D03*
X46038500Y-97036000D03*
%TD*%
%TO.C,D1*%
X44163500Y-34036000D03*
X46038500Y-34036000D03*
%TD*%
%TO.C,D1*%
X130163500Y-97036000D03*
X132038500Y-97036000D03*
%TD*%
%TO.C,D1*%
X173163500Y-97036000D03*
X175038500Y-97036000D03*
%TD*%
%TO.C,D1*%
X87163500Y-97036000D03*
X89038500Y-97036000D03*
%TD*%
%TO.C,D1*%
X87163500Y-223036000D03*
X89038500Y-223036000D03*
%TD*%
%TO.C,D1*%
X173163500Y-223036000D03*
X175038500Y-223036000D03*
%TD*%
D10*
%TO.C,U3*%
X194875999Y-227226999D03*
D11*
X192601000Y-230089500D03*
X193251000Y-230089500D03*
X193901000Y-230089500D03*
X194551000Y-230089500D03*
X195201000Y-230089500D03*
X195851000Y-230089500D03*
X196501000Y-230089500D03*
X197151000Y-230089500D03*
X197151000Y-224364500D03*
X196501000Y-224364500D03*
X195851000Y-224364500D03*
X195201000Y-224364500D03*
X194551000Y-224364500D03*
X193901000Y-224364500D03*
X193251000Y-224364500D03*
X192601000Y-224364500D03*
%TD*%
D10*
%TO.C,U3*%
X151875999Y-227226999D03*
D11*
X149601000Y-230089500D03*
X150251000Y-230089500D03*
X150901000Y-230089500D03*
X151551000Y-230089500D03*
X152201000Y-230089500D03*
X152851000Y-230089500D03*
X153501000Y-230089500D03*
X154151000Y-230089500D03*
X154151000Y-224364500D03*
X153501000Y-224364500D03*
X152851000Y-224364500D03*
X152201000Y-224364500D03*
X151551000Y-224364500D03*
X150901000Y-224364500D03*
X150251000Y-224364500D03*
X149601000Y-224364500D03*
%TD*%
D10*
%TO.C,U3*%
X22875999Y-227226999D03*
D11*
X20601000Y-230089500D03*
X21251000Y-230089500D03*
X21901000Y-230089500D03*
X22551000Y-230089500D03*
X23201000Y-230089500D03*
X23851000Y-230089500D03*
X24501000Y-230089500D03*
X25151000Y-230089500D03*
X25151000Y-224364500D03*
X24501000Y-224364500D03*
X23851000Y-224364500D03*
X23201000Y-224364500D03*
X22551000Y-224364500D03*
X21901000Y-224364500D03*
X21251000Y-224364500D03*
X20601000Y-224364500D03*
%TD*%
D10*
%TO.C,U3*%
X151875999Y-101226999D03*
D11*
X149601000Y-104089500D03*
X150251000Y-104089500D03*
X150901000Y-104089500D03*
X151551000Y-104089500D03*
X152201000Y-104089500D03*
X152851000Y-104089500D03*
X153501000Y-104089500D03*
X154151000Y-104089500D03*
X154151000Y-98364500D03*
X153501000Y-98364500D03*
X152851000Y-98364500D03*
X152201000Y-98364500D03*
X151551000Y-98364500D03*
X150901000Y-98364500D03*
X150251000Y-98364500D03*
X149601000Y-98364500D03*
%TD*%
D10*
%TO.C,U3*%
X151875999Y-38226999D03*
D11*
X149601000Y-41089500D03*
X150251000Y-41089500D03*
X150901000Y-41089500D03*
X151551000Y-41089500D03*
X152201000Y-41089500D03*
X152851000Y-41089500D03*
X153501000Y-41089500D03*
X154151000Y-41089500D03*
X154151000Y-35364500D03*
X153501000Y-35364500D03*
X152851000Y-35364500D03*
X152201000Y-35364500D03*
X151551000Y-35364500D03*
X150901000Y-35364500D03*
X150251000Y-35364500D03*
X149601000Y-35364500D03*
%TD*%
D10*
%TO.C,U3*%
X108875999Y-101226999D03*
D11*
X106601000Y-104089500D03*
X107251000Y-104089500D03*
X107901000Y-104089500D03*
X108551000Y-104089500D03*
X109201000Y-104089500D03*
X109851000Y-104089500D03*
X110501000Y-104089500D03*
X111151000Y-104089500D03*
X111151000Y-98364500D03*
X110501000Y-98364500D03*
X109851000Y-98364500D03*
X109201000Y-98364500D03*
X108551000Y-98364500D03*
X107901000Y-98364500D03*
X107251000Y-98364500D03*
X106601000Y-98364500D03*
%TD*%
D10*
%TO.C,U3*%
X108875999Y-38226999D03*
D11*
X106601000Y-41089500D03*
X107251000Y-41089500D03*
X107901000Y-41089500D03*
X108551000Y-41089500D03*
X109201000Y-41089500D03*
X109851000Y-41089500D03*
X110501000Y-41089500D03*
X111151000Y-41089500D03*
X111151000Y-35364500D03*
X110501000Y-35364500D03*
X109851000Y-35364500D03*
X109201000Y-35364500D03*
X108551000Y-35364500D03*
X107901000Y-35364500D03*
X107251000Y-35364500D03*
X106601000Y-35364500D03*
%TD*%
D10*
%TO.C,U3*%
X194875999Y-164226999D03*
D11*
X192601000Y-167089500D03*
X193251000Y-167089500D03*
X193901000Y-167089500D03*
X194551000Y-167089500D03*
X195201000Y-167089500D03*
X195851000Y-167089500D03*
X196501000Y-167089500D03*
X197151000Y-167089500D03*
X197151000Y-161364500D03*
X196501000Y-161364500D03*
X195851000Y-161364500D03*
X195201000Y-161364500D03*
X194551000Y-161364500D03*
X193901000Y-161364500D03*
X193251000Y-161364500D03*
X192601000Y-161364500D03*
%TD*%
D10*
%TO.C,U3*%
X65875999Y-227226999D03*
D11*
X63601000Y-230089500D03*
X64251000Y-230089500D03*
X64901000Y-230089500D03*
X65551000Y-230089500D03*
X66201000Y-230089500D03*
X66851000Y-230089500D03*
X67501000Y-230089500D03*
X68151000Y-230089500D03*
X68151000Y-224364500D03*
X67501000Y-224364500D03*
X66851000Y-224364500D03*
X66201000Y-224364500D03*
X65551000Y-224364500D03*
X64901000Y-224364500D03*
X64251000Y-224364500D03*
X63601000Y-224364500D03*
%TD*%
D10*
%TO.C,U3*%
X194875999Y-38226999D03*
D11*
X192601000Y-41089500D03*
X193251000Y-41089500D03*
X193901000Y-41089500D03*
X194551000Y-41089500D03*
X195201000Y-41089500D03*
X195851000Y-41089500D03*
X196501000Y-41089500D03*
X197151000Y-41089500D03*
X197151000Y-35364500D03*
X196501000Y-35364500D03*
X195851000Y-35364500D03*
X195201000Y-35364500D03*
X194551000Y-35364500D03*
X193901000Y-35364500D03*
X193251000Y-35364500D03*
X192601000Y-35364500D03*
%TD*%
D10*
%TO.C,U3*%
X65875999Y-101226999D03*
D11*
X63601000Y-104089500D03*
X64251000Y-104089500D03*
X64901000Y-104089500D03*
X65551000Y-104089500D03*
X66201000Y-104089500D03*
X66851000Y-104089500D03*
X67501000Y-104089500D03*
X68151000Y-104089500D03*
X68151000Y-98364500D03*
X67501000Y-98364500D03*
X66851000Y-98364500D03*
X66201000Y-98364500D03*
X65551000Y-98364500D03*
X64901000Y-98364500D03*
X64251000Y-98364500D03*
X63601000Y-98364500D03*
%TD*%
D10*
%TO.C,U3*%
X22875999Y-101226999D03*
D11*
X20601000Y-104089500D03*
X21251000Y-104089500D03*
X21901000Y-104089500D03*
X22551000Y-104089500D03*
X23201000Y-104089500D03*
X23851000Y-104089500D03*
X24501000Y-104089500D03*
X25151000Y-104089500D03*
X25151000Y-98364500D03*
X24501000Y-98364500D03*
X23851000Y-98364500D03*
X23201000Y-98364500D03*
X22551000Y-98364500D03*
X21901000Y-98364500D03*
X21251000Y-98364500D03*
X20601000Y-98364500D03*
%TD*%
D10*
%TO.C,U3*%
X151875999Y-164226999D03*
D11*
X149601000Y-167089500D03*
X150251000Y-167089500D03*
X150901000Y-167089500D03*
X151551000Y-167089500D03*
X152201000Y-167089500D03*
X152851000Y-167089500D03*
X153501000Y-167089500D03*
X154151000Y-167089500D03*
X154151000Y-161364500D03*
X153501000Y-161364500D03*
X152851000Y-161364500D03*
X152201000Y-161364500D03*
X151551000Y-161364500D03*
X150901000Y-161364500D03*
X150251000Y-161364500D03*
X149601000Y-161364500D03*
%TD*%
D10*
%TO.C,U3*%
X65875999Y-164226999D03*
D11*
X63601000Y-167089500D03*
X64251000Y-167089500D03*
X64901000Y-167089500D03*
X65551000Y-167089500D03*
X66201000Y-167089500D03*
X66851000Y-167089500D03*
X67501000Y-167089500D03*
X68151000Y-167089500D03*
X68151000Y-161364500D03*
X67501000Y-161364500D03*
X66851000Y-161364500D03*
X66201000Y-161364500D03*
X65551000Y-161364500D03*
X64901000Y-161364500D03*
X64251000Y-161364500D03*
X63601000Y-161364500D03*
%TD*%
D10*
%TO.C,U3*%
X22875999Y-38226999D03*
D11*
X20601000Y-41089500D03*
X21251000Y-41089500D03*
X21901000Y-41089500D03*
X22551000Y-41089500D03*
X23201000Y-41089500D03*
X23851000Y-41089500D03*
X24501000Y-41089500D03*
X25151000Y-41089500D03*
X25151000Y-35364500D03*
X24501000Y-35364500D03*
X23851000Y-35364500D03*
X23201000Y-35364500D03*
X22551000Y-35364500D03*
X21901000Y-35364500D03*
X21251000Y-35364500D03*
X20601000Y-35364500D03*
%TD*%
D10*
%TO.C,U3*%
X22875999Y-164226999D03*
D11*
X20601000Y-167089500D03*
X21251000Y-167089500D03*
X21901000Y-167089500D03*
X22551000Y-167089500D03*
X23201000Y-167089500D03*
X23851000Y-167089500D03*
X24501000Y-167089500D03*
X25151000Y-167089500D03*
X25151000Y-161364500D03*
X24501000Y-161364500D03*
X23851000Y-161364500D03*
X23201000Y-161364500D03*
X22551000Y-161364500D03*
X21901000Y-161364500D03*
X21251000Y-161364500D03*
X20601000Y-161364500D03*
%TD*%
D10*
%TO.C,U3*%
X108875999Y-164226999D03*
D11*
X106601000Y-167089500D03*
X107251000Y-167089500D03*
X107901000Y-167089500D03*
X108551000Y-167089500D03*
X109201000Y-167089500D03*
X109851000Y-167089500D03*
X110501000Y-167089500D03*
X111151000Y-167089500D03*
X111151000Y-161364500D03*
X110501000Y-161364500D03*
X109851000Y-161364500D03*
X109201000Y-161364500D03*
X108551000Y-161364500D03*
X107901000Y-161364500D03*
X107251000Y-161364500D03*
X106601000Y-161364500D03*
%TD*%
D10*
%TO.C,U3*%
X108875999Y-227226999D03*
D11*
X106601000Y-230089500D03*
X107251000Y-230089500D03*
X107901000Y-230089500D03*
X108551000Y-230089500D03*
X109201000Y-230089500D03*
X109851000Y-230089500D03*
X110501000Y-230089500D03*
X111151000Y-230089500D03*
X111151000Y-224364500D03*
X110501000Y-224364500D03*
X109851000Y-224364500D03*
X109201000Y-224364500D03*
X108551000Y-224364500D03*
X107901000Y-224364500D03*
X107251000Y-224364500D03*
X106601000Y-224364500D03*
%TD*%
D10*
%TO.C,U3*%
X65875999Y-38226999D03*
D11*
X63601000Y-41089500D03*
X64251000Y-41089500D03*
X64901000Y-41089500D03*
X65551000Y-41089500D03*
X66201000Y-41089500D03*
X66851000Y-41089500D03*
X67501000Y-41089500D03*
X68151000Y-41089500D03*
X68151000Y-35364500D03*
X67501000Y-35364500D03*
X66851000Y-35364500D03*
X66201000Y-35364500D03*
X65551000Y-35364500D03*
X64901000Y-35364500D03*
X64251000Y-35364500D03*
X63601000Y-35364500D03*
%TD*%
D10*
%TO.C,U3*%
X194875999Y-101226999D03*
D11*
X192601000Y-104089500D03*
X193251000Y-104089500D03*
X193901000Y-104089500D03*
X194551000Y-104089500D03*
X195201000Y-104089500D03*
X195851000Y-104089500D03*
X196501000Y-104089500D03*
X197151000Y-104089500D03*
X197151000Y-98364500D03*
X196501000Y-98364500D03*
X195851000Y-98364500D03*
X195201000Y-98364500D03*
X194551000Y-98364500D03*
X193901000Y-98364500D03*
X193251000Y-98364500D03*
X192601000Y-98364500D03*
%TD*%
D10*
%TO.C,U2*%
X111542999Y-202715999D03*
D21*
X113818000Y-199853500D03*
X113168000Y-199853500D03*
X112518000Y-199853500D03*
X111868000Y-199853500D03*
X111218000Y-199853500D03*
X110568000Y-199853500D03*
X109918000Y-199853500D03*
X109268000Y-199853500D03*
X109268000Y-205578500D03*
X109918000Y-205578500D03*
X110568000Y-205578500D03*
X111218000Y-205578500D03*
X111868000Y-205578500D03*
X112518000Y-205578500D03*
X113168000Y-205578500D03*
X113818000Y-205578500D03*
%TD*%
D10*
%TO.C,U2*%
X154542999Y-202715999D03*
D21*
X156818000Y-199853500D03*
X156168000Y-199853500D03*
X155518000Y-199853500D03*
X154868000Y-199853500D03*
X154218000Y-199853500D03*
X153568000Y-199853500D03*
X152918000Y-199853500D03*
X152268000Y-199853500D03*
X152268000Y-205578500D03*
X152918000Y-205578500D03*
X153568000Y-205578500D03*
X154218000Y-205578500D03*
X154868000Y-205578500D03*
X155518000Y-205578500D03*
X156168000Y-205578500D03*
X156818000Y-205578500D03*
%TD*%
D10*
%TO.C,U2*%
X25542999Y-202715999D03*
D21*
X27818000Y-199853500D03*
X27168000Y-199853500D03*
X26518000Y-199853500D03*
X25868000Y-199853500D03*
X25218000Y-199853500D03*
X24568000Y-199853500D03*
X23918000Y-199853500D03*
X23268000Y-199853500D03*
X23268000Y-205578500D03*
X23918000Y-205578500D03*
X24568000Y-205578500D03*
X25218000Y-205578500D03*
X25868000Y-205578500D03*
X26518000Y-205578500D03*
X27168000Y-205578500D03*
X27818000Y-205578500D03*
%TD*%
D10*
%TO.C,U2*%
X197542999Y-139715999D03*
D21*
X199818000Y-136853500D03*
X199168000Y-136853500D03*
X198518000Y-136853500D03*
X197868000Y-136853500D03*
X197218000Y-136853500D03*
X196568000Y-136853500D03*
X195918000Y-136853500D03*
X195268000Y-136853500D03*
X195268000Y-142578500D03*
X195918000Y-142578500D03*
X196568000Y-142578500D03*
X197218000Y-142578500D03*
X197868000Y-142578500D03*
X198518000Y-142578500D03*
X199168000Y-142578500D03*
X199818000Y-142578500D03*
%TD*%
D10*
%TO.C,U2*%
X197542999Y-202715999D03*
D21*
X199818000Y-199853500D03*
X199168000Y-199853500D03*
X198518000Y-199853500D03*
X197868000Y-199853500D03*
X197218000Y-199853500D03*
X196568000Y-199853500D03*
X195918000Y-199853500D03*
X195268000Y-199853500D03*
X195268000Y-205578500D03*
X195918000Y-205578500D03*
X196568000Y-205578500D03*
X197218000Y-205578500D03*
X197868000Y-205578500D03*
X198518000Y-205578500D03*
X199168000Y-205578500D03*
X199818000Y-205578500D03*
%TD*%
D10*
%TO.C,U2*%
X111542999Y-76715999D03*
D21*
X113818000Y-73853500D03*
X113168000Y-73853500D03*
X112518000Y-73853500D03*
X111868000Y-73853500D03*
X111218000Y-73853500D03*
X110568000Y-73853500D03*
X109918000Y-73853500D03*
X109268000Y-73853500D03*
X109268000Y-79578500D03*
X109918000Y-79578500D03*
X110568000Y-79578500D03*
X111218000Y-79578500D03*
X111868000Y-79578500D03*
X112518000Y-79578500D03*
X113168000Y-79578500D03*
X113818000Y-79578500D03*
%TD*%
D10*
%TO.C,U2*%
X68542999Y-76715999D03*
D21*
X70818000Y-73853500D03*
X70168000Y-73853500D03*
X69518000Y-73853500D03*
X68868000Y-73853500D03*
X68218000Y-73853500D03*
X67568000Y-73853500D03*
X66918000Y-73853500D03*
X66268000Y-73853500D03*
X66268000Y-79578500D03*
X66918000Y-79578500D03*
X67568000Y-79578500D03*
X68218000Y-79578500D03*
X68868000Y-79578500D03*
X69518000Y-79578500D03*
X70168000Y-79578500D03*
X70818000Y-79578500D03*
%TD*%
D10*
%TO.C,U2*%
X154542999Y-139715999D03*
D21*
X156818000Y-136853500D03*
X156168000Y-136853500D03*
X155518000Y-136853500D03*
X154868000Y-136853500D03*
X154218000Y-136853500D03*
X153568000Y-136853500D03*
X152918000Y-136853500D03*
X152268000Y-136853500D03*
X152268000Y-142578500D03*
X152918000Y-142578500D03*
X153568000Y-142578500D03*
X154218000Y-142578500D03*
X154868000Y-142578500D03*
X155518000Y-142578500D03*
X156168000Y-142578500D03*
X156818000Y-142578500D03*
%TD*%
D10*
%TO.C,U2*%
X154542999Y-76715999D03*
D21*
X156818000Y-73853500D03*
X156168000Y-73853500D03*
X155518000Y-73853500D03*
X154868000Y-73853500D03*
X154218000Y-73853500D03*
X153568000Y-73853500D03*
X152918000Y-73853500D03*
X152268000Y-73853500D03*
X152268000Y-79578500D03*
X152918000Y-79578500D03*
X153568000Y-79578500D03*
X154218000Y-79578500D03*
X154868000Y-79578500D03*
X155518000Y-79578500D03*
X156168000Y-79578500D03*
X156818000Y-79578500D03*
%TD*%
D10*
%TO.C,U2*%
X68542999Y-13715999D03*
D21*
X70818000Y-10853500D03*
X70168000Y-10853500D03*
X69518000Y-10853500D03*
X68868000Y-10853500D03*
X68218000Y-10853500D03*
X67568000Y-10853500D03*
X66918000Y-10853500D03*
X66268000Y-10853500D03*
X66268000Y-16578500D03*
X66918000Y-16578500D03*
X67568000Y-16578500D03*
X68218000Y-16578500D03*
X68868000Y-16578500D03*
X69518000Y-16578500D03*
X70168000Y-16578500D03*
X70818000Y-16578500D03*
%TD*%
D10*
%TO.C,U2*%
X111542999Y-13715999D03*
D21*
X113818000Y-10853500D03*
X113168000Y-10853500D03*
X112518000Y-10853500D03*
X111868000Y-10853500D03*
X111218000Y-10853500D03*
X110568000Y-10853500D03*
X109918000Y-10853500D03*
X109268000Y-10853500D03*
X109268000Y-16578500D03*
X109918000Y-16578500D03*
X110568000Y-16578500D03*
X111218000Y-16578500D03*
X111868000Y-16578500D03*
X112518000Y-16578500D03*
X113168000Y-16578500D03*
X113818000Y-16578500D03*
%TD*%
D10*
%TO.C,U2*%
X111542999Y-139715999D03*
D21*
X113818000Y-136853500D03*
X113168000Y-136853500D03*
X112518000Y-136853500D03*
X111868000Y-136853500D03*
X111218000Y-136853500D03*
X110568000Y-136853500D03*
X109918000Y-136853500D03*
X109268000Y-136853500D03*
X109268000Y-142578500D03*
X109918000Y-142578500D03*
X110568000Y-142578500D03*
X111218000Y-142578500D03*
X111868000Y-142578500D03*
X112518000Y-142578500D03*
X113168000Y-142578500D03*
X113818000Y-142578500D03*
%TD*%
D10*
%TO.C,U2*%
X68542999Y-139715999D03*
D21*
X70818000Y-136853500D03*
X70168000Y-136853500D03*
X69518000Y-136853500D03*
X68868000Y-136853500D03*
X68218000Y-136853500D03*
X67568000Y-136853500D03*
X66918000Y-136853500D03*
X66268000Y-136853500D03*
X66268000Y-142578500D03*
X66918000Y-142578500D03*
X67568000Y-142578500D03*
X68218000Y-142578500D03*
X68868000Y-142578500D03*
X69518000Y-142578500D03*
X70168000Y-142578500D03*
X70818000Y-142578500D03*
%TD*%
D10*
%TO.C,U2*%
X154542999Y-13715999D03*
D21*
X156818000Y-10853500D03*
X156168000Y-10853500D03*
X155518000Y-10853500D03*
X154868000Y-10853500D03*
X154218000Y-10853500D03*
X153568000Y-10853500D03*
X152918000Y-10853500D03*
X152268000Y-10853500D03*
X152268000Y-16578500D03*
X152918000Y-16578500D03*
X153568000Y-16578500D03*
X154218000Y-16578500D03*
X154868000Y-16578500D03*
X155518000Y-16578500D03*
X156168000Y-16578500D03*
X156818000Y-16578500D03*
%TD*%
D10*
%TO.C,U2*%
X197542999Y-76715999D03*
D21*
X199818000Y-73853500D03*
X199168000Y-73853500D03*
X198518000Y-73853500D03*
X197868000Y-73853500D03*
X197218000Y-73853500D03*
X196568000Y-73853500D03*
X195918000Y-73853500D03*
X195268000Y-73853500D03*
X195268000Y-79578500D03*
X195918000Y-79578500D03*
X196568000Y-79578500D03*
X197218000Y-79578500D03*
X197868000Y-79578500D03*
X198518000Y-79578500D03*
X199168000Y-79578500D03*
X199818000Y-79578500D03*
%TD*%
D10*
%TO.C,U2*%
X25542999Y-139715999D03*
D21*
X27818000Y-136853500D03*
X27168000Y-136853500D03*
X26518000Y-136853500D03*
X25868000Y-136853500D03*
X25218000Y-136853500D03*
X24568000Y-136853500D03*
X23918000Y-136853500D03*
X23268000Y-136853500D03*
X23268000Y-142578500D03*
X23918000Y-142578500D03*
X24568000Y-142578500D03*
X25218000Y-142578500D03*
X25868000Y-142578500D03*
X26518000Y-142578500D03*
X27168000Y-142578500D03*
X27818000Y-142578500D03*
%TD*%
D10*
%TO.C,U2*%
X197542999Y-13715999D03*
D21*
X199818000Y-10853500D03*
X199168000Y-10853500D03*
X198518000Y-10853500D03*
X197868000Y-10853500D03*
X197218000Y-10853500D03*
X196568000Y-10853500D03*
X195918000Y-10853500D03*
X195268000Y-10853500D03*
X195268000Y-16578500D03*
X195918000Y-16578500D03*
X196568000Y-16578500D03*
X197218000Y-16578500D03*
X197868000Y-16578500D03*
X198518000Y-16578500D03*
X199168000Y-16578500D03*
X199818000Y-16578500D03*
%TD*%
D10*
%TO.C,U2*%
X68542999Y-202715999D03*
D21*
X70818000Y-199853500D03*
X70168000Y-199853500D03*
X69518000Y-199853500D03*
X68868000Y-199853500D03*
X68218000Y-199853500D03*
X67568000Y-199853500D03*
X66918000Y-199853500D03*
X66268000Y-199853500D03*
X66268000Y-205578500D03*
X66918000Y-205578500D03*
X67568000Y-205578500D03*
X68218000Y-205578500D03*
X68868000Y-205578500D03*
X69518000Y-205578500D03*
X70168000Y-205578500D03*
X70818000Y-205578500D03*
%TD*%
D10*
%TO.C,U2*%
X25542999Y-76715999D03*
D21*
X27818000Y-73853500D03*
X27168000Y-73853500D03*
X26518000Y-73853500D03*
X25868000Y-73853500D03*
X25218000Y-73853500D03*
X24568000Y-73853500D03*
X23918000Y-73853500D03*
X23268000Y-73853500D03*
X23268000Y-79578500D03*
X23918000Y-79578500D03*
X24568000Y-79578500D03*
X25218000Y-79578500D03*
X25868000Y-79578500D03*
X26518000Y-79578500D03*
X27168000Y-79578500D03*
X27818000Y-79578500D03*
%TD*%
D10*
%TO.C,U2*%
X25542999Y-13715999D03*
D21*
X27818000Y-10853500D03*
X27168000Y-10853500D03*
X26518000Y-10853500D03*
X25868000Y-10853500D03*
X25218000Y-10853500D03*
X24568000Y-10853500D03*
X23918000Y-10853500D03*
X23268000Y-10853500D03*
X23268000Y-16578500D03*
X23918000Y-16578500D03*
X24568000Y-16578500D03*
X25218000Y-16578500D03*
X25868000Y-16578500D03*
X26518000Y-16578500D03*
X27168000Y-16578500D03*
X27818000Y-16578500D03*
%TD*%
D22*
%TO.C,R11*%
X98855200Y-231773600D03*
X97205200Y-231773600D03*
%TD*%
%TO.C,R11*%
X98855200Y-105773600D03*
X97205200Y-105773600D03*
%TD*%
%TO.C,R11*%
X55855200Y-42773600D03*
X54205200Y-42773600D03*
%TD*%
%TO.C,R11*%
X184855200Y-231773600D03*
X183205200Y-231773600D03*
%TD*%
%TO.C,R11*%
X141855200Y-231773600D03*
X140205200Y-231773600D03*
%TD*%
%TO.C,R11*%
X184855200Y-105773600D03*
X183205200Y-105773600D03*
%TD*%
%TO.C,R11*%
X12855200Y-231773600D03*
X11205200Y-231773600D03*
%TD*%
%TO.C,R11*%
X98855200Y-42773600D03*
X97205200Y-42773600D03*
%TD*%
%TO.C,R11*%
X184855200Y-168773600D03*
X183205200Y-168773600D03*
%TD*%
%TO.C,R11*%
X141855200Y-168773600D03*
X140205200Y-168773600D03*
%TD*%
%TO.C,R11*%
X98855200Y-168773600D03*
X97205200Y-168773600D03*
%TD*%
%TO.C,R11*%
X12855200Y-105773600D03*
X11205200Y-105773600D03*
%TD*%
%TO.C,R11*%
X12855200Y-42773600D03*
X11205200Y-42773600D03*
%TD*%
%TO.C,R11*%
X55855200Y-168773600D03*
X54205200Y-168773600D03*
%TD*%
%TO.C,R11*%
X184855200Y-42773600D03*
X183205200Y-42773600D03*
%TD*%
%TO.C,R11*%
X141855200Y-105773600D03*
X140205200Y-105773600D03*
%TD*%
%TO.C,R11*%
X141855200Y-42773600D03*
X140205200Y-42773600D03*
%TD*%
%TO.C,R11*%
X55855200Y-231773600D03*
X54205200Y-231773600D03*
%TD*%
%TO.C,R11*%
X55855200Y-105773600D03*
X54205200Y-105773600D03*
%TD*%
%TO.C,R11*%
X12855200Y-168773600D03*
X11205200Y-168773600D03*
%TD*%
%TO.C,R10*%
X192399000Y-231773600D03*
X190749000Y-231773600D03*
%TD*%
%TO.C,R10*%
X149399000Y-231773600D03*
X147749000Y-231773600D03*
%TD*%
%TO.C,R10*%
X20399000Y-231773600D03*
X18749000Y-231773600D03*
%TD*%
%TO.C,R10*%
X149399000Y-168773600D03*
X147749000Y-168773600D03*
%TD*%
%TO.C,R10*%
X106399000Y-168773600D03*
X104749000Y-168773600D03*
%TD*%
%TO.C,R10*%
X63399000Y-168773600D03*
X61749000Y-168773600D03*
%TD*%
%TO.C,R10*%
X192399000Y-105773600D03*
X190749000Y-105773600D03*
%TD*%
%TO.C,R10*%
X192399000Y-42773600D03*
X190749000Y-42773600D03*
%TD*%
%TO.C,R10*%
X149399000Y-42773600D03*
X147749000Y-42773600D03*
%TD*%
%TO.C,R10*%
X20399000Y-42773600D03*
X18749000Y-42773600D03*
%TD*%
%TO.C,R10*%
X20399000Y-105773600D03*
X18749000Y-105773600D03*
%TD*%
%TO.C,R10*%
X63399000Y-105773600D03*
X61749000Y-105773600D03*
%TD*%
%TO.C,R10*%
X63399000Y-42773600D03*
X61749000Y-42773600D03*
%TD*%
%TO.C,R10*%
X20399000Y-168773600D03*
X18749000Y-168773600D03*
%TD*%
%TO.C,R10*%
X106399000Y-42773600D03*
X104749000Y-42773600D03*
%TD*%
%TO.C,R10*%
X106399000Y-231773600D03*
X104749000Y-231773600D03*
%TD*%
%TO.C,R10*%
X192399000Y-168773600D03*
X190749000Y-168773600D03*
%TD*%
%TO.C,R10*%
X63399000Y-231773600D03*
X61749000Y-231773600D03*
%TD*%
%TO.C,R10*%
X149399000Y-105773600D03*
X147749000Y-105773600D03*
%TD*%
%TO.C,R10*%
X106399000Y-105773600D03*
X104749000Y-105773600D03*
%TD*%
D14*
%TO.C,R9*%
X158099000Y-199859000D03*
X158099000Y-201509000D03*
%TD*%
%TO.C,R9*%
X29099000Y-199859000D03*
X29099000Y-201509000D03*
%TD*%
%TO.C,R9*%
X201099000Y-136859000D03*
X201099000Y-138509000D03*
%TD*%
%TO.C,R9*%
X158099000Y-73859000D03*
X158099000Y-75509000D03*
%TD*%
%TO.C,R9*%
X72099000Y-136859000D03*
X72099000Y-138509000D03*
%TD*%
%TO.C,R9*%
X115099000Y-136859000D03*
X115099000Y-138509000D03*
%TD*%
%TO.C,R9*%
X158099000Y-136859000D03*
X158099000Y-138509000D03*
%TD*%
%TO.C,R9*%
X115099000Y-199859000D03*
X115099000Y-201509000D03*
%TD*%
%TO.C,R9*%
X201099000Y-199859000D03*
X201099000Y-201509000D03*
%TD*%
%TO.C,R9*%
X72099000Y-199859000D03*
X72099000Y-201509000D03*
%TD*%
%TO.C,R9*%
X201099000Y-10859000D03*
X201099000Y-12509000D03*
%TD*%
%TO.C,R9*%
X201099000Y-73859000D03*
X201099000Y-75509000D03*
%TD*%
%TO.C,R9*%
X115099000Y-73859000D03*
X115099000Y-75509000D03*
%TD*%
%TO.C,R9*%
X29099000Y-136859000D03*
X29099000Y-138509000D03*
%TD*%
%TO.C,R9*%
X29099000Y-73859000D03*
X29099000Y-75509000D03*
%TD*%
%TO.C,R9*%
X72099000Y-73859000D03*
X72099000Y-75509000D03*
%TD*%
%TO.C,R9*%
X158099000Y-10859000D03*
X158099000Y-12509000D03*
%TD*%
%TO.C,R9*%
X115099000Y-10859000D03*
X115099000Y-12509000D03*
%TD*%
%TO.C,R9*%
X29099000Y-10859000D03*
X29099000Y-12509000D03*
%TD*%
%TO.C,R9*%
X72099000Y-10859000D03*
X72099000Y-12509000D03*
%TD*%
D23*
%TO.C,R4*%
X112648400Y-218286200D03*
X114298400Y-218286200D03*
%TD*%
%TO.C,R4*%
X198648400Y-218286200D03*
X200298400Y-218286200D03*
%TD*%
%TO.C,R4*%
X26648400Y-218286200D03*
X28298400Y-218286200D03*
%TD*%
%TO.C,R4*%
X198648400Y-155286200D03*
X200298400Y-155286200D03*
%TD*%
%TO.C,R4*%
X155648400Y-155286200D03*
X157298400Y-155286200D03*
%TD*%
%TO.C,R4*%
X69648400Y-155286200D03*
X71298400Y-155286200D03*
%TD*%
%TO.C,R4*%
X155648400Y-92286200D03*
X157298400Y-92286200D03*
%TD*%
%TO.C,R4*%
X198648400Y-29286200D03*
X200298400Y-29286200D03*
%TD*%
%TO.C,R4*%
X26648400Y-92286200D03*
X28298400Y-92286200D03*
%TD*%
%TO.C,R4*%
X155648400Y-29286200D03*
X157298400Y-29286200D03*
%TD*%
%TO.C,R4*%
X112648400Y-29286200D03*
X114298400Y-29286200D03*
%TD*%
%TO.C,R4*%
X26648400Y-155286200D03*
X28298400Y-155286200D03*
%TD*%
%TO.C,R4*%
X112648400Y-92286200D03*
X114298400Y-92286200D03*
%TD*%
%TO.C,R4*%
X69648400Y-92286200D03*
X71298400Y-92286200D03*
%TD*%
%TO.C,R4*%
X198648400Y-92286200D03*
X200298400Y-92286200D03*
%TD*%
%TO.C,R4*%
X26648400Y-29286200D03*
X28298400Y-29286200D03*
%TD*%
%TO.C,R4*%
X155648400Y-218286200D03*
X157298400Y-218286200D03*
%TD*%
%TO.C,R4*%
X69648400Y-218286200D03*
X71298400Y-218286200D03*
%TD*%
%TO.C,R4*%
X69648400Y-29286200D03*
X71298400Y-29286200D03*
%TD*%
%TO.C,R4*%
X112648400Y-155286200D03*
X114298400Y-155286200D03*
%TD*%
D14*
%TO.C,R3*%
X198559000Y-89569400D03*
X198559000Y-91219400D03*
%TD*%
%TO.C,R3*%
X155559000Y-215569400D03*
X155559000Y-217219400D03*
%TD*%
%TO.C,R3*%
X198559000Y-152569400D03*
X198559000Y-154219400D03*
%TD*%
%TO.C,R3*%
X26559000Y-215569400D03*
X26559000Y-217219400D03*
%TD*%
%TO.C,R3*%
X155559000Y-152569400D03*
X155559000Y-154219400D03*
%TD*%
%TO.C,R3*%
X69559000Y-152569400D03*
X69559000Y-154219400D03*
%TD*%
%TO.C,R3*%
X112559000Y-215569400D03*
X112559000Y-217219400D03*
%TD*%
%TO.C,R3*%
X112559000Y-152569400D03*
X112559000Y-154219400D03*
%TD*%
%TO.C,R3*%
X198559000Y-215569400D03*
X198559000Y-217219400D03*
%TD*%
%TO.C,R3*%
X155559000Y-89569400D03*
X155559000Y-91219400D03*
%TD*%
%TO.C,R3*%
X26559000Y-152569400D03*
X26559000Y-154219400D03*
%TD*%
%TO.C,R3*%
X26559000Y-89569400D03*
X26559000Y-91219400D03*
%TD*%
%TO.C,R3*%
X69559000Y-89569400D03*
X69559000Y-91219400D03*
%TD*%
%TO.C,R3*%
X69559000Y-26569400D03*
X69559000Y-28219400D03*
%TD*%
%TO.C,R3*%
X155559000Y-26569400D03*
X155559000Y-28219400D03*
%TD*%
%TO.C,R3*%
X69559000Y-215569400D03*
X69559000Y-217219400D03*
%TD*%
%TO.C,R3*%
X198559000Y-26569400D03*
X198559000Y-28219400D03*
%TD*%
%TO.C,R3*%
X112559000Y-26569400D03*
X112559000Y-28219400D03*
%TD*%
%TO.C,R3*%
X112559000Y-89569400D03*
X112559000Y-91219400D03*
%TD*%
%TO.C,R3*%
X26559000Y-26569400D03*
X26559000Y-28219400D03*
%TD*%
D13*
%TO.C,R2*%
X76391600Y-112339000D03*
X76391600Y-110689000D03*
%TD*%
%TO.C,R2*%
X162391600Y-49339000D03*
X162391600Y-47689000D03*
%TD*%
%TO.C,R2*%
X76391600Y-238339000D03*
X76391600Y-236689000D03*
%TD*%
%TO.C,R2*%
X119391600Y-49339000D03*
X119391600Y-47689000D03*
%TD*%
%TO.C,R2*%
X76391600Y-49339000D03*
X76391600Y-47689000D03*
%TD*%
%TO.C,R2*%
X33391600Y-49339000D03*
X33391600Y-47689000D03*
%TD*%
%TO.C,R2*%
X205391600Y-49339000D03*
X205391600Y-47689000D03*
%TD*%
%TO.C,R2*%
X33391600Y-175339000D03*
X33391600Y-173689000D03*
%TD*%
%TO.C,R2*%
X33391600Y-238339000D03*
X33391600Y-236689000D03*
%TD*%
%TO.C,R2*%
X205391600Y-175339000D03*
X205391600Y-173689000D03*
%TD*%
%TO.C,R2*%
X162391600Y-112339000D03*
X162391600Y-110689000D03*
%TD*%
%TO.C,R2*%
X119391600Y-175339000D03*
X119391600Y-173689000D03*
%TD*%
%TO.C,R2*%
X76391600Y-175339000D03*
X76391600Y-173689000D03*
%TD*%
%TO.C,R2*%
X205391600Y-112339000D03*
X205391600Y-110689000D03*
%TD*%
%TO.C,R2*%
X33391600Y-112339000D03*
X33391600Y-110689000D03*
%TD*%
%TO.C,R2*%
X119391600Y-238339000D03*
X119391600Y-236689000D03*
%TD*%
%TO.C,R2*%
X162391600Y-238339000D03*
X162391600Y-236689000D03*
%TD*%
%TO.C,R2*%
X205391600Y-238339000D03*
X205391600Y-236689000D03*
%TD*%
%TO.C,R2*%
X162391600Y-175339000D03*
X162391600Y-173689000D03*
%TD*%
%TO.C,R2*%
X119391600Y-112339000D03*
X119391600Y-110689000D03*
%TD*%
D23*
%TO.C,R1*%
X116687000Y-111895000D03*
X118337000Y-111895000D03*
%TD*%
%TO.C,R1*%
X30687000Y-111895000D03*
X32337000Y-111895000D03*
%TD*%
%TO.C,R1*%
X73687000Y-111895000D03*
X75337000Y-111895000D03*
%TD*%
%TO.C,R1*%
X202687000Y-111895000D03*
X204337000Y-111895000D03*
%TD*%
%TO.C,R1*%
X159687000Y-48895000D03*
X161337000Y-48895000D03*
%TD*%
%TO.C,R1*%
X159687000Y-111895000D03*
X161337000Y-111895000D03*
%TD*%
%TO.C,R1*%
X202687000Y-174895000D03*
X204337000Y-174895000D03*
%TD*%
%TO.C,R1*%
X116687000Y-174895000D03*
X118337000Y-174895000D03*
%TD*%
%TO.C,R1*%
X30687000Y-174895000D03*
X32337000Y-174895000D03*
%TD*%
%TO.C,R1*%
X73687000Y-174895000D03*
X75337000Y-174895000D03*
%TD*%
%TO.C,R1*%
X159687000Y-174895000D03*
X161337000Y-174895000D03*
%TD*%
%TO.C,R1*%
X202687000Y-237895000D03*
X204337000Y-237895000D03*
%TD*%
%TO.C,R1*%
X116687000Y-237895000D03*
X118337000Y-237895000D03*
%TD*%
%TO.C,R1*%
X159687000Y-237895000D03*
X161337000Y-237895000D03*
%TD*%
%TO.C,R1*%
X30687000Y-237895000D03*
X32337000Y-237895000D03*
%TD*%
%TO.C,R1*%
X73687000Y-237895000D03*
X75337000Y-237895000D03*
%TD*%
%TO.C,R1*%
X30687000Y-48895000D03*
X32337000Y-48895000D03*
%TD*%
%TO.C,R1*%
X116687000Y-48895000D03*
X118337000Y-48895000D03*
%TD*%
%TO.C,R1*%
X73687000Y-48895000D03*
X75337000Y-48895000D03*
%TD*%
%TO.C,R1*%
X202687000Y-48895000D03*
X204337000Y-48895000D03*
%TD*%
D24*
%TO.C,Q1*%
X218011000Y-228028000D03*
X216111000Y-228028000D03*
X217061000Y-229728000D03*
%TD*%
%TO.C,Q1*%
X132011000Y-228028000D03*
X130111000Y-228028000D03*
X131061000Y-229728000D03*
%TD*%
%TO.C,Q1*%
X46011000Y-228028000D03*
X44111000Y-228028000D03*
X45061000Y-229728000D03*
%TD*%
%TO.C,Q1*%
X175011000Y-165028000D03*
X173111000Y-165028000D03*
X174061000Y-166728000D03*
%TD*%
%TO.C,Q1*%
X175011000Y-102028000D03*
X173111000Y-102028000D03*
X174061000Y-103728000D03*
%TD*%
%TO.C,Q1*%
X132011000Y-165028000D03*
X130111000Y-165028000D03*
X131061000Y-166728000D03*
%TD*%
%TO.C,Q1*%
X218011000Y-102028000D03*
X216111000Y-102028000D03*
X217061000Y-103728000D03*
%TD*%
%TO.C,Q1*%
X218011000Y-39028000D03*
X216111000Y-39028000D03*
X217061000Y-40728000D03*
%TD*%
%TO.C,Q1*%
X46011000Y-165028000D03*
X44111000Y-165028000D03*
X45061000Y-166728000D03*
%TD*%
%TO.C,Q1*%
X46011000Y-102028000D03*
X44111000Y-102028000D03*
X45061000Y-103728000D03*
%TD*%
%TO.C,Q1*%
X132011000Y-39028000D03*
X130111000Y-39028000D03*
X131061000Y-40728000D03*
%TD*%
%TO.C,Q1*%
X89011000Y-39028000D03*
X87111000Y-39028000D03*
X88061000Y-40728000D03*
%TD*%
%TO.C,Q1*%
X132011000Y-102028000D03*
X130111000Y-102028000D03*
X131061000Y-103728000D03*
%TD*%
%TO.C,Q1*%
X89011000Y-102028000D03*
X87111000Y-102028000D03*
X88061000Y-103728000D03*
%TD*%
%TO.C,Q1*%
X175011000Y-39028000D03*
X173111000Y-39028000D03*
X174061000Y-40728000D03*
%TD*%
%TO.C,Q1*%
X46011000Y-39028000D03*
X44111000Y-39028000D03*
X45061000Y-40728000D03*
%TD*%
%TO.C,Q1*%
X89011000Y-228028000D03*
X87111000Y-228028000D03*
X88061000Y-229728000D03*
%TD*%
%TO.C,Q1*%
X175011000Y-228028000D03*
X173111000Y-228028000D03*
X174061000Y-229728000D03*
%TD*%
%TO.C,Q1*%
X218011000Y-165028000D03*
X216111000Y-165028000D03*
X217061000Y-166728000D03*
%TD*%
%TO.C,Q1*%
X89011000Y-165028000D03*
X87111000Y-165028000D03*
X88061000Y-166728000D03*
%TD*%
D25*
%TO.C,L2*%
X159118000Y-211860000D03*
X156318000Y-211860000D03*
%TD*%
%TO.C,L2*%
X202118000Y-211860000D03*
X199318000Y-211860000D03*
%TD*%
%TO.C,L2*%
X116118000Y-211860000D03*
X113318000Y-211860000D03*
%TD*%
%TO.C,L2*%
X30118000Y-211860000D03*
X27318000Y-211860000D03*
%TD*%
%TO.C,L2*%
X202118000Y-148860000D03*
X199318000Y-148860000D03*
%TD*%
%TO.C,L2*%
X159118000Y-148860000D03*
X156318000Y-148860000D03*
%TD*%
%TO.C,L2*%
X116118000Y-148860000D03*
X113318000Y-148860000D03*
%TD*%
%TO.C,L2*%
X116118000Y-85860000D03*
X113318000Y-85860000D03*
%TD*%
%TO.C,L2*%
X159118000Y-85860000D03*
X156318000Y-85860000D03*
%TD*%
%TO.C,L2*%
X30118000Y-85860000D03*
X27318000Y-85860000D03*
%TD*%
%TO.C,L2*%
X159118000Y-22860000D03*
X156318000Y-22860000D03*
%TD*%
%TO.C,L2*%
X116118000Y-22860000D03*
X113318000Y-22860000D03*
%TD*%
%TO.C,L2*%
X73118000Y-211860000D03*
X70318000Y-211860000D03*
%TD*%
%TO.C,L2*%
X202118000Y-22860000D03*
X199318000Y-22860000D03*
%TD*%
%TO.C,L2*%
X73118000Y-148860000D03*
X70318000Y-148860000D03*
%TD*%
%TO.C,L2*%
X202118000Y-85860000D03*
X199318000Y-85860000D03*
%TD*%
%TO.C,L2*%
X73118000Y-22860000D03*
X70318000Y-22860000D03*
%TD*%
%TO.C,L2*%
X30118000Y-148860000D03*
X27318000Y-148860000D03*
%TD*%
%TO.C,L2*%
X73118000Y-85860000D03*
X70318000Y-85860000D03*
%TD*%
%TO.C,L2*%
X30118000Y-22860000D03*
X27318000Y-22860000D03*
%TD*%
D26*
%TO.C,L1*%
X199067000Y-233701000D03*
X199067000Y-236501000D03*
%TD*%
%TO.C,L1*%
X156067000Y-233701000D03*
X156067000Y-236501000D03*
%TD*%
%TO.C,L1*%
X27067000Y-107701000D03*
X27067000Y-110501000D03*
%TD*%
%TO.C,L1*%
X199067000Y-170701000D03*
X199067000Y-173501000D03*
%TD*%
%TO.C,L1*%
X156067000Y-170701000D03*
X156067000Y-173501000D03*
%TD*%
%TO.C,L1*%
X113067000Y-107701000D03*
X113067000Y-110501000D03*
%TD*%
%TO.C,L1*%
X70067000Y-107701000D03*
X70067000Y-110501000D03*
%TD*%
%TO.C,L1*%
X27067000Y-233701000D03*
X27067000Y-236501000D03*
%TD*%
%TO.C,L1*%
X113067000Y-170701000D03*
X113067000Y-173501000D03*
%TD*%
%TO.C,L1*%
X70067000Y-170701000D03*
X70067000Y-173501000D03*
%TD*%
%TO.C,L1*%
X199067000Y-107701000D03*
X199067000Y-110501000D03*
%TD*%
%TO.C,L1*%
X27067000Y-170701000D03*
X27067000Y-173501000D03*
%TD*%
%TO.C,L1*%
X156067000Y-107701000D03*
X156067000Y-110501000D03*
%TD*%
%TO.C,L1*%
X70067000Y-233701000D03*
X70067000Y-236501000D03*
%TD*%
%TO.C,L1*%
X113067000Y-233701000D03*
X113067000Y-236501000D03*
%TD*%
%TO.C,L1*%
X113067000Y-44701000D03*
X113067000Y-47501000D03*
%TD*%
%TO.C,L1*%
X70067000Y-44701000D03*
X70067000Y-47501000D03*
%TD*%
%TO.C,L1*%
X156067000Y-44701000D03*
X156067000Y-47501000D03*
%TD*%
%TO.C,L1*%
X199067000Y-44701000D03*
X199067000Y-47501000D03*
%TD*%
%TO.C,L1*%
X27067000Y-44701000D03*
X27067000Y-47501000D03*
%TD*%
D27*
%TO.C,C24*%
X195704000Y-207923000D03*
X197604000Y-207923000D03*
%TD*%
%TO.C,C24*%
X195704000Y-144923000D03*
X197604000Y-144923000D03*
%TD*%
%TO.C,C24*%
X152704000Y-144923000D03*
X154604000Y-144923000D03*
%TD*%
%TO.C,C24*%
X109704000Y-81923000D03*
X111604000Y-81923000D03*
%TD*%
%TO.C,C24*%
X23704000Y-207923000D03*
X25604000Y-207923000D03*
%TD*%
%TO.C,C24*%
X23704000Y-144923000D03*
X25604000Y-144923000D03*
%TD*%
%TO.C,C24*%
X23704000Y-81923000D03*
X25604000Y-81923000D03*
%TD*%
%TO.C,C24*%
X109704000Y-18923000D03*
X111604000Y-18923000D03*
%TD*%
%TO.C,C24*%
X66704000Y-81923000D03*
X68604000Y-81923000D03*
%TD*%
%TO.C,C24*%
X66704000Y-144923000D03*
X68604000Y-144923000D03*
%TD*%
%TO.C,C24*%
X109704000Y-144923000D03*
X111604000Y-144923000D03*
%TD*%
%TO.C,C24*%
X66704000Y-207923000D03*
X68604000Y-207923000D03*
%TD*%
%TO.C,C24*%
X66704000Y-18923000D03*
X68604000Y-18923000D03*
%TD*%
%TO.C,C24*%
X152704000Y-207923000D03*
X154604000Y-207923000D03*
%TD*%
%TO.C,C24*%
X109704000Y-207923000D03*
X111604000Y-207923000D03*
%TD*%
%TO.C,C24*%
X195704000Y-81923000D03*
X197604000Y-81923000D03*
%TD*%
%TO.C,C24*%
X152704000Y-81923000D03*
X154604000Y-81923000D03*
%TD*%
%TO.C,C24*%
X195704000Y-18923000D03*
X197604000Y-18923000D03*
%TD*%
%TO.C,C24*%
X152704000Y-18923000D03*
X154604000Y-18923000D03*
%TD*%
%TO.C,C24*%
X23704000Y-18923000D03*
X25604000Y-18923000D03*
%TD*%
D28*
%TO.C,C23*%
X109231600Y-222639800D03*
X109231600Y-220739800D03*
%TD*%
%TO.C,C23*%
X195231600Y-222639800D03*
X195231600Y-220739800D03*
%TD*%
%TO.C,C23*%
X195231600Y-159639800D03*
X195231600Y-157739800D03*
%TD*%
%TO.C,C23*%
X109231600Y-159639800D03*
X109231600Y-157739800D03*
%TD*%
%TO.C,C23*%
X152231600Y-222639800D03*
X152231600Y-220739800D03*
%TD*%
%TO.C,C23*%
X66231600Y-159639800D03*
X66231600Y-157739800D03*
%TD*%
%TO.C,C23*%
X152231600Y-159639800D03*
X152231600Y-157739800D03*
%TD*%
%TO.C,C23*%
X66231600Y-96639800D03*
X66231600Y-94739800D03*
%TD*%
%TO.C,C23*%
X66231600Y-222639800D03*
X66231600Y-220739800D03*
%TD*%
%TO.C,C23*%
X23231600Y-33639800D03*
X23231600Y-31739800D03*
%TD*%
%TO.C,C23*%
X23231600Y-96639800D03*
X23231600Y-94739800D03*
%TD*%
%TO.C,C23*%
X195231600Y-33639800D03*
X195231600Y-31739800D03*
%TD*%
%TO.C,C23*%
X66231600Y-33639800D03*
X66231600Y-31739800D03*
%TD*%
%TO.C,C23*%
X109231600Y-96639800D03*
X109231600Y-94739800D03*
%TD*%
%TO.C,C23*%
X152231600Y-96639800D03*
X152231600Y-94739800D03*
%TD*%
%TO.C,C23*%
X152231600Y-33639800D03*
X152231600Y-31739800D03*
%TD*%
%TO.C,C23*%
X195231600Y-96639800D03*
X195231600Y-94739800D03*
%TD*%
%TO.C,C23*%
X23231600Y-222639800D03*
X23231600Y-220739800D03*
%TD*%
%TO.C,C23*%
X23231600Y-159639800D03*
X23231600Y-157739800D03*
%TD*%
%TO.C,C23*%
X109231600Y-33639800D03*
X109231600Y-31739800D03*
%TD*%
%TO.C,C22*%
X186367000Y-222639800D03*
X186367000Y-220739800D03*
%TD*%
%TO.C,C22*%
X100367000Y-222639800D03*
X100367000Y-220739800D03*
%TD*%
%TO.C,C22*%
X143367000Y-222639800D03*
X143367000Y-220739800D03*
%TD*%
%TO.C,C22*%
X143367000Y-96639800D03*
X143367000Y-94739800D03*
%TD*%
%TO.C,C22*%
X186367000Y-159639800D03*
X186367000Y-157739800D03*
%TD*%
%TO.C,C22*%
X57367000Y-159639800D03*
X57367000Y-157739800D03*
%TD*%
%TO.C,C22*%
X100367000Y-159639800D03*
X100367000Y-157739800D03*
%TD*%
%TO.C,C22*%
X100367000Y-96639800D03*
X100367000Y-94739800D03*
%TD*%
%TO.C,C22*%
X143367000Y-159639800D03*
X143367000Y-157739800D03*
%TD*%
%TO.C,C22*%
X186367000Y-96639800D03*
X186367000Y-94739800D03*
%TD*%
%TO.C,C22*%
X14367000Y-159639800D03*
X14367000Y-157739800D03*
%TD*%
%TO.C,C22*%
X14367000Y-96639800D03*
X14367000Y-94739800D03*
%TD*%
%TO.C,C22*%
X57367000Y-96639800D03*
X57367000Y-94739800D03*
%TD*%
%TO.C,C22*%
X57367000Y-222639800D03*
X57367000Y-220739800D03*
%TD*%
%TO.C,C22*%
X57367000Y-33639800D03*
X57367000Y-31739800D03*
%TD*%
%TO.C,C22*%
X186367000Y-33639800D03*
X186367000Y-31739800D03*
%TD*%
%TO.C,C22*%
X14367000Y-33639800D03*
X14367000Y-31739800D03*
%TD*%
%TO.C,C22*%
X14367000Y-222639800D03*
X14367000Y-220739800D03*
%TD*%
%TO.C,C22*%
X100367000Y-33639800D03*
X100367000Y-31739800D03*
%TD*%
%TO.C,C22*%
X143367000Y-33639800D03*
X143367000Y-31739800D03*
%TD*%
D29*
%TO.C,C14*%
X154441400Y-217181600D03*
X154441400Y-215631600D03*
%TD*%
%TO.C,C14*%
X25441400Y-91181600D03*
X25441400Y-89631600D03*
%TD*%
%TO.C,C14*%
X68441400Y-154181600D03*
X68441400Y-152631600D03*
%TD*%
%TO.C,C14*%
X111441400Y-91181600D03*
X111441400Y-89631600D03*
%TD*%
%TO.C,C14*%
X111441400Y-217181600D03*
X111441400Y-215631600D03*
%TD*%
%TO.C,C14*%
X197441400Y-154181600D03*
X197441400Y-152631600D03*
%TD*%
%TO.C,C14*%
X197441400Y-28181600D03*
X197441400Y-26631600D03*
%TD*%
%TO.C,C14*%
X68441400Y-91181600D03*
X68441400Y-89631600D03*
%TD*%
%TO.C,C14*%
X154441400Y-91181600D03*
X154441400Y-89631600D03*
%TD*%
%TO.C,C14*%
X154441400Y-154181600D03*
X154441400Y-152631600D03*
%TD*%
%TO.C,C14*%
X111441400Y-28181600D03*
X111441400Y-26631600D03*
%TD*%
%TO.C,C14*%
X111441400Y-154181600D03*
X111441400Y-152631600D03*
%TD*%
%TO.C,C14*%
X25441400Y-217181600D03*
X25441400Y-215631600D03*
%TD*%
%TO.C,C14*%
X25441400Y-154181600D03*
X25441400Y-152631600D03*
%TD*%
%TO.C,C14*%
X197441400Y-91181600D03*
X197441400Y-89631600D03*
%TD*%
%TO.C,C14*%
X68441400Y-217181600D03*
X68441400Y-215631600D03*
%TD*%
%TO.C,C14*%
X197441400Y-217181600D03*
X197441400Y-215631600D03*
%TD*%
%TO.C,C14*%
X68441400Y-28181600D03*
X68441400Y-26631600D03*
%TD*%
%TO.C,C14*%
X25441400Y-28181600D03*
X25441400Y-26631600D03*
%TD*%
%TO.C,C14*%
X154441400Y-28181600D03*
X154441400Y-26631600D03*
%TD*%
D30*
%TO.C,C13*%
X197403000Y-214095200D03*
X198953000Y-214095200D03*
%TD*%
%TO.C,C13*%
X111403000Y-214095200D03*
X112953000Y-214095200D03*
%TD*%
%TO.C,C13*%
X154403000Y-214095200D03*
X155953000Y-214095200D03*
%TD*%
%TO.C,C13*%
X197403000Y-151095200D03*
X198953000Y-151095200D03*
%TD*%
%TO.C,C13*%
X154403000Y-151095200D03*
X155953000Y-151095200D03*
%TD*%
%TO.C,C13*%
X197403000Y-88095200D03*
X198953000Y-88095200D03*
%TD*%
%TO.C,C13*%
X154403000Y-88095200D03*
X155953000Y-88095200D03*
%TD*%
%TO.C,C13*%
X25403000Y-151095200D03*
X26953000Y-151095200D03*
%TD*%
%TO.C,C13*%
X68403000Y-214095200D03*
X69953000Y-214095200D03*
%TD*%
%TO.C,C13*%
X68403000Y-25095200D03*
X69953000Y-25095200D03*
%TD*%
%TO.C,C13*%
X25403000Y-88095200D03*
X26953000Y-88095200D03*
%TD*%
%TO.C,C13*%
X68403000Y-88095200D03*
X69953000Y-88095200D03*
%TD*%
%TO.C,C13*%
X25403000Y-214095200D03*
X26953000Y-214095200D03*
%TD*%
%TO.C,C13*%
X154403000Y-25095200D03*
X155953000Y-25095200D03*
%TD*%
%TO.C,C13*%
X25403000Y-25095200D03*
X26953000Y-25095200D03*
%TD*%
%TO.C,C13*%
X68403000Y-151095200D03*
X69953000Y-151095200D03*
%TD*%
%TO.C,C13*%
X111403000Y-25095200D03*
X112953000Y-25095200D03*
%TD*%
%TO.C,C13*%
X111403000Y-151095200D03*
X112953000Y-151095200D03*
%TD*%
%TO.C,C13*%
X111403000Y-88095200D03*
X112953000Y-88095200D03*
%TD*%
%TO.C,C13*%
X197403000Y-25095200D03*
X198953000Y-25095200D03*
%TD*%
D27*
%TO.C,C12*%
X115482500Y-218527500D03*
X117382500Y-218527500D03*
%TD*%
%TO.C,C12*%
X201482500Y-155527500D03*
X203382500Y-155527500D03*
%TD*%
%TO.C,C12*%
X158482500Y-155527500D03*
X160382500Y-155527500D03*
%TD*%
%TO.C,C12*%
X201482500Y-92527500D03*
X203382500Y-92527500D03*
%TD*%
%TO.C,C12*%
X115482500Y-92527500D03*
X117382500Y-92527500D03*
%TD*%
%TO.C,C12*%
X158482500Y-92527500D03*
X160382500Y-92527500D03*
%TD*%
%TO.C,C12*%
X201482500Y-218527500D03*
X203382500Y-218527500D03*
%TD*%
%TO.C,C12*%
X115482500Y-155527500D03*
X117382500Y-155527500D03*
%TD*%
%TO.C,C12*%
X158482500Y-218527500D03*
X160382500Y-218527500D03*
%TD*%
%TO.C,C12*%
X72482500Y-155527500D03*
X74382500Y-155527500D03*
%TD*%
%TO.C,C12*%
X29482500Y-155527500D03*
X31382500Y-155527500D03*
%TD*%
%TO.C,C12*%
X201482500Y-29527500D03*
X203382500Y-29527500D03*
%TD*%
%TO.C,C12*%
X115482500Y-29527500D03*
X117382500Y-29527500D03*
%TD*%
%TO.C,C12*%
X158482500Y-29527500D03*
X160382500Y-29527500D03*
%TD*%
%TO.C,C12*%
X72482500Y-218527500D03*
X74382500Y-218527500D03*
%TD*%
%TO.C,C12*%
X72482500Y-29527500D03*
X74382500Y-29527500D03*
%TD*%
%TO.C,C12*%
X29482500Y-29527500D03*
X31382500Y-29527500D03*
%TD*%
%TO.C,C12*%
X72482500Y-92527500D03*
X74382500Y-92527500D03*
%TD*%
%TO.C,C12*%
X29482500Y-218527500D03*
X31382500Y-218527500D03*
%TD*%
%TO.C,C12*%
X29482500Y-92527500D03*
X31382500Y-92527500D03*
%TD*%
D31*
%TO.C,C11*%
X159839200Y-214095200D03*
X158289200Y-214095200D03*
%TD*%
%TO.C,C11*%
X159839200Y-88095200D03*
X158289200Y-88095200D03*
%TD*%
%TO.C,C11*%
X73839200Y-25095200D03*
X72289200Y-25095200D03*
%TD*%
%TO.C,C11*%
X73839200Y-151095200D03*
X72289200Y-151095200D03*
%TD*%
%TO.C,C11*%
X116839200Y-25095200D03*
X115289200Y-25095200D03*
%TD*%
%TO.C,C11*%
X73839200Y-214095200D03*
X72289200Y-214095200D03*
%TD*%
%TO.C,C11*%
X116839200Y-214095200D03*
X115289200Y-214095200D03*
%TD*%
%TO.C,C11*%
X30839200Y-25095200D03*
X29289200Y-25095200D03*
%TD*%
%TO.C,C11*%
X202839200Y-151095200D03*
X201289200Y-151095200D03*
%TD*%
%TO.C,C11*%
X202839200Y-25095200D03*
X201289200Y-25095200D03*
%TD*%
%TO.C,C11*%
X30839200Y-151095200D03*
X29289200Y-151095200D03*
%TD*%
%TO.C,C11*%
X202839200Y-214095200D03*
X201289200Y-214095200D03*
%TD*%
%TO.C,C11*%
X202839200Y-88095200D03*
X201289200Y-88095200D03*
%TD*%
%TO.C,C11*%
X159839200Y-25095200D03*
X158289200Y-25095200D03*
%TD*%
%TO.C,C11*%
X116839200Y-151095200D03*
X115289200Y-151095200D03*
%TD*%
%TO.C,C11*%
X116839200Y-88095200D03*
X115289200Y-88095200D03*
%TD*%
%TO.C,C11*%
X30839200Y-214095200D03*
X29289200Y-214095200D03*
%TD*%
%TO.C,C11*%
X30839200Y-88095200D03*
X29289200Y-88095200D03*
%TD*%
%TO.C,C11*%
X159839200Y-151095200D03*
X158289200Y-151095200D03*
%TD*%
%TO.C,C11*%
X73839200Y-88095200D03*
X72289200Y-88095200D03*
%TD*%
D28*
%TO.C,C10*%
X115226000Y-205571000D03*
X115226000Y-203671000D03*
%TD*%
%TO.C,C10*%
X29226000Y-142571000D03*
X29226000Y-140671000D03*
%TD*%
%TO.C,C10*%
X201226000Y-16571000D03*
X201226000Y-14671000D03*
%TD*%
%TO.C,C10*%
X158226000Y-142571000D03*
X158226000Y-140671000D03*
%TD*%
%TO.C,C10*%
X115226000Y-16571000D03*
X115226000Y-14671000D03*
%TD*%
%TO.C,C10*%
X115226000Y-142571000D03*
X115226000Y-140671000D03*
%TD*%
%TO.C,C10*%
X158226000Y-205571000D03*
X158226000Y-203671000D03*
%TD*%
%TO.C,C10*%
X29226000Y-79571000D03*
X29226000Y-77671000D03*
%TD*%
%TO.C,C10*%
X72226000Y-79571000D03*
X72226000Y-77671000D03*
%TD*%
%TO.C,C10*%
X158226000Y-79571000D03*
X158226000Y-77671000D03*
%TD*%
%TO.C,C10*%
X201226000Y-142571000D03*
X201226000Y-140671000D03*
%TD*%
%TO.C,C10*%
X115226000Y-79571000D03*
X115226000Y-77671000D03*
%TD*%
%TO.C,C10*%
X201226000Y-205571000D03*
X201226000Y-203671000D03*
%TD*%
%TO.C,C10*%
X201226000Y-79571000D03*
X201226000Y-77671000D03*
%TD*%
%TO.C,C10*%
X29226000Y-205571000D03*
X29226000Y-203671000D03*
%TD*%
%TO.C,C10*%
X72226000Y-16571000D03*
X72226000Y-14671000D03*
%TD*%
%TO.C,C10*%
X72226000Y-142571000D03*
X72226000Y-140671000D03*
%TD*%
%TO.C,C10*%
X158226000Y-16571000D03*
X158226000Y-14671000D03*
%TD*%
%TO.C,C10*%
X72226000Y-205571000D03*
X72226000Y-203671000D03*
%TD*%
%TO.C,C10*%
X29226000Y-16571000D03*
X29226000Y-14671000D03*
%TD*%
D32*
%TO.C,C9*%
X148167600Y-226939940D03*
X148167600Y-228839940D03*
%TD*%
%TO.C,C9*%
X105167600Y-37939940D03*
X105167600Y-39839940D03*
%TD*%
%TO.C,C9*%
X62167600Y-37939940D03*
X62167600Y-39839940D03*
%TD*%
%TO.C,C9*%
X62167600Y-226939940D03*
X62167600Y-228839940D03*
%TD*%
%TO.C,C9*%
X191167600Y-163939940D03*
X191167600Y-165839940D03*
%TD*%
%TO.C,C9*%
X148167600Y-163939940D03*
X148167600Y-165839940D03*
%TD*%
%TO.C,C9*%
X19167600Y-37939940D03*
X19167600Y-39839940D03*
%TD*%
%TO.C,C9*%
X19167600Y-100939940D03*
X19167600Y-102839940D03*
%TD*%
%TO.C,C9*%
X191167600Y-100939940D03*
X191167600Y-102839940D03*
%TD*%
%TO.C,C9*%
X19167600Y-226939940D03*
X19167600Y-228839940D03*
%TD*%
%TO.C,C9*%
X191167600Y-226939940D03*
X191167600Y-228839940D03*
%TD*%
%TO.C,C9*%
X105167600Y-100939940D03*
X105167600Y-102839940D03*
%TD*%
%TO.C,C9*%
X62167600Y-100939940D03*
X62167600Y-102839940D03*
%TD*%
%TO.C,C9*%
X148167600Y-37939940D03*
X148167600Y-39839940D03*
%TD*%
%TO.C,C9*%
X105167600Y-163939940D03*
X105167600Y-165839940D03*
%TD*%
%TO.C,C9*%
X19167600Y-163939940D03*
X19167600Y-165839940D03*
%TD*%
%TO.C,C9*%
X148167600Y-100939940D03*
X148167600Y-102839940D03*
%TD*%
%TO.C,C9*%
X191167600Y-37939940D03*
X191167600Y-39839940D03*
%TD*%
%TO.C,C9*%
X105167600Y-226939940D03*
X105167600Y-228839940D03*
%TD*%
%TO.C,C9*%
X62167600Y-163939940D03*
X62167600Y-165839940D03*
%TD*%
D29*
%TO.C,C7*%
X108114000Y-205904000D03*
X108114000Y-204354000D03*
%TD*%
%TO.C,C7*%
X22114000Y-205904000D03*
X22114000Y-204354000D03*
%TD*%
%TO.C,C7*%
X22114000Y-79904000D03*
X22114000Y-78354000D03*
%TD*%
%TO.C,C7*%
X108114000Y-16904000D03*
X108114000Y-15354000D03*
%TD*%
%TO.C,C7*%
X65114000Y-205904000D03*
X65114000Y-204354000D03*
%TD*%
%TO.C,C7*%
X194114000Y-142904000D03*
X194114000Y-141354000D03*
%TD*%
%TO.C,C7*%
X151114000Y-142904000D03*
X151114000Y-141354000D03*
%TD*%
%TO.C,C7*%
X194114000Y-79904000D03*
X194114000Y-78354000D03*
%TD*%
%TO.C,C7*%
X108114000Y-79904000D03*
X108114000Y-78354000D03*
%TD*%
%TO.C,C7*%
X151114000Y-79904000D03*
X151114000Y-78354000D03*
%TD*%
%TO.C,C7*%
X194114000Y-16904000D03*
X194114000Y-15354000D03*
%TD*%
%TO.C,C7*%
X65114000Y-79904000D03*
X65114000Y-78354000D03*
%TD*%
%TO.C,C7*%
X65114000Y-16904000D03*
X65114000Y-15354000D03*
%TD*%
%TO.C,C7*%
X194114000Y-205904000D03*
X194114000Y-204354000D03*
%TD*%
%TO.C,C7*%
X108114000Y-142904000D03*
X108114000Y-141354000D03*
%TD*%
%TO.C,C7*%
X151114000Y-16904000D03*
X151114000Y-15354000D03*
%TD*%
%TO.C,C7*%
X65114000Y-142904000D03*
X65114000Y-141354000D03*
%TD*%
%TO.C,C7*%
X151114000Y-205904000D03*
X151114000Y-204354000D03*
%TD*%
%TO.C,C7*%
X22114000Y-142904000D03*
X22114000Y-141354000D03*
%TD*%
%TO.C,C7*%
X22114000Y-16904000D03*
X22114000Y-15354000D03*
%TD*%
D33*
%TO.C,C6*%
X198302460Y-161023760D03*
X198302460Y-162573760D03*
%TD*%
%TO.C,C6*%
X198302460Y-224023760D03*
X198302460Y-225573760D03*
%TD*%
%TO.C,C6*%
X112302460Y-224023760D03*
X112302460Y-225573760D03*
%TD*%
%TO.C,C6*%
X155302460Y-161023760D03*
X155302460Y-162573760D03*
%TD*%
%TO.C,C6*%
X155302460Y-224023760D03*
X155302460Y-225573760D03*
%TD*%
%TO.C,C6*%
X112302460Y-161023760D03*
X112302460Y-162573760D03*
%TD*%
%TO.C,C6*%
X198302460Y-98023760D03*
X198302460Y-99573760D03*
%TD*%
%TO.C,C6*%
X112302460Y-98023760D03*
X112302460Y-99573760D03*
%TD*%
%TO.C,C6*%
X155302460Y-98023760D03*
X155302460Y-99573760D03*
%TD*%
%TO.C,C6*%
X26302460Y-224023760D03*
X26302460Y-225573760D03*
%TD*%
%TO.C,C6*%
X26302460Y-161023760D03*
X26302460Y-162573760D03*
%TD*%
%TO.C,C6*%
X198302460Y-35023760D03*
X198302460Y-36573760D03*
%TD*%
%TO.C,C6*%
X69302460Y-98023760D03*
X69302460Y-99573760D03*
%TD*%
%TO.C,C6*%
X112302460Y-35023760D03*
X112302460Y-36573760D03*
%TD*%
%TO.C,C6*%
X69302460Y-224023760D03*
X69302460Y-225573760D03*
%TD*%
%TO.C,C6*%
X155302460Y-35023760D03*
X155302460Y-36573760D03*
%TD*%
%TO.C,C6*%
X69302460Y-161023760D03*
X69302460Y-162573760D03*
%TD*%
%TO.C,C6*%
X26302460Y-35023760D03*
X26302460Y-36573760D03*
%TD*%
%TO.C,C6*%
X26302460Y-98023760D03*
X26302460Y-99573760D03*
%TD*%
%TO.C,C6*%
X69302460Y-35023760D03*
X69302460Y-36573760D03*
%TD*%
%TO.C,C5*%
X105193000Y-224039000D03*
X105193000Y-225589000D03*
%TD*%
%TO.C,C5*%
X148193000Y-224039000D03*
X148193000Y-225589000D03*
%TD*%
%TO.C,C5*%
X148193000Y-161039000D03*
X148193000Y-162589000D03*
%TD*%
%TO.C,C5*%
X191193000Y-224039000D03*
X191193000Y-225589000D03*
%TD*%
%TO.C,C5*%
X105193000Y-35039000D03*
X105193000Y-36589000D03*
%TD*%
%TO.C,C5*%
X191193000Y-98039000D03*
X191193000Y-99589000D03*
%TD*%
%TO.C,C5*%
X105193000Y-98039000D03*
X105193000Y-99589000D03*
%TD*%
%TO.C,C5*%
X62193000Y-224039000D03*
X62193000Y-225589000D03*
%TD*%
%TO.C,C5*%
X148193000Y-98039000D03*
X148193000Y-99589000D03*
%TD*%
%TO.C,C5*%
X19193000Y-224039000D03*
X19193000Y-225589000D03*
%TD*%
%TO.C,C5*%
X62193000Y-98039000D03*
X62193000Y-99589000D03*
%TD*%
%TO.C,C5*%
X19193000Y-161039000D03*
X19193000Y-162589000D03*
%TD*%
%TO.C,C5*%
X62193000Y-35039000D03*
X62193000Y-36589000D03*
%TD*%
%TO.C,C5*%
X62193000Y-161039000D03*
X62193000Y-162589000D03*
%TD*%
%TO.C,C5*%
X148193000Y-35039000D03*
X148193000Y-36589000D03*
%TD*%
%TO.C,C5*%
X105193000Y-161039000D03*
X105193000Y-162589000D03*
%TD*%
%TO.C,C5*%
X19193000Y-98039000D03*
X19193000Y-99589000D03*
%TD*%
%TO.C,C5*%
X191193000Y-35039000D03*
X191193000Y-36589000D03*
%TD*%
%TO.C,C5*%
X19193000Y-35039000D03*
X19193000Y-36589000D03*
%TD*%
%TO.C,C5*%
X191193000Y-161039000D03*
X191193000Y-162589000D03*
%TD*%
D31*
%TO.C,C4*%
X118287000Y-239012600D03*
X116737000Y-239012600D03*
%TD*%
%TO.C,C4*%
X161287000Y-176012600D03*
X159737000Y-176012600D03*
%TD*%
%TO.C,C4*%
X204287000Y-113012600D03*
X202737000Y-113012600D03*
%TD*%
%TO.C,C4*%
X118287000Y-113012600D03*
X116737000Y-113012600D03*
%TD*%
%TO.C,C4*%
X161287000Y-113012600D03*
X159737000Y-113012600D03*
%TD*%
%TO.C,C4*%
X32287000Y-239012600D03*
X30737000Y-239012600D03*
%TD*%
%TO.C,C4*%
X32287000Y-176012600D03*
X30737000Y-176012600D03*
%TD*%
%TO.C,C4*%
X75287000Y-113012600D03*
X73737000Y-113012600D03*
%TD*%
%TO.C,C4*%
X32287000Y-50012600D03*
X30737000Y-50012600D03*
%TD*%
%TO.C,C4*%
X75287000Y-50012600D03*
X73737000Y-50012600D03*
%TD*%
%TO.C,C4*%
X161287000Y-50012600D03*
X159737000Y-50012600D03*
%TD*%
%TO.C,C4*%
X118287000Y-176012600D03*
X116737000Y-176012600D03*
%TD*%
%TO.C,C4*%
X204287000Y-176012600D03*
X202737000Y-176012600D03*
%TD*%
%TO.C,C4*%
X161287000Y-239012600D03*
X159737000Y-239012600D03*
%TD*%
%TO.C,C4*%
X204287000Y-239012600D03*
X202737000Y-239012600D03*
%TD*%
%TO.C,C4*%
X75287000Y-239012600D03*
X73737000Y-239012600D03*
%TD*%
%TO.C,C4*%
X204287000Y-50012600D03*
X202737000Y-50012600D03*
%TD*%
%TO.C,C4*%
X118287000Y-50012600D03*
X116737000Y-50012600D03*
%TD*%
%TO.C,C4*%
X75287000Y-176012600D03*
X73737000Y-176012600D03*
%TD*%
%TO.C,C4*%
X32287000Y-113012600D03*
X30737000Y-113012600D03*
%TD*%
D29*
%TO.C,C3*%
X115226000Y-50025600D03*
X115226000Y-48475600D03*
%TD*%
%TO.C,C3*%
X72226000Y-239025600D03*
X72226000Y-237475600D03*
%TD*%
%TO.C,C3*%
X201226000Y-50025600D03*
X201226000Y-48475600D03*
%TD*%
%TO.C,C3*%
X72226000Y-50025600D03*
X72226000Y-48475600D03*
%TD*%
%TO.C,C3*%
X158226000Y-50025600D03*
X158226000Y-48475600D03*
%TD*%
%TO.C,C3*%
X72226000Y-176025600D03*
X72226000Y-174475600D03*
%TD*%
%TO.C,C3*%
X29226000Y-50025600D03*
X29226000Y-48475600D03*
%TD*%
%TO.C,C3*%
X29226000Y-239025600D03*
X29226000Y-237475600D03*
%TD*%
%TO.C,C3*%
X29226000Y-113025600D03*
X29226000Y-111475600D03*
%TD*%
%TO.C,C3*%
X29226000Y-176025600D03*
X29226000Y-174475600D03*
%TD*%
%TO.C,C3*%
X72226000Y-113025600D03*
X72226000Y-111475600D03*
%TD*%
%TO.C,C3*%
X158226000Y-239025600D03*
X158226000Y-237475600D03*
%TD*%
%TO.C,C3*%
X201226000Y-176025600D03*
X201226000Y-174475600D03*
%TD*%
%TO.C,C3*%
X115226000Y-239025600D03*
X115226000Y-237475600D03*
%TD*%
%TO.C,C3*%
X201226000Y-113025600D03*
X201226000Y-111475600D03*
%TD*%
%TO.C,C3*%
X115226000Y-113025600D03*
X115226000Y-111475600D03*
%TD*%
%TO.C,C3*%
X158226000Y-113025600D03*
X158226000Y-111475600D03*
%TD*%
%TO.C,C3*%
X158226000Y-176025600D03*
X158226000Y-174475600D03*
%TD*%
%TO.C,C3*%
X115226000Y-176025600D03*
X115226000Y-174475600D03*
%TD*%
%TO.C,C3*%
X201226000Y-239025600D03*
X201226000Y-237475600D03*
%TD*%
D28*
%TO.C,C2*%
X33607500Y-235543000D03*
X33607500Y-233643000D03*
%TD*%
%TO.C,C2*%
X162607500Y-235543000D03*
X162607500Y-233643000D03*
%TD*%
%TO.C,C2*%
X205607500Y-172543000D03*
X205607500Y-170643000D03*
%TD*%
%TO.C,C2*%
X162607500Y-172543000D03*
X162607500Y-170643000D03*
%TD*%
%TO.C,C2*%
X33607500Y-172543000D03*
X33607500Y-170643000D03*
%TD*%
%TO.C,C2*%
X119607500Y-172543000D03*
X119607500Y-170643000D03*
%TD*%
%TO.C,C2*%
X205607500Y-109543000D03*
X205607500Y-107643000D03*
%TD*%
%TO.C,C2*%
X119607500Y-109543000D03*
X119607500Y-107643000D03*
%TD*%
%TO.C,C2*%
X162607500Y-109543000D03*
X162607500Y-107643000D03*
%TD*%
%TO.C,C2*%
X205607500Y-235543000D03*
X205607500Y-233643000D03*
%TD*%
%TO.C,C2*%
X119607500Y-235543000D03*
X119607500Y-233643000D03*
%TD*%
%TO.C,C2*%
X76607500Y-109543000D03*
X76607500Y-107643000D03*
%TD*%
%TO.C,C2*%
X119607500Y-46543000D03*
X119607500Y-44643000D03*
%TD*%
%TO.C,C2*%
X76607500Y-235543000D03*
X76607500Y-233643000D03*
%TD*%
%TO.C,C2*%
X33607500Y-46543000D03*
X33607500Y-44643000D03*
%TD*%
%TO.C,C2*%
X162607500Y-46543000D03*
X162607500Y-44643000D03*
%TD*%
%TO.C,C2*%
X205607500Y-46543000D03*
X205607500Y-44643000D03*
%TD*%
%TO.C,C2*%
X33607500Y-109543000D03*
X33607500Y-107643000D03*
%TD*%
%TO.C,C2*%
X76607500Y-46543000D03*
X76607500Y-44643000D03*
%TD*%
%TO.C,C2*%
X76607500Y-172543000D03*
X76607500Y-170643000D03*
%TD*%
D33*
%TO.C,C1*%
X201226000Y-107640200D03*
X201226000Y-109190200D03*
%TD*%
%TO.C,C1*%
X115226000Y-44640200D03*
X115226000Y-46190200D03*
%TD*%
%TO.C,C1*%
X201226000Y-233640200D03*
X201226000Y-235190200D03*
%TD*%
%TO.C,C1*%
X115226000Y-170640200D03*
X115226000Y-172190200D03*
%TD*%
%TO.C,C1*%
X115226000Y-107640200D03*
X115226000Y-109190200D03*
%TD*%
%TO.C,C1*%
X29226000Y-233640200D03*
X29226000Y-235190200D03*
%TD*%
%TO.C,C1*%
X29226000Y-44640200D03*
X29226000Y-46190200D03*
%TD*%
%TO.C,C1*%
X158226000Y-44640200D03*
X158226000Y-46190200D03*
%TD*%
%TO.C,C1*%
X201226000Y-170640200D03*
X201226000Y-172190200D03*
%TD*%
%TO.C,C1*%
X72226000Y-107640200D03*
X72226000Y-109190200D03*
%TD*%
%TO.C,C1*%
X29226000Y-170640200D03*
X29226000Y-172190200D03*
%TD*%
%TO.C,C1*%
X72226000Y-233640200D03*
X72226000Y-235190200D03*
%TD*%
%TO.C,C1*%
X158226000Y-107640200D03*
X158226000Y-109190200D03*
%TD*%
%TO.C,C1*%
X29226000Y-107640200D03*
X29226000Y-109190200D03*
%TD*%
%TO.C,C1*%
X72226000Y-44640200D03*
X72226000Y-46190200D03*
%TD*%
%TO.C,C1*%
X115226000Y-233640200D03*
X115226000Y-235190200D03*
%TD*%
%TO.C,C1*%
X72226000Y-170640200D03*
X72226000Y-172190200D03*
%TD*%
%TO.C,C1*%
X158226000Y-233640200D03*
X158226000Y-235190200D03*
%TD*%
%TO.C,C1*%
X158226000Y-170640200D03*
X158226000Y-172190200D03*
%TD*%
%TO.C,C1*%
X201226000Y-44640200D03*
X201226000Y-46190200D03*
%TD*%
D32*
%TO.C,C8*%
X140550140Y-224102760D03*
X140550140Y-226002760D03*
%TD*%
%TO.C,C8*%
X183550140Y-161102760D03*
X183550140Y-163002760D03*
%TD*%
%TO.C,C8*%
X140550140Y-161102760D03*
X140550140Y-163002760D03*
%TD*%
%TO.C,C8*%
X183550140Y-224102760D03*
X183550140Y-226002760D03*
%TD*%
%TO.C,C8*%
X97550140Y-224102760D03*
X97550140Y-226002760D03*
%TD*%
%TO.C,C8*%
X183550140Y-98102760D03*
X183550140Y-100002760D03*
%TD*%
%TO.C,C8*%
X97550140Y-98102760D03*
X97550140Y-100002760D03*
%TD*%
%TO.C,C8*%
X140550140Y-98102760D03*
X140550140Y-100002760D03*
%TD*%
%TO.C,C8*%
X11550140Y-224102760D03*
X11550140Y-226002760D03*
%TD*%
%TO.C,C8*%
X11550140Y-161102760D03*
X11550140Y-163002760D03*
%TD*%
%TO.C,C8*%
X11550140Y-98102760D03*
X11550140Y-100002760D03*
%TD*%
%TO.C,C8*%
X54550140Y-98102760D03*
X54550140Y-100002760D03*
%TD*%
%TO.C,C8*%
X97550140Y-35102760D03*
X97550140Y-37002760D03*
%TD*%
%TO.C,C8*%
X54550140Y-224102760D03*
X54550140Y-226002760D03*
%TD*%
%TO.C,C8*%
X140550140Y-35102760D03*
X140550140Y-37002760D03*
%TD*%
%TO.C,C8*%
X97550140Y-161102760D03*
X97550140Y-163002760D03*
%TD*%
%TO.C,C8*%
X11550140Y-35102760D03*
X11550140Y-37002760D03*
%TD*%
%TO.C,C8*%
X183550140Y-35102760D03*
X183550140Y-37002760D03*
%TD*%
%TO.C,C8*%
X54550140Y-35102760D03*
X54550140Y-37002760D03*
%TD*%
%TO.C,C8*%
X54550140Y-161102760D03*
X54550140Y-163002760D03*
%TD*%
M02*
