M48
; DRILL file {KiCad (7.0.0)} date Sat Apr 15 00:39:36 2023
; FORMAT={-:-/ absolute / inch / decimal}
; #@! TF.CreationDate,2023-04-15T00:39:36-04:00
; #@! TF.GenerationSoftware,Kicad,Pcbnew,(7.0.0)
; #@! TF.FileFunction,NonPlated,1,2,NPTH
FMAT,2
INCH
; #@! TA.AperFunction,NonPlated,NPTH,ComponentDrill
T1C0.0197
; #@! TA.AperFunction,NonPlated,NPTH,ComponentDrill
T2C0.1260
%
G90
G05
T1
X1.6043Y-0.122
X1.6043Y-0.1614
X1.6043Y-0.2008
X1.6043Y-0.2402
X1.6043Y-0.2796
X1.6043Y-0.3189
X1.6043Y-2.0866
X1.6043Y-2.126
X1.6043Y-2.1653
X1.6043Y-2.2047
X1.6043Y-2.2441
X1.6043Y-2.2835
X1.7028Y-0.122
X1.7028Y-0.1614
X1.7028Y-0.2008
X1.7028Y-0.2402
X1.7028Y-0.2796
X1.7028Y-0.3189
X1.7028Y-2.0866
X1.7028Y-2.126
X1.7028Y-2.1653
X1.7028Y-2.2047
X1.7028Y-2.2441
X1.7028Y-2.2835
T2
X0.1378Y-1.8504
X0.3937Y-0.5512
X1.4764Y-0.1378
X1.8307Y-1.8504
X2.0866Y-0.5512
X3.1693Y-0.1378
T0
M30
