M48
; DRILL file {KiCad (6.0.5)} date Tue Jun  7 03:25:41 2022
; FORMAT={-:-/ absolute / inch / decimal}
; #@! TF.CreationDate,2022-06-07T03:25:41-04:00
; #@! TF.GenerationSoftware,Kicad,Pcbnew,(6.0.5)
; #@! TF.FileFunction,NonPlated,1,2,NPTH
FMAT,2
INCH
; #@! TA.AperFunction,NonPlated,NPTH,ComponentDrill
T1C0.0197
; #@! TA.AperFunction,NonPlated,NPTH,ComponentDrill
T2C0.1260
%
G90
G05
T1
X0.874Y-1.332
X0.874Y-1.3714
X0.874Y-1.4108
X0.874Y-1.4501
X0.874Y-2.1325
X0.874Y-2.1719
X0.874Y-2.2113
X0.874Y-2.2507
X2.4724Y-1.332
X2.4724Y-1.3714
X2.4724Y-1.4108
X2.4724Y-1.4501
X2.4724Y-2.1325
X2.4724Y-2.1719
X2.4724Y-2.2113
X2.4724Y-2.2507
X2.5669Y-1.332
X2.5669Y-1.3714
X2.5669Y-1.4108
X2.5669Y-1.4501
X2.5669Y-2.1325
X2.5669Y-2.1719
X2.5669Y-2.2113
X2.5669Y-2.2507
X4.1654Y-1.332
X4.1654Y-1.3714
X4.1654Y-1.4108
X4.1654Y-1.4501
X4.1654Y-2.1325
X4.1654Y-2.1719
X4.1654Y-2.2113
X4.1654Y-2.2507
T2
X1.0039Y-2.4409
X1.2598Y-1.1417
X2.3425Y-0.7283
X2.6969Y-2.4409
X2.9528Y-1.1417
X4.0354Y-0.7283
T0
M30
