M48
; DRILL file {KiCad (6.0.5)} date Tue Jun  7 03:25:41 2022
; FORMAT={-:-/ absolute / inch / decimal}
; #@! TF.CreationDate,2022-06-07T03:25:41-04:00
; #@! TF.GenerationSoftware,Kicad,Pcbnew,(6.0.5)
; #@! TF.FileFunction,Plated,1,2,PTH
FMAT,2
INCH
; #@! TA.AperFunction,Plated,PTH,ViaDrill
T1C0.0120
; #@! TA.AperFunction,Plated,PTH,ComponentDrill
T2C0.0394
; #@! TA.AperFunction,Plated,PTH,ComponentDrill
T3C0.0400
; #@! TA.AperFunction,Plated,PTH,ComponentDrill
T4C0.0472
%
G90
G05
T1
X1.0321Y-2.2756
X1.1611Y-2.0956
X1.1701Y-1.8456
X1.2006Y-2.0956
X1.2121Y-2.0256
X1.2411Y-2.0956
X1.2451Y-1.7866
X1.2611Y-1.9401
X1.2791Y-1.7866
X1.2941Y-1.9406
X1.3291Y-2.2756
X1.3911Y-1.6906
X1.3981Y-1.9403
X1.4301Y-1.9406
X1.4511Y-2.0956
X1.4661Y-1.5656
X1.4661Y-1.6106
X1.4661Y-1.6556
X1.4911Y-2.0956
X1.5021Y-1.2866
X1.5241Y-1.8456
X1.5311Y-2.0956
X1.5361Y-1.2866
X1.5511Y-1.9396
X1.5561Y-1.1306
X1.5611Y-1.8683
X1.5841Y-1.2006
X1.5862Y-1.9406
X1.5901Y-1.5786
X1.5911Y-1.3206
X1.5961Y-1.1306
X1.5961Y-1.8683
X1.6311Y-1.8683
X1.6361Y-1.1306
X1.6561Y-1.2866
X1.6901Y-1.2866
X1.7411Y-2.5606
X1.7471Y-1.6636
X1.7861Y-1.2006
X1.8251Y-2.4072
X1.8981Y-2.1016
X1.8991Y-1.6006
X1.9741Y-2.1016
X2.0541Y-1.9906
X2.1731Y-1.6006
X2.1861Y-1.9356
X2.7251Y-2.2756
X2.8541Y-2.0956
X2.8631Y-1.8456
X2.8935Y-2.0956
X2.9051Y-2.0256
X2.9341Y-2.0956
X2.9381Y-1.7866
X2.9541Y-1.9401
X2.9721Y-1.7866
X2.9871Y-1.9406
X3.0221Y-2.2756
X3.0841Y-1.6906
X3.0911Y-1.9403
X3.1231Y-1.9406
X3.1441Y-2.0956
X3.1591Y-1.5656
X3.1591Y-1.6106
X3.1591Y-1.6556
X3.1841Y-2.0956
X3.1951Y-1.2866
X3.2171Y-1.8456
X3.2241Y-2.0956
X3.2291Y-1.2866
X3.2441Y-1.9396
X3.2491Y-1.1306
X3.2541Y-1.8683
X3.2771Y-1.2006
X3.2791Y-1.9406
X3.2831Y-1.5786
X3.2841Y-1.3206
X3.2891Y-1.1306
X3.2891Y-1.8683
X3.3241Y-1.8683
X3.3291Y-1.1306
X3.3491Y-1.2866
X3.3831Y-1.2866
X3.4341Y-2.5606
X3.4401Y-1.6636
X3.4791Y-1.2006
X3.5181Y-2.4072
X3.5911Y-2.1016
X3.5921Y-1.6006
X3.6671Y-2.1016
X3.7471Y-1.9906
X3.8661Y-1.6006
X3.8791Y-1.9356
T2
X0.9361Y-0.8506
X0.9361Y-0.9506
X0.9361Y-1.0506
X0.9361Y-1.1506
X0.9361Y-1.2506
X0.9361Y-1.3506
X0.9361Y-1.4506
X0.9361Y-1.5506
X0.9361Y-1.6506
X0.9361Y-1.7506
X0.9361Y-1.8506
X0.9361Y-1.9506
X0.9361Y-2.0506
X0.9361Y-2.1506
X0.9361Y-2.2506
X1.0861Y-1.0506
X1.0861Y-1.1506
X1.0861Y-1.2506
X1.0861Y-1.3506
X1.0861Y-1.4506
X1.0861Y-1.5506
X1.9361Y-0.8504
X1.9361Y-0.9504
X1.9361Y-1.0504
X1.9361Y-1.1504
X1.9361Y-1.2504
X1.9361Y-1.3504
X1.9361Y-1.4504
X1.9361Y-1.5504
X1.9361Y-1.6504
X1.9361Y-1.7504
X1.9361Y-1.8504
X1.9361Y-1.9504
X1.9361Y-2.0504
X1.9361Y-2.1504
X1.9361Y-2.2504
X2.1361Y-0.7506
X2.1361Y-0.8506
X2.1361Y-0.9506
X2.1361Y-1.0506
X2.1361Y-1.1506
X2.1361Y-1.2506
X2.1371Y-1.4506
X2.1371Y-1.5506
X2.1371Y-1.6506
X2.1371Y-1.7506
X2.2371Y-1.4506
X2.2371Y-1.5506
X2.2371Y-1.6506
X2.2371Y-1.7506
X2.3361Y-0.9506
X2.3361Y-1.0506
X2.3361Y-1.1506
X2.3361Y-1.2506
X2.3371Y-1.4506
X2.3371Y-1.5506
X2.3371Y-1.6506
X2.3371Y-1.7506
X2.3371Y-1.9506
X2.3371Y-2.0506
X2.3371Y-2.1506
X2.6291Y-0.8506
X2.6291Y-0.9506
X2.6291Y-1.0506
X2.6291Y-1.1506
X2.6291Y-1.2506
X2.6291Y-1.3506
X2.6291Y-1.4506
X2.6291Y-1.5506
X2.6291Y-1.6506
X2.6291Y-1.7506
X2.6291Y-1.8506
X2.6291Y-1.9506
X2.6291Y-2.0506
X2.6291Y-2.1506
X2.6291Y-2.2506
X2.7791Y-1.0506
X2.7791Y-1.1506
X2.7791Y-1.2506
X2.7791Y-1.3506
X2.7791Y-1.4506
X2.7791Y-1.5506
X3.6291Y-0.8504
X3.6291Y-0.9504
X3.6291Y-1.0504
X3.6291Y-1.1504
X3.6291Y-1.2504
X3.6291Y-1.3504
X3.6291Y-1.4504
X3.6291Y-1.5504
X3.6291Y-1.6504
X3.6291Y-1.7504
X3.6291Y-1.8504
X3.6291Y-1.9504
X3.6291Y-2.0504
X3.6291Y-2.1504
X3.6291Y-2.2504
X3.8291Y-0.7506
X3.8291Y-0.8506
X3.8291Y-0.9506
X3.8291Y-1.0506
X3.8291Y-1.1506
X3.8291Y-1.2506
X3.8301Y-1.4506
X3.8301Y-1.5506
X3.8301Y-1.6506
X3.8301Y-1.7506
X3.9301Y-1.4506
X3.9301Y-1.5506
X3.9301Y-1.6506
X3.9301Y-1.7506
X4.0291Y-0.9506
X4.0291Y-1.0506
X4.0291Y-1.1506
X4.0291Y-1.2506
X4.0301Y-1.4506
X4.0301Y-1.5506
X4.0301Y-1.6506
X4.0301Y-1.7506
X4.0301Y-1.9506
X4.0301Y-2.0506
X4.0301Y-2.1506
T3
X1.7851Y-2.0426
X1.7851Y-2.1966
X3.4781Y-2.0426
X3.4781Y-2.1966
T4
X0.9761Y-2.7906
X1.1411Y-0.7956
X1.1761Y-2.7906
X1.3411Y-0.7956
X1.3761Y-2.7906
X1.5411Y-0.7956
X1.5761Y-2.7906
X1.7411Y-0.7956
X1.7761Y-2.7906
X1.9761Y-2.7906
X2.1761Y-2.7906
X2.3761Y-2.7906
X2.6691Y-2.7906
X2.8341Y-0.7956
X2.8691Y-2.7906
X3.0341Y-0.7956
X3.0691Y-2.7906
X3.2341Y-0.7956
X3.2691Y-2.7906
X3.4341Y-0.7956
X3.4691Y-2.7906
X3.6691Y-2.7906
X3.8691Y-2.7906
X4.0691Y-2.7906
T2
G00X2.0111Y-2.4606
M15
G01X2.0111Y-2.3976
M16
G05
G00X2.1411Y-2.2421
M15
G01X2.0781Y-2.2421
M16
G05
G00X2.2474Y-2.4606
M15
G01X2.2474Y-2.3976
M16
G05
G00X3.7041Y-2.4606
M15
G01X3.7041Y-2.3976
M16
G05
G00X3.834Y-2.2421
M15
G01X3.771Y-2.2421
M16
G05
G00X3.9403Y-2.4606
M15
G01X3.9403Y-2.3976
M16
G05
T0
M30
