%TF.GenerationSoftware,KiCad,Pcbnew,(7.0.0)*%
%TF.CreationDate,2023-04-25T01:58:54-04:00*%
%TF.ProjectId,NoU2-panelized2,4e6f5532-2d70-4616-9e65-6c697a656432,rev?*%
%TF.SameCoordinates,Original*%
%TF.FileFunction,Soldermask,Bot*%
%TF.FilePolarity,Negative*%
%FSLAX46Y46*%
G04 Gerber Fmt 4.6, Leading zero omitted, Abs format (unit mm)*
G04 Created by KiCad (PCBNEW (7.0.0)) date 2023-04-25 01:58:54*
%MOMM*%
%LPD*%
G01*
G04 APERTURE LIST*
G04 Aperture macros list*
%AMRoundRect*
0 Rectangle with rounded corners*
0 $1 Rounding radius*
0 $2 $3 $4 $5 $6 $7 $8 $9 X,Y pos of 4 corners*
0 Add a 4 corners polygon primitive as box body*
4,1,4,$2,$3,$4,$5,$6,$7,$8,$9,$2,$3,0*
0 Add four circle primitives for the rounded corners*
1,1,$1+$1,$2,$3*
1,1,$1+$1,$4,$5*
1,1,$1+$1,$6,$7*
1,1,$1+$1,$8,$9*
0 Add four rect primitives between the rounded corners*
20,1,$1+$1,$2,$3,$4,$5,0*
20,1,$1+$1,$4,$5,$6,$7,0*
20,1,$1+$1,$6,$7,$8,$9,0*
20,1,$1+$1,$8,$9,$2,$3,0*%
G04 Aperture macros list end*
%ADD10C,0.500000*%
%ADD11C,2.100000*%
%ADD12C,1.500000*%
%ADD13O,1.700000X1.700000*%
%ADD14R,1.700000X1.700000*%
%ADD15C,3.200000*%
%ADD16RoundRect,0.800000X0.000000X0.600000X0.000000X0.600000X0.000000X-0.600000X0.000000X-0.600000X0*%
%ADD17RoundRect,0.800000X-0.600000X0.000000X-0.600000X0.000000X0.600000X0.000000X0.600000X0.000000X0*%
%ADD18C,2.032000*%
%ADD19C,1.700000*%
G04 APERTURE END LIST*
D10*
%TO.C,REF\u002A\u002A*%
X115001599Y-63250000D03*
%TD*%
%TO.C,REF\u002A\u002A*%
X176751000Y-217999400D03*
%TD*%
%TO.C,REF\u002A\u002A*%
X93251000Y-96000999D03*
%TD*%
%TO.C,REF\u002A\u002A*%
X133751000Y-32000599D03*
%TD*%
%TO.C,REF\u002A\u002A*%
X71001199Y-189250000D03*
%TD*%
%TO.C,REF\u002A\u002A*%
X179251000Y-159000999D03*
%TD*%
%TO.C,REF\u002A\u002A*%
X47751000Y-92999800D03*
%TD*%
%TO.C,REF\u002A\u002A*%
X111000000Y-63250000D03*
%TD*%
%TO.C,REF\u002A\u002A*%
X201001599Y-189250000D03*
%TD*%
%TO.C,REF\u002A\u002A*%
X133751000Y-217999400D03*
%TD*%
%TO.C,REF\u002A\u002A*%
X157001199Y-60750000D03*
%TD*%
%TO.C,REF\u002A\u002A*%
X93251000Y-158000599D03*
%TD*%
%TO.C,REF\u002A\u002A*%
X136251000Y-27999001D03*
%TD*%
%TO.C,REF\u002A\u002A*%
X133751000Y-96000999D03*
%TD*%
%TO.C,REF\u002A\u002A*%
X69000400Y-186750000D03*
%TD*%
%TO.C,REF\u002A\u002A*%
X47751000Y-216999000D03*
%TD*%
%TO.C,REF\u002A\u002A*%
X69000400Y-60750000D03*
%TD*%
%TO.C,REF\u002A\u002A*%
X156000800Y-126250000D03*
%TD*%
%TO.C,REF\u002A\u002A*%
X176751000Y-221000599D03*
%TD*%
%TO.C,REF\u002A\u002A*%
X69000400Y-63250000D03*
%TD*%
%TO.C,REF\u002A\u002A*%
X136251000Y-95000599D03*
%TD*%
%TO.C,REF\u002A\u002A*%
X159001999Y-123750000D03*
%TD*%
%TO.C,REF\u002A\u002A*%
X47751000Y-222000999D03*
%TD*%
%TO.C,REF\u002A\u002A*%
X176751000Y-32000599D03*
%TD*%
%TO.C,REF\u002A\u002A*%
X115001599Y-123750000D03*
%TD*%
D11*
%TO.C,J19*%
X99995695Y-194547743D03*
X104995695Y-194547743D03*
%TD*%
%TO.C,J19*%
X56995695Y-194547743D03*
X61995695Y-194547743D03*
%TD*%
%TO.C,J19*%
X56995695Y-131547743D03*
X61995695Y-131547743D03*
%TD*%
%TO.C,J19*%
X99995695Y-131547743D03*
X104995695Y-131547743D03*
%TD*%
%TO.C,J19*%
X142995695Y-68547743D03*
X147995695Y-68547743D03*
%TD*%
%TO.C,J19*%
X99995695Y-68547743D03*
X104995695Y-68547743D03*
%TD*%
%TO.C,J19*%
X13995695Y-68547743D03*
X18995695Y-68547743D03*
%TD*%
%TO.C,J19*%
X142995695Y-5547743D03*
X147995695Y-5547743D03*
%TD*%
%TO.C,J19*%
X99995695Y-5547743D03*
X104995695Y-5547743D03*
%TD*%
%TO.C,J19*%
X185995695Y-68547743D03*
X190995695Y-68547743D03*
%TD*%
%TO.C,J19*%
X142995695Y-131547743D03*
X147995695Y-131547743D03*
%TD*%
%TO.C,J19*%
X185995695Y-194547743D03*
X190995695Y-194547743D03*
%TD*%
%TO.C,J19*%
X56995695Y-68547743D03*
X61995695Y-68547743D03*
%TD*%
%TO.C,J19*%
X56995695Y-5547743D03*
X61995695Y-5547743D03*
%TD*%
%TO.C,J19*%
X185995695Y-5547743D03*
X190995695Y-5547743D03*
%TD*%
%TO.C,J19*%
X13995695Y-5547743D03*
X18995695Y-5547743D03*
%TD*%
%TO.C,J19*%
X185995695Y-131547743D03*
X190995695Y-131547743D03*
%TD*%
%TO.C,J19*%
X142995695Y-194547743D03*
X147995695Y-194547743D03*
%TD*%
%TO.C,J19*%
X13995695Y-194547743D03*
X18995695Y-194547743D03*
%TD*%
%TO.C,J19*%
X13995695Y-131547743D03*
X18995695Y-131547743D03*
%TD*%
D10*
%TO.C,REF\u002A\u002A*%
X114001199Y-63250000D03*
%TD*%
%TO.C,REF\u002A\u002A*%
X219751000Y-28999401D03*
%TD*%
%TO.C,REF\u002A\u002A*%
X136251000Y-216999000D03*
%TD*%
%TO.C,REF\u002A\u002A*%
X219751000Y-216999000D03*
%TD*%
%TO.C,REF\u002A\u002A*%
X116001999Y-123750000D03*
%TD*%
%TO.C,REF\u002A\u002A*%
X90751000Y-92999800D03*
%TD*%
D12*
%TO.C,U4*%
X124021000Y-160072000D03*
X126021000Y-160072000D03*
X128021000Y-160072000D03*
X124021000Y-164572000D03*
X126021000Y-164572000D03*
X128021000Y-164572000D03*
%TD*%
%TO.C,U4*%
X210021000Y-223072000D03*
X212021000Y-223072000D03*
X214021000Y-223072000D03*
X210021000Y-227572000D03*
X212021000Y-227572000D03*
X214021000Y-227572000D03*
%TD*%
%TO.C,U4*%
X124021000Y-223072000D03*
X126021000Y-223072000D03*
X128021000Y-223072000D03*
X124021000Y-227572000D03*
X126021000Y-227572000D03*
X128021000Y-227572000D03*
%TD*%
%TO.C,U4*%
X38021000Y-223072000D03*
X40021000Y-223072000D03*
X42021000Y-223072000D03*
X38021000Y-227572000D03*
X40021000Y-227572000D03*
X42021000Y-227572000D03*
%TD*%
%TO.C,U4*%
X38021000Y-160072000D03*
X40021000Y-160072000D03*
X42021000Y-160072000D03*
X38021000Y-164572000D03*
X40021000Y-164572000D03*
X42021000Y-164572000D03*
%TD*%
%TO.C,U4*%
X167021000Y-97072000D03*
X169021000Y-97072000D03*
X171021000Y-97072000D03*
X167021000Y-101572000D03*
X169021000Y-101572000D03*
X171021000Y-101572000D03*
%TD*%
%TO.C,U4*%
X81021000Y-223072000D03*
X83021000Y-223072000D03*
X85021000Y-223072000D03*
X81021000Y-227572000D03*
X83021000Y-227572000D03*
X85021000Y-227572000D03*
%TD*%
%TO.C,U4*%
X210021000Y-160072000D03*
X212021000Y-160072000D03*
X214021000Y-160072000D03*
X210021000Y-164572000D03*
X212021000Y-164572000D03*
X214021000Y-164572000D03*
%TD*%
%TO.C,U4*%
X81021000Y-160072000D03*
X83021000Y-160072000D03*
X85021000Y-160072000D03*
X81021000Y-164572000D03*
X83021000Y-164572000D03*
X85021000Y-164572000D03*
%TD*%
%TO.C,U4*%
X167021000Y-223072000D03*
X169021000Y-223072000D03*
X171021000Y-223072000D03*
X167021000Y-227572000D03*
X169021000Y-227572000D03*
X171021000Y-227572000D03*
%TD*%
%TO.C,U4*%
X167021000Y-34072000D03*
X169021000Y-34072000D03*
X171021000Y-34072000D03*
X167021000Y-38572000D03*
X169021000Y-38572000D03*
X171021000Y-38572000D03*
%TD*%
%TO.C,U4*%
X124021000Y-34072000D03*
X126021000Y-34072000D03*
X128021000Y-34072000D03*
X124021000Y-38572000D03*
X126021000Y-38572000D03*
X128021000Y-38572000D03*
%TD*%
%TO.C,U4*%
X38021000Y-34072000D03*
X40021000Y-34072000D03*
X42021000Y-34072000D03*
X38021000Y-38572000D03*
X40021000Y-38572000D03*
X42021000Y-38572000D03*
%TD*%
%TO.C,U4*%
X210021000Y-97072000D03*
X212021000Y-97072000D03*
X214021000Y-97072000D03*
X210021000Y-101572000D03*
X212021000Y-101572000D03*
X214021000Y-101572000D03*
%TD*%
%TO.C,U4*%
X38021000Y-97072000D03*
X40021000Y-97072000D03*
X42021000Y-97072000D03*
X38021000Y-101572000D03*
X40021000Y-101572000D03*
X42021000Y-101572000D03*
%TD*%
%TO.C,U4*%
X210021000Y-34072000D03*
X212021000Y-34072000D03*
X214021000Y-34072000D03*
X210021000Y-38572000D03*
X212021000Y-38572000D03*
X214021000Y-38572000D03*
%TD*%
%TO.C,U4*%
X167021000Y-160072000D03*
X169021000Y-160072000D03*
X171021000Y-160072000D03*
X167021000Y-164572000D03*
X169021000Y-164572000D03*
X171021000Y-164572000D03*
%TD*%
%TO.C,U4*%
X81021000Y-34072000D03*
X83021000Y-34072000D03*
X85021000Y-34072000D03*
X81021000Y-38572000D03*
X83021000Y-38572000D03*
X85021000Y-38572000D03*
%TD*%
%TO.C,U4*%
X124021000Y-97072000D03*
X126021000Y-97072000D03*
X128021000Y-97072000D03*
X124021000Y-101572000D03*
X126021000Y-101572000D03*
X128021000Y-101572000D03*
%TD*%
%TO.C,U4*%
X81021000Y-97072000D03*
X83021000Y-97072000D03*
X85021000Y-97072000D03*
X81021000Y-101572000D03*
X83021000Y-101572000D03*
X85021000Y-101572000D03*
%TD*%
D10*
%TO.C,REF\u002A\u002A*%
X159001999Y-63250000D03*
%TD*%
%TO.C,REF\u002A\u002A*%
X176751000Y-91999400D03*
%TD*%
%TO.C,REF\u002A\u002A*%
X136251000Y-222000999D03*
%TD*%
%TO.C,REF\u002A\u002A*%
X198000400Y-63250000D03*
%TD*%
%TO.C,REF\u002A\u002A*%
X176751000Y-95000599D03*
%TD*%
%TO.C,REF\u002A\u002A*%
X158001599Y-126250000D03*
%TD*%
%TO.C,REF\u002A\u002A*%
X90751000Y-90999000D03*
%TD*%
%TO.C,REF\u002A\u002A*%
X200001199Y-189250000D03*
%TD*%
%TO.C,REF\u002A\u002A*%
X68000000Y-123750000D03*
%TD*%
%TO.C,REF\u002A\u002A*%
X30001999Y-63250000D03*
%TD*%
D13*
%TO.C,U18*%
X41798999Y-215923999D03*
X41798999Y-218463999D03*
X44338999Y-215923999D03*
X44338999Y-218463999D03*
X39258999Y-215923999D03*
X39258999Y-218463999D03*
%TD*%
%TO.C,U18*%
X127798999Y-215923999D03*
X127798999Y-218463999D03*
X130338999Y-215923999D03*
X130338999Y-218463999D03*
X125258999Y-215923999D03*
X125258999Y-218463999D03*
%TD*%
%TO.C,U18*%
X170798999Y-215923999D03*
X170798999Y-218463999D03*
X173338999Y-215923999D03*
X173338999Y-218463999D03*
X168258999Y-215923999D03*
X168258999Y-218463999D03*
%TD*%
%TO.C,U18*%
X84798999Y-215923999D03*
X84798999Y-218463999D03*
X87338999Y-215923999D03*
X87338999Y-218463999D03*
X82258999Y-215923999D03*
X82258999Y-218463999D03*
%TD*%
%TO.C,U18*%
X213798999Y-152923999D03*
X213798999Y-155463999D03*
X216338999Y-152923999D03*
X216338999Y-155463999D03*
X211258999Y-152923999D03*
X211258999Y-155463999D03*
%TD*%
%TO.C,U18*%
X170798999Y-89923999D03*
X170798999Y-92463999D03*
X173338999Y-89923999D03*
X173338999Y-92463999D03*
X168258999Y-89923999D03*
X168258999Y-92463999D03*
%TD*%
%TO.C,U18*%
X213798999Y-26923999D03*
X213798999Y-29463999D03*
X216338999Y-26923999D03*
X216338999Y-29463999D03*
X211258999Y-26923999D03*
X211258999Y-29463999D03*
%TD*%
%TO.C,U18*%
X170798999Y-26923999D03*
X170798999Y-29463999D03*
X173338999Y-26923999D03*
X173338999Y-29463999D03*
X168258999Y-26923999D03*
X168258999Y-29463999D03*
%TD*%
%TO.C,U18*%
X84798999Y-26923999D03*
X84798999Y-29463999D03*
X87338999Y-26923999D03*
X87338999Y-29463999D03*
X82258999Y-26923999D03*
X82258999Y-29463999D03*
%TD*%
%TO.C,U18*%
X41798999Y-89923999D03*
X41798999Y-92463999D03*
X44338999Y-89923999D03*
X44338999Y-92463999D03*
X39258999Y-89923999D03*
X39258999Y-92463999D03*
%TD*%
%TO.C,U18*%
X170798999Y-152923999D03*
X170798999Y-155463999D03*
X173338999Y-152923999D03*
X173338999Y-155463999D03*
X168258999Y-152923999D03*
X168258999Y-155463999D03*
%TD*%
%TO.C,U18*%
X41798999Y-152923999D03*
X41798999Y-155463999D03*
X44338999Y-152923999D03*
X44338999Y-155463999D03*
X39258999Y-152923999D03*
X39258999Y-155463999D03*
%TD*%
%TO.C,U18*%
X41798999Y-26923999D03*
X41798999Y-29463999D03*
X44338999Y-26923999D03*
X44338999Y-29463999D03*
X39258999Y-26923999D03*
X39258999Y-29463999D03*
%TD*%
%TO.C,U18*%
X127798999Y-89923999D03*
X127798999Y-92463999D03*
X130338999Y-89923999D03*
X130338999Y-92463999D03*
X125258999Y-89923999D03*
X125258999Y-92463999D03*
%TD*%
%TO.C,U18*%
X213798999Y-215923999D03*
X213798999Y-218463999D03*
X216338999Y-215923999D03*
X216338999Y-218463999D03*
X211258999Y-215923999D03*
X211258999Y-218463999D03*
%TD*%
%TO.C,U18*%
X127798999Y-152923999D03*
X127798999Y-155463999D03*
X130338999Y-152923999D03*
X130338999Y-155463999D03*
X125258999Y-152923999D03*
X125258999Y-155463999D03*
%TD*%
%TO.C,U18*%
X84798999Y-152923999D03*
X84798999Y-155463999D03*
X87338999Y-152923999D03*
X87338999Y-155463999D03*
X82258999Y-152923999D03*
X82258999Y-155463999D03*
%TD*%
%TO.C,U18*%
X213798999Y-89923999D03*
X213798999Y-92463999D03*
X216338999Y-89923999D03*
X216338999Y-92463999D03*
X211258999Y-89923999D03*
X211258999Y-92463999D03*
%TD*%
%TO.C,U18*%
X84798999Y-89923999D03*
X84798999Y-92463999D03*
X87338999Y-89923999D03*
X87338999Y-92463999D03*
X82258999Y-89923999D03*
X82258999Y-92463999D03*
%TD*%
%TO.C,U18*%
X127798999Y-26923999D03*
X127798999Y-29463999D03*
X130338999Y-26923999D03*
X130338999Y-29463999D03*
X125258999Y-26923999D03*
X125258999Y-29463999D03*
%TD*%
D10*
%TO.C,REF\u002A\u002A*%
X90751000Y-216999000D03*
%TD*%
%TO.C,REF\u002A\u002A*%
X158001599Y-123750000D03*
%TD*%
%TO.C,REF\u002A\u002A*%
X133751000Y-216999000D03*
%TD*%
%TO.C,REF\u002A\u002A*%
X201001599Y-186750000D03*
%TD*%
%TO.C,REF\u002A\u002A*%
X219751000Y-217999400D03*
%TD*%
%TO.C,REF\u002A\u002A*%
X27000801Y-123750000D03*
%TD*%
%TO.C,REF\u002A\u002A*%
X73001999Y-123750000D03*
%TD*%
%TO.C,REF\u002A\u002A*%
X199000800Y-123750000D03*
%TD*%
%TO.C,REF\u002A\u002A*%
X7251000Y-29999801D03*
%TD*%
%TO.C,REF\u002A\u002A*%
X133751000Y-29999801D03*
%TD*%
%TO.C,REF\u002A\u002A*%
X29001599Y-126250000D03*
%TD*%
%TO.C,REF\u002A\u002A*%
X219751000Y-158000599D03*
%TD*%
%TO.C,REF\u002A\u002A*%
X50251000Y-153999000D03*
%TD*%
%TO.C,REF\u002A\u002A*%
X136251000Y-218999800D03*
%TD*%
%TO.C,REF\u002A\u002A*%
X50251000Y-95000599D03*
%TD*%
%TO.C,REF\u002A\u002A*%
X202001999Y-60750000D03*
%TD*%
%TO.C,REF\u002A\u002A*%
X179251000Y-153999000D03*
%TD*%
%TO.C,REF\u002A\u002A*%
X133751000Y-222000999D03*
%TD*%
%TO.C,REF\u002A\u002A*%
X50251000Y-33000999D03*
%TD*%
%TO.C,REF\u002A\u002A*%
X72001599Y-126250000D03*
%TD*%
%TO.C,REF\u002A\u002A*%
X113000800Y-186750000D03*
%TD*%
%TO.C,REF\u002A\u002A*%
X159001999Y-126250000D03*
%TD*%
%TO.C,REF\u002A\u002A*%
X50251000Y-217999400D03*
%TD*%
%TO.C,REF\u002A\u002A*%
X29001599Y-63250000D03*
%TD*%
%TO.C,REF\u002A\u002A*%
X50251000Y-220000199D03*
%TD*%
%TO.C,REF\u002A\u002A*%
X71001199Y-126250000D03*
%TD*%
%TO.C,REF\u002A\u002A*%
X158001599Y-186750000D03*
%TD*%
%TO.C,REF\u002A\u002A*%
X7251000Y-28999401D03*
%TD*%
%TO.C,REF\u002A\u002A*%
X72001599Y-189250000D03*
%TD*%
%TO.C,REF\u002A\u002A*%
X29001599Y-189250000D03*
%TD*%
%TO.C,REF\u002A\u002A*%
X179251000Y-32000599D03*
%TD*%
%TO.C,REF\u002A\u002A*%
X114001199Y-123750000D03*
%TD*%
%TO.C,REF\u002A\u002A*%
X25000001Y-126250000D03*
%TD*%
%TO.C,REF\u002A\u002A*%
X30001999Y-126250000D03*
%TD*%
%TO.C,REF\u002A\u002A*%
X69000400Y-123750000D03*
%TD*%
%TO.C,REF\u002A\u002A*%
X112000400Y-186750000D03*
%TD*%
%TO.C,REF\u002A\u002A*%
X71001199Y-60750000D03*
%TD*%
%TO.C,REF\u002A\u002A*%
X156000800Y-186750000D03*
%TD*%
%TO.C,REF\u002A\u002A*%
X176751000Y-159000999D03*
%TD*%
%TO.C,REF\u002A\u002A*%
X202001999Y-63250000D03*
%TD*%
%TO.C,REF\u002A\u002A*%
X157001199Y-123750000D03*
%TD*%
%TO.C,REF\u002A\u002A*%
X136251000Y-90999000D03*
%TD*%
%TO.C,REF\u002A\u002A*%
X50251000Y-159000999D03*
%TD*%
%TO.C,REF\u002A\u002A*%
X159001999Y-60750000D03*
%TD*%
%TO.C,REF\u002A\u002A*%
X197000000Y-126250000D03*
%TD*%
%TO.C,REF\u002A\u002A*%
X176751000Y-216999000D03*
%TD*%
%TO.C,REF\u002A\u002A*%
X47751000Y-159000999D03*
%TD*%
%TO.C,REF\u002A\u002A*%
X29001599Y-186750000D03*
%TD*%
%TO.C,REF\u002A\u002A*%
X179251000Y-28999401D03*
%TD*%
%TO.C,REF\u002A\u002A*%
X219751000Y-218999800D03*
%TD*%
%TO.C,REF\u002A\u002A*%
X7251000Y-216999000D03*
%TD*%
%TO.C,REF\u002A\u002A*%
X50251000Y-216999000D03*
%TD*%
%TO.C,REF\u002A\u002A*%
X73001999Y-63250000D03*
%TD*%
%TO.C,REF\u002A\u002A*%
X90751000Y-33000999D03*
%TD*%
%TO.C,REF\u002A\u002A*%
X133751000Y-158000599D03*
%TD*%
%TO.C,REF\u002A\u002A*%
X47751000Y-220000199D03*
%TD*%
%TO.C,REF\u002A\u002A*%
X68000000Y-189250000D03*
%TD*%
%TO.C,REF\u002A\u002A*%
X154000000Y-63250000D03*
%TD*%
%TO.C,REF\u002A\u002A*%
X68000000Y-186750000D03*
%TD*%
%TO.C,REF\u002A\u002A*%
X219751000Y-222000999D03*
%TD*%
%TO.C,REF\u002A\u002A*%
X47751000Y-155999800D03*
%TD*%
%TO.C,REF\u002A\u002A*%
X47751000Y-153999000D03*
%TD*%
%TO.C,REF\u002A\u002A*%
X47751000Y-217999400D03*
%TD*%
%TO.C,REF\u002A\u002A*%
X90751000Y-28999401D03*
%TD*%
%TO.C,REF\u002A\u002A*%
X113000800Y-126250000D03*
%TD*%
%TO.C,REF\u002A\u002A*%
X179251000Y-222000999D03*
%TD*%
%TO.C,REF\u002A\u002A*%
X50251000Y-92999800D03*
%TD*%
%TO.C,REF\u002A\u002A*%
X154000000Y-126250000D03*
%TD*%
%TO.C,REF\u002A\u002A*%
X26000401Y-63250000D03*
%TD*%
%TO.C,REF\u002A\u002A*%
X93251000Y-90999000D03*
%TD*%
%TO.C,REF\u002A\u002A*%
X155000400Y-123750000D03*
%TD*%
%TO.C,REF\u002A\u002A*%
X179251000Y-220000199D03*
%TD*%
%TO.C,REF\u002A\u002A*%
X93251000Y-154999400D03*
%TD*%
%TO.C,REF\u002A\u002A*%
X70000800Y-60750000D03*
%TD*%
%TO.C,REF\u002A\u002A*%
X197000000Y-186750000D03*
%TD*%
%TO.C,REF\u002A\u002A*%
X47751000Y-218999800D03*
%TD*%
%TO.C,REF\u002A\u002A*%
X93251000Y-27999001D03*
%TD*%
%TO.C,REF\u002A\u002A*%
X179251000Y-155999800D03*
%TD*%
%TO.C,REF\u002A\u002A*%
X29001599Y-60750000D03*
%TD*%
%TO.C,REF\u002A\u002A*%
X179251000Y-92999800D03*
%TD*%
%TO.C,REF\u002A\u002A*%
X136251000Y-94000199D03*
%TD*%
%TO.C,REF\u002A\u002A*%
X114001199Y-189250000D03*
%TD*%
%TO.C,REF\u002A\u002A*%
X179251000Y-154999400D03*
%TD*%
%TO.C,REF\u002A\u002A*%
X47751000Y-154999400D03*
%TD*%
%TO.C,REF\u002A\u002A*%
X158001599Y-63250000D03*
%TD*%
%TO.C,REF\u002A\u002A*%
X136251000Y-217999400D03*
%TD*%
%TO.C,REF\u002A\u002A*%
X219751000Y-159000999D03*
%TD*%
%TO.C,REF\u002A\u002A*%
X115001599Y-186750000D03*
%TD*%
%TO.C,REF\u002A\u002A*%
X90751000Y-94000199D03*
%TD*%
%TO.C,REF\u002A\u002A*%
X93251000Y-159000999D03*
%TD*%
%TO.C,REF\u002A\u002A*%
X28001199Y-63250000D03*
%TD*%
%TO.C,REF\u002A\u002A*%
X179251000Y-96000999D03*
%TD*%
%TO.C,REF\u002A\u002A*%
X7251000Y-92999800D03*
%TD*%
%TO.C,REF\u002A\u002A*%
X28001199Y-126250000D03*
%TD*%
D11*
%TO.C,J11*%
X14733163Y-244530120D03*
X9733163Y-244530120D03*
%TD*%
%TO.C,J11*%
X100733163Y-244530120D03*
X95733163Y-244530120D03*
%TD*%
%TO.C,J11*%
X186733163Y-244530120D03*
X181733163Y-244530120D03*
%TD*%
%TO.C,J11*%
X143733163Y-244530120D03*
X138733163Y-244530120D03*
%TD*%
%TO.C,J11*%
X57733163Y-244530120D03*
X52733163Y-244530120D03*
%TD*%
%TO.C,J11*%
X57733163Y-181530120D03*
X52733163Y-181530120D03*
%TD*%
%TO.C,J11*%
X14733163Y-181530120D03*
X9733163Y-181530120D03*
%TD*%
%TO.C,J11*%
X143733163Y-118530120D03*
X138733163Y-118530120D03*
%TD*%
%TO.C,J11*%
X100733163Y-118530120D03*
X95733163Y-118530120D03*
%TD*%
%TO.C,J11*%
X186733163Y-55530120D03*
X181733163Y-55530120D03*
%TD*%
%TO.C,J11*%
X143733163Y-181530120D03*
X138733163Y-181530120D03*
%TD*%
%TO.C,J11*%
X143733163Y-55530120D03*
X138733163Y-55530120D03*
%TD*%
%TO.C,J11*%
X100733163Y-55530120D03*
X95733163Y-55530120D03*
%TD*%
%TO.C,J11*%
X186733163Y-118530120D03*
X181733163Y-118530120D03*
%TD*%
%TO.C,J11*%
X14733163Y-55530120D03*
X9733163Y-55530120D03*
%TD*%
%TO.C,J11*%
X186733163Y-181530120D03*
X181733163Y-181530120D03*
%TD*%
%TO.C,J11*%
X100733163Y-181530120D03*
X95733163Y-181530120D03*
%TD*%
%TO.C,J11*%
X14733163Y-118530120D03*
X9733163Y-118530120D03*
%TD*%
%TO.C,J11*%
X57733163Y-118530120D03*
X52733163Y-118530120D03*
%TD*%
%TO.C,J11*%
X57733163Y-55530120D03*
X52733163Y-55530120D03*
%TD*%
D10*
%TO.C,REF\u002A\u002A*%
X30001999Y-60750000D03*
%TD*%
%TO.C,REF\u002A\u002A*%
X72001599Y-63250000D03*
%TD*%
%TO.C,REF\u002A\u002A*%
X73001999Y-60750000D03*
%TD*%
%TO.C,REF\u002A\u002A*%
X29001599Y-123750000D03*
%TD*%
%TO.C,REF\u002A\u002A*%
X179251000Y-221000599D03*
%TD*%
%TO.C,REF\u002A\u002A*%
X219751000Y-95000599D03*
%TD*%
%TO.C,REF\u002A\u002A*%
X219751000Y-32000599D03*
%TD*%
%TO.C,REF\u002A\u002A*%
X201001599Y-60750000D03*
%TD*%
%TO.C,REF\u002A\u002A*%
X50251000Y-90999000D03*
%TD*%
%TO.C,REF\u002A\u002A*%
X133751000Y-153999000D03*
%TD*%
%TO.C,REF\u002A\u002A*%
X47751000Y-32000599D03*
%TD*%
%TO.C,REF\u002A\u002A*%
X68000000Y-63250000D03*
%TD*%
%TO.C,REF\u002A\u002A*%
X72001599Y-60750000D03*
%TD*%
%TO.C,REF\u002A\u002A*%
X93251000Y-155999800D03*
%TD*%
%TO.C,REF\u002A\u002A*%
X114001199Y-186750000D03*
%TD*%
%TO.C,REF\u002A\u002A*%
X154000000Y-186750000D03*
%TD*%
%TO.C,REF\u002A\u002A*%
X50251000Y-221000599D03*
%TD*%
%TO.C,REF\u002A\u002A*%
X30001999Y-189250000D03*
%TD*%
%TO.C,REF\u002A\u002A*%
X50251000Y-94000199D03*
%TD*%
D11*
%TO.C,J18*%
X67155695Y-131547743D03*
X72155695Y-131547743D03*
%TD*%
%TO.C,J18*%
X67155695Y-194547743D03*
X72155695Y-194547743D03*
%TD*%
%TO.C,J18*%
X196155695Y-131547743D03*
X201155695Y-131547743D03*
%TD*%
%TO.C,J18*%
X196155695Y-194547743D03*
X201155695Y-194547743D03*
%TD*%
%TO.C,J18*%
X24155695Y-194547743D03*
X29155695Y-194547743D03*
%TD*%
%TO.C,J18*%
X24155695Y-131547743D03*
X29155695Y-131547743D03*
%TD*%
%TO.C,J18*%
X110155695Y-194547743D03*
X115155695Y-194547743D03*
%TD*%
%TO.C,J18*%
X153155695Y-194547743D03*
X158155695Y-194547743D03*
%TD*%
%TO.C,J18*%
X153155695Y-131547743D03*
X158155695Y-131547743D03*
%TD*%
%TO.C,J18*%
X110155695Y-131547743D03*
X115155695Y-131547743D03*
%TD*%
%TO.C,J18*%
X196155695Y-68547743D03*
X201155695Y-68547743D03*
%TD*%
%TO.C,J18*%
X24155695Y-68547743D03*
X29155695Y-68547743D03*
%TD*%
%TO.C,J18*%
X110155695Y-68547743D03*
X115155695Y-68547743D03*
%TD*%
%TO.C,J18*%
X196155695Y-5547743D03*
X201155695Y-5547743D03*
%TD*%
%TO.C,J18*%
X67155695Y-68547743D03*
X72155695Y-68547743D03*
%TD*%
%TO.C,J18*%
X24155695Y-5547743D03*
X29155695Y-5547743D03*
%TD*%
%TO.C,J18*%
X110155695Y-5547743D03*
X115155695Y-5547743D03*
%TD*%
%TO.C,J18*%
X153155695Y-68547743D03*
X158155695Y-68547743D03*
%TD*%
%TO.C,J18*%
X67155695Y-5547743D03*
X72155695Y-5547743D03*
%TD*%
%TO.C,J18*%
X153155695Y-5547743D03*
X158155695Y-5547743D03*
%TD*%
D10*
%TO.C,REF\u002A\u002A*%
X25000001Y-186750000D03*
%TD*%
%TO.C,REF\u002A\u002A*%
X71001199Y-63250000D03*
%TD*%
%TO.C,REF\u002A\u002A*%
X7251000Y-153999000D03*
%TD*%
%TO.C,REF\u002A\u002A*%
X197000000Y-60750000D03*
%TD*%
%TO.C,REF\u002A\u002A*%
X133751000Y-159000999D03*
%TD*%
%TO.C,REF\u002A\u002A*%
X50251000Y-91999400D03*
%TD*%
%TO.C,REF\u002A\u002A*%
X113000800Y-123750000D03*
%TD*%
%TO.C,REF\u002A\u002A*%
X7251000Y-95000599D03*
%TD*%
%TO.C,REF\u002A\u002A*%
X70000800Y-123750000D03*
%TD*%
%TO.C,REF\u002A\u002A*%
X154000000Y-189250000D03*
%TD*%
D14*
%TO.C,J5*%
X120178999Y-195599999D03*
D13*
X120178999Y-198139999D03*
X120178999Y-200679999D03*
X120178999Y-203219999D03*
X120178999Y-205759999D03*
X120178999Y-208299999D03*
X120178999Y-210839999D03*
X120178999Y-213379999D03*
X120178999Y-215919999D03*
X120178999Y-218459999D03*
X120178999Y-220999999D03*
X120178999Y-223539999D03*
X120178999Y-226079999D03*
X120178999Y-228619999D03*
X120178999Y-231159999D03*
%TD*%
D14*
%TO.C,J5*%
X34178999Y-132599999D03*
D13*
X34178999Y-135139999D03*
X34178999Y-137679999D03*
X34178999Y-140219999D03*
X34178999Y-142759999D03*
X34178999Y-145299999D03*
X34178999Y-147839999D03*
X34178999Y-150379999D03*
X34178999Y-152919999D03*
X34178999Y-155459999D03*
X34178999Y-157999999D03*
X34178999Y-160539999D03*
X34178999Y-163079999D03*
X34178999Y-165619999D03*
X34178999Y-168159999D03*
%TD*%
D14*
%TO.C,J5*%
X77178999Y-195599999D03*
D13*
X77178999Y-198139999D03*
X77178999Y-200679999D03*
X77178999Y-203219999D03*
X77178999Y-205759999D03*
X77178999Y-208299999D03*
X77178999Y-210839999D03*
X77178999Y-213379999D03*
X77178999Y-215919999D03*
X77178999Y-218459999D03*
X77178999Y-220999999D03*
X77178999Y-223539999D03*
X77178999Y-226079999D03*
X77178999Y-228619999D03*
X77178999Y-231159999D03*
%TD*%
D14*
%TO.C,J5*%
X206178999Y-132599999D03*
D13*
X206178999Y-135139999D03*
X206178999Y-137679999D03*
X206178999Y-140219999D03*
X206178999Y-142759999D03*
X206178999Y-145299999D03*
X206178999Y-147839999D03*
X206178999Y-150379999D03*
X206178999Y-152919999D03*
X206178999Y-155459999D03*
X206178999Y-157999999D03*
X206178999Y-160539999D03*
X206178999Y-163079999D03*
X206178999Y-165619999D03*
X206178999Y-168159999D03*
%TD*%
D14*
%TO.C,J5*%
X163178999Y-132599999D03*
D13*
X163178999Y-135139999D03*
X163178999Y-137679999D03*
X163178999Y-140219999D03*
X163178999Y-142759999D03*
X163178999Y-145299999D03*
X163178999Y-147839999D03*
X163178999Y-150379999D03*
X163178999Y-152919999D03*
X163178999Y-155459999D03*
X163178999Y-157999999D03*
X163178999Y-160539999D03*
X163178999Y-163079999D03*
X163178999Y-165619999D03*
X163178999Y-168159999D03*
%TD*%
D14*
%TO.C,J5*%
X163178999Y-195599999D03*
D13*
X163178999Y-198139999D03*
X163178999Y-200679999D03*
X163178999Y-203219999D03*
X163178999Y-205759999D03*
X163178999Y-208299999D03*
X163178999Y-210839999D03*
X163178999Y-213379999D03*
X163178999Y-215919999D03*
X163178999Y-218459999D03*
X163178999Y-220999999D03*
X163178999Y-223539999D03*
X163178999Y-226079999D03*
X163178999Y-228619999D03*
X163178999Y-231159999D03*
%TD*%
D14*
%TO.C,J5*%
X77178999Y-132599999D03*
D13*
X77178999Y-135139999D03*
X77178999Y-137679999D03*
X77178999Y-140219999D03*
X77178999Y-142759999D03*
X77178999Y-145299999D03*
X77178999Y-147839999D03*
X77178999Y-150379999D03*
X77178999Y-152919999D03*
X77178999Y-155459999D03*
X77178999Y-157999999D03*
X77178999Y-160539999D03*
X77178999Y-163079999D03*
X77178999Y-165619999D03*
X77178999Y-168159999D03*
%TD*%
D14*
%TO.C,J5*%
X34178999Y-195599999D03*
D13*
X34178999Y-198139999D03*
X34178999Y-200679999D03*
X34178999Y-203219999D03*
X34178999Y-205759999D03*
X34178999Y-208299999D03*
X34178999Y-210839999D03*
X34178999Y-213379999D03*
X34178999Y-215919999D03*
X34178999Y-218459999D03*
X34178999Y-220999999D03*
X34178999Y-223539999D03*
X34178999Y-226079999D03*
X34178999Y-228619999D03*
X34178999Y-231159999D03*
%TD*%
D14*
%TO.C,J5*%
X206178999Y-195599999D03*
D13*
X206178999Y-198139999D03*
X206178999Y-200679999D03*
X206178999Y-203219999D03*
X206178999Y-205759999D03*
X206178999Y-208299999D03*
X206178999Y-210839999D03*
X206178999Y-213379999D03*
X206178999Y-215919999D03*
X206178999Y-218459999D03*
X206178999Y-220999999D03*
X206178999Y-223539999D03*
X206178999Y-226079999D03*
X206178999Y-228619999D03*
X206178999Y-231159999D03*
%TD*%
D14*
%TO.C,J5*%
X163178999Y-69599999D03*
D13*
X163178999Y-72139999D03*
X163178999Y-74679999D03*
X163178999Y-77219999D03*
X163178999Y-79759999D03*
X163178999Y-82299999D03*
X163178999Y-84839999D03*
X163178999Y-87379999D03*
X163178999Y-89919999D03*
X163178999Y-92459999D03*
X163178999Y-94999999D03*
X163178999Y-97539999D03*
X163178999Y-100079999D03*
X163178999Y-102619999D03*
X163178999Y-105159999D03*
%TD*%
D14*
%TO.C,J5*%
X206178999Y-69599999D03*
D13*
X206178999Y-72139999D03*
X206178999Y-74679999D03*
X206178999Y-77219999D03*
X206178999Y-79759999D03*
X206178999Y-82299999D03*
X206178999Y-84839999D03*
X206178999Y-87379999D03*
X206178999Y-89919999D03*
X206178999Y-92459999D03*
X206178999Y-94999999D03*
X206178999Y-97539999D03*
X206178999Y-100079999D03*
X206178999Y-102619999D03*
X206178999Y-105159999D03*
%TD*%
D14*
%TO.C,J5*%
X34178999Y-69599999D03*
D13*
X34178999Y-72139999D03*
X34178999Y-74679999D03*
X34178999Y-77219999D03*
X34178999Y-79759999D03*
X34178999Y-82299999D03*
X34178999Y-84839999D03*
X34178999Y-87379999D03*
X34178999Y-89919999D03*
X34178999Y-92459999D03*
X34178999Y-94999999D03*
X34178999Y-97539999D03*
X34178999Y-100079999D03*
X34178999Y-102619999D03*
X34178999Y-105159999D03*
%TD*%
D14*
%TO.C,J5*%
X120178999Y-6599999D03*
D13*
X120178999Y-9139999D03*
X120178999Y-11679999D03*
X120178999Y-14219999D03*
X120178999Y-16759999D03*
X120178999Y-19299999D03*
X120178999Y-21839999D03*
X120178999Y-24379999D03*
X120178999Y-26919999D03*
X120178999Y-29459999D03*
X120178999Y-31999999D03*
X120178999Y-34539999D03*
X120178999Y-37079999D03*
X120178999Y-39619999D03*
X120178999Y-42159999D03*
%TD*%
D14*
%TO.C,J5*%
X163178999Y-6599999D03*
D13*
X163178999Y-9139999D03*
X163178999Y-11679999D03*
X163178999Y-14219999D03*
X163178999Y-16759999D03*
X163178999Y-19299999D03*
X163178999Y-21839999D03*
X163178999Y-24379999D03*
X163178999Y-26919999D03*
X163178999Y-29459999D03*
X163178999Y-31999999D03*
X163178999Y-34539999D03*
X163178999Y-37079999D03*
X163178999Y-39619999D03*
X163178999Y-42159999D03*
%TD*%
D14*
%TO.C,J5*%
X120178999Y-69599999D03*
D13*
X120178999Y-72139999D03*
X120178999Y-74679999D03*
X120178999Y-77219999D03*
X120178999Y-79759999D03*
X120178999Y-82299999D03*
X120178999Y-84839999D03*
X120178999Y-87379999D03*
X120178999Y-89919999D03*
X120178999Y-92459999D03*
X120178999Y-94999999D03*
X120178999Y-97539999D03*
X120178999Y-100079999D03*
X120178999Y-102619999D03*
X120178999Y-105159999D03*
%TD*%
D14*
%TO.C,J5*%
X77178999Y-6599999D03*
D13*
X77178999Y-9139999D03*
X77178999Y-11679999D03*
X77178999Y-14219999D03*
X77178999Y-16759999D03*
X77178999Y-19299999D03*
X77178999Y-21839999D03*
X77178999Y-24379999D03*
X77178999Y-26919999D03*
X77178999Y-29459999D03*
X77178999Y-31999999D03*
X77178999Y-34539999D03*
X77178999Y-37079999D03*
X77178999Y-39619999D03*
X77178999Y-42159999D03*
%TD*%
D14*
%TO.C,J5*%
X77178999Y-69599999D03*
D13*
X77178999Y-72139999D03*
X77178999Y-74679999D03*
X77178999Y-77219999D03*
X77178999Y-79759999D03*
X77178999Y-82299999D03*
X77178999Y-84839999D03*
X77178999Y-87379999D03*
X77178999Y-89919999D03*
X77178999Y-92459999D03*
X77178999Y-94999999D03*
X77178999Y-97539999D03*
X77178999Y-100079999D03*
X77178999Y-102619999D03*
X77178999Y-105159999D03*
%TD*%
D14*
%TO.C,J5*%
X206178999Y-6599999D03*
D13*
X206178999Y-9139999D03*
X206178999Y-11679999D03*
X206178999Y-14219999D03*
X206178999Y-16759999D03*
X206178999Y-19299999D03*
X206178999Y-21839999D03*
X206178999Y-24379999D03*
X206178999Y-26919999D03*
X206178999Y-29459999D03*
X206178999Y-31999999D03*
X206178999Y-34539999D03*
X206178999Y-37079999D03*
X206178999Y-39619999D03*
X206178999Y-42159999D03*
%TD*%
D14*
%TO.C,J5*%
X120178999Y-132599999D03*
D13*
X120178999Y-135139999D03*
X120178999Y-137679999D03*
X120178999Y-140219999D03*
X120178999Y-142759999D03*
X120178999Y-145299999D03*
X120178999Y-147839999D03*
X120178999Y-150379999D03*
X120178999Y-152919999D03*
X120178999Y-155459999D03*
X120178999Y-157999999D03*
X120178999Y-160539999D03*
X120178999Y-163079999D03*
X120178999Y-165619999D03*
X120178999Y-168159999D03*
%TD*%
D14*
%TO.C,J5*%
X34178999Y-6599999D03*
D13*
X34178999Y-9139999D03*
X34178999Y-11679999D03*
X34178999Y-14219999D03*
X34178999Y-16759999D03*
X34178999Y-19299999D03*
X34178999Y-21839999D03*
X34178999Y-24379999D03*
X34178999Y-26919999D03*
X34178999Y-29459999D03*
X34178999Y-31999999D03*
X34178999Y-34539999D03*
X34178999Y-37079999D03*
X34178999Y-39619999D03*
X34178999Y-42159999D03*
%TD*%
D10*
%TO.C,REF\u002A\u002A*%
X90751000Y-32000599D03*
%TD*%
%TO.C,REF\u002A\u002A*%
X179251000Y-157000199D03*
%TD*%
%TO.C,REF\u002A\u002A*%
X111000000Y-60750000D03*
%TD*%
%TO.C,REF\u002A\u002A*%
X72001599Y-123750000D03*
%TD*%
%TO.C,REF\u002A\u002A*%
X199000800Y-186750000D03*
%TD*%
%TO.C,REF\u002A\u002A*%
X176751000Y-218999800D03*
%TD*%
%TO.C,REF\u002A\u002A*%
X219751000Y-96000999D03*
%TD*%
%TO.C,REF\u002A\u002A*%
X116001999Y-189250000D03*
%TD*%
%TO.C,REF\u002A\u002A*%
X50251000Y-222000999D03*
%TD*%
%TO.C,REF\u002A\u002A*%
X133751000Y-220000199D03*
%TD*%
%TO.C,REF\u002A\u002A*%
X90751000Y-27999001D03*
%TD*%
%TO.C,REF\u002A\u002A*%
X179251000Y-216999000D03*
%TD*%
%TO.C,REF\u002A\u002A*%
X115001599Y-126250000D03*
%TD*%
%TO.C,REF\u002A\u002A*%
X72001599Y-186750000D03*
%TD*%
%TO.C,REF\u002A\u002A*%
X179251000Y-158000599D03*
%TD*%
%TO.C,REF\u002A\u002A*%
X179251000Y-91999400D03*
%TD*%
%TO.C,REF\u002A\u002A*%
X28001199Y-123750000D03*
%TD*%
%TO.C,REF\u002A\u002A*%
X179251000Y-95000599D03*
%TD*%
%TO.C,REF\u002A\u002A*%
X93251000Y-220000199D03*
%TD*%
%TO.C,REF\u002A\u002A*%
X202001999Y-123750000D03*
%TD*%
%TO.C,REF\u002A\u002A*%
X156000800Y-60750000D03*
%TD*%
%TO.C,REF\u002A\u002A*%
X50251000Y-32000599D03*
%TD*%
%TO.C,REF\u002A\u002A*%
X179251000Y-217999400D03*
%TD*%
%TO.C,REF\u002A\u002A*%
X199000800Y-189250000D03*
%TD*%
%TO.C,REF\u002A\u002A*%
X136251000Y-154999400D03*
%TD*%
%TO.C,REF\u002A\u002A*%
X47751000Y-95000599D03*
%TD*%
%TO.C,REF\u002A\u002A*%
X27000801Y-126250000D03*
%TD*%
%TO.C,REF\u002A\u002A*%
X176751000Y-29999801D03*
%TD*%
%TO.C,REF\u002A\u002A*%
X93251000Y-218999800D03*
%TD*%
%TO.C,REF\u002A\u002A*%
X73001999Y-189250000D03*
%TD*%
%TO.C,REF\u002A\u002A*%
X219751000Y-27999001D03*
%TD*%
%TO.C,REF\u002A\u002A*%
X176751000Y-27999001D03*
%TD*%
%TO.C,REF\u002A\u002A*%
X176751000Y-28999401D03*
%TD*%
%TO.C,REF\u002A\u002A*%
X7251000Y-159000999D03*
%TD*%
%TO.C,REF\u002A\u002A*%
X133751000Y-28999401D03*
%TD*%
%TO.C,REF\u002A\u002A*%
X73001999Y-126250000D03*
%TD*%
%TO.C,REF\u002A\u002A*%
X133751000Y-92999800D03*
%TD*%
%TO.C,REF\u002A\u002A*%
X116001999Y-60750000D03*
%TD*%
%TO.C,REF\u002A\u002A*%
X90751000Y-157000199D03*
%TD*%
%TO.C,REF\u002A\u002A*%
X136251000Y-32000599D03*
%TD*%
%TO.C,REF\u002A\u002A*%
X93251000Y-92999800D03*
%TD*%
%TO.C,REF\u002A\u002A*%
X93251000Y-28999401D03*
%TD*%
%TO.C,REF\u002A\u002A*%
X176751000Y-33000999D03*
%TD*%
%TO.C,REF\u002A\u002A*%
X90751000Y-159000999D03*
%TD*%
%TO.C,REF\u002A\u002A*%
X176751000Y-153999000D03*
%TD*%
%TO.C,REF\u002A\u002A*%
X90751000Y-153999000D03*
%TD*%
%TO.C,REF\u002A\u002A*%
X7251000Y-154999400D03*
%TD*%
%TO.C,REF\u002A\u002A*%
X155000400Y-60750000D03*
%TD*%
%TO.C,REF\u002A\u002A*%
X25000001Y-123750000D03*
%TD*%
%TO.C,REF\u002A\u002A*%
X136251000Y-91999400D03*
%TD*%
%TO.C,REF\u002A\u002A*%
X158001599Y-60750000D03*
%TD*%
%TO.C,REF\u002A\u002A*%
X90751000Y-29999801D03*
%TD*%
%TO.C,REF\u002A\u002A*%
X219751000Y-154999400D03*
%TD*%
D11*
%TO.C,J17*%
X217213163Y-244530120D03*
X212213163Y-244530120D03*
%TD*%
%TO.C,J17*%
X174213163Y-181530120D03*
X169213163Y-181530120D03*
%TD*%
%TO.C,J17*%
X45213163Y-181530120D03*
X40213163Y-181530120D03*
%TD*%
%TO.C,J17*%
X131213163Y-181530120D03*
X126213163Y-181530120D03*
%TD*%
%TO.C,J17*%
X174213163Y-244530120D03*
X169213163Y-244530120D03*
%TD*%
%TO.C,J17*%
X88213163Y-244530120D03*
X83213163Y-244530120D03*
%TD*%
%TO.C,J17*%
X45213163Y-244530120D03*
X40213163Y-244530120D03*
%TD*%
%TO.C,J17*%
X88213163Y-181530120D03*
X83213163Y-181530120D03*
%TD*%
%TO.C,J17*%
X217213163Y-181530120D03*
X212213163Y-181530120D03*
%TD*%
%TO.C,J17*%
X131213163Y-244530120D03*
X126213163Y-244530120D03*
%TD*%
%TO.C,J17*%
X174213163Y-118530120D03*
X169213163Y-118530120D03*
%TD*%
%TO.C,J17*%
X217213163Y-118530120D03*
X212213163Y-118530120D03*
%TD*%
%TO.C,J17*%
X131213163Y-118530120D03*
X126213163Y-118530120D03*
%TD*%
%TO.C,J17*%
X217213163Y-55530120D03*
X212213163Y-55530120D03*
%TD*%
%TO.C,J17*%
X174213163Y-55530120D03*
X169213163Y-55530120D03*
%TD*%
%TO.C,J17*%
X131213163Y-55530120D03*
X126213163Y-55530120D03*
%TD*%
%TO.C,J17*%
X88213163Y-55530120D03*
X83213163Y-55530120D03*
%TD*%
%TO.C,J17*%
X45213163Y-55530120D03*
X40213163Y-55530120D03*
%TD*%
%TO.C,J17*%
X45213163Y-118530120D03*
X40213163Y-118530120D03*
%TD*%
%TO.C,J17*%
X88213163Y-118530120D03*
X83213163Y-118530120D03*
%TD*%
D10*
%TO.C,REF\u002A\u002A*%
X219751000Y-94000199D03*
%TD*%
%TO.C,REF\u002A\u002A*%
X155000400Y-186750000D03*
%TD*%
%TO.C,REF\u002A\u002A*%
X136251000Y-159000999D03*
%TD*%
%TO.C,REF\u002A\u002A*%
X7251000Y-155999800D03*
%TD*%
%TO.C,REF\u002A\u002A*%
X157001199Y-63250000D03*
%TD*%
%TO.C,REF\u002A\u002A*%
X176751000Y-94000199D03*
%TD*%
%TO.C,REF\u002A\u002A*%
X70000800Y-63250000D03*
%TD*%
D15*
%TO.C,REF\u002A\u002A*%
X60001000Y-140000000D03*
%TD*%
%TO.C,REF\u002A\u002A*%
X146001000Y-203000000D03*
%TD*%
%TO.C,REF\u002A\u002A*%
X103001000Y-203000000D03*
%TD*%
%TO.C,REF\u002A\u002A*%
X189001000Y-203000000D03*
%TD*%
%TO.C,REF\u002A\u002A*%
X60001000Y-203000000D03*
%TD*%
%TO.C,REF\u002A\u002A*%
X17001000Y-140000000D03*
%TD*%
%TO.C,REF\u002A\u002A*%
X17001000Y-203000000D03*
%TD*%
%TO.C,REF\u002A\u002A*%
X189001000Y-140000000D03*
%TD*%
%TO.C,REF\u002A\u002A*%
X146001000Y-140000000D03*
%TD*%
%TO.C,REF\u002A\u002A*%
X146001000Y-77000000D03*
%TD*%
%TO.C,REF\u002A\u002A*%
X189001000Y-77000000D03*
%TD*%
%TO.C,REF\u002A\u002A*%
X103001000Y-77000000D03*
%TD*%
%TO.C,REF\u002A\u002A*%
X17001000Y-77000000D03*
%TD*%
%TO.C,REF\u002A\u002A*%
X189001000Y-14000000D03*
%TD*%
%TO.C,REF\u002A\u002A*%
X60001000Y-77000000D03*
%TD*%
%TO.C,REF\u002A\u002A*%
X146001000Y-14000000D03*
%TD*%
%TO.C,REF\u002A\u002A*%
X103001000Y-14000000D03*
%TD*%
%TO.C,REF\u002A\u002A*%
X17001000Y-14000000D03*
%TD*%
%TO.C,REF\u002A\u002A*%
X103001000Y-140000000D03*
%TD*%
%TO.C,REF\u002A\u002A*%
X60001000Y-14000000D03*
%TD*%
D10*
%TO.C,REF\u002A\u002A*%
X7251000Y-157000199D03*
%TD*%
%TO.C,REF\u002A\u002A*%
X47751000Y-221000599D03*
%TD*%
%TO.C,REF\u002A\u002A*%
X179251000Y-27999001D03*
%TD*%
%TO.C,REF\u002A\u002A*%
X50251000Y-218999800D03*
%TD*%
%TO.C,REF\u002A\u002A*%
X219751000Y-90999000D03*
%TD*%
%TO.C,REF\u002A\u002A*%
X30001999Y-123750000D03*
%TD*%
%TO.C,REF\u002A\u002A*%
X93251000Y-94000199D03*
%TD*%
%TO.C,REF\u002A\u002A*%
X71001199Y-123750000D03*
%TD*%
%TO.C,REF\u002A\u002A*%
X133751000Y-91999400D03*
%TD*%
%TO.C,REF\u002A\u002A*%
X27000801Y-63250000D03*
%TD*%
%TO.C,REF\u002A\u002A*%
X90751000Y-31000199D03*
%TD*%
%TO.C,REF\u002A\u002A*%
X219751000Y-91999400D03*
%TD*%
%TO.C,REF\u002A\u002A*%
X25000001Y-189250000D03*
%TD*%
%TO.C,REF\u002A\u002A*%
X200001199Y-63250000D03*
%TD*%
%TO.C,REF\u002A\u002A*%
X179251000Y-94000199D03*
%TD*%
%TO.C,REF\u002A\u002A*%
X136251000Y-28999401D03*
%TD*%
%TO.C,REF\u002A\u002A*%
X198000400Y-189250000D03*
%TD*%
%TO.C,REF\u002A\u002A*%
X159001999Y-189250000D03*
%TD*%
%TO.C,REF\u002A\u002A*%
X90751000Y-217999400D03*
%TD*%
%TO.C,REF\u002A\u002A*%
X7251000Y-220000199D03*
%TD*%
%TO.C,REF\u002A\u002A*%
X70000800Y-186750000D03*
%TD*%
%TO.C,REF\u002A\u002A*%
X50251000Y-96000999D03*
%TD*%
%TO.C,REF\u002A\u002A*%
X28001199Y-189250000D03*
%TD*%
%TO.C,REF\u002A\u002A*%
X136251000Y-31000199D03*
%TD*%
%TO.C,REF\u002A\u002A*%
X112000400Y-60750000D03*
%TD*%
%TO.C,REF\u002A\u002A*%
X93251000Y-31000199D03*
%TD*%
%TO.C,REF\u002A\u002A*%
X68000000Y-126250000D03*
%TD*%
%TO.C,REF\u002A\u002A*%
X70000800Y-126250000D03*
%TD*%
%TO.C,REF\u002A\u002A*%
X90751000Y-96000999D03*
%TD*%
%TO.C,REF\u002A\u002A*%
X7251000Y-33000999D03*
%TD*%
%TO.C,REF\u002A\u002A*%
X202001999Y-126250000D03*
%TD*%
%TO.C,REF\u002A\u002A*%
X93251000Y-153999000D03*
%TD*%
%TO.C,REF\u002A\u002A*%
X200001199Y-123750000D03*
%TD*%
%TO.C,REF\u002A\u002A*%
X136251000Y-96000999D03*
%TD*%
%TO.C,REF\u002A\u002A*%
X47751000Y-94000199D03*
%TD*%
%TO.C,REF\u002A\u002A*%
X111000000Y-186750000D03*
%TD*%
%TO.C,REF\u002A\u002A*%
X136251000Y-153999000D03*
%TD*%
%TO.C,REF\u002A\u002A*%
X197000000Y-63250000D03*
%TD*%
%TO.C,REF\u002A\u002A*%
X202001999Y-186750000D03*
%TD*%
%TO.C,REF\u002A\u002A*%
X176751000Y-158000599D03*
%TD*%
%TO.C,REF\u002A\u002A*%
X155000400Y-126250000D03*
%TD*%
%TO.C,REF\u002A\u002A*%
X26000401Y-189250000D03*
%TD*%
%TO.C,REF\u002A\u002A*%
X115001599Y-189250000D03*
%TD*%
%TO.C,REF\u002A\u002A*%
X136251000Y-220000199D03*
%TD*%
%TO.C,REF\u002A\u002A*%
X7251000Y-91999400D03*
%TD*%
%TO.C,REF\u002A\u002A*%
X176751000Y-96000999D03*
%TD*%
%TO.C,REF\u002A\u002A*%
X47751000Y-27999001D03*
%TD*%
%TO.C,REF\u002A\u002A*%
X176751000Y-90999000D03*
%TD*%
%TO.C,REF\u002A\u002A*%
X133751000Y-154999400D03*
%TD*%
%TO.C,REF\u002A\u002A*%
X90751000Y-91999400D03*
%TD*%
%TO.C,REF\u002A\u002A*%
X197000000Y-123750000D03*
%TD*%
%TO.C,REF\u002A\u002A*%
X68000000Y-60750000D03*
%TD*%
%TO.C,REF\u002A\u002A*%
X7251000Y-96000999D03*
%TD*%
%TO.C,REF\u002A\u002A*%
X47751000Y-33000999D03*
%TD*%
%TO.C,REF\u002A\u002A*%
X111000000Y-126250000D03*
%TD*%
%TO.C,REF\u002A\u002A*%
X136251000Y-158000599D03*
%TD*%
%TO.C,REF\u002A\u002A*%
X176751000Y-154999400D03*
%TD*%
%TO.C,REF\u002A\u002A*%
X115001599Y-60750000D03*
%TD*%
%TO.C,REF\u002A\u002A*%
X136251000Y-33000999D03*
%TD*%
%TO.C,REF\u002A\u002A*%
X93251000Y-32000599D03*
%TD*%
%TO.C,REF\u002A\u002A*%
X69000400Y-189250000D03*
%TD*%
%TO.C,REF\u002A\u002A*%
X50251000Y-157000199D03*
%TD*%
%TO.C,REF\u002A\u002A*%
X176751000Y-92999800D03*
%TD*%
%TO.C,REF\u002A\u002A*%
X47751000Y-31000199D03*
%TD*%
%TO.C,REF\u002A\u002A*%
X136251000Y-221000599D03*
%TD*%
%TO.C,REF\u002A\u002A*%
X154000000Y-60750000D03*
%TD*%
%TO.C,REF\u002A\u002A*%
X219751000Y-29999801D03*
%TD*%
%TO.C,REF\u002A\u002A*%
X136251000Y-157000199D03*
%TD*%
%TO.C,REF\u002A\u002A*%
X7251000Y-31000199D03*
%TD*%
%TO.C,REF\u002A\u002A*%
X179251000Y-33000999D03*
%TD*%
%TO.C,REF\u002A\u002A*%
X155000400Y-189250000D03*
%TD*%
%TO.C,REF\u002A\u002A*%
X7251000Y-27999001D03*
%TD*%
%TO.C,REF\u002A\u002A*%
X7251000Y-158000599D03*
%TD*%
%TO.C,REF\u002A\u002A*%
X114001199Y-60750000D03*
%TD*%
%TO.C,REF\u002A\u002A*%
X219751000Y-157000199D03*
%TD*%
%TO.C,REF\u002A\u002A*%
X219751000Y-155999800D03*
%TD*%
%TO.C,REF\u002A\u002A*%
X7251000Y-90999000D03*
%TD*%
%TO.C,REF\u002A\u002A*%
X198000400Y-60750000D03*
%TD*%
%TO.C,REF\u002A\u002A*%
X114001199Y-126250000D03*
%TD*%
%TO.C,REF\u002A\u002A*%
X7251000Y-222000999D03*
%TD*%
%TO.C,REF\u002A\u002A*%
X90751000Y-218999800D03*
%TD*%
%TO.C,REF\u002A\u002A*%
X90751000Y-220000199D03*
%TD*%
%TO.C,REF\u002A\u002A*%
X25000001Y-60750000D03*
%TD*%
%TO.C,REF\u002A\u002A*%
X7251000Y-218999800D03*
%TD*%
%TO.C,REF\u002A\u002A*%
X133751000Y-95000599D03*
%TD*%
%TO.C,REF\u002A\u002A*%
X219751000Y-92999800D03*
%TD*%
%TO.C,REF\u002A\u002A*%
X219751000Y-153999000D03*
%TD*%
%TO.C,REF\u002A\u002A*%
X199000800Y-126250000D03*
%TD*%
%TO.C,REF\u002A\u002A*%
X179251000Y-90999000D03*
%TD*%
%TO.C,REF\u002A\u002A*%
X27000801Y-189250000D03*
%TD*%
%TO.C,REF\u002A\u002A*%
X200001199Y-186750000D03*
%TD*%
%TO.C,REF\u002A\u002A*%
X50251000Y-28999401D03*
%TD*%
%TO.C,REF\u002A\u002A*%
X116001999Y-126250000D03*
%TD*%
%TO.C,REF\u002A\u002A*%
X156000800Y-189250000D03*
%TD*%
%TO.C,REF\u002A\u002A*%
X90751000Y-222000999D03*
%TD*%
%TO.C,REF\u002A\u002A*%
X47751000Y-28999401D03*
%TD*%
%TO.C,REF\u002A\u002A*%
X157001199Y-189250000D03*
%TD*%
%TO.C,REF\u002A\u002A*%
X90751000Y-95000599D03*
%TD*%
%TO.C,REF\u002A\u002A*%
X198000400Y-186750000D03*
%TD*%
%TO.C,REF\u002A\u002A*%
X198000400Y-123750000D03*
%TD*%
%TO.C,REF\u002A\u002A*%
X133751000Y-157000199D03*
%TD*%
%TO.C,REF\u002A\u002A*%
X28001199Y-60750000D03*
%TD*%
%TO.C,REF\u002A\u002A*%
X116001999Y-63250000D03*
%TD*%
D13*
%TO.C,U17*%
X127840999Y-210829999D03*
X127840999Y-213369999D03*
X130380999Y-210829999D03*
X130380999Y-213369999D03*
X125300999Y-210829999D03*
X125300999Y-213369999D03*
%TD*%
%TO.C,U17*%
X213840999Y-210829999D03*
X213840999Y-213369999D03*
X216380999Y-210829999D03*
X216380999Y-213369999D03*
X211300999Y-210829999D03*
X211300999Y-213369999D03*
%TD*%
%TO.C,U17*%
X170840999Y-210829999D03*
X170840999Y-213369999D03*
X173380999Y-210829999D03*
X173380999Y-213369999D03*
X168300999Y-210829999D03*
X168300999Y-213369999D03*
%TD*%
%TO.C,U17*%
X84840999Y-210829999D03*
X84840999Y-213369999D03*
X87380999Y-210829999D03*
X87380999Y-213369999D03*
X82300999Y-210829999D03*
X82300999Y-213369999D03*
%TD*%
%TO.C,U17*%
X41840999Y-210829999D03*
X41840999Y-213369999D03*
X44380999Y-210829999D03*
X44380999Y-213369999D03*
X39300999Y-210829999D03*
X39300999Y-213369999D03*
%TD*%
%TO.C,U17*%
X213840999Y-147829999D03*
X213840999Y-150369999D03*
X216380999Y-147829999D03*
X216380999Y-150369999D03*
X211300999Y-147829999D03*
X211300999Y-150369999D03*
%TD*%
%TO.C,U17*%
X170840999Y-147829999D03*
X170840999Y-150369999D03*
X173380999Y-147829999D03*
X173380999Y-150369999D03*
X168300999Y-147829999D03*
X168300999Y-150369999D03*
%TD*%
%TO.C,U17*%
X41840999Y-147829999D03*
X41840999Y-150369999D03*
X44380999Y-147829999D03*
X44380999Y-150369999D03*
X39300999Y-147829999D03*
X39300999Y-150369999D03*
%TD*%
%TO.C,U17*%
X127840999Y-84829999D03*
X127840999Y-87369999D03*
X130380999Y-84829999D03*
X130380999Y-87369999D03*
X125300999Y-84829999D03*
X125300999Y-87369999D03*
%TD*%
%TO.C,U17*%
X213840999Y-84829999D03*
X213840999Y-87369999D03*
X216380999Y-84829999D03*
X216380999Y-87369999D03*
X211300999Y-84829999D03*
X211300999Y-87369999D03*
%TD*%
%TO.C,U17*%
X170840999Y-84829999D03*
X170840999Y-87369999D03*
X173380999Y-84829999D03*
X173380999Y-87369999D03*
X168300999Y-84829999D03*
X168300999Y-87369999D03*
%TD*%
%TO.C,U17*%
X41840999Y-84829999D03*
X41840999Y-87369999D03*
X44380999Y-84829999D03*
X44380999Y-87369999D03*
X39300999Y-84829999D03*
X39300999Y-87369999D03*
%TD*%
%TO.C,U17*%
X127840999Y-21829999D03*
X127840999Y-24369999D03*
X130380999Y-21829999D03*
X130380999Y-24369999D03*
X125300999Y-21829999D03*
X125300999Y-24369999D03*
%TD*%
%TO.C,U17*%
X213840999Y-21829999D03*
X213840999Y-24369999D03*
X216380999Y-21829999D03*
X216380999Y-24369999D03*
X211300999Y-21829999D03*
X211300999Y-24369999D03*
%TD*%
%TO.C,U17*%
X84840999Y-84829999D03*
X84840999Y-87369999D03*
X87380999Y-84829999D03*
X87380999Y-87369999D03*
X82300999Y-84829999D03*
X82300999Y-87369999D03*
%TD*%
%TO.C,U17*%
X84840999Y-21829999D03*
X84840999Y-24369999D03*
X87380999Y-21829999D03*
X87380999Y-24369999D03*
X82300999Y-21829999D03*
X82300999Y-24369999D03*
%TD*%
%TO.C,U17*%
X170840999Y-21829999D03*
X170840999Y-24369999D03*
X173380999Y-21829999D03*
X173380999Y-24369999D03*
X168300999Y-21829999D03*
X168300999Y-24369999D03*
%TD*%
%TO.C,U17*%
X41840999Y-21829999D03*
X41840999Y-24369999D03*
X44380999Y-21829999D03*
X44380999Y-24369999D03*
X39300999Y-21829999D03*
X39300999Y-24369999D03*
%TD*%
%TO.C,U17*%
X84840999Y-147829999D03*
X84840999Y-150369999D03*
X87380999Y-147829999D03*
X87380999Y-150369999D03*
X82300999Y-147829999D03*
X82300999Y-150369999D03*
%TD*%
%TO.C,U17*%
X127840999Y-147829999D03*
X127840999Y-150369999D03*
X130380999Y-147829999D03*
X130380999Y-150369999D03*
X125300999Y-147829999D03*
X125300999Y-150369999D03*
%TD*%
D10*
%TO.C,REF\u002A\u002A*%
X7251000Y-221000599D03*
%TD*%
%TO.C,REF\u002A\u002A*%
X176751000Y-220000199D03*
%TD*%
%TO.C,REF\u002A\u002A*%
X90751000Y-154999400D03*
%TD*%
%TO.C,REF\u002A\u002A*%
X219751000Y-31000199D03*
%TD*%
%TO.C,REF\u002A\u002A*%
X113000800Y-60750000D03*
%TD*%
%TO.C,REF\u002A\u002A*%
X50251000Y-158000599D03*
%TD*%
%TO.C,REF\u002A\u002A*%
X136251000Y-29999801D03*
%TD*%
%TO.C,REF\u002A\u002A*%
X50251000Y-154999400D03*
%TD*%
%TO.C,REF\u002A\u002A*%
X93251000Y-157000199D03*
%TD*%
%TO.C,REF\u002A\u002A*%
X27000801Y-60750000D03*
%TD*%
%TO.C,REF\u002A\u002A*%
X200001199Y-60750000D03*
%TD*%
%TO.C,REF\u002A\u002A*%
X7251000Y-32000599D03*
%TD*%
%TO.C,REF\u002A\u002A*%
X26000401Y-126250000D03*
%TD*%
%TO.C,REF\u002A\u002A*%
X93251000Y-221000599D03*
%TD*%
D16*
%TO.C,J10*%
X208096000Y-172700000D03*
X214746000Y-172700000D03*
D17*
X210646000Y-168000000D03*
%TD*%
D16*
%TO.C,J10*%
X208096000Y-235700000D03*
X214746000Y-235700000D03*
D17*
X210646000Y-231000000D03*
%TD*%
D16*
%TO.C,J10*%
X122096000Y-235700000D03*
X128746000Y-235700000D03*
D17*
X124646000Y-231000000D03*
%TD*%
D16*
%TO.C,J10*%
X165096000Y-235700000D03*
X171746000Y-235700000D03*
D17*
X167646000Y-231000000D03*
%TD*%
D16*
%TO.C,J10*%
X79096000Y-235700000D03*
X85746000Y-235700000D03*
D17*
X81646000Y-231000000D03*
%TD*%
D16*
%TO.C,J10*%
X36096000Y-235700000D03*
X42746000Y-235700000D03*
D17*
X38646000Y-231000000D03*
%TD*%
D16*
%TO.C,J10*%
X36096000Y-172700000D03*
X42746000Y-172700000D03*
D17*
X38646000Y-168000000D03*
%TD*%
D16*
%TO.C,J10*%
X165096000Y-109700000D03*
X171746000Y-109700000D03*
D17*
X167646000Y-105000000D03*
%TD*%
D16*
%TO.C,J10*%
X36096000Y-46700000D03*
X42746000Y-46700000D03*
D17*
X38646000Y-42000000D03*
%TD*%
D16*
%TO.C,J10*%
X208096000Y-46700000D03*
X214746000Y-46700000D03*
D17*
X210646000Y-42000000D03*
%TD*%
D16*
%TO.C,J10*%
X79096000Y-46700000D03*
X85746000Y-46700000D03*
D17*
X81646000Y-42000000D03*
%TD*%
D16*
%TO.C,J10*%
X165096000Y-46700000D03*
X171746000Y-46700000D03*
D17*
X167646000Y-42000000D03*
%TD*%
D16*
%TO.C,J10*%
X79096000Y-109700000D03*
X85746000Y-109700000D03*
D17*
X81646000Y-105000000D03*
%TD*%
D16*
%TO.C,J10*%
X165096000Y-172700000D03*
X171746000Y-172700000D03*
D17*
X167646000Y-168000000D03*
%TD*%
D16*
%TO.C,J10*%
X208096000Y-109700000D03*
X214746000Y-109700000D03*
D17*
X210646000Y-105000000D03*
%TD*%
D16*
%TO.C,J10*%
X122096000Y-109700000D03*
X128746000Y-109700000D03*
D17*
X124646000Y-105000000D03*
%TD*%
D16*
%TO.C,J10*%
X122096000Y-46700000D03*
X128746000Y-46700000D03*
D17*
X124646000Y-42000000D03*
%TD*%
D16*
%TO.C,J10*%
X79096000Y-172700000D03*
X85746000Y-172700000D03*
D17*
X81646000Y-168000000D03*
%TD*%
D16*
%TO.C,J10*%
X122096000Y-172700000D03*
X128746000Y-172700000D03*
D17*
X124646000Y-168000000D03*
%TD*%
D16*
%TO.C,J10*%
X36096000Y-109700000D03*
X42746000Y-109700000D03*
D17*
X38646000Y-105000000D03*
%TD*%
D10*
%TO.C,REF\u002A\u002A*%
X50251000Y-31000199D03*
%TD*%
%TO.C,REF\u002A\u002A*%
X26000401Y-60750000D03*
%TD*%
%TO.C,REF\u002A\u002A*%
X136251000Y-155999800D03*
%TD*%
%TO.C,REF\u002A\u002A*%
X111000000Y-123750000D03*
%TD*%
%TO.C,REF\u002A\u002A*%
X157001199Y-126250000D03*
%TD*%
%TO.C,REF\u002A\u002A*%
X7251000Y-217999400D03*
%TD*%
%TO.C,REF\u002A\u002A*%
X155000400Y-63250000D03*
%TD*%
%TO.C,REF\u002A\u002A*%
X50251000Y-29999801D03*
%TD*%
%TO.C,REF\u002A\u002A*%
X47751000Y-157000199D03*
%TD*%
%TO.C,REF\u002A\u002A*%
X112000400Y-123750000D03*
%TD*%
%TO.C,REF\u002A\u002A*%
X201001599Y-63250000D03*
%TD*%
%TO.C,REF\u002A\u002A*%
X26000401Y-186750000D03*
%TD*%
%TO.C,REF\u002A\u002A*%
X93251000Y-29999801D03*
%TD*%
%TO.C,REF\u002A\u002A*%
X50251000Y-27999001D03*
%TD*%
%TO.C,REF\u002A\u002A*%
X27000801Y-186750000D03*
%TD*%
%TO.C,REF\u002A\u002A*%
X176751000Y-222000999D03*
%TD*%
%TO.C,REF\u002A\u002A*%
X133751000Y-218999800D03*
%TD*%
%TO.C,REF\u002A\u002A*%
X136251000Y-92999800D03*
%TD*%
%TO.C,REF\u002A\u002A*%
X7251000Y-94000199D03*
%TD*%
%TO.C,REF\u002A\u002A*%
X93251000Y-217999400D03*
%TD*%
%TO.C,REF\u002A\u002A*%
X219751000Y-33000999D03*
%TD*%
%TO.C,REF\u002A\u002A*%
X112000400Y-189250000D03*
%TD*%
%TO.C,REF\u002A\u002A*%
X116001999Y-186750000D03*
%TD*%
%TO.C,REF\u002A\u002A*%
X133751000Y-31000199D03*
%TD*%
%TO.C,REF\u002A\u002A*%
X219751000Y-221000599D03*
%TD*%
%TO.C,REF\u002A\u002A*%
X158001599Y-189250000D03*
%TD*%
%TO.C,REF\u002A\u002A*%
X176751000Y-155999800D03*
%TD*%
%TO.C,REF\u002A\u002A*%
X200001199Y-126250000D03*
%TD*%
%TO.C,REF\u002A\u002A*%
X154000000Y-123750000D03*
%TD*%
%TO.C,REF\u002A\u002A*%
X93251000Y-95000599D03*
%TD*%
D11*
%TO.C,J15*%
X196893163Y-244530120D03*
X191893163Y-244530120D03*
%TD*%
%TO.C,J15*%
X110893163Y-244530120D03*
X105893163Y-244530120D03*
%TD*%
%TO.C,J15*%
X67893163Y-244530120D03*
X62893163Y-244530120D03*
%TD*%
%TO.C,J15*%
X153893163Y-244530120D03*
X148893163Y-244530120D03*
%TD*%
%TO.C,J15*%
X24893163Y-244530120D03*
X19893163Y-244530120D03*
%TD*%
%TO.C,J15*%
X196893163Y-181530120D03*
X191893163Y-181530120D03*
%TD*%
%TO.C,J15*%
X153893163Y-181530120D03*
X148893163Y-181530120D03*
%TD*%
%TO.C,J15*%
X67893163Y-181530120D03*
X62893163Y-181530120D03*
%TD*%
%TO.C,J15*%
X24893163Y-181530120D03*
X19893163Y-181530120D03*
%TD*%
%TO.C,J15*%
X110893163Y-181530120D03*
X105893163Y-181530120D03*
%TD*%
%TO.C,J15*%
X153893163Y-118530120D03*
X148893163Y-118530120D03*
%TD*%
%TO.C,J15*%
X196893163Y-118530120D03*
X191893163Y-118530120D03*
%TD*%
%TO.C,J15*%
X110893163Y-118530120D03*
X105893163Y-118530120D03*
%TD*%
%TO.C,J15*%
X196893163Y-55530120D03*
X191893163Y-55530120D03*
%TD*%
%TO.C,J15*%
X67893163Y-118530120D03*
X62893163Y-118530120D03*
%TD*%
%TO.C,J15*%
X67893163Y-55530120D03*
X62893163Y-55530120D03*
%TD*%
%TO.C,J15*%
X24893163Y-55530120D03*
X19893163Y-55530120D03*
%TD*%
%TO.C,J15*%
X24893163Y-118530120D03*
X19893163Y-118530120D03*
%TD*%
%TO.C,J15*%
X153893163Y-55530120D03*
X148893163Y-55530120D03*
%TD*%
%TO.C,J15*%
X110893163Y-55530120D03*
X105893163Y-55530120D03*
%TD*%
D10*
%TO.C,REF\u002A\u002A*%
X176751000Y-31000199D03*
%TD*%
%TO.C,REF\u002A\u002A*%
X47751000Y-29999801D03*
%TD*%
%TO.C,REF\u002A\u002A*%
X201001599Y-123750000D03*
%TD*%
%TO.C,REF\u002A\u002A*%
X176751000Y-157000199D03*
%TD*%
%TO.C,REF\u002A\u002A*%
X179251000Y-31000199D03*
%TD*%
%TO.C,REF\u002A\u002A*%
X156000800Y-123750000D03*
%TD*%
%TO.C,REF\u002A\u002A*%
X90751000Y-155999800D03*
%TD*%
%TO.C,REF\u002A\u002A*%
X50251000Y-155999800D03*
%TD*%
%TO.C,REF\u002A\u002A*%
X199000800Y-63250000D03*
%TD*%
%TO.C,REF\u002A\u002A*%
X113000800Y-63250000D03*
%TD*%
%TO.C,REF\u002A\u002A*%
X71001199Y-186750000D03*
%TD*%
%TO.C,REF\u002A\u002A*%
X26000401Y-123750000D03*
%TD*%
%TO.C,REF\u002A\u002A*%
X219751000Y-220000199D03*
%TD*%
%TO.C,REF\u002A\u002A*%
X93251000Y-216999000D03*
%TD*%
%TO.C,REF\u002A\u002A*%
X69000400Y-126250000D03*
%TD*%
%TO.C,REF\u002A\u002A*%
X133751000Y-33000999D03*
%TD*%
%TO.C,REF\u002A\u002A*%
X179251000Y-218999800D03*
%TD*%
%TO.C,REF\u002A\u002A*%
X133751000Y-94000199D03*
%TD*%
%TO.C,REF\u002A\u002A*%
X197000000Y-189250000D03*
%TD*%
%TO.C,REF\u002A\u002A*%
X133751000Y-90999000D03*
%TD*%
%TO.C,REF\u002A\u002A*%
X47751000Y-91999400D03*
%TD*%
%TO.C,REF\u002A\u002A*%
X199000800Y-60750000D03*
%TD*%
%TO.C,REF\u002A\u002A*%
X133751000Y-221000599D03*
%TD*%
%TO.C,REF\u002A\u002A*%
X198000400Y-126250000D03*
%TD*%
%TO.C,REF\u002A\u002A*%
X157001199Y-186750000D03*
%TD*%
%TO.C,REF\u002A\u002A*%
X30001999Y-186750000D03*
%TD*%
%TO.C,REF\u002A\u002A*%
X73001999Y-186750000D03*
%TD*%
%TO.C,REF\u002A\u002A*%
X133751000Y-27999001D03*
%TD*%
%TO.C,REF\u002A\u002A*%
X93251000Y-222000999D03*
%TD*%
%TO.C,REF\u002A\u002A*%
X25000001Y-63250000D03*
%TD*%
%TO.C,REF\u002A\u002A*%
X112000400Y-63250000D03*
%TD*%
%TO.C,REF\u002A\u002A*%
X159001999Y-186750000D03*
%TD*%
D14*
%TO.C,J2*%
X180778999Y-6603999D03*
D13*
X180778999Y-9143999D03*
X180778999Y-11683999D03*
X180778999Y-14223999D03*
X180778999Y-16763999D03*
X180778999Y-19303999D03*
X180778999Y-21843999D03*
X180778999Y-24383999D03*
X180778999Y-26923999D03*
X180778999Y-29463999D03*
X180778999Y-32003999D03*
X180778999Y-34543999D03*
X180778999Y-37083999D03*
X180778999Y-39623999D03*
X180778999Y-42163999D03*
%TD*%
D14*
%TO.C,J2*%
X137778999Y-6603999D03*
D13*
X137778999Y-9143999D03*
X137778999Y-11683999D03*
X137778999Y-14223999D03*
X137778999Y-16763999D03*
X137778999Y-19303999D03*
X137778999Y-21843999D03*
X137778999Y-24383999D03*
X137778999Y-26923999D03*
X137778999Y-29463999D03*
X137778999Y-32003999D03*
X137778999Y-34543999D03*
X137778999Y-37083999D03*
X137778999Y-39623999D03*
X137778999Y-42163999D03*
%TD*%
D14*
%TO.C,J2*%
X51778999Y-69603999D03*
D13*
X51778999Y-72143999D03*
X51778999Y-74683999D03*
X51778999Y-77223999D03*
X51778999Y-79763999D03*
X51778999Y-82303999D03*
X51778999Y-84843999D03*
X51778999Y-87383999D03*
X51778999Y-89923999D03*
X51778999Y-92463999D03*
X51778999Y-95003999D03*
X51778999Y-97543999D03*
X51778999Y-100083999D03*
X51778999Y-102623999D03*
X51778999Y-105163999D03*
%TD*%
D14*
%TO.C,J2*%
X94778999Y-6603999D03*
D13*
X94778999Y-9143999D03*
X94778999Y-11683999D03*
X94778999Y-14223999D03*
X94778999Y-16763999D03*
X94778999Y-19303999D03*
X94778999Y-21843999D03*
X94778999Y-24383999D03*
X94778999Y-26923999D03*
X94778999Y-29463999D03*
X94778999Y-32003999D03*
X94778999Y-34543999D03*
X94778999Y-37083999D03*
X94778999Y-39623999D03*
X94778999Y-42163999D03*
%TD*%
D14*
%TO.C,J2*%
X51778999Y-6603999D03*
D13*
X51778999Y-9143999D03*
X51778999Y-11683999D03*
X51778999Y-14223999D03*
X51778999Y-16763999D03*
X51778999Y-19303999D03*
X51778999Y-21843999D03*
X51778999Y-24383999D03*
X51778999Y-26923999D03*
X51778999Y-29463999D03*
X51778999Y-32003999D03*
X51778999Y-34543999D03*
X51778999Y-37083999D03*
X51778999Y-39623999D03*
X51778999Y-42163999D03*
%TD*%
D14*
%TO.C,J2*%
X8778999Y-6603999D03*
D13*
X8778999Y-9143999D03*
X8778999Y-11683999D03*
X8778999Y-14223999D03*
X8778999Y-16763999D03*
X8778999Y-19303999D03*
X8778999Y-21843999D03*
X8778999Y-24383999D03*
X8778999Y-26923999D03*
X8778999Y-29463999D03*
X8778999Y-32003999D03*
X8778999Y-34543999D03*
X8778999Y-37083999D03*
X8778999Y-39623999D03*
X8778999Y-42163999D03*
%TD*%
D14*
%TO.C,J2*%
X8778999Y-132603999D03*
D13*
X8778999Y-135143999D03*
X8778999Y-137683999D03*
X8778999Y-140223999D03*
X8778999Y-142763999D03*
X8778999Y-145303999D03*
X8778999Y-147843999D03*
X8778999Y-150383999D03*
X8778999Y-152923999D03*
X8778999Y-155463999D03*
X8778999Y-158003999D03*
X8778999Y-160543999D03*
X8778999Y-163083999D03*
X8778999Y-165623999D03*
X8778999Y-168163999D03*
%TD*%
D14*
%TO.C,J2*%
X137778999Y-69603999D03*
D13*
X137778999Y-72143999D03*
X137778999Y-74683999D03*
X137778999Y-77223999D03*
X137778999Y-79763999D03*
X137778999Y-82303999D03*
X137778999Y-84843999D03*
X137778999Y-87383999D03*
X137778999Y-89923999D03*
X137778999Y-92463999D03*
X137778999Y-95003999D03*
X137778999Y-97543999D03*
X137778999Y-100083999D03*
X137778999Y-102623999D03*
X137778999Y-105163999D03*
%TD*%
D14*
%TO.C,J2*%
X8778999Y-195603999D03*
D13*
X8778999Y-198143999D03*
X8778999Y-200683999D03*
X8778999Y-203223999D03*
X8778999Y-205763999D03*
X8778999Y-208303999D03*
X8778999Y-210843999D03*
X8778999Y-213383999D03*
X8778999Y-215923999D03*
X8778999Y-218463999D03*
X8778999Y-221003999D03*
X8778999Y-223543999D03*
X8778999Y-226083999D03*
X8778999Y-228623999D03*
X8778999Y-231163999D03*
%TD*%
D14*
%TO.C,J2*%
X180778999Y-69603999D03*
D13*
X180778999Y-72143999D03*
X180778999Y-74683999D03*
X180778999Y-77223999D03*
X180778999Y-79763999D03*
X180778999Y-82303999D03*
X180778999Y-84843999D03*
X180778999Y-87383999D03*
X180778999Y-89923999D03*
X180778999Y-92463999D03*
X180778999Y-95003999D03*
X180778999Y-97543999D03*
X180778999Y-100083999D03*
X180778999Y-102623999D03*
X180778999Y-105163999D03*
%TD*%
D14*
%TO.C,J2*%
X51778999Y-132603999D03*
D13*
X51778999Y-135143999D03*
X51778999Y-137683999D03*
X51778999Y-140223999D03*
X51778999Y-142763999D03*
X51778999Y-145303999D03*
X51778999Y-147843999D03*
X51778999Y-150383999D03*
X51778999Y-152923999D03*
X51778999Y-155463999D03*
X51778999Y-158003999D03*
X51778999Y-160543999D03*
X51778999Y-163083999D03*
X51778999Y-165623999D03*
X51778999Y-168163999D03*
%TD*%
D14*
%TO.C,J2*%
X94778999Y-132603999D03*
D13*
X94778999Y-135143999D03*
X94778999Y-137683999D03*
X94778999Y-140223999D03*
X94778999Y-142763999D03*
X94778999Y-145303999D03*
X94778999Y-147843999D03*
X94778999Y-150383999D03*
X94778999Y-152923999D03*
X94778999Y-155463999D03*
X94778999Y-158003999D03*
X94778999Y-160543999D03*
X94778999Y-163083999D03*
X94778999Y-165623999D03*
X94778999Y-168163999D03*
%TD*%
D14*
%TO.C,J2*%
X51778999Y-195603999D03*
D13*
X51778999Y-198143999D03*
X51778999Y-200683999D03*
X51778999Y-203223999D03*
X51778999Y-205763999D03*
X51778999Y-208303999D03*
X51778999Y-210843999D03*
X51778999Y-213383999D03*
X51778999Y-215923999D03*
X51778999Y-218463999D03*
X51778999Y-221003999D03*
X51778999Y-223543999D03*
X51778999Y-226083999D03*
X51778999Y-228623999D03*
X51778999Y-231163999D03*
%TD*%
D14*
%TO.C,J2*%
X137778999Y-132603999D03*
D13*
X137778999Y-135143999D03*
X137778999Y-137683999D03*
X137778999Y-140223999D03*
X137778999Y-142763999D03*
X137778999Y-145303999D03*
X137778999Y-147843999D03*
X137778999Y-150383999D03*
X137778999Y-152923999D03*
X137778999Y-155463999D03*
X137778999Y-158003999D03*
X137778999Y-160543999D03*
X137778999Y-163083999D03*
X137778999Y-165623999D03*
X137778999Y-168163999D03*
%TD*%
D14*
%TO.C,J2*%
X8778999Y-69603999D03*
D13*
X8778999Y-72143999D03*
X8778999Y-74683999D03*
X8778999Y-77223999D03*
X8778999Y-79763999D03*
X8778999Y-82303999D03*
X8778999Y-84843999D03*
X8778999Y-87383999D03*
X8778999Y-89923999D03*
X8778999Y-92463999D03*
X8778999Y-95003999D03*
X8778999Y-97543999D03*
X8778999Y-100083999D03*
X8778999Y-102623999D03*
X8778999Y-105163999D03*
%TD*%
D14*
%TO.C,J2*%
X180778999Y-195603999D03*
D13*
X180778999Y-198143999D03*
X180778999Y-200683999D03*
X180778999Y-203223999D03*
X180778999Y-205763999D03*
X180778999Y-208303999D03*
X180778999Y-210843999D03*
X180778999Y-213383999D03*
X180778999Y-215923999D03*
X180778999Y-218463999D03*
X180778999Y-221003999D03*
X180778999Y-223543999D03*
X180778999Y-226083999D03*
X180778999Y-228623999D03*
X180778999Y-231163999D03*
%TD*%
D14*
%TO.C,J2*%
X94778999Y-69603999D03*
D13*
X94778999Y-72143999D03*
X94778999Y-74683999D03*
X94778999Y-77223999D03*
X94778999Y-79763999D03*
X94778999Y-82303999D03*
X94778999Y-84843999D03*
X94778999Y-87383999D03*
X94778999Y-89923999D03*
X94778999Y-92463999D03*
X94778999Y-95003999D03*
X94778999Y-97543999D03*
X94778999Y-100083999D03*
X94778999Y-102623999D03*
X94778999Y-105163999D03*
%TD*%
D14*
%TO.C,J2*%
X137778999Y-195603999D03*
D13*
X137778999Y-198143999D03*
X137778999Y-200683999D03*
X137778999Y-203223999D03*
X137778999Y-205763999D03*
X137778999Y-208303999D03*
X137778999Y-210843999D03*
X137778999Y-213383999D03*
X137778999Y-215923999D03*
X137778999Y-218463999D03*
X137778999Y-221003999D03*
X137778999Y-223543999D03*
X137778999Y-226083999D03*
X137778999Y-228623999D03*
X137778999Y-231163999D03*
%TD*%
D14*
%TO.C,J2*%
X180778999Y-132603999D03*
D13*
X180778999Y-135143999D03*
X180778999Y-137683999D03*
X180778999Y-140223999D03*
X180778999Y-142763999D03*
X180778999Y-145303999D03*
X180778999Y-147843999D03*
X180778999Y-150383999D03*
X180778999Y-152923999D03*
X180778999Y-155463999D03*
X180778999Y-158003999D03*
X180778999Y-160543999D03*
X180778999Y-163083999D03*
X180778999Y-165623999D03*
X180778999Y-168163999D03*
%TD*%
D14*
%TO.C,J2*%
X94778999Y-195603999D03*
D13*
X94778999Y-198143999D03*
X94778999Y-200683999D03*
X94778999Y-203223999D03*
X94778999Y-205763999D03*
X94778999Y-208303999D03*
X94778999Y-210843999D03*
X94778999Y-213383999D03*
X94778999Y-215923999D03*
X94778999Y-218463999D03*
X94778999Y-221003999D03*
X94778999Y-223543999D03*
X94778999Y-226083999D03*
X94778999Y-228623999D03*
X94778999Y-231163999D03*
%TD*%
D11*
%TO.C,J16*%
X35053163Y-181530120D03*
X30053163Y-181530120D03*
%TD*%
%TO.C,J16*%
X78053163Y-244530120D03*
X73053163Y-244530120D03*
%TD*%
%TO.C,J16*%
X207053163Y-181530120D03*
X202053163Y-181530120D03*
%TD*%
%TO.C,J16*%
X35053163Y-244530120D03*
X30053163Y-244530120D03*
%TD*%
%TO.C,J16*%
X121053163Y-181530120D03*
X116053163Y-181530120D03*
%TD*%
%TO.C,J16*%
X207053163Y-55530120D03*
X202053163Y-55530120D03*
%TD*%
%TO.C,J16*%
X164053163Y-244530120D03*
X159053163Y-244530120D03*
%TD*%
%TO.C,J16*%
X207053163Y-244530120D03*
X202053163Y-244530120D03*
%TD*%
%TO.C,J16*%
X207053163Y-118530120D03*
X202053163Y-118530120D03*
%TD*%
%TO.C,J16*%
X121053163Y-244530120D03*
X116053163Y-244530120D03*
%TD*%
%TO.C,J16*%
X164053163Y-181530120D03*
X159053163Y-181530120D03*
%TD*%
%TO.C,J16*%
X35053163Y-118530120D03*
X30053163Y-118530120D03*
%TD*%
%TO.C,J16*%
X78053163Y-181530120D03*
X73053163Y-181530120D03*
%TD*%
%TO.C,J16*%
X121053163Y-118530120D03*
X116053163Y-118530120D03*
%TD*%
%TO.C,J16*%
X164053163Y-118530120D03*
X159053163Y-118530120D03*
%TD*%
%TO.C,J16*%
X164053163Y-55530120D03*
X159053163Y-55530120D03*
%TD*%
%TO.C,J16*%
X78053163Y-55530120D03*
X73053163Y-55530120D03*
%TD*%
%TO.C,J16*%
X35053163Y-55530120D03*
X30053163Y-55530120D03*
%TD*%
%TO.C,J16*%
X121053163Y-55530120D03*
X116053163Y-55530120D03*
%TD*%
%TO.C,J16*%
X78053163Y-118530120D03*
X73053163Y-118530120D03*
%TD*%
D10*
%TO.C,REF\u002A\u002A*%
X47751000Y-90999000D03*
%TD*%
%TO.C,REF\u002A\u002A*%
X201001599Y-126250000D03*
%TD*%
%TO.C,REF\u002A\u002A*%
X133751000Y-155999800D03*
%TD*%
%TO.C,REF\u002A\u002A*%
X28001199Y-186750000D03*
%TD*%
%TO.C,REF\u002A\u002A*%
X47751000Y-96000999D03*
%TD*%
%TO.C,REF\u002A\u002A*%
X156000800Y-63250000D03*
%TD*%
%TO.C,REF\u002A\u002A*%
X202001999Y-189250000D03*
%TD*%
%TO.C,REF\u002A\u002A*%
X113000800Y-189250000D03*
%TD*%
%TO.C,REF\u002A\u002A*%
X47751000Y-158000599D03*
%TD*%
%TO.C,REF\u002A\u002A*%
X179251000Y-29999801D03*
%TD*%
%TO.C,REF\u002A\u002A*%
X111000000Y-189250000D03*
%TD*%
%TO.C,REF\u002A\u002A*%
X93251000Y-91999400D03*
%TD*%
%TO.C,REF\u002A\u002A*%
X70000800Y-189250000D03*
%TD*%
%TO.C,REF\u002A\u002A*%
X93251000Y-33000999D03*
%TD*%
%TO.C,REF\u002A\u002A*%
X112000400Y-126250000D03*
%TD*%
%TO.C,REF\u002A\u002A*%
X90751000Y-221000599D03*
%TD*%
%TO.C,REF\u002A\u002A*%
X90751000Y-158000599D03*
%TD*%
D18*
%TO.C,J14*%
X73343600Y-225880800D03*
%TD*%
%TO.C,J14*%
X202343600Y-225880800D03*
%TD*%
%TO.C,J14*%
X159343600Y-162880800D03*
%TD*%
%TO.C,J14*%
X116343600Y-225880800D03*
%TD*%
%TO.C,J14*%
X159343600Y-225880800D03*
%TD*%
%TO.C,J14*%
X30343600Y-225880800D03*
%TD*%
%TO.C,J14*%
X202343600Y-162880800D03*
%TD*%
%TO.C,J14*%
X202343600Y-36880800D03*
%TD*%
%TO.C,J14*%
X73343600Y-162880800D03*
%TD*%
%TO.C,J14*%
X159343600Y-99880800D03*
%TD*%
%TO.C,J14*%
X116343600Y-99880800D03*
%TD*%
%TO.C,J14*%
X30343600Y-162880800D03*
%TD*%
%TO.C,J14*%
X202343600Y-99880800D03*
%TD*%
%TO.C,J14*%
X116343600Y-162880800D03*
%TD*%
%TO.C,J14*%
X73343600Y-99880800D03*
%TD*%
%TO.C,J14*%
X116343600Y-36880800D03*
%TD*%
%TO.C,J14*%
X73343600Y-36880800D03*
%TD*%
%TO.C,J14*%
X159343600Y-36880800D03*
%TD*%
%TO.C,J14*%
X30343600Y-36880800D03*
%TD*%
%TO.C,J14*%
X30343600Y-99880800D03*
%TD*%
%TO.C,J13*%
X202343600Y-229792400D03*
%TD*%
%TO.C,J13*%
X116343600Y-229792400D03*
%TD*%
%TO.C,J13*%
X159343600Y-229792400D03*
%TD*%
%TO.C,J13*%
X73343600Y-229792400D03*
%TD*%
%TO.C,J13*%
X30343600Y-229792400D03*
%TD*%
%TO.C,J13*%
X202343600Y-166792400D03*
%TD*%
%TO.C,J13*%
X159343600Y-166792400D03*
%TD*%
%TO.C,J13*%
X30343600Y-166792400D03*
%TD*%
%TO.C,J13*%
X116343600Y-103792400D03*
%TD*%
%TO.C,J13*%
X202343600Y-40792400D03*
%TD*%
%TO.C,J13*%
X202343600Y-103792400D03*
%TD*%
%TO.C,J13*%
X73343600Y-103792400D03*
%TD*%
%TO.C,J13*%
X30343600Y-103792400D03*
%TD*%
%TO.C,J13*%
X159343600Y-40792400D03*
%TD*%
%TO.C,J13*%
X116343600Y-40792400D03*
%TD*%
%TO.C,J13*%
X116343600Y-166792400D03*
%TD*%
%TO.C,J13*%
X73343600Y-40792400D03*
%TD*%
%TO.C,J13*%
X30343600Y-40792400D03*
%TD*%
%TO.C,J13*%
X73343600Y-166792400D03*
%TD*%
%TO.C,J13*%
X159343600Y-103792400D03*
%TD*%
D15*
%TO.C,REF\u002A\u002A*%
X44501000Y-192500000D03*
%TD*%
%TO.C,REF\u002A\u002A*%
X130501000Y-192500000D03*
%TD*%
%TO.C,REF\u002A\u002A*%
X173501000Y-129500000D03*
%TD*%
%TO.C,REF\u002A\u002A*%
X87501000Y-192500000D03*
%TD*%
%TO.C,REF\u002A\u002A*%
X216501000Y-192500000D03*
%TD*%
%TO.C,REF\u002A\u002A*%
X173501000Y-192500000D03*
%TD*%
%TO.C,REF\u002A\u002A*%
X216501000Y-129500000D03*
%TD*%
%TO.C,REF\u002A\u002A*%
X44501000Y-129500000D03*
%TD*%
%TO.C,REF\u002A\u002A*%
X173501000Y-3500000D03*
%TD*%
%TO.C,REF\u002A\u002A*%
X130501000Y-3500000D03*
%TD*%
%TO.C,REF\u002A\u002A*%
X130501000Y-66500000D03*
%TD*%
%TO.C,REF\u002A\u002A*%
X216501000Y-3500000D03*
%TD*%
%TO.C,REF\u002A\u002A*%
X87501000Y-3500000D03*
%TD*%
%TO.C,REF\u002A\u002A*%
X173501000Y-66500000D03*
%TD*%
%TO.C,REF\u002A\u002A*%
X216501000Y-66500000D03*
%TD*%
%TO.C,REF\u002A\u002A*%
X87501000Y-66500000D03*
%TD*%
%TO.C,REF\u002A\u002A*%
X44501000Y-66500000D03*
%TD*%
%TO.C,REF\u002A\u002A*%
X130501000Y-129500000D03*
%TD*%
%TO.C,REF\u002A\u002A*%
X87501000Y-129500000D03*
%TD*%
%TO.C,REF\u002A\u002A*%
X44501000Y-3500000D03*
%TD*%
%TO.C,REF\u002A\u002A*%
X10501000Y-236000000D03*
%TD*%
%TO.C,REF\u002A\u002A*%
X53501000Y-173000000D03*
%TD*%
%TO.C,REF\u002A\u002A*%
X139501000Y-110000000D03*
%TD*%
%TO.C,REF\u002A\u002A*%
X96501000Y-173000000D03*
%TD*%
%TO.C,REF\u002A\u002A*%
X53501000Y-236000000D03*
%TD*%
%TO.C,REF\u002A\u002A*%
X139501000Y-173000000D03*
%TD*%
%TO.C,REF\u002A\u002A*%
X139501000Y-236000000D03*
%TD*%
%TO.C,REF\u002A\u002A*%
X96501000Y-236000000D03*
%TD*%
%TO.C,REF\u002A\u002A*%
X182501000Y-173000000D03*
%TD*%
%TO.C,REF\u002A\u002A*%
X10501000Y-173000000D03*
%TD*%
%TO.C,REF\u002A\u002A*%
X182501000Y-236000000D03*
%TD*%
%TO.C,REF\u002A\u002A*%
X53501000Y-47000000D03*
%TD*%
%TO.C,REF\u002A\u002A*%
X10501000Y-110000000D03*
%TD*%
%TO.C,REF\u002A\u002A*%
X182501000Y-110000000D03*
%TD*%
%TO.C,REF\u002A\u002A*%
X10501000Y-47000000D03*
%TD*%
%TO.C,REF\u002A\u002A*%
X96501000Y-110000000D03*
%TD*%
%TO.C,REF\u002A\u002A*%
X182501000Y-47000000D03*
%TD*%
%TO.C,REF\u002A\u002A*%
X53501000Y-110000000D03*
%TD*%
%TO.C,REF\u002A\u002A*%
X139501000Y-47000000D03*
%TD*%
%TO.C,REF\u002A\u002A*%
X96501000Y-47000000D03*
%TD*%
D19*
%TO.C,J4*%
X184589000Y-200684000D03*
D13*
X184588999Y-203223999D03*
X184588999Y-205763999D03*
X184588999Y-208303999D03*
X184588999Y-210843999D03*
X184588999Y-213383999D03*
%TD*%
D19*
%TO.C,J4*%
X141589000Y-137684000D03*
D13*
X141588999Y-140223999D03*
X141588999Y-142763999D03*
X141588999Y-145303999D03*
X141588999Y-147843999D03*
X141588999Y-150383999D03*
%TD*%
D19*
%TO.C,J4*%
X55589000Y-137684000D03*
D13*
X55588999Y-140223999D03*
X55588999Y-142763999D03*
X55588999Y-145303999D03*
X55588999Y-147843999D03*
X55588999Y-150383999D03*
%TD*%
D19*
%TO.C,J4*%
X141589000Y-200684000D03*
D13*
X141588999Y-203223999D03*
X141588999Y-205763999D03*
X141588999Y-208303999D03*
X141588999Y-210843999D03*
X141588999Y-213383999D03*
%TD*%
D19*
%TO.C,J4*%
X184589000Y-137684000D03*
D13*
X184588999Y-140223999D03*
X184588999Y-142763999D03*
X184588999Y-145303999D03*
X184588999Y-147843999D03*
X184588999Y-150383999D03*
%TD*%
D19*
%TO.C,J4*%
X98589000Y-200684000D03*
D13*
X98588999Y-203223999D03*
X98588999Y-205763999D03*
X98588999Y-208303999D03*
X98588999Y-210843999D03*
X98588999Y-213383999D03*
%TD*%
D19*
%TO.C,J4*%
X55589000Y-200684000D03*
D13*
X55588999Y-203223999D03*
X55588999Y-205763999D03*
X55588999Y-208303999D03*
X55588999Y-210843999D03*
X55588999Y-213383999D03*
%TD*%
D19*
%TO.C,J4*%
X12589000Y-200684000D03*
D13*
X12588999Y-203223999D03*
X12588999Y-205763999D03*
X12588999Y-208303999D03*
X12588999Y-210843999D03*
X12588999Y-213383999D03*
%TD*%
D19*
%TO.C,J4*%
X12589000Y-137684000D03*
D13*
X12588999Y-140223999D03*
X12588999Y-142763999D03*
X12588999Y-145303999D03*
X12588999Y-147843999D03*
X12588999Y-150383999D03*
%TD*%
D19*
%TO.C,J4*%
X141589000Y-74684000D03*
D13*
X141588999Y-77223999D03*
X141588999Y-79763999D03*
X141588999Y-82303999D03*
X141588999Y-84843999D03*
X141588999Y-87383999D03*
%TD*%
D19*
%TO.C,J4*%
X184589000Y-74684000D03*
D13*
X184588999Y-77223999D03*
X184588999Y-79763999D03*
X184588999Y-82303999D03*
X184588999Y-84843999D03*
X184588999Y-87383999D03*
%TD*%
D19*
%TO.C,J4*%
X55589000Y-74684000D03*
D13*
X55588999Y-77223999D03*
X55588999Y-79763999D03*
X55588999Y-82303999D03*
X55588999Y-84843999D03*
X55588999Y-87383999D03*
%TD*%
D19*
%TO.C,J4*%
X98589000Y-11684000D03*
D13*
X98588999Y-14223999D03*
X98588999Y-16763999D03*
X98588999Y-19303999D03*
X98588999Y-21843999D03*
X98588999Y-24383999D03*
%TD*%
D19*
%TO.C,J4*%
X12589000Y-74684000D03*
D13*
X12588999Y-77223999D03*
X12588999Y-79763999D03*
X12588999Y-82303999D03*
X12588999Y-84843999D03*
X12588999Y-87383999D03*
%TD*%
D19*
%TO.C,J4*%
X98589000Y-74684000D03*
D13*
X98588999Y-77223999D03*
X98588999Y-79763999D03*
X98588999Y-82303999D03*
X98588999Y-84843999D03*
X98588999Y-87383999D03*
%TD*%
D19*
%TO.C,J4*%
X12589000Y-11684000D03*
D13*
X12588999Y-14223999D03*
X12588999Y-16763999D03*
X12588999Y-19303999D03*
X12588999Y-21843999D03*
X12588999Y-24383999D03*
%TD*%
D19*
%TO.C,J4*%
X98589000Y-137684000D03*
D13*
X98588999Y-140223999D03*
X98588999Y-142763999D03*
X98588999Y-145303999D03*
X98588999Y-147843999D03*
X98588999Y-150383999D03*
%TD*%
D19*
%TO.C,J4*%
X184589000Y-11684000D03*
D13*
X184588999Y-14223999D03*
X184588999Y-16763999D03*
X184588999Y-19303999D03*
X184588999Y-21843999D03*
X184588999Y-24383999D03*
%TD*%
D19*
%TO.C,J4*%
X141589000Y-11684000D03*
D13*
X141588999Y-14223999D03*
X141588999Y-16763999D03*
X141588999Y-19303999D03*
X141588999Y-21843999D03*
X141588999Y-24383999D03*
%TD*%
D19*
%TO.C,J4*%
X55589000Y-11684000D03*
D13*
X55588999Y-14223999D03*
X55588999Y-16763999D03*
X55588999Y-19303999D03*
X55588999Y-21843999D03*
X55588999Y-24383999D03*
%TD*%
D19*
%TO.C,J3*%
X130339000Y-198144000D03*
D13*
X130338999Y-200683999D03*
X130338999Y-203223999D03*
X130338999Y-205763999D03*
%TD*%
D19*
%TO.C,J3*%
X87339000Y-198144000D03*
D13*
X87338999Y-200683999D03*
X87338999Y-203223999D03*
X87338999Y-205763999D03*
%TD*%
D19*
%TO.C,J3*%
X44339000Y-198144000D03*
D13*
X44338999Y-200683999D03*
X44338999Y-203223999D03*
X44338999Y-205763999D03*
%TD*%
D19*
%TO.C,J3*%
X216339000Y-9144000D03*
D13*
X216338999Y-11683999D03*
X216338999Y-14223999D03*
X216338999Y-16763999D03*
%TD*%
D19*
%TO.C,J3*%
X130339000Y-9144000D03*
D13*
X130338999Y-11683999D03*
X130338999Y-14223999D03*
X130338999Y-16763999D03*
%TD*%
D19*
%TO.C,J3*%
X44339000Y-135144000D03*
D13*
X44338999Y-137683999D03*
X44338999Y-140223999D03*
X44338999Y-142763999D03*
%TD*%
D19*
%TO.C,J3*%
X216339000Y-198144000D03*
D13*
X216338999Y-200683999D03*
X216338999Y-203223999D03*
X216338999Y-205763999D03*
%TD*%
D19*
%TO.C,J3*%
X216339000Y-135144000D03*
D13*
X216338999Y-137683999D03*
X216338999Y-140223999D03*
X216338999Y-142763999D03*
%TD*%
D19*
%TO.C,J3*%
X87339000Y-135144000D03*
D13*
X87338999Y-137683999D03*
X87338999Y-140223999D03*
X87338999Y-142763999D03*
%TD*%
D19*
%TO.C,J3*%
X216339000Y-72144000D03*
D13*
X216338999Y-74683999D03*
X216338999Y-77223999D03*
X216338999Y-79763999D03*
%TD*%
D19*
%TO.C,J3*%
X173339000Y-72144000D03*
D13*
X173338999Y-74683999D03*
X173338999Y-77223999D03*
X173338999Y-79763999D03*
%TD*%
D19*
%TO.C,J3*%
X87339000Y-72144000D03*
D13*
X87338999Y-74683999D03*
X87338999Y-77223999D03*
X87338999Y-79763999D03*
%TD*%
D19*
%TO.C,J3*%
X173339000Y-135144000D03*
D13*
X173338999Y-137683999D03*
X173338999Y-140223999D03*
X173338999Y-142763999D03*
%TD*%
D19*
%TO.C,J3*%
X173339000Y-198144000D03*
D13*
X173338999Y-200683999D03*
X173338999Y-203223999D03*
X173338999Y-205763999D03*
%TD*%
D19*
%TO.C,J3*%
X130339000Y-72144000D03*
D13*
X130338999Y-74683999D03*
X130338999Y-77223999D03*
X130338999Y-79763999D03*
%TD*%
D19*
%TO.C,J3*%
X173339000Y-9144000D03*
D13*
X173338999Y-11683999D03*
X173338999Y-14223999D03*
X173338999Y-16763999D03*
%TD*%
D19*
%TO.C,J3*%
X44339000Y-9144000D03*
D13*
X44338999Y-11683999D03*
X44338999Y-14223999D03*
X44338999Y-16763999D03*
%TD*%
D19*
%TO.C,J3*%
X130339000Y-135144000D03*
D13*
X130338999Y-137683999D03*
X130338999Y-140223999D03*
X130338999Y-142763999D03*
%TD*%
D19*
%TO.C,J3*%
X87339000Y-9144000D03*
D13*
X87338999Y-11683999D03*
X87338999Y-14223999D03*
X87338999Y-16763999D03*
%TD*%
D19*
%TO.C,J3*%
X44339000Y-72144000D03*
D13*
X44338999Y-74683999D03*
X44338999Y-77223999D03*
X44338999Y-79763999D03*
%TD*%
D19*
%TO.C,J1*%
X211259000Y-193064000D03*
D13*
X211258999Y-195603999D03*
X211258999Y-198143999D03*
X211258999Y-200683999D03*
X211258999Y-203223999D03*
X211258999Y-205763999D03*
%TD*%
D19*
%TO.C,J1*%
X125259000Y-193064000D03*
D13*
X125258999Y-195603999D03*
X125258999Y-198143999D03*
X125258999Y-200683999D03*
X125258999Y-203223999D03*
X125258999Y-205763999D03*
%TD*%
D19*
%TO.C,J1*%
X168259000Y-193064000D03*
D13*
X168258999Y-195603999D03*
X168258999Y-198143999D03*
X168258999Y-200683999D03*
X168258999Y-203223999D03*
X168258999Y-205763999D03*
%TD*%
D19*
%TO.C,J1*%
X125259000Y-130064000D03*
D13*
X125258999Y-132603999D03*
X125258999Y-135143999D03*
X125258999Y-137683999D03*
X125258999Y-140223999D03*
X125258999Y-142763999D03*
%TD*%
D19*
%TO.C,J1*%
X39259000Y-193064000D03*
D13*
X39258999Y-195603999D03*
X39258999Y-198143999D03*
X39258999Y-200683999D03*
X39258999Y-203223999D03*
X39258999Y-205763999D03*
%TD*%
D19*
%TO.C,J1*%
X211259000Y-130064000D03*
D13*
X211258999Y-132603999D03*
X211258999Y-135143999D03*
X211258999Y-137683999D03*
X211258999Y-140223999D03*
X211258999Y-142763999D03*
%TD*%
D19*
%TO.C,J1*%
X168259000Y-130064000D03*
D13*
X168258999Y-132603999D03*
X168258999Y-135143999D03*
X168258999Y-137683999D03*
X168258999Y-140223999D03*
X168258999Y-142763999D03*
%TD*%
D19*
%TO.C,J1*%
X82259000Y-130064000D03*
D13*
X82258999Y-132603999D03*
X82258999Y-135143999D03*
X82258999Y-137683999D03*
X82258999Y-140223999D03*
X82258999Y-142763999D03*
%TD*%
D19*
%TO.C,J1*%
X39259000Y-130064000D03*
D13*
X39258999Y-132603999D03*
X39258999Y-135143999D03*
X39258999Y-137683999D03*
X39258999Y-140223999D03*
X39258999Y-142763999D03*
%TD*%
D19*
%TO.C,J1*%
X168259000Y-67064000D03*
D13*
X168258999Y-69603999D03*
X168258999Y-72143999D03*
X168258999Y-74683999D03*
X168258999Y-77223999D03*
X168258999Y-79763999D03*
%TD*%
D19*
%TO.C,J1*%
X125259000Y-67064000D03*
D13*
X125258999Y-69603999D03*
X125258999Y-72143999D03*
X125258999Y-74683999D03*
X125258999Y-77223999D03*
X125258999Y-79763999D03*
%TD*%
D19*
%TO.C,J1*%
X211259000Y-67064000D03*
D13*
X211258999Y-69603999D03*
X211258999Y-72143999D03*
X211258999Y-74683999D03*
X211258999Y-77223999D03*
X211258999Y-79763999D03*
%TD*%
D19*
%TO.C,J1*%
X82259000Y-67064000D03*
D13*
X82258999Y-69603999D03*
X82258999Y-72143999D03*
X82258999Y-74683999D03*
X82258999Y-77223999D03*
X82258999Y-79763999D03*
%TD*%
D19*
%TO.C,J1*%
X125259000Y-4064000D03*
D13*
X125258999Y-6603999D03*
X125258999Y-9143999D03*
X125258999Y-11683999D03*
X125258999Y-14223999D03*
X125258999Y-16763999D03*
%TD*%
D19*
%TO.C,J1*%
X39259000Y-4064000D03*
D13*
X39258999Y-6603999D03*
X39258999Y-9143999D03*
X39258999Y-11683999D03*
X39258999Y-14223999D03*
X39258999Y-16763999D03*
%TD*%
D19*
%TO.C,J1*%
X39259000Y-67064000D03*
D13*
X39258999Y-69603999D03*
X39258999Y-72143999D03*
X39258999Y-74683999D03*
X39258999Y-77223999D03*
X39258999Y-79763999D03*
%TD*%
D19*
%TO.C,J1*%
X82259000Y-4064000D03*
D13*
X82258999Y-6603999D03*
X82258999Y-9143999D03*
X82258999Y-11683999D03*
X82258999Y-14223999D03*
X82258999Y-16763999D03*
%TD*%
D19*
%TO.C,J1*%
X211259000Y-4064000D03*
D13*
X211258999Y-6603999D03*
X211258999Y-9143999D03*
X211258999Y-11683999D03*
X211258999Y-14223999D03*
X211258999Y-16763999D03*
%TD*%
D19*
%TO.C,J1*%
X168259000Y-4064000D03*
D13*
X168258999Y-6603999D03*
X168258999Y-9143999D03*
X168258999Y-11683999D03*
X168258999Y-14223999D03*
X168258999Y-16763999D03*
%TD*%
D19*
%TO.C,J1*%
X82259000Y-193064000D03*
D13*
X82258999Y-195603999D03*
X82258999Y-198143999D03*
X82258999Y-200683999D03*
X82258999Y-203223999D03*
X82258999Y-205763999D03*
%TD*%
M02*
