M48
; DRILL file {KiCad (7.0.0)} date Sat Apr 15 00:39:36 2023
; FORMAT={-:-/ absolute / inch / decimal}
; #@! TF.CreationDate,2023-04-15T00:39:36-04:00
; #@! TF.GenerationSoftware,Kicad,Pcbnew,(7.0.0)
; #@! TF.FileFunction,Plated,1,2,PTH
FMAT,2
INCH
; #@! TA.AperFunction,Plated,PTH,ViaDrill
T1C0.0120
; #@! TA.AperFunction,Plated,PTH,ViaDrill
T2C0.0157
; #@! TA.AperFunction,Plated,PTH,ComponentDrill
T3C0.0315
; #@! TA.AperFunction,Plated,PTH,ComponentDrill
T4C0.0354
; #@! TA.AperFunction,Plated,PTH,ComponentDrill
T5C0.0394
; #@! TA.AperFunction,Plated,PTH,ComponentDrill
T6C0.0400
; #@! TA.AperFunction,Plated,PTH,ComponentDrill
T7C0.0472
%
G90
G05
T1
X0.166Y-1.685
X0.295Y-1.505
X0.304Y-1.255
X0.3344Y-1.505
X0.346Y-1.435
X0.375Y-1.505
X0.379Y-1.196
X0.395Y-1.3495
X0.413Y-1.196
X0.428Y-1.35
X0.463Y-1.685
X0.525Y-1.1
X0.532Y-1.3497
X0.564Y-1.35
X0.585Y-1.505
X0.6Y-0.975
X0.6Y-1.02
X0.6Y-1.065
X0.625Y-1.505
X0.636Y-0.696
X0.658Y-1.255
X0.665Y-1.505
X0.67Y-0.696
X0.685Y-1.349
X0.69Y-0.54
X0.695Y-1.2778
X0.718Y-0.61
X0.7201Y-1.3501
X0.724Y-0.988
X0.725Y-0.73
X0.73Y-0.54
X0.73Y-1.2778
X0.765Y-1.2778
X0.77Y-0.54
X0.79Y-0.696
X0.824Y-0.696
X0.875Y-1.97
X0.881Y-1.073
X0.92Y-0.61
X0.959Y-1.8166
X1.032Y-1.511
X1.033Y-1.01
X1.108Y-1.511
X1.307Y-1.01
X1.8589Y-1.685
X1.9879Y-1.505
X1.9969Y-1.255
X2.0274Y-1.505
X2.0389Y-1.435
X2.0679Y-1.505
X2.0719Y-1.196
X2.0879Y-1.3495
X2.1059Y-1.196
X2.1209Y-1.35
X2.1559Y-1.685
X2.2179Y-1.1
X2.2249Y-1.3497
X2.2569Y-1.35
X2.2779Y-1.505
X2.2929Y-0.975
X2.2929Y-1.02
X2.2929Y-1.065
X2.3179Y-1.505
X2.3289Y-0.696
X2.3509Y-1.255
X2.3579Y-1.505
X2.3629Y-0.696
X2.3779Y-1.349
X2.3829Y-0.54
X2.3879Y-1.2778
X2.4109Y-0.61
X2.413Y-1.3501
X2.4169Y-0.988
X2.4179Y-0.73
X2.4229Y-0.54
X2.4229Y-1.2778
X2.4579Y-1.2778
X2.4629Y-0.54
X2.4829Y-0.696
X2.5169Y-0.696
X2.5679Y-1.97
X2.5739Y-1.073
X2.6129Y-0.61
X2.6519Y-1.8166
X2.7249Y-1.511
X2.7259Y-1.01
X2.8009Y-1.511
X2.9999Y-1.01
T2
X1.4213Y-1.248
X1.51Y-1.44
X3.1142Y-1.248
X3.2029Y-1.44
T4
X1.2213Y-1.3414
X1.2213Y-1.5186
X1.3Y-1.3414
X1.3Y-1.5186
X1.3787Y-1.3414
X1.3787Y-1.5186
X2.9142Y-1.3414
X2.9142Y-1.5186
X2.9929Y-1.3414
X2.9929Y-1.5186
X3.0717Y-1.3414
X3.0717Y-1.5186
T5
X0.07Y-0.26
X0.07Y-0.36
X0.07Y-0.46
X0.07Y-0.56
X0.07Y-0.66
X0.07Y-0.76
X0.07Y-0.86
X0.07Y-0.96
X0.07Y-1.06
X0.07Y-1.16
X0.07Y-1.26
X0.07Y-1.36
X0.07Y-1.46
X0.07Y-1.56
X0.07Y-1.66
X0.22Y-0.46
X0.22Y-0.56
X0.22Y-0.66
X0.22Y-0.76
X0.22Y-0.86
X0.22Y-0.96
X1.07Y-0.2598
X1.07Y-0.3598
X1.07Y-0.4598
X1.07Y-0.5598
X1.07Y-0.6598
X1.07Y-0.7598
X1.07Y-0.8598
X1.07Y-0.9598
X1.07Y-1.0598
X1.07Y-1.1598
X1.07Y-1.2598
X1.07Y-1.3598
X1.07Y-1.4598
X1.07Y-1.5598
X1.07Y-1.6598
X1.27Y-0.16
X1.27Y-0.26
X1.27Y-0.36
X1.27Y-0.46
X1.27Y-0.56
X1.27Y-0.66
X1.27Y-1.06
X1.27Y-1.16
X1.2717Y-0.8594
X1.2717Y-0.9594
X1.37Y-1.06
X1.37Y-1.16
X1.3717Y-0.8594
X1.3717Y-0.9594
X1.47Y-0.36
X1.47Y-0.46
X1.47Y-0.56
X1.47Y-0.66
X1.47Y-1.06
X1.47Y-1.16
X1.4717Y-0.8594
X1.4717Y-0.9594
X1.7629Y-0.26
X1.7629Y-0.36
X1.7629Y-0.46
X1.7629Y-0.56
X1.7629Y-0.66
X1.7629Y-0.76
X1.7629Y-0.86
X1.7629Y-0.96
X1.7629Y-1.06
X1.7629Y-1.16
X1.7629Y-1.26
X1.7629Y-1.36
X1.7629Y-1.46
X1.7629Y-1.56
X1.7629Y-1.66
X1.9129Y-0.46
X1.9129Y-0.56
X1.9129Y-0.66
X1.9129Y-0.76
X1.9129Y-0.86
X1.9129Y-0.96
X2.7629Y-0.2598
X2.7629Y-0.3598
X2.7629Y-0.4598
X2.7629Y-0.5598
X2.7629Y-0.6598
X2.7629Y-0.7598
X2.7629Y-0.8598
X2.7629Y-0.9598
X2.7629Y-1.0598
X2.7629Y-1.1598
X2.7629Y-1.2598
X2.7629Y-1.3598
X2.7629Y-1.4598
X2.7629Y-1.5598
X2.7629Y-1.6598
X2.9629Y-0.16
X2.9629Y-0.26
X2.9629Y-0.36
X2.9629Y-0.46
X2.9629Y-0.56
X2.9629Y-0.66
X2.9629Y-1.06
X2.9629Y-1.16
X2.9646Y-0.8594
X2.9646Y-0.9594
X3.0629Y-1.06
X3.0629Y-1.16
X3.0646Y-0.8594
X3.0646Y-0.9594
X3.1629Y-0.36
X3.1629Y-0.46
X3.1629Y-0.56
X3.1629Y-0.66
X3.1629Y-1.06
X3.1629Y-1.16
X3.1646Y-0.8594
X3.1646Y-0.9594
T6
X0.919Y-1.452
X0.919Y-1.606
X2.6119Y-1.452
X2.6119Y-1.606
T7
X0.1076Y-2.1862
X0.2754Y-0.2184
X0.3044Y-2.1862
X0.4722Y-0.2184
X0.5076Y-2.1862
X0.6754Y-0.2184
X0.7044Y-2.1862
X0.8722Y-0.2184
X0.9076Y-2.1862
X1.1044Y-2.1862
X1.3076Y-2.1862
X1.5044Y-2.1862
X1.8005Y-2.1862
X1.9683Y-0.2184
X1.9973Y-2.1862
X2.1651Y-0.2184
X2.2005Y-2.1862
X2.3683Y-0.2184
X2.3973Y-2.1862
X2.5651Y-0.2184
X2.6005Y-2.1862
X2.7973Y-2.1862
X3.0005Y-2.1862
X3.1973Y-2.1862
T3
G00X1.1455Y-1.8622
M15
G01X1.1455Y-1.815
M16
G05
G00X1.2695Y-1.6535
M15
G01X1.2222Y-1.6535
M16
G05
G00X1.4073Y-1.8622
M15
G01X1.4073Y-1.815
M16
G05
G00X2.8384Y-1.8622
M15
G01X2.8384Y-1.815
M16
G05
G00X2.9624Y-1.6535
M15
G01X2.9152Y-1.6535
M16
G05
G00X3.1002Y-1.8622
M15
G01X3.1002Y-1.815
M16
G05
T0
M30
