%TF.GenerationSoftware,KiCad,Pcbnew,(7.0.0)*%
%TF.CreationDate,2023-04-15T00:39:35-04:00*%
%TF.ProjectId,NoU2-panelized2,4e6f5532-2d70-4616-9e65-6c697a656432,rev?*%
%TF.SameCoordinates,Original*%
%TF.FileFunction,Copper,L1,Top*%
%TF.FilePolarity,Positive*%
%FSLAX46Y46*%
G04 Gerber Fmt 4.6, Leading zero omitted, Abs format (unit mm)*
G04 Created by KiCad (PCBNEW (7.0.0)) date 2023-04-15 00:39:35*
%MOMM*%
%LPD*%
G01*
G04 APERTURE LIST*
G04 Aperture macros list*
%AMRoundRect*
0 Rectangle with rounded corners*
0 $1 Rounding radius*
0 $2 $3 $4 $5 $6 $7 $8 $9 X,Y pos of 4 corners*
0 Add a 4 corners polygon primitive as box body*
4,1,4,$2,$3,$4,$5,$6,$7,$8,$9,$2,$3,0*
0 Add four circle primitives for the rounded corners*
1,1,$1+$1,$2,$3*
1,1,$1+$1,$4,$5*
1,1,$1+$1,$6,$7*
1,1,$1+$1,$8,$9*
0 Add four rect primitives between the rounded corners*
20,1,$1+$1,$2,$3,$4,$5,0*
20,1,$1+$1,$4,$5,$6,$7,0*
20,1,$1+$1,$6,$7,$8,$9,0*
20,1,$1+$1,$8,$9,$2,$3,0*%
G04 Aperture macros list end*
%TA.AperFunction,ComponentPad*%
%ADD10C,2.100000*%
%TD*%
%TA.AperFunction,ComponentPad*%
%ADD11C,1.500000*%
%TD*%
%TA.AperFunction,ComponentPad*%
%ADD12O,1.700000X1.700000*%
%TD*%
%TA.AperFunction,SMDPad,CuDef*%
%ADD13RoundRect,0.100000X0.100000X-0.687500X0.100000X0.687500X-0.100000X0.687500X-0.100000X-0.687500X0*%
%TD*%
%TA.AperFunction,SMDPad,CuDef*%
%ADD14R,3.556000X2.540000*%
%TD*%
%TA.AperFunction,SMDPad,CuDef*%
%ADD15RoundRect,0.135000X0.135000X0.185000X-0.135000X0.185000X-0.135000X-0.185000X0.135000X-0.185000X0*%
%TD*%
%TA.AperFunction,SMDPad,CuDef*%
%ADD16RoundRect,0.200000X0.275000X-0.200000X0.275000X0.200000X-0.275000X0.200000X-0.275000X-0.200000X0*%
%TD*%
%TA.AperFunction,SMDPad,CuDef*%
%ADD17RoundRect,0.200000X-0.275000X0.200000X-0.275000X-0.200000X0.275000X-0.200000X0.275000X0.200000X0*%
%TD*%
%TA.AperFunction,ComponentPad*%
%ADD18R,1.700000X1.700000*%
%TD*%
%TA.AperFunction,SMDPad,CuDef*%
%ADD19RoundRect,0.150000X-0.512500X-0.150000X0.512500X-0.150000X0.512500X0.150000X-0.512500X0.150000X0*%
%TD*%
%TA.AperFunction,SMDPad,CuDef*%
%ADD20RoundRect,0.250000X-0.250000X-0.250000X0.250000X-0.250000X0.250000X0.250000X-0.250000X0.250000X0*%
%TD*%
%TA.AperFunction,SMDPad,CuDef*%
%ADD21RoundRect,0.135000X-0.135000X-0.185000X0.135000X-0.185000X0.135000X0.185000X-0.135000X0.185000X0*%
%TD*%
%TA.AperFunction,ComponentPad*%
%ADD22RoundRect,0.800000X0.000000X0.600000X0.000000X0.600000X0.000000X-0.600000X0.000000X-0.600000X0*%
%TD*%
%TA.AperFunction,ComponentPad*%
%ADD23RoundRect,0.800000X-0.600000X0.000000X-0.600000X0.000000X0.600000X0.000000X0.600000X0.000000X0*%
%TD*%
%TA.AperFunction,SMDPad,CuDef*%
%ADD24RoundRect,0.250000X1.500000X0.550000X-1.500000X0.550000X-1.500000X-0.550000X1.500000X-0.550000X0*%
%TD*%
%TA.AperFunction,SMDPad,CuDef*%
%ADD25RoundRect,0.150000X0.150000X-0.512500X0.150000X0.512500X-0.150000X0.512500X-0.150000X-0.512500X0*%
%TD*%
%TA.AperFunction,ComponentPad*%
%ADD26C,2.032000*%
%TD*%
%TA.AperFunction,ComponentPad*%
%ADD27C,1.700000*%
%TD*%
%TA.AperFunction,SMDPad,CuDef*%
%ADD28RoundRect,0.243750X-0.243750X-0.456250X0.243750X-0.456250X0.243750X0.456250X-0.243750X0.456250X0*%
%TD*%
%TA.AperFunction,SMDPad,CuDef*%
%ADD29RoundRect,0.100000X-0.100000X0.687500X-0.100000X-0.687500X0.100000X-0.687500X0.100000X0.687500X0*%
%TD*%
%TA.AperFunction,SMDPad,CuDef*%
%ADD30RoundRect,0.200000X0.200000X0.275000X-0.200000X0.275000X-0.200000X-0.275000X0.200000X-0.275000X0*%
%TD*%
%TA.AperFunction,SMDPad,CuDef*%
%ADD31RoundRect,0.200000X-0.200000X-0.275000X0.200000X-0.275000X0.200000X0.275000X-0.200000X0.275000X0*%
%TD*%
%TA.AperFunction,SMDPad,CuDef*%
%ADD32RoundRect,0.150000X-0.150000X0.400000X-0.150000X-0.400000X0.150000X-0.400000X0.150000X0.400000X0*%
%TD*%
%TA.AperFunction,SMDPad,CuDef*%
%ADD33RoundRect,0.250000X0.375000X1.075000X-0.375000X1.075000X-0.375000X-1.075000X0.375000X-1.075000X0*%
%TD*%
%TA.AperFunction,SMDPad,CuDef*%
%ADD34RoundRect,0.250000X-1.075000X0.375000X-1.075000X-0.375000X1.075000X-0.375000X1.075000X0.375000X0*%
%TD*%
%TA.AperFunction,SMDPad,CuDef*%
%ADD35RoundRect,0.250000X-0.250000X-0.475000X0.250000X-0.475000X0.250000X0.475000X-0.250000X0.475000X0*%
%TD*%
%TA.AperFunction,SMDPad,CuDef*%
%ADD36RoundRect,0.250000X0.475000X-0.250000X0.475000X0.250000X-0.475000X0.250000X-0.475000X-0.250000X0*%
%TD*%
%TA.AperFunction,SMDPad,CuDef*%
%ADD37RoundRect,0.225000X0.250000X-0.225000X0.250000X0.225000X-0.250000X0.225000X-0.250000X-0.225000X0*%
%TD*%
%TA.AperFunction,SMDPad,CuDef*%
%ADD38RoundRect,0.225000X-0.225000X-0.250000X0.225000X-0.250000X0.225000X0.250000X-0.225000X0.250000X0*%
%TD*%
%TA.AperFunction,SMDPad,CuDef*%
%ADD39RoundRect,0.225000X0.225000X0.250000X-0.225000X0.250000X-0.225000X-0.250000X0.225000X-0.250000X0*%
%TD*%
%TA.AperFunction,SMDPad,CuDef*%
%ADD40RoundRect,0.250000X-0.475000X0.250000X-0.475000X-0.250000X0.475000X-0.250000X0.475000X0.250000X0*%
%TD*%
%TA.AperFunction,SMDPad,CuDef*%
%ADD41RoundRect,0.225000X-0.250000X0.225000X-0.250000X-0.225000X0.250000X-0.225000X0.250000X0.225000X0*%
%TD*%
%TA.AperFunction,ViaPad*%
%ADD42C,0.609600*%
%TD*%
%TA.AperFunction,ViaPad*%
%ADD43C,0.800000*%
%TD*%
%TA.AperFunction,Conductor*%
%ADD44C,0.762000*%
%TD*%
%TA.AperFunction,Conductor*%
%ADD45C,0.398780*%
%TD*%
%TA.AperFunction,Conductor*%
%ADD46C,0.203200*%
%TD*%
%TA.AperFunction,Conductor*%
%ADD47C,0.863600*%
%TD*%
%TA.AperFunction,Conductor*%
%ADD48C,0.250000*%
%TD*%
%TA.AperFunction,Conductor*%
%ADD49C,1.200000*%
%TD*%
%TA.AperFunction,Conductor*%
%ADD50C,0.508000*%
%TD*%
%TA.AperFunction,Conductor*%
%ADD51C,0.431800*%
%TD*%
G04 APERTURE END LIST*
D10*
%TO.P,J19,1,Pin_1*%
%TO.N,Board_0-Net-(J19-Pin_1)*%
X6994695Y-5547743D03*
%TO.P,J19,2,Pin_2*%
%TO.N,Board_0-Net-(J19-Pin_2)*%
X11994695Y-5547743D03*
%TD*%
%TO.P,J19,1,Pin_1*%
%TO.N,Board_1-Net-(J19-Pin_1)*%
X49994695Y-5547743D03*
%TO.P,J19,2,Pin_2*%
%TO.N,Board_1-Net-(J19-Pin_2)*%
X54994695Y-5547743D03*
%TD*%
D11*
%TO.P,U4,1,1*%
%TO.N,Board_1-unconnected-(U4-Pad1)*%
X74020000Y-34072000D03*
%TO.P,U4,2,2*%
%TO.N,Board_1-unconnected-(U4-Pad2)*%
X76020000Y-34072000D03*
%TO.P,U4,3,3*%
%TO.N,Board_1-unconnected-(U4-Pad3)*%
X78020000Y-34072000D03*
%TO.P,U4,4,4*%
%TO.N,Board_1-unconnected-(U4-Pad4)*%
X74020000Y-38572000D03*
%TO.P,U4,5,5*%
%TO.N,Board_1-Net-(J10-Pad1)*%
X76020000Y-38572000D03*
%TO.P,U4,6,6*%
%TO.N,Board_1-Net-(Q1-D)*%
X78020000Y-38572000D03*
%TD*%
%TO.P,U4,1,1*%
%TO.N,Board_0-unconnected-(U4-Pad1)*%
X31020000Y-34072000D03*
%TO.P,U4,2,2*%
%TO.N,Board_0-unconnected-(U4-Pad2)*%
X33020000Y-34072000D03*
%TO.P,U4,3,3*%
%TO.N,Board_0-unconnected-(U4-Pad3)*%
X35020000Y-34072000D03*
%TO.P,U4,4,4*%
%TO.N,Board_0-unconnected-(U4-Pad4)*%
X31020000Y-38572000D03*
%TO.P,U4,5,5*%
%TO.N,Board_0-Net-(J10-Pad1)*%
X33020000Y-38572000D03*
%TO.P,U4,6,6*%
%TO.N,Board_0-Net-(Q1-D)*%
X35020000Y-38572000D03*
%TD*%
D12*
%TO.P,U18,1,5V*%
%TO.N,Board_0-5V*%
X34797999Y-26923999D03*
X34797999Y-29463999D03*
%TO.P,U18,2,GND*%
%TO.N,Board_0-GND*%
X37337999Y-26923999D03*
X37337999Y-29463999D03*
%TO.P,U18,3,srv1*%
%TO.N,Board_0-SRV2*%
X32257999Y-26923999D03*
%TO.P,U18,4,srv2*%
%TO.N,Board_0-SRV1*%
X32257999Y-29463999D03*
%TD*%
%TO.P,U18,1,5V*%
%TO.N,Board_1-5V*%
X77797999Y-26923999D03*
X77797999Y-29463999D03*
%TO.P,U18,2,GND*%
%TO.N,Board_1-GND*%
X80337999Y-26923999D03*
X80337999Y-29463999D03*
%TO.P,U18,3,srv1*%
%TO.N,Board_1-SRV2*%
X75257999Y-26923999D03*
%TO.P,U18,4,srv2*%
%TO.N,Board_1-SRV1*%
X75257999Y-29463999D03*
%TD*%
D13*
%TO.P,U1,1,nSLEEP*%
%TO.N,Board_1-Net-(U1-nSLEEP)*%
X49215966Y-41084845D03*
%TO.P,U1,2,AOUT1*%
%TO.N,Board_1-Net-(J11-Pin_2)*%
X49865966Y-41084845D03*
%TO.P,U1,3,AISEN*%
%TO.N,Board_1-Net-(U1-AISEN)*%
X50515966Y-41084845D03*
%TO.P,U1,4,AOUT2*%
%TO.N,Board_1-Net-(J11-Pin_1)*%
X51165966Y-41084845D03*
%TO.P,U1,5,BOUT2*%
%TO.N,Board_1-Net-(J15-Pin_2)*%
X51815966Y-41084845D03*
%TO.P,U1,6,BISEN*%
%TO.N,Board_1-Net-(U1-AISEN)*%
X52465966Y-41084845D03*
%TO.P,U1,7,BOUT1*%
%TO.N,Board_1-Net-(J15-Pin_1)*%
X53115966Y-41084845D03*
%TO.P,U1,8,nFAULT*%
%TO.N,Board_1-unconnected-(U1-nFAULT-Pad8)*%
X53765966Y-41084845D03*
%TO.P,U1,9,BIN1*%
%TO.N,Board_1-M2B*%
X53765966Y-35359845D03*
%TO.P,U1,10,BIN2*%
%TO.N,Board_1-M2A*%
X53115966Y-35359845D03*
%TO.P,U1,11,VCP*%
%TO.N,Board_1-Net-(U1-VCP)*%
X52465966Y-35359845D03*
%TO.P,U1,12,VM*%
%TO.N,Board_1-VIN*%
X51815966Y-35359845D03*
%TO.P,U1,13,GND*%
%TO.N,Board_1-GND*%
X51165966Y-35359845D03*
%TO.P,U1,14,VINT*%
%TO.N,Board_1-Net-(U1-VINT)*%
X50515966Y-35359845D03*
%TO.P,U1,15,AIN2*%
%TO.N,Board_1-M1B*%
X49865966Y-35359845D03*
%TO.P,U1,16,AIN1*%
%TO.N,Board_1-M1A*%
X49215966Y-35359845D03*
D14*
%TO.P,U1,17,GND(PPAD)*%
%TO.N,Board_1-GND*%
X51490965Y-38222344D03*
%TD*%
D13*
%TO.P,U1,1,nSLEEP*%
%TO.N,Board_0-Net-(U1-nSLEEP)*%
X6215966Y-41084845D03*
%TO.P,U1,2,AOUT1*%
%TO.N,Board_0-Net-(J11-Pin_2)*%
X6865966Y-41084845D03*
%TO.P,U1,3,AISEN*%
%TO.N,Board_0-Net-(U1-AISEN)*%
X7515966Y-41084845D03*
%TO.P,U1,4,AOUT2*%
%TO.N,Board_0-Net-(J11-Pin_1)*%
X8165966Y-41084845D03*
%TO.P,U1,5,BOUT2*%
%TO.N,Board_0-Net-(J15-Pin_2)*%
X8815966Y-41084845D03*
%TO.P,U1,6,BISEN*%
%TO.N,Board_0-Net-(U1-AISEN)*%
X9465966Y-41084845D03*
%TO.P,U1,7,BOUT1*%
%TO.N,Board_0-Net-(J15-Pin_1)*%
X10115966Y-41084845D03*
%TO.P,U1,8,nFAULT*%
%TO.N,Board_0-unconnected-(U1-nFAULT-Pad8)*%
X10765966Y-41084845D03*
%TO.P,U1,9,BIN1*%
%TO.N,Board_0-M2B*%
X10765966Y-35359845D03*
%TO.P,U1,10,BIN2*%
%TO.N,Board_0-M2A*%
X10115966Y-35359845D03*
%TO.P,U1,11,VCP*%
%TO.N,Board_0-Net-(U1-VCP)*%
X9465966Y-35359845D03*
%TO.P,U1,12,VM*%
%TO.N,Board_0-VIN*%
X8815966Y-35359845D03*
%TO.P,U1,13,GND*%
%TO.N,Board_0-GND*%
X8165966Y-35359845D03*
%TO.P,U1,14,VINT*%
%TO.N,Board_0-Net-(U1-VINT)*%
X7515966Y-35359845D03*
%TO.P,U1,15,AIN2*%
%TO.N,Board_0-M1B*%
X6865966Y-35359845D03*
%TO.P,U1,16,AIN1*%
%TO.N,Board_0-M1A*%
X6215966Y-35359845D03*
D14*
%TO.P,U1,17,GND(PPAD)*%
%TO.N,Board_0-GND*%
X8490965Y-38222344D03*
%TD*%
D15*
%TO.P,R5,1*%
%TO.N,Board_0-Net-(D3-A)*%
X39860000Y-35560000D03*
%TO.P,R5,2*%
%TO.N,Board_0-GND*%
X38840000Y-35560000D03*
%TD*%
%TO.P,R5,1*%
%TO.N,Board_1-Net-(D3-A)*%
X82860000Y-35560000D03*
%TO.P,R5,2*%
%TO.N,Board_1-GND*%
X81840000Y-35560000D03*
%TD*%
D16*
%TO.P,R8,1*%
%TO.N,Board_1-GND*%
X57732000Y-12509000D03*
%TO.P,R8,2*%
%TO.N,Board_1-Net-(U2-AISEN)*%
X57732000Y-10859000D03*
%TD*%
%TO.P,R8,1*%
%TO.N,Board_0-GND*%
X14732000Y-12509000D03*
%TO.P,R8,2*%
%TO.N,Board_0-Net-(U2-AISEN)*%
X14732000Y-10859000D03*
%TD*%
D10*
%TO.P,J11,1,Pin_1*%
%TO.N,Board_0-Net-(J11-Pin_1)*%
X7732163Y-55530120D03*
%TO.P,J11,2,Pin_2*%
%TO.N,Board_0-Net-(J11-Pin_2)*%
X2732163Y-55530120D03*
%TD*%
%TO.P,J11,1,Pin_1*%
%TO.N,Board_1-Net-(J11-Pin_1)*%
X50732163Y-55530120D03*
%TO.P,J11,2,Pin_2*%
%TO.N,Board_1-Net-(J11-Pin_2)*%
X45732163Y-55530120D03*
%TD*%
D17*
%TO.P,R7,1*%
%TO.N,Board_0-GND*%
X19812000Y-39561000D03*
%TO.P,R7,2*%
%TO.N,Board_0-Net-(U3-AISEN)*%
X19812000Y-41211000D03*
%TD*%
%TO.P,R7,1*%
%TO.N,Board_1-GND*%
X62812000Y-39561000D03*
%TO.P,R7,2*%
%TO.N,Board_1-Net-(U3-AISEN)*%
X62812000Y-41211000D03*
%TD*%
D10*
%TO.P,J18,1,Pin_1*%
%TO.N,Board_0-Net-(J18-Pin_1)*%
X17154695Y-5547743D03*
%TO.P,J18,2,Pin_2*%
%TO.N,Board_0-Net-(J18-Pin_2)*%
X22154695Y-5547743D03*
%TD*%
%TO.P,J18,1,Pin_1*%
%TO.N,Board_1-Net-(J18-Pin_1)*%
X60154695Y-5547743D03*
%TO.P,J18,2,Pin_2*%
%TO.N,Board_1-Net-(J18-Pin_2)*%
X65154695Y-5547743D03*
%TD*%
D18*
%TO.P,J5,1,Pin_1*%
%TO.N,Board_0-M4B*%
X27177999Y-6599999D03*
D12*
%TO.P,J5,2,Pin_2*%
%TO.N,Board_0-M6A*%
X27177999Y-9139999D03*
%TO.P,J5,3,Pin_3*%
%TO.N,Board_0-TX0*%
X27177999Y-11679999D03*
%TO.P,J5,4,Pin_4*%
%TO.N,Board_0-RX0*%
X27177999Y-14219999D03*
%TO.P,J5,5,Pin_5*%
%TO.N,Board_0-M6B*%
X27177999Y-16759999D03*
%TO.P,J5,6,Pin_6*%
%TO.N,Board_0-M4A*%
X27177999Y-19299999D03*
%TO.P,J5,7,Pin_7*%
%TO.N,Board_0-M3B*%
X27177999Y-21839999D03*
%TO.P,J5,8,Pin_8*%
%TO.N,Board_0-D5*%
X27177999Y-24379999D03*
%TO.P,J5,9,Pin_9*%
%TO.N,Board_0-SRV2*%
X27177999Y-26919999D03*
%TO.P,J5,10,Pin_10*%
%TO.N,Board_0-SRV1*%
X27177999Y-29459999D03*
%TO.P,J5,11,Pin_11*%
%TO.N,Board_0-D4*%
X27177999Y-31999999D03*
%TO.P,J5,12,Pin_12*%
%TO.N,Board_0-D2*%
X27177999Y-34539999D03*
%TO.P,J5,13,Pin_13*%
%TO.N,Board_0-M5A*%
X27177999Y-37079999D03*
%TO.P,J5,14,Pin_14*%
%TO.N,Board_0-GND*%
X27177999Y-39619999D03*
%TO.P,J5,15,Pin_15*%
%TO.N,Board_0-3V3*%
X27177999Y-42159999D03*
%TD*%
D18*
%TO.P,J5,1,Pin_1*%
%TO.N,Board_1-M4B*%
X70177999Y-6599999D03*
D12*
%TO.P,J5,2,Pin_2*%
%TO.N,Board_1-M6A*%
X70177999Y-9139999D03*
%TO.P,J5,3,Pin_3*%
%TO.N,Board_1-TX0*%
X70177999Y-11679999D03*
%TO.P,J5,4,Pin_4*%
%TO.N,Board_1-RX0*%
X70177999Y-14219999D03*
%TO.P,J5,5,Pin_5*%
%TO.N,Board_1-M6B*%
X70177999Y-16759999D03*
%TO.P,J5,6,Pin_6*%
%TO.N,Board_1-M4A*%
X70177999Y-19299999D03*
%TO.P,J5,7,Pin_7*%
%TO.N,Board_1-M3B*%
X70177999Y-21839999D03*
%TO.P,J5,8,Pin_8*%
%TO.N,Board_1-D5*%
X70177999Y-24379999D03*
%TO.P,J5,9,Pin_9*%
%TO.N,Board_1-SRV2*%
X70177999Y-26919999D03*
%TO.P,J5,10,Pin_10*%
%TO.N,Board_1-SRV1*%
X70177999Y-29459999D03*
%TO.P,J5,11,Pin_11*%
%TO.N,Board_1-D4*%
X70177999Y-31999999D03*
%TO.P,J5,12,Pin_12*%
%TO.N,Board_1-D2*%
X70177999Y-34539999D03*
%TO.P,J5,13,Pin_13*%
%TO.N,Board_1-M5A*%
X70177999Y-37079999D03*
%TO.P,J5,14,Pin_14*%
%TO.N,Board_1-GND*%
X70177999Y-39619999D03*
%TO.P,J5,15,Pin_15*%
%TO.N,Board_1-3V3*%
X70177999Y-42159999D03*
%TD*%
D19*
%TO.P,U11,1,BS*%
%TO.N,Board_0-Net-(U11-BS)*%
X21262500Y-26300000D03*
%TO.P,U11,2,GND*%
%TO.N,Board_0-GND*%
X21262500Y-27250000D03*
%TO.P,U11,3,FB*%
%TO.N,Board_0-Net-(U11-FB)*%
X21262500Y-28200000D03*
%TO.P,U11,4,EN*%
%TO.N,Board_0-VIN*%
X23537500Y-28200000D03*
%TO.P,U11,5,IN*%
X23537500Y-27250000D03*
%TO.P,U11,6,LX*%
%TO.N,Board_0-Net-(U11-LX)*%
X23537500Y-26300000D03*
%TD*%
%TO.P,U11,1,BS*%
%TO.N,Board_1-Net-(U11-BS)*%
X64262500Y-26300000D03*
%TO.P,U11,2,GND*%
%TO.N,Board_1-GND*%
X64262500Y-27250000D03*
%TO.P,U11,3,FB*%
%TO.N,Board_1-Net-(U11-FB)*%
X64262500Y-28200000D03*
%TO.P,U11,4,EN*%
%TO.N,Board_1-VIN*%
X66537500Y-28200000D03*
%TO.P,U11,5,IN*%
X66537500Y-27250000D03*
%TO.P,U11,6,LX*%
%TO.N,Board_1-Net-(U11-LX)*%
X66537500Y-26300000D03*
%TD*%
D17*
%TO.P,R6,1*%
%TO.N,Board_1-GND*%
X47318000Y-39561000D03*
%TO.P,R6,2*%
%TO.N,Board_1-Net-(U1-AISEN)*%
X47318000Y-41211000D03*
%TD*%
%TO.P,R6,1*%
%TO.N,Board_0-GND*%
X4318000Y-39561000D03*
%TO.P,R6,2*%
%TO.N,Board_0-Net-(U1-AISEN)*%
X4318000Y-41211000D03*
%TD*%
D10*
%TO.P,J17,1,Pin_1*%
%TO.N,Board_0-Net-(J17-Pin_1)*%
X38212163Y-55530120D03*
%TO.P,J17,2,Pin_2*%
%TO.N,Board_0-Net-(J17-Pin_2)*%
X33212163Y-55530120D03*
%TD*%
%TO.P,J17,1,Pin_1*%
%TO.N,Board_1-Net-(J17-Pin_1)*%
X81212163Y-55530120D03*
%TO.P,J17,2,Pin_2*%
%TO.N,Board_1-Net-(J17-Pin_2)*%
X76212163Y-55530120D03*
%TD*%
D20*
%TO.P,D3,1,K*%
%TO.N,Board_1-VIN*%
X80084000Y-37084000D03*
%TO.P,D3,2,A*%
%TO.N,Board_1-Net-(D3-A)*%
X82584000Y-37084000D03*
%TD*%
%TO.P,D3,1,K*%
%TO.N,Board_0-VIN*%
X37084000Y-37084000D03*
%TO.P,D3,2,A*%
%TO.N,Board_0-Net-(D3-A)*%
X39584000Y-37084000D03*
%TD*%
D21*
%TO.P,R14,1*%
%TO.N,Board_0-Net-(D1-K)*%
X36808000Y-35560000D03*
%TO.P,R14,2*%
%TO.N,Board_0-GND*%
X37828000Y-35560000D03*
%TD*%
%TO.P,R14,1*%
%TO.N,Board_1-Net-(D1-K)*%
X79808000Y-35560000D03*
%TO.P,R14,2*%
%TO.N,Board_1-GND*%
X80828000Y-35560000D03*
%TD*%
D12*
%TO.P,U17,1,5V*%
%TO.N,Board_0-5V*%
X34839999Y-21829999D03*
X34839999Y-24369999D03*
%TO.P,U17,2,GND*%
%TO.N,Board_0-GND*%
X37379999Y-21829999D03*
X37379999Y-24369999D03*
%TO.P,U17,3,srv1*%
%TO.N,Board_0-SRV4*%
X32299999Y-21829999D03*
%TO.P,U17,4,srv2*%
%TO.N,Board_0-SRV3*%
X32299999Y-24369999D03*
%TD*%
%TO.P,U17,1,5V*%
%TO.N,Board_1-5V*%
X77839999Y-21829999D03*
X77839999Y-24369999D03*
%TO.P,U17,2,GND*%
%TO.N,Board_1-GND*%
X80379999Y-21829999D03*
X80379999Y-24369999D03*
%TO.P,U17,3,srv1*%
%TO.N,Board_1-SRV4*%
X75299999Y-21829999D03*
%TO.P,U17,4,srv2*%
%TO.N,Board_1-SRV3*%
X75299999Y-24369999D03*
%TD*%
D22*
%TO.P,J10,1*%
%TO.N,Board_1-Net-(J10-Pad1)*%
X72095000Y-46700000D03*
%TO.P,J10,2*%
%TO.N,Board_1-GND*%
X78745000Y-46700000D03*
D23*
%TO.P,J10,3*%
%TO.N,N/C*%
X74645000Y-42000000D03*
%TD*%
D22*
%TO.P,J10,1*%
%TO.N,Board_0-Net-(J10-Pad1)*%
X29095000Y-46700000D03*
%TO.P,J10,2*%
%TO.N,Board_0-GND*%
X35745000Y-46700000D03*
D23*
%TO.P,J10,3*%
%TO.N,N/C*%
X31645000Y-42000000D03*
%TD*%
D24*
%TO.P,C17,1*%
%TO.N,Board_0-VIN*%
X14536400Y-29997400D03*
%TO.P,C17,2*%
%TO.N,Board_0-GND*%
X9136400Y-29997400D03*
%TD*%
%TO.P,C17,1*%
%TO.N,Board_1-VIN*%
X57536400Y-29997400D03*
%TO.P,C17,2*%
%TO.N,Board_1-GND*%
X52136400Y-29997400D03*
%TD*%
D25*
%TO.P,U10,1,BS*%
%TO.N,Board_1-Net-(U10-BS)*%
X66408600Y-47213100D03*
%TO.P,U10,2,GND*%
%TO.N,Board_1-GND*%
X67358600Y-47213100D03*
%TO.P,U10,3,FB*%
%TO.N,Board_1-Net-(U10-FB)*%
X68308600Y-47213100D03*
%TO.P,U10,4,EN*%
%TO.N,Board_1-VIN*%
X68308600Y-44938100D03*
%TO.P,U10,5,IN*%
X67358600Y-44938100D03*
%TO.P,U10,6,LX*%
%TO.N,Board_1-Net-(U10-LX)*%
X66408600Y-44938100D03*
%TD*%
%TO.P,U10,1,BS*%
%TO.N,Board_0-Net-(U10-BS)*%
X23408600Y-47213100D03*
%TO.P,U10,2,GND*%
%TO.N,Board_0-GND*%
X24358600Y-47213100D03*
%TO.P,U10,3,FB*%
%TO.N,Board_0-Net-(U10-FB)*%
X25308600Y-47213100D03*
%TO.P,U10,4,EN*%
%TO.N,Board_0-VIN*%
X25308600Y-44938100D03*
%TO.P,U10,5,IN*%
X24358600Y-44938100D03*
%TO.P,U10,6,LX*%
%TO.N,Board_0-Net-(U10-LX)*%
X23408600Y-44938100D03*
%TD*%
D10*
%TO.P,J15,1,Pin_1*%
%TO.N,Board_0-Net-(J15-Pin_1)*%
X17892163Y-55530120D03*
%TO.P,J15,2,Pin_2*%
%TO.N,Board_0-Net-(J15-Pin_2)*%
X12892163Y-55530120D03*
%TD*%
%TO.P,J15,1,Pin_1*%
%TO.N,Board_1-Net-(J15-Pin_1)*%
X60892163Y-55530120D03*
%TO.P,J15,2,Pin_2*%
%TO.N,Board_1-Net-(J15-Pin_2)*%
X55892163Y-55530120D03*
%TD*%
D18*
%TO.P,J2,1,Pin_1*%
%TO.N,Board_0-/Sheet6057E9B8/EN*%
X1777999Y-6603999D03*
D12*
%TO.P,J2,2,Pin_2*%
%TO.N,Board_0-/Sheet6057E9B8/D36*%
X1777999Y-9143999D03*
%TO.P,J2,3,Pin_3*%
%TO.N,Board_0-/Sheet6057E9B8/D39*%
X1777999Y-11683999D03*
%TO.P,J2,4,Pin_4*%
%TO.N,Board_0-/Sheet6057E9B8/D34*%
X1777999Y-14223999D03*
%TO.P,J2,5,Pin_5*%
%TO.N,Board_0-/Sheet6057E9B8/D35*%
X1777999Y-16763999D03*
%TO.P,J2,6,Pin_6*%
%TO.N,Board_0-M3A*%
X1777999Y-19303999D03*
%TO.P,J2,7,Pin_7*%
%TO.N,Board_0-M2B*%
X1777999Y-21843999D03*
%TO.P,J2,8,Pin_8*%
%TO.N,Board_0-SRV3*%
X1777999Y-24383999D03*
%TO.P,J2,9,Pin_9*%
%TO.N,Board_0-SRV4*%
X1777999Y-26923999D03*
%TO.P,J2,10,Pin_10*%
%TO.N,Board_0-M2A*%
X1777999Y-29463999D03*
%TO.P,J2,11,Pin_11*%
%TO.N,Board_0-M5B*%
X1777999Y-32003999D03*
%TO.P,J2,12,Pin_12*%
%TO.N,Board_0-M1B*%
X1777999Y-34543999D03*
%TO.P,J2,13,Pin_13*%
%TO.N,Board_0-M1A*%
X1777999Y-37083999D03*
%TO.P,J2,14,Pin_14*%
%TO.N,Board_0-GND*%
X1777999Y-39623999D03*
%TO.P,J2,15,Pin_15*%
%TO.N,Board_0-/Sheet6057E9B8/EVIN*%
X1777999Y-42163999D03*
%TD*%
D18*
%TO.P,J2,1,Pin_1*%
%TO.N,Board_1-/Sheet6057E9B8/EN*%
X44777999Y-6603999D03*
D12*
%TO.P,J2,2,Pin_2*%
%TO.N,Board_1-/Sheet6057E9B8/D36*%
X44777999Y-9143999D03*
%TO.P,J2,3,Pin_3*%
%TO.N,Board_1-/Sheet6057E9B8/D39*%
X44777999Y-11683999D03*
%TO.P,J2,4,Pin_4*%
%TO.N,Board_1-/Sheet6057E9B8/D34*%
X44777999Y-14223999D03*
%TO.P,J2,5,Pin_5*%
%TO.N,Board_1-/Sheet6057E9B8/D35*%
X44777999Y-16763999D03*
%TO.P,J2,6,Pin_6*%
%TO.N,Board_1-M3A*%
X44777999Y-19303999D03*
%TO.P,J2,7,Pin_7*%
%TO.N,Board_1-M2B*%
X44777999Y-21843999D03*
%TO.P,J2,8,Pin_8*%
%TO.N,Board_1-SRV3*%
X44777999Y-24383999D03*
%TO.P,J2,9,Pin_9*%
%TO.N,Board_1-SRV4*%
X44777999Y-26923999D03*
%TO.P,J2,10,Pin_10*%
%TO.N,Board_1-M2A*%
X44777999Y-29463999D03*
%TO.P,J2,11,Pin_11*%
%TO.N,Board_1-M5B*%
X44777999Y-32003999D03*
%TO.P,J2,12,Pin_12*%
%TO.N,Board_1-M1B*%
X44777999Y-34543999D03*
%TO.P,J2,13,Pin_13*%
%TO.N,Board_1-M1A*%
X44777999Y-37083999D03*
%TO.P,J2,14,Pin_14*%
%TO.N,Board_1-GND*%
X44777999Y-39623999D03*
%TO.P,J2,15,Pin_15*%
%TO.N,Board_1-/Sheet6057E9B8/EVIN*%
X44777999Y-42163999D03*
%TD*%
D10*
%TO.P,J16,1,Pin_1*%
%TO.N,Board_1-Net-(J16-Pin_1)*%
X71052163Y-55530120D03*
%TO.P,J16,2,Pin_2*%
%TO.N,Board_1-Net-(J16-Pin_2)*%
X66052163Y-55530120D03*
%TD*%
%TO.P,J16,1,Pin_1*%
%TO.N,Board_0-Net-(J16-Pin_1)*%
X28052163Y-55530120D03*
%TO.P,J16,2,Pin_2*%
%TO.N,Board_0-Net-(J16-Pin_2)*%
X23052163Y-55530120D03*
%TD*%
D26*
%TO.P,J14,1,Pin_1*%
%TO.N,Board_0-VIN*%
X23342600Y-36880800D03*
%TD*%
%TO.P,J14,1,Pin_1*%
%TO.N,Board_1-VIN*%
X66342600Y-36880800D03*
%TD*%
%TO.P,J13,1,Pin_1*%
%TO.N,Board_1-GND*%
X66342600Y-40792400D03*
%TD*%
%TO.P,J13,1,Pin_1*%
%TO.N,Board_0-GND*%
X23342600Y-40792400D03*
%TD*%
D27*
%TO.P,J4,1,Pin_1*%
%TO.N,Board_1-/Sheet6057E9B8/EN*%
X48588000Y-11684000D03*
D12*
%TO.P,J4,2,Pin_2*%
%TO.N,Board_1-/Sheet6057E9B8/D36*%
X48587999Y-14223999D03*
%TO.P,J4,3,Pin_3*%
%TO.N,Board_1-/Sheet6057E9B8/D39*%
X48587999Y-16763999D03*
%TO.P,J4,4,Pin_4*%
%TO.N,Board_1-/Sheet6057E9B8/D34*%
X48587999Y-19303999D03*
%TO.P,J4,5,Pin_5*%
%TO.N,Board_1-/Sheet6057E9B8/D35*%
X48587999Y-21843999D03*
%TO.P,J4,6,Pin_6*%
%TO.N,Board_1-D2*%
X48587999Y-24383999D03*
%TD*%
D27*
%TO.P,J4,1,Pin_1*%
%TO.N,Board_0-/Sheet6057E9B8/EN*%
X5588000Y-11684000D03*
D12*
%TO.P,J4,2,Pin_2*%
%TO.N,Board_0-/Sheet6057E9B8/D36*%
X5587999Y-14223999D03*
%TO.P,J4,3,Pin_3*%
%TO.N,Board_0-/Sheet6057E9B8/D39*%
X5587999Y-16763999D03*
%TO.P,J4,4,Pin_4*%
%TO.N,Board_0-/Sheet6057E9B8/D34*%
X5587999Y-19303999D03*
%TO.P,J4,5,Pin_5*%
%TO.N,Board_0-/Sheet6057E9B8/D35*%
X5587999Y-21843999D03*
%TO.P,J4,6,Pin_6*%
%TO.N,Board_0-D2*%
X5587999Y-24383999D03*
%TD*%
D27*
%TO.P,J3,1,Pin_1*%
%TO.N,Board_0-GND*%
X37338000Y-9144000D03*
D12*
%TO.P,J3,2,Pin_2*%
X37337999Y-11683999D03*
%TO.P,J3,3,Pin_3*%
%TO.N,Board_0-3V3*%
X37337999Y-14223999D03*
%TO.P,J3,4,Pin_4*%
X37337999Y-16763999D03*
%TD*%
D27*
%TO.P,J3,1,Pin_1*%
%TO.N,Board_1-GND*%
X80338000Y-9144000D03*
D12*
%TO.P,J3,2,Pin_2*%
X80337999Y-11683999D03*
%TO.P,J3,3,Pin_3*%
%TO.N,Board_1-3V3*%
X80337999Y-14223999D03*
%TO.P,J3,4,Pin_4*%
X80337999Y-16763999D03*
%TD*%
D27*
%TO.P,J1,1,Pin_1*%
%TO.N,Board_0-M6A*%
X32258000Y-4064000D03*
D12*
%TO.P,J1,2,Pin_2*%
%TO.N,Board_0-M6B*%
X32257999Y-6603999D03*
%TO.P,J1,3,Pin_3*%
%TO.N,Board_0-TX0*%
X32257999Y-9143999D03*
%TO.P,J1,4,Pin_4*%
%TO.N,Board_0-RX0*%
X32257999Y-11683999D03*
%TO.P,J1,5,Pin_5*%
%TO.N,Board_0-D4*%
X32257999Y-14223999D03*
%TO.P,J1,6,Pin_6*%
%TO.N,Board_0-D5*%
X32257999Y-16763999D03*
%TD*%
D27*
%TO.P,J1,1,Pin_1*%
%TO.N,Board_1-M6A*%
X75258000Y-4064000D03*
D12*
%TO.P,J1,2,Pin_2*%
%TO.N,Board_1-M6B*%
X75257999Y-6603999D03*
%TO.P,J1,3,Pin_3*%
%TO.N,Board_1-TX0*%
X75257999Y-9143999D03*
%TO.P,J1,4,Pin_4*%
%TO.N,Board_1-RX0*%
X75257999Y-11683999D03*
%TO.P,J1,5,Pin_5*%
%TO.N,Board_1-D4*%
X75257999Y-14223999D03*
%TO.P,J1,6,Pin_6*%
%TO.N,Board_1-D5*%
X75257999Y-16763999D03*
%TD*%
D28*
%TO.P,D1,1,K*%
%TO.N,Board_0-Net-(D1-K)*%
X37162500Y-34036000D03*
%TO.P,D1,2,A*%
%TO.N,Board_0-3V3*%
X39037500Y-34036000D03*
%TD*%
%TO.P,D1,1,K*%
%TO.N,Board_1-Net-(D1-K)*%
X80162500Y-34036000D03*
%TO.P,D1,2,A*%
%TO.N,Board_1-3V3*%
X82037500Y-34036000D03*
%TD*%
D13*
%TO.P,U3,1,nSLEEP*%
%TO.N,Board_0-Net-(U3-nSLEEP)*%
X13600000Y-41089500D03*
%TO.P,U3,2,AOUT1*%
%TO.N,Board_0-Net-(J16-Pin_2)*%
X14250000Y-41089500D03*
%TO.P,U3,3,AISEN*%
%TO.N,Board_0-Net-(U3-AISEN)*%
X14900000Y-41089500D03*
%TO.P,U3,4,AOUT2*%
%TO.N,Board_0-Net-(J16-Pin_1)*%
X15550000Y-41089500D03*
%TO.P,U3,5,BOUT2*%
%TO.N,Board_0-Net-(J17-Pin_2)*%
X16200000Y-41089500D03*
%TO.P,U3,6,BISEN*%
%TO.N,Board_0-Net-(U3-AISEN)*%
X16850000Y-41089500D03*
%TO.P,U3,7,BOUT1*%
%TO.N,Board_0-Net-(J17-Pin_1)*%
X17500000Y-41089500D03*
%TO.P,U3,8,nFAULT*%
%TO.N,Board_0-unconnected-(U3-nFAULT-Pad8)*%
X18150000Y-41089500D03*
%TO.P,U3,9,BIN1*%
%TO.N,Board_0-M4B*%
X18150000Y-35364500D03*
%TO.P,U3,10,BIN2*%
%TO.N,Board_0-M4A*%
X17500000Y-35364500D03*
%TO.P,U3,11,VCP*%
%TO.N,Board_0-Net-(U3-VCP)*%
X16850000Y-35364500D03*
%TO.P,U3,12,VM*%
%TO.N,Board_0-VIN*%
X16200000Y-35364500D03*
%TO.P,U3,13,GND*%
%TO.N,Board_0-GND*%
X15550000Y-35364500D03*
%TO.P,U3,14,VINT*%
%TO.N,Board_0-Net-(U3-VINT)*%
X14900000Y-35364500D03*
%TO.P,U3,15,AIN2*%
%TO.N,Board_0-M3B*%
X14250000Y-35364500D03*
%TO.P,U3,16,AIN1*%
%TO.N,Board_0-M3A*%
X13600000Y-35364500D03*
D14*
%TO.P,U3,17,GND(PPAD)*%
%TO.N,Board_0-GND*%
X15874999Y-38226999D03*
%TD*%
D13*
%TO.P,U3,1,nSLEEP*%
%TO.N,Board_1-Net-(U3-nSLEEP)*%
X56600000Y-41089500D03*
%TO.P,U3,2,AOUT1*%
%TO.N,Board_1-Net-(J16-Pin_2)*%
X57250000Y-41089500D03*
%TO.P,U3,3,AISEN*%
%TO.N,Board_1-Net-(U3-AISEN)*%
X57900000Y-41089500D03*
%TO.P,U3,4,AOUT2*%
%TO.N,Board_1-Net-(J16-Pin_1)*%
X58550000Y-41089500D03*
%TO.P,U3,5,BOUT2*%
%TO.N,Board_1-Net-(J17-Pin_2)*%
X59200000Y-41089500D03*
%TO.P,U3,6,BISEN*%
%TO.N,Board_1-Net-(U3-AISEN)*%
X59850000Y-41089500D03*
%TO.P,U3,7,BOUT1*%
%TO.N,Board_1-Net-(J17-Pin_1)*%
X60500000Y-41089500D03*
%TO.P,U3,8,nFAULT*%
%TO.N,Board_1-unconnected-(U3-nFAULT-Pad8)*%
X61150000Y-41089500D03*
%TO.P,U3,9,BIN1*%
%TO.N,Board_1-M4B*%
X61150000Y-35364500D03*
%TO.P,U3,10,BIN2*%
%TO.N,Board_1-M4A*%
X60500000Y-35364500D03*
%TO.P,U3,11,VCP*%
%TO.N,Board_1-Net-(U3-VCP)*%
X59850000Y-35364500D03*
%TO.P,U3,12,VM*%
%TO.N,Board_1-VIN*%
X59200000Y-35364500D03*
%TO.P,U3,13,GND*%
%TO.N,Board_1-GND*%
X58550000Y-35364500D03*
%TO.P,U3,14,VINT*%
%TO.N,Board_1-Net-(U3-VINT)*%
X57900000Y-35364500D03*
%TO.P,U3,15,AIN2*%
%TO.N,Board_1-M3B*%
X57250000Y-35364500D03*
%TO.P,U3,16,AIN1*%
%TO.N,Board_1-M3A*%
X56600000Y-35364500D03*
D14*
%TO.P,U3,17,GND(PPAD)*%
%TO.N,Board_1-GND*%
X58874999Y-38226999D03*
%TD*%
D29*
%TO.P,U2,1,nSLEEP*%
%TO.N,Board_1-Net-(U2-nSLEEP)*%
X63817000Y-10853500D03*
%TO.P,U2,2,AOUT1*%
%TO.N,Board_1-Net-(J18-Pin_2)*%
X63167000Y-10853500D03*
%TO.P,U2,3,AISEN*%
%TO.N,Board_1-Net-(U2-AISEN)*%
X62517000Y-10853500D03*
%TO.P,U2,4,AOUT2*%
%TO.N,Board_1-Net-(J18-Pin_1)*%
X61867000Y-10853500D03*
%TO.P,U2,5,BOUT2*%
%TO.N,Board_1-Net-(J19-Pin_2)*%
X61217000Y-10853500D03*
%TO.P,U2,6,BISEN*%
%TO.N,Board_1-Net-(U2-AISEN)*%
X60567000Y-10853500D03*
%TO.P,U2,7,BOUT1*%
%TO.N,Board_1-Net-(J19-Pin_1)*%
X59917000Y-10853500D03*
%TO.P,U2,8,nFAULT*%
%TO.N,Board_1-unconnected-(U2-nFAULT-Pad8)*%
X59267000Y-10853500D03*
%TO.P,U2,9,BIN1*%
%TO.N,Board_1-M6B*%
X59267000Y-16578500D03*
%TO.P,U2,10,BIN2*%
%TO.N,Board_1-M6A*%
X59917000Y-16578500D03*
%TO.P,U2,11,VCP*%
%TO.N,Board_1-Net-(U2-VCP)*%
X60567000Y-16578500D03*
%TO.P,U2,12,VM*%
%TO.N,Board_1-VIN*%
X61217000Y-16578500D03*
%TO.P,U2,13,GND*%
%TO.N,Board_1-GND*%
X61867000Y-16578500D03*
%TO.P,U2,14,VINT*%
%TO.N,Board_1-Net-(U2-VINT)*%
X62517000Y-16578500D03*
%TO.P,U2,15,AIN2*%
%TO.N,Board_1-M5B*%
X63167000Y-16578500D03*
%TO.P,U2,16,AIN1*%
%TO.N,Board_1-M5A*%
X63817000Y-16578500D03*
D14*
%TO.P,U2,17,GND(PPAD)*%
%TO.N,Board_1-GND*%
X61541999Y-13715999D03*
%TD*%
D29*
%TO.P,U2,1,nSLEEP*%
%TO.N,Board_0-Net-(U2-nSLEEP)*%
X20817000Y-10853500D03*
%TO.P,U2,2,AOUT1*%
%TO.N,Board_0-Net-(J18-Pin_2)*%
X20167000Y-10853500D03*
%TO.P,U2,3,AISEN*%
%TO.N,Board_0-Net-(U2-AISEN)*%
X19517000Y-10853500D03*
%TO.P,U2,4,AOUT2*%
%TO.N,Board_0-Net-(J18-Pin_1)*%
X18867000Y-10853500D03*
%TO.P,U2,5,BOUT2*%
%TO.N,Board_0-Net-(J19-Pin_2)*%
X18217000Y-10853500D03*
%TO.P,U2,6,BISEN*%
%TO.N,Board_0-Net-(U2-AISEN)*%
X17567000Y-10853500D03*
%TO.P,U2,7,BOUT1*%
%TO.N,Board_0-Net-(J19-Pin_1)*%
X16917000Y-10853500D03*
%TO.P,U2,8,nFAULT*%
%TO.N,Board_0-unconnected-(U2-nFAULT-Pad8)*%
X16267000Y-10853500D03*
%TO.P,U2,9,BIN1*%
%TO.N,Board_0-M6B*%
X16267000Y-16578500D03*
%TO.P,U2,10,BIN2*%
%TO.N,Board_0-M6A*%
X16917000Y-16578500D03*
%TO.P,U2,11,VCP*%
%TO.N,Board_0-Net-(U2-VCP)*%
X17567000Y-16578500D03*
%TO.P,U2,12,VM*%
%TO.N,Board_0-VIN*%
X18217000Y-16578500D03*
%TO.P,U2,13,GND*%
%TO.N,Board_0-GND*%
X18867000Y-16578500D03*
%TO.P,U2,14,VINT*%
%TO.N,Board_0-Net-(U2-VINT)*%
X19517000Y-16578500D03*
%TO.P,U2,15,AIN2*%
%TO.N,Board_0-M5B*%
X20167000Y-16578500D03*
%TO.P,U2,16,AIN1*%
%TO.N,Board_0-M5A*%
X20817000Y-16578500D03*
D14*
%TO.P,U2,17,GND(PPAD)*%
%TO.N,Board_0-GND*%
X18541999Y-13715999D03*
%TD*%
D30*
%TO.P,R11,1*%
%TO.N,Board_1-Net-(U1-nSLEEP)*%
X48854200Y-42773600D03*
%TO.P,R11,2*%
%TO.N,Board_1-VIN*%
X47204200Y-42773600D03*
%TD*%
%TO.P,R11,1*%
%TO.N,Board_0-Net-(U1-nSLEEP)*%
X5854200Y-42773600D03*
%TO.P,R11,2*%
%TO.N,Board_0-VIN*%
X4204200Y-42773600D03*
%TD*%
%TO.P,R10,1*%
%TO.N,Board_0-Net-(U3-nSLEEP)*%
X13398000Y-42773600D03*
%TO.P,R10,2*%
%TO.N,Board_0-VIN*%
X11748000Y-42773600D03*
%TD*%
%TO.P,R10,1*%
%TO.N,Board_1-Net-(U3-nSLEEP)*%
X56398000Y-42773600D03*
%TO.P,R10,2*%
%TO.N,Board_1-VIN*%
X54748000Y-42773600D03*
%TD*%
D17*
%TO.P,R9,1*%
%TO.N,Board_1-Net-(U2-nSLEEP)*%
X65098000Y-10859000D03*
%TO.P,R9,2*%
%TO.N,Board_1-VIN*%
X65098000Y-12509000D03*
%TD*%
%TO.P,R9,1*%
%TO.N,Board_0-Net-(U2-nSLEEP)*%
X22098000Y-10859000D03*
%TO.P,R9,2*%
%TO.N,Board_0-VIN*%
X22098000Y-12509000D03*
%TD*%
D31*
%TO.P,R4,1*%
%TO.N,Board_1-Net-(U11-FB)*%
X62647400Y-29286200D03*
%TO.P,R4,2*%
%TO.N,Board_1-GND*%
X64297400Y-29286200D03*
%TD*%
%TO.P,R4,1*%
%TO.N,Board_0-Net-(U11-FB)*%
X19647400Y-29286200D03*
%TO.P,R4,2*%
%TO.N,Board_0-GND*%
X21297400Y-29286200D03*
%TD*%
D17*
%TO.P,R3,1*%
%TO.N,Board_0-5V*%
X19558000Y-26569400D03*
%TO.P,R3,2*%
%TO.N,Board_0-Net-(U11-FB)*%
X19558000Y-28219400D03*
%TD*%
%TO.P,R3,1*%
%TO.N,Board_1-5V*%
X62558000Y-26569400D03*
%TO.P,R3,2*%
%TO.N,Board_1-Net-(U11-FB)*%
X62558000Y-28219400D03*
%TD*%
D16*
%TO.P,R2,1*%
%TO.N,Board_0-Net-(U10-FB)*%
X26390600Y-49339000D03*
%TO.P,R2,2*%
%TO.N,Board_0-GND*%
X26390600Y-47689000D03*
%TD*%
%TO.P,R2,1*%
%TO.N,Board_1-Net-(U10-FB)*%
X69390600Y-49339000D03*
%TO.P,R2,2*%
%TO.N,Board_1-GND*%
X69390600Y-47689000D03*
%TD*%
D31*
%TO.P,R1,1*%
%TO.N,Board_1-3V3*%
X66686000Y-48895000D03*
%TO.P,R1,2*%
%TO.N,Board_1-Net-(U10-FB)*%
X68336000Y-48895000D03*
%TD*%
%TO.P,R1,1*%
%TO.N,Board_0-3V3*%
X23686000Y-48895000D03*
%TO.P,R1,2*%
%TO.N,Board_0-Net-(U10-FB)*%
X25336000Y-48895000D03*
%TD*%
D32*
%TO.P,Q1,1,G*%
%TO.N,Board_1-Net-(D3-A)*%
X82010000Y-39028000D03*
%TO.P,Q1,2,S*%
%TO.N,Board_1-VIN*%
X80110000Y-39028000D03*
%TO.P,Q1,3,D*%
%TO.N,Board_1-Net-(Q1-D)*%
X81060000Y-40728000D03*
%TD*%
%TO.P,Q1,1,G*%
%TO.N,Board_0-Net-(D3-A)*%
X39010000Y-39028000D03*
%TO.P,Q1,2,S*%
%TO.N,Board_0-VIN*%
X37110000Y-39028000D03*
%TO.P,Q1,3,D*%
%TO.N,Board_0-Net-(Q1-D)*%
X38060000Y-40728000D03*
%TD*%
D33*
%TO.P,L2,1,1*%
%TO.N,Board_0-Net-(U11-LX)*%
X23117000Y-22860000D03*
%TO.P,L2,2,2*%
%TO.N,Board_0-5V*%
X20317000Y-22860000D03*
%TD*%
%TO.P,L2,1,1*%
%TO.N,Board_1-Net-(U11-LX)*%
X66117000Y-22860000D03*
%TO.P,L2,2,2*%
%TO.N,Board_1-5V*%
X63317000Y-22860000D03*
%TD*%
D34*
%TO.P,L1,1,1*%
%TO.N,Board_0-Net-(U10-LX)*%
X20066000Y-44701000D03*
%TO.P,L1,2,2*%
%TO.N,Board_0-3V3*%
X20066000Y-47501000D03*
%TD*%
%TO.P,L1,1,1*%
%TO.N,Board_1-Net-(U10-LX)*%
X63066000Y-44701000D03*
%TO.P,L1,2,2*%
%TO.N,Board_1-3V3*%
X63066000Y-47501000D03*
%TD*%
D35*
%TO.P,C24,1*%
%TO.N,Board_0-VIN*%
X16703000Y-18923000D03*
%TO.P,C24,2*%
%TO.N,Board_0-GND*%
X18603000Y-18923000D03*
%TD*%
%TO.P,C24,1*%
%TO.N,Board_1-VIN*%
X59703000Y-18923000D03*
%TO.P,C24,2*%
%TO.N,Board_1-GND*%
X61603000Y-18923000D03*
%TD*%
D36*
%TO.P,C23,1*%
%TO.N,Board_1-VIN*%
X59230600Y-33639800D03*
%TO.P,C23,2*%
%TO.N,Board_1-GND*%
X59230600Y-31739800D03*
%TD*%
%TO.P,C23,1*%
%TO.N,Board_0-VIN*%
X16230600Y-33639800D03*
%TO.P,C23,2*%
%TO.N,Board_0-GND*%
X16230600Y-31739800D03*
%TD*%
%TO.P,C22,1*%
%TO.N,Board_1-VIN*%
X50366000Y-33639800D03*
%TO.P,C22,2*%
%TO.N,Board_1-GND*%
X50366000Y-31739800D03*
%TD*%
%TO.P,C22,1*%
%TO.N,Board_0-VIN*%
X7366000Y-33639800D03*
%TO.P,C22,2*%
%TO.N,Board_0-GND*%
X7366000Y-31739800D03*
%TD*%
D37*
%TO.P,C14,1*%
%TO.N,Board_0-Net-(U11-FB)*%
X18440400Y-28181600D03*
%TO.P,C14,2*%
%TO.N,Board_0-5V*%
X18440400Y-26631600D03*
%TD*%
%TO.P,C14,1*%
%TO.N,Board_1-Net-(U11-FB)*%
X61440400Y-28181600D03*
%TO.P,C14,2*%
%TO.N,Board_1-5V*%
X61440400Y-26631600D03*
%TD*%
D38*
%TO.P,C13,1*%
%TO.N,Board_0-GND*%
X18402000Y-25095200D03*
%TO.P,C13,2*%
%TO.N,Board_0-5V*%
X19952000Y-25095200D03*
%TD*%
%TO.P,C13,1*%
%TO.N,Board_1-GND*%
X61402000Y-25095200D03*
%TO.P,C13,2*%
%TO.N,Board_1-5V*%
X62952000Y-25095200D03*
%TD*%
D35*
%TO.P,C12,1*%
%TO.N,Board_0-GND*%
X22481500Y-29527500D03*
%TO.P,C12,2*%
%TO.N,Board_0-VIN*%
X24381500Y-29527500D03*
%TD*%
%TO.P,C12,1*%
%TO.N,Board_1-GND*%
X65481500Y-29527500D03*
%TO.P,C12,2*%
%TO.N,Board_1-VIN*%
X67381500Y-29527500D03*
%TD*%
D39*
%TO.P,C11,1*%
%TO.N,Board_0-Net-(U11-LX)*%
X23838200Y-25095200D03*
%TO.P,C11,2*%
%TO.N,Board_0-Net-(U11-BS)*%
X22288200Y-25095200D03*
%TD*%
%TO.P,C11,1*%
%TO.N,Board_1-Net-(U11-LX)*%
X66838200Y-25095200D03*
%TO.P,C11,2*%
%TO.N,Board_1-Net-(U11-BS)*%
X65288200Y-25095200D03*
%TD*%
D36*
%TO.P,C10,1*%
%TO.N,Board_1-Net-(U2-VINT)*%
X65225000Y-16571000D03*
%TO.P,C10,2*%
%TO.N,Board_1-GND*%
X65225000Y-14671000D03*
%TD*%
%TO.P,C10,1*%
%TO.N,Board_0-Net-(U2-VINT)*%
X22225000Y-16571000D03*
%TO.P,C10,2*%
%TO.N,Board_0-GND*%
X22225000Y-14671000D03*
%TD*%
D40*
%TO.P,C9,1*%
%TO.N,Board_0-Net-(U3-VINT)*%
X12166600Y-37939940D03*
%TO.P,C9,2*%
%TO.N,Board_0-GND*%
X12166600Y-39839940D03*
%TD*%
%TO.P,C9,1*%
%TO.N,Board_1-Net-(U3-VINT)*%
X55166600Y-37939940D03*
%TO.P,C9,2*%
%TO.N,Board_1-GND*%
X55166600Y-39839940D03*
%TD*%
D37*
%TO.P,C7,1*%
%TO.N,Board_1-VIN*%
X58113000Y-16904000D03*
%TO.P,C7,2*%
%TO.N,Board_1-Net-(U2-VCP)*%
X58113000Y-15354000D03*
%TD*%
%TO.P,C7,1*%
%TO.N,Board_0-VIN*%
X15113000Y-16904000D03*
%TO.P,C7,2*%
%TO.N,Board_0-Net-(U2-VCP)*%
X15113000Y-15354000D03*
%TD*%
D41*
%TO.P,C6,1*%
%TO.N,Board_1-VIN*%
X62301460Y-35023760D03*
%TO.P,C6,2*%
%TO.N,Board_1-Net-(U3-VCP)*%
X62301460Y-36573760D03*
%TD*%
%TO.P,C6,1*%
%TO.N,Board_0-VIN*%
X19301460Y-35023760D03*
%TO.P,C6,2*%
%TO.N,Board_0-Net-(U3-VCP)*%
X19301460Y-36573760D03*
%TD*%
%TO.P,C5,1*%
%TO.N,Board_0-VIN*%
X12192000Y-35039000D03*
%TO.P,C5,2*%
%TO.N,Board_0-Net-(U1-VCP)*%
X12192000Y-36589000D03*
%TD*%
%TO.P,C5,1*%
%TO.N,Board_1-VIN*%
X55192000Y-35039000D03*
%TO.P,C5,2*%
%TO.N,Board_1-Net-(U1-VCP)*%
X55192000Y-36589000D03*
%TD*%
D39*
%TO.P,C4,1*%
%TO.N,Board_0-Net-(U10-FB)*%
X25286000Y-50012600D03*
%TO.P,C4,2*%
%TO.N,Board_0-3V3*%
X23736000Y-50012600D03*
%TD*%
%TO.P,C4,1*%
%TO.N,Board_1-Net-(U10-FB)*%
X68286000Y-50012600D03*
%TO.P,C4,2*%
%TO.N,Board_1-3V3*%
X66736000Y-50012600D03*
%TD*%
D37*
%TO.P,C3,1*%
%TO.N,Board_0-GND*%
X22225000Y-50025600D03*
%TO.P,C3,2*%
%TO.N,Board_0-3V3*%
X22225000Y-48475600D03*
%TD*%
%TO.P,C3,1*%
%TO.N,Board_1-GND*%
X65225000Y-50025600D03*
%TO.P,C3,2*%
%TO.N,Board_1-3V3*%
X65225000Y-48475600D03*
%TD*%
D36*
%TO.P,C2,1*%
%TO.N,Board_0-GND*%
X26606500Y-46543000D03*
%TO.P,C2,2*%
%TO.N,Board_0-VIN*%
X26606500Y-44643000D03*
%TD*%
%TO.P,C2,1*%
%TO.N,Board_1-GND*%
X69606500Y-46543000D03*
%TO.P,C2,2*%
%TO.N,Board_1-VIN*%
X69606500Y-44643000D03*
%TD*%
D41*
%TO.P,C1,1*%
%TO.N,Board_0-Net-(U10-LX)*%
X22225000Y-44640200D03*
%TO.P,C1,2*%
%TO.N,Board_0-Net-(U10-BS)*%
X22225000Y-46190200D03*
%TD*%
%TO.P,C1,1*%
%TO.N,Board_1-Net-(U10-LX)*%
X65225000Y-44640200D03*
%TO.P,C1,2*%
%TO.N,Board_1-Net-(U10-BS)*%
X65225000Y-46190200D03*
%TD*%
D40*
%TO.P,C8,1*%
%TO.N,Board_1-Net-(U1-VINT)*%
X47549140Y-35102760D03*
%TO.P,C8,2*%
%TO.N,Board_1-GND*%
X47549140Y-37002760D03*
%TD*%
%TO.P,C8,1*%
%TO.N,Board_0-Net-(U1-VINT)*%
X4549140Y-35102760D03*
%TO.P,C8,2*%
%TO.N,Board_0-GND*%
X4549140Y-37002760D03*
%TD*%
D42*
%TO.N,Board_1-VIN*%
X66368000Y-15494000D03*
X51788400Y-36449000D03*
X69212800Y-38379400D03*
X71143200Y-38379400D03*
X61237200Y-15494000D03*
X47216400Y-42799000D03*
X54760200Y-42799000D03*
%TO.N,Board_1-SRV4*%
X58240000Y-27051000D03*
%TO.N,Board_1-SRV3*%
X58240000Y-25908000D03*
%TO.N,Board_1-M6B*%
X59154400Y-17678400D03*
%TO.N,Board_1-M6A*%
X60018000Y-17678400D03*
%TO.N,Board_1-M5B*%
X56335000Y-27940000D03*
X63066000Y-17678400D03*
%TO.N,Board_1-M5A*%
X63929600Y-17678400D03*
%TO.N,Board_1-M4B*%
X61289944Y-34291944D03*
X60653000Y-32455588D03*
%TO.N,Board_1-M4A*%
X61542000Y-32455588D03*
X60399000Y-34264600D03*
%TO.N,Board_1-M3B*%
X57325600Y-34290000D03*
X62431000Y-32455588D03*
%TO.N,Board_1-M3A*%
X56512800Y-34283000D03*
%TO.N,Board_1-M2B*%
X53871200Y-34290000D03*
%TO.N,Board_1-M2A*%
X53033000Y-34277300D03*
%TO.N,Board_1-GND*%
X52626600Y-30378400D03*
X59891000Y-38227000D03*
X50493000Y-38227000D03*
X57859000Y-38227000D03*
X65377400Y-27254200D03*
X53490200Y-30378400D03*
X62558000Y-13716000D03*
X51495000Y-38227000D03*
D43*
X81354000Y-36576000D03*
D42*
X65225000Y-50038000D03*
X67358600Y-46141640D03*
X60526000Y-13716000D03*
X61415000Y-18542000D03*
X59713200Y-31877000D03*
X52525000Y-38227000D03*
X50721600Y-31877000D03*
X58875000Y-38227000D03*
X61389600Y-25095200D03*
X61542000Y-13716000D03*
%TO.N,Board_1-D2*%
X58240000Y-24765000D03*
%TO.N,Board_1-5V*%
X76197800Y-25654000D03*
X69238200Y-25654000D03*
D43*
%TO.N,Board_1-3V3*%
X79100000Y-31700000D03*
D42*
%TO.N,Board_0-VIN*%
X23368000Y-15494000D03*
X8788400Y-36449000D03*
X26212800Y-38379400D03*
X28143200Y-38379400D03*
X18237200Y-15494000D03*
X4216400Y-42799000D03*
X11760200Y-42799000D03*
%TO.N,Board_0-SRV4*%
X15240000Y-27051000D03*
%TO.N,Board_0-SRV3*%
X15240000Y-25908000D03*
%TO.N,Board_0-M6B*%
X16154400Y-17678400D03*
%TO.N,Board_0-M6A*%
X17018000Y-17678400D03*
%TO.N,Board_0-M5B*%
X13335000Y-27940000D03*
X20066000Y-17678400D03*
%TO.N,Board_0-M5A*%
X20929600Y-17678400D03*
%TO.N,Board_0-M4B*%
X18289944Y-34291944D03*
X17653000Y-32455588D03*
%TO.N,Board_0-M4A*%
X18542000Y-32455588D03*
X17399000Y-34264600D03*
%TO.N,Board_0-M3B*%
X14325600Y-34290000D03*
X19431000Y-32455588D03*
%TO.N,Board_0-M3A*%
X13512800Y-34283000D03*
%TO.N,Board_0-M2B*%
X10871200Y-34290000D03*
%TO.N,Board_0-M2A*%
X10033000Y-34277300D03*
%TO.N,Board_0-GND*%
X9626600Y-30378400D03*
X16891000Y-38227000D03*
X7493000Y-38227000D03*
X14859000Y-38227000D03*
X22377400Y-27254200D03*
X10490200Y-30378400D03*
X19558000Y-13716000D03*
X8495000Y-38227000D03*
D43*
X38354000Y-36576000D03*
D42*
X22225000Y-50038000D03*
X24358600Y-46141640D03*
X17526000Y-13716000D03*
X18415000Y-18542000D03*
X16713200Y-31877000D03*
X9525000Y-38227000D03*
X7721600Y-31877000D03*
X15875000Y-38227000D03*
X18389600Y-25095200D03*
X18542000Y-13716000D03*
%TO.N,Board_0-D2*%
X15240000Y-24765000D03*
%TO.N,Board_0-5V*%
X33197800Y-25654000D03*
X26238200Y-25654000D03*
D43*
%TO.N,Board_0-3V3*%
X36100000Y-31700000D03*
%TD*%
D44*
%TO.N,Board_1-VIN*%
X66342600Y-36880800D02*
X66622000Y-36601400D01*
X66863600Y-29286200D02*
X66863600Y-28388000D01*
D45*
X55192000Y-34543196D02*
X55192000Y-35039000D01*
D46*
X66368000Y-13779000D02*
X65098000Y-12509000D01*
D44*
X57569400Y-33341398D02*
X64098598Y-33341398D01*
D47*
X66342600Y-35585400D02*
X66342600Y-35788600D01*
D45*
X59078200Y-29413200D02*
X59078200Y-19735800D01*
D48*
X66736300Y-35902900D02*
X66736300Y-36487100D01*
X66736300Y-36487100D02*
X66342600Y-36880800D01*
D45*
X57490282Y-33525460D02*
X56314680Y-33525460D01*
D49*
X73340300Y-36576000D02*
X71536900Y-38379400D01*
D44*
X66622000Y-36601400D02*
X66622000Y-30518700D01*
X57503400Y-30030400D02*
X57503400Y-33341398D01*
D45*
X51820000Y-35364500D02*
X51820000Y-36442800D01*
X58113000Y-17679204D02*
X59356796Y-18923000D01*
X59078200Y-19735800D02*
X59703000Y-19111000D01*
D44*
X66863600Y-29286200D02*
X66863600Y-30277100D01*
D45*
X52575800Y-33401000D02*
X51820000Y-34156800D01*
X61217000Y-17521604D02*
X61217000Y-16578500D01*
X59200000Y-35364500D02*
X59200000Y-33645000D01*
X51820000Y-34156800D02*
X51820000Y-35364500D01*
D50*
X69517600Y-44589400D02*
X68611800Y-44589400D01*
X71702000Y-42799000D02*
X71702000Y-38544500D01*
D45*
X65780960Y-35023760D02*
X66037800Y-35280600D01*
D47*
X71536900Y-38379400D02*
X71143200Y-38379400D01*
D44*
X66622000Y-30518700D02*
X66863600Y-30277100D01*
D49*
X79322000Y-37084000D02*
X78814000Y-36576000D01*
D45*
X51820000Y-36442800D02*
X51813800Y-36449000D01*
D47*
X66342600Y-35788600D02*
X68933400Y-38379400D01*
D50*
X67381500Y-29527500D02*
X66863600Y-30045400D01*
D45*
X50653020Y-33375600D02*
X52624020Y-33375600D01*
D44*
X66037800Y-35280600D02*
X66342600Y-35585400D01*
D50*
X69784600Y-44716400D02*
X71702000Y-42799000D01*
D45*
X50366000Y-33639800D02*
X50604800Y-33401000D01*
X52575800Y-33401000D02*
X52601200Y-33375600D01*
D44*
X64098598Y-33341398D02*
X66037800Y-35280600D01*
D45*
X59815604Y-18923000D02*
X61217000Y-17521604D01*
X58494000Y-29997400D02*
X59078200Y-29413200D01*
X59200000Y-33645000D02*
X59205200Y-33639800D01*
D50*
X71702000Y-38544500D02*
X71536900Y-38379400D01*
D45*
X59703000Y-18923000D02*
X59815604Y-18923000D01*
D51*
X71143200Y-38379400D02*
X71109701Y-38345901D01*
D44*
X66850600Y-28295600D02*
X66850600Y-27345600D01*
D45*
X62301460Y-35023760D02*
X65780960Y-35023760D01*
X59703000Y-19111000D02*
X59703000Y-18923000D01*
D50*
X69595400Y-44892600D02*
X69771600Y-44716400D01*
D49*
X80084000Y-39002000D02*
X80110000Y-39028000D01*
X80084000Y-37084000D02*
X80084000Y-39002000D01*
D45*
X61211800Y-16573300D02*
X61217000Y-16578500D01*
D49*
X80084000Y-37084000D02*
X79322000Y-37084000D01*
D44*
X57536400Y-29997400D02*
X57503400Y-30030400D01*
D51*
X71109701Y-38345901D02*
X69246299Y-38345901D01*
D45*
X58113000Y-16904000D02*
X58113000Y-17679204D01*
D50*
X68526400Y-44729400D02*
X68689600Y-44892600D01*
X69771600Y-44716400D02*
X69784600Y-44716400D01*
D45*
X61211800Y-15494000D02*
X61211800Y-16573300D01*
D46*
X66368000Y-15494000D02*
X66368000Y-13779000D01*
D50*
X66863600Y-28388000D02*
X66679800Y-28204200D01*
D51*
X69246299Y-38345901D02*
X69212800Y-38379400D01*
D50*
X66863600Y-30045400D02*
X66863600Y-30277100D01*
X67648800Y-44602400D02*
X68272400Y-44602400D01*
D45*
X52601200Y-33375600D02*
X57535198Y-33375600D01*
X65008600Y-12598400D02*
X65098000Y-12509000D01*
D44*
X66342600Y-35585400D02*
X66342600Y-36880800D01*
D45*
X57536400Y-29997400D02*
X58494000Y-29997400D01*
X56156396Y-33578800D02*
X55192000Y-34543196D01*
X59356796Y-18923000D02*
X59703000Y-18923000D01*
D47*
X68933400Y-38379400D02*
X69212800Y-38379400D01*
D49*
X78814000Y-36576000D02*
X73340300Y-36576000D01*
X80110000Y-39028000D02*
X80110000Y-38878000D01*
D46*
%TO.N,Board_1-SRV4*%
X58240000Y-27051000D02*
X58151800Y-26924000D01*
X58151800Y-26924000D02*
X44778000Y-26924000D01*
%TO.N,Board_1-SRV3*%
X58240000Y-25908000D02*
X46302000Y-25908000D01*
X46302000Y-25908000D02*
X44778000Y-24384000D01*
%TO.N,Board_1-SRV1*%
X70207400Y-29489400D02*
X70178000Y-29460000D01*
D45*
%TO.N,Board_1-Net-(U3-nSLEEP)*%
X56600000Y-42470000D02*
X56398000Y-42672000D01*
X56600000Y-41089500D02*
X56600000Y-42470000D01*
%TO.N,Board_1-Net-(U3-VINT)*%
X56783696Y-36551400D02*
X57556862Y-36551400D01*
X55395156Y-37939940D02*
X56783696Y-36551400D01*
X57900000Y-36208262D02*
X57900000Y-35364500D01*
X57556862Y-36551400D02*
X57900000Y-36208262D01*
X55166600Y-37939940D02*
X55395156Y-37939940D01*
%TO.N,Board_1-Net-(U3-VCP)*%
X59850000Y-36208262D02*
X59850000Y-35364500D01*
X62301460Y-36573760D02*
X62279100Y-36551400D01*
X62279100Y-36551400D02*
X60193138Y-36551400D01*
X60193138Y-36551400D02*
X59850000Y-36208262D01*
%TO.N,Board_1-Net-(U3-AISEN)*%
X57902180Y-41091680D02*
X57900000Y-41089500D01*
X59850000Y-40245738D02*
X60193138Y-39902600D01*
X62685000Y-41114980D02*
X62685000Y-41340500D01*
X57900000Y-41089500D02*
X57900000Y-40245738D01*
X61472620Y-39902600D02*
X62685000Y-41114980D01*
X57900000Y-40245738D02*
X58243138Y-39902600D01*
X59850000Y-41089500D02*
X59850000Y-40245738D01*
X58243138Y-39902600D02*
X60193138Y-39902600D01*
X59842740Y-41096760D02*
X59850000Y-41089500D01*
X60193138Y-39902600D02*
X61472620Y-39902600D01*
%TO.N,Board_1-Net-(U2-nSLEEP)*%
X65098000Y-10859000D02*
X63822500Y-10859000D01*
X63822500Y-10859000D02*
X63817000Y-10853500D01*
%TO.N,Board_1-Net-(U2-VINT)*%
X65225000Y-16571000D02*
X65225000Y-16492738D01*
X62860138Y-15391600D02*
X62517000Y-15734738D01*
X65225000Y-16492738D02*
X64123862Y-15391600D01*
X62517000Y-15734738D02*
X62517000Y-16578500D01*
X64123862Y-15391600D02*
X62860138Y-15391600D01*
%TO.N,Board_1-Net-(U2-VCP)*%
X60567000Y-15734738D02*
X60567000Y-16578500D01*
X60223862Y-15391600D02*
X60567000Y-15734738D01*
X58150600Y-15391600D02*
X60223862Y-15391600D01*
X58113000Y-15354000D02*
X58150600Y-15391600D01*
%TO.N,Board_1-Net-(U2-AISEN)*%
X57732000Y-10602500D02*
X57732000Y-11165000D01*
X57732000Y-11165000D02*
X58607400Y-12040400D01*
X58607400Y-12040400D02*
X59788600Y-12040400D01*
X60567000Y-11770000D02*
X60567000Y-10853500D01*
X59788600Y-12040400D02*
X60296600Y-12040400D01*
X60296600Y-12040400D02*
X60567000Y-11770000D01*
X62173862Y-12040400D02*
X62517000Y-11697262D01*
X59788600Y-12040400D02*
X62173862Y-12040400D01*
X62517000Y-11697262D02*
X62517000Y-10853500D01*
D50*
%TO.N,Board_1-Net-(U11-LX)*%
X66838200Y-25095200D02*
X66698200Y-24955200D01*
X66679800Y-25253600D02*
X66838200Y-25095200D01*
D44*
X66825200Y-24942800D02*
X66825200Y-22997000D01*
D50*
X66698200Y-23009400D02*
X66650400Y-22961600D01*
D44*
X66825200Y-26187400D02*
X66825200Y-25136800D01*
D50*
%TO.N,Board_1-Net-(U11-FB)*%
X61440400Y-28181600D02*
X64037200Y-28181600D01*
X62647400Y-29286200D02*
X62647400Y-28308800D01*
X62647400Y-28308800D02*
X62558000Y-28219400D01*
X64037200Y-28181600D02*
X64059800Y-28204200D01*
%TO.N,Board_1-Net-(U11-BS)*%
X64059800Y-26304200D02*
X64079200Y-26304200D01*
X64079200Y-26304200D02*
X65288200Y-25095200D01*
%TO.N,Board_1-Net-(U10-LX)*%
X66431500Y-44765600D02*
X63151300Y-44765600D01*
%TO.N,Board_1-Net-(U10-FB)*%
X68286000Y-49162000D02*
X68286000Y-48945000D01*
X68463000Y-49339000D02*
X68286000Y-49162000D01*
X69390600Y-49339000D02*
X68463000Y-49339000D01*
X68413000Y-48945000D02*
X68463000Y-48895000D01*
X68336000Y-48895000D02*
X68336000Y-47413000D01*
X68286000Y-48945000D02*
X68336000Y-48895000D01*
X68286000Y-50012600D02*
X68286000Y-48945000D01*
%TO.N,Board_1-Net-(U10-BS)*%
X65326600Y-46190200D02*
X65326600Y-46215300D01*
X65197700Y-46200700D02*
X66368000Y-47371000D01*
D45*
%TO.N,Board_1-Net-(U1-nSLEEP)*%
X49220000Y-42230000D02*
X49220000Y-41089500D01*
X48778000Y-42672000D02*
X49220000Y-42230000D01*
%TO.N,Board_1-Net-(U1-VINT)*%
X50520000Y-35364500D02*
X50520000Y-36208262D01*
X50520000Y-36208262D02*
X50176862Y-36551400D01*
X50176862Y-36551400D02*
X48913138Y-36551400D01*
X48913138Y-36551400D02*
X47549140Y-35187402D01*
X47549140Y-35187402D02*
X47549140Y-35102760D01*
%TO.N,Board_1-Net-(U1-VCP)*%
X52819347Y-36557609D02*
X55160609Y-36557609D01*
X55160609Y-36557609D02*
X55192000Y-36589000D01*
X52470000Y-36208262D02*
X52819347Y-36557609D01*
X52470000Y-35364500D02*
X52470000Y-36208262D01*
%TO.N,Board_1-Net-(U1-AISEN)*%
X50176862Y-39902600D02*
X48885980Y-39902600D01*
X52471660Y-41091160D02*
X52470000Y-41089500D01*
X50176862Y-39902600D02*
X52126862Y-39902600D01*
X52470000Y-40245738D02*
X52470000Y-41089500D01*
X50520000Y-40245738D02*
X50176862Y-39902600D01*
X48885980Y-39902600D02*
X47699000Y-41089580D01*
X50515860Y-41093640D02*
X50520000Y-41089500D01*
X47699000Y-41089580D02*
X47699000Y-41340500D01*
X50520000Y-41089500D02*
X50520000Y-40245738D01*
X52126862Y-39902600D02*
X52470000Y-40245738D01*
D49*
%TO.N,Board_1-Net-(Q1-D)*%
X78020000Y-39338000D02*
X79410000Y-40728000D01*
X78020000Y-38572000D02*
X78020000Y-39338000D01*
X79410000Y-40728000D02*
X81060000Y-40728000D01*
D45*
%TO.N,Board_1-Net-(J19-Pin_2)*%
X55928600Y-6070600D02*
X55065000Y-5207000D01*
X57277862Y-6070600D02*
X55928600Y-6070600D01*
X61217000Y-10853500D02*
X61217000Y-10009738D01*
X61217000Y-10009738D02*
X57277862Y-6070600D01*
%TO.N,Board_1-Net-(J19-Pin_1)*%
X57349462Y-7442200D02*
X52220200Y-7442200D01*
X59917000Y-10853500D02*
X59917000Y-10009738D01*
X52220200Y-7442200D02*
X49985000Y-5207000D01*
X59917000Y-10009738D02*
X57349462Y-7442200D01*
%TO.N,Board_1-Net-(J18-Pin_2)*%
X63167000Y-10853500D02*
X63167000Y-7442800D01*
X65225000Y-5384800D02*
X65225000Y-5207000D01*
X63167000Y-7442800D02*
X65225000Y-5384800D01*
%TO.N,Board_1-Net-(J18-Pin_1)*%
X61867000Y-10853500D02*
X61867000Y-7386200D01*
X61867000Y-7386200D02*
X60145000Y-5664200D01*
X60145000Y-5664200D02*
X60145000Y-5207000D01*
%TO.N,Board_1-Net-(J17-Pin_2)*%
X59200000Y-47696000D02*
X64844000Y-53340000D01*
X64844000Y-53340000D02*
X73734000Y-53340000D01*
X73734000Y-53340000D02*
X76274000Y-55880000D01*
X59200000Y-41089500D02*
X59200000Y-47696000D01*
%TO.N,Board_1-Net-(J17-Pin_1)*%
X60500000Y-41089500D02*
X60500000Y-47980000D01*
X78179000Y-52705000D02*
X81354000Y-55880000D01*
X60500000Y-47980000D02*
X65225000Y-52705000D01*
X65225000Y-52705000D02*
X78179000Y-52705000D01*
%TO.N,Board_1-Net-(J16-Pin_2)*%
X66114000Y-55880000D02*
X65352000Y-55880000D01*
X57250000Y-47778000D02*
X57250000Y-41089500D01*
X65352000Y-55880000D02*
X57250000Y-47778000D01*
%TO.N,Board_1-Net-(J16-Pin_1)*%
X69294609Y-53980609D02*
X71194000Y-55880000D01*
X64468609Y-53980609D02*
X69294609Y-53980609D01*
X58550000Y-48062000D02*
X64468609Y-53980609D01*
X58550000Y-41089500D02*
X58550000Y-48062000D01*
%TO.N,Board_1-Net-(J15-Pin_2)*%
X51820000Y-51746000D02*
X51820000Y-41089500D01*
X55954000Y-55880000D02*
X51820000Y-51746000D01*
%TO.N,Board_1-Net-(J15-Pin_1)*%
X61034000Y-55880000D02*
X53120000Y-47966000D01*
X53120000Y-47966000D02*
X53120000Y-41089500D01*
%TO.N,Board_1-Net-(J11-Pin_2)*%
X45794000Y-55880000D02*
X49870000Y-51804000D01*
X49870000Y-51804000D02*
X49870000Y-41089500D01*
%TO.N,Board_1-Net-(J11-Pin_1)*%
X51170000Y-55584000D02*
X50874000Y-55880000D01*
X51170000Y-41089500D02*
X51170000Y-55584000D01*
D49*
%TO.N,Board_1-Net-(J10-Pad1)*%
X77036000Y-40894000D02*
X76020000Y-39878000D01*
X76020000Y-39878000D02*
X76020000Y-38572000D01*
X72083000Y-46700000D02*
X73262000Y-46700000D01*
X73262000Y-46700000D02*
X77036000Y-42926000D01*
X77036000Y-42926000D02*
X77036000Y-40894000D01*
D50*
%TO.N,Board_1-Net-(D3-A)*%
X82116000Y-37552000D02*
X82584000Y-37084000D01*
X82860000Y-36808000D02*
X82584000Y-37084000D01*
X82860000Y-35560000D02*
X82860000Y-36808000D01*
X82116000Y-38772000D02*
X82116000Y-37552000D01*
X82010000Y-38878000D02*
X82116000Y-38772000D01*
%TO.N,Board_1-Net-(D1-K)*%
X79808000Y-34390500D02*
X80162500Y-34036000D01*
X79808000Y-35560000D02*
X79808000Y-34390500D01*
D46*
%TO.N,Board_1-M6B*%
X71549600Y-10312400D02*
X75258000Y-6604000D01*
X70178000Y-16760000D02*
X71549600Y-15388400D01*
X71549600Y-15388400D02*
X71549600Y-10312400D01*
D45*
X59267000Y-17515000D02*
X59154400Y-17627600D01*
X59267000Y-16578500D02*
X59267000Y-17515000D01*
%TO.N,Board_1-M6A*%
X59917000Y-16578500D02*
X59917000Y-17526600D01*
X59917000Y-17526600D02*
X60018000Y-17627600D01*
D46*
X75254000Y-4064000D02*
X75258000Y-4064000D01*
%TO.N,Board_1-M5B*%
X56335000Y-27940000D02*
X48842000Y-27940000D01*
D45*
X63167000Y-16578500D02*
X63167000Y-17526600D01*
D46*
X48842000Y-27940000D02*
X44778000Y-32004000D01*
D45*
X63167000Y-17526600D02*
X63066000Y-17627600D01*
%TO.N,Board_1-M5A*%
X63817000Y-16578500D02*
X63817000Y-17565800D01*
X63929600Y-17678400D02*
X63929600Y-17627600D01*
X63817000Y-17565800D02*
X63929600Y-17678400D01*
%TO.N,Board_1-M4B*%
X61150000Y-34453400D02*
X61262600Y-34340800D01*
X61150000Y-35364500D02*
X61150000Y-34453400D01*
D46*
X68857200Y-7920800D02*
X68857200Y-18084800D01*
X59814800Y-30717302D02*
X60653000Y-31555502D01*
X59814800Y-22301200D02*
X59814800Y-30717302D01*
X68857200Y-18084800D02*
X68069800Y-18872200D01*
X70178000Y-6600000D02*
X68857200Y-7920800D01*
X63243800Y-18872200D02*
X59814800Y-22301200D01*
X68069800Y-18872200D02*
X63243800Y-18872200D01*
X60653000Y-31555502D02*
X60653000Y-32455588D01*
%TO.N,Board_1-M4A*%
X61542000Y-31496000D02*
X61542000Y-32455588D01*
X60218013Y-22468213D02*
X60218013Y-30172013D01*
X70178000Y-19300000D02*
X63386226Y-19300000D01*
X60218013Y-30172013D02*
X61542000Y-31496000D01*
X63386226Y-19300000D02*
X60218013Y-22468213D01*
D45*
X60500000Y-35364500D02*
X60500000Y-34441800D01*
X60500000Y-34441800D02*
X60399000Y-34340800D01*
D46*
%TO.N,Board_1-M3B*%
X62431000Y-31445200D02*
X62431000Y-32455588D01*
X60621224Y-29635424D02*
X62431000Y-31445200D01*
X68073800Y-19735800D02*
X63520652Y-19735800D01*
X57250000Y-34416400D02*
X57325600Y-34340800D01*
D45*
X57250000Y-35364500D02*
X57250000Y-34416400D01*
D46*
X70178000Y-21840000D02*
X68073800Y-19735800D01*
X60621224Y-22635228D02*
X60621224Y-29635424D01*
X63520652Y-19735800D02*
X60621224Y-22635228D01*
D45*
%TO.N,Board_1-M3A*%
X56600000Y-35364500D02*
X56600000Y-34428000D01*
X56600000Y-34428000D02*
X56512800Y-34340800D01*
%TO.N,Board_1-M2B*%
X53770000Y-34442000D02*
X53871200Y-34340800D01*
X53770000Y-35364500D02*
X53770000Y-34442000D01*
%TO.N,Board_1-M2A*%
X53120000Y-34427800D02*
X53120000Y-35364500D01*
X53033000Y-34340800D02*
X53120000Y-34427800D01*
D46*
%TO.N,Board_1-M1B*%
X49870000Y-34657600D02*
X49870000Y-35364500D01*
X44778000Y-33883600D02*
X49096000Y-33883600D01*
X44778000Y-34544000D02*
X44778000Y-33883600D01*
X49096000Y-33883600D02*
X49870000Y-34657600D01*
%TO.N,Board_1-M1A*%
X44778000Y-37084000D02*
X44778000Y-36368802D01*
X49220000Y-34668000D02*
X49220000Y-35364500D01*
X44778000Y-36368802D02*
X46845652Y-34301150D01*
X46845652Y-34301150D02*
X48853150Y-34301150D01*
X48853150Y-34301150D02*
X49220000Y-34668000D01*
D50*
%TO.N,Board_1-GND*%
X65377400Y-27254200D02*
X65400000Y-27276800D01*
X67358600Y-47385600D02*
X67358600Y-46141640D01*
X65400000Y-29199800D02*
X65313600Y-29286200D01*
X67358600Y-46141640D02*
X67431477Y-46068763D01*
X64059800Y-27254200D02*
X65377400Y-27254200D01*
X69390600Y-47689000D02*
X69390600Y-46758900D01*
X69332220Y-46543000D02*
X69606500Y-46543000D01*
X65400000Y-27276800D02*
X65400000Y-29199800D01*
X69390600Y-46758900D02*
X69606500Y-46543000D01*
X67431477Y-46068763D02*
X68857983Y-46068763D01*
X68857983Y-46068763D02*
X69332220Y-46543000D01*
X81354000Y-35814000D02*
X81354000Y-36576000D01*
X81100000Y-35560000D02*
X81354000Y-35814000D01*
X81100000Y-35560000D02*
X80828000Y-35560000D01*
X81840000Y-35560000D02*
X81100000Y-35560000D01*
X65313600Y-29286200D02*
X64297400Y-29286200D01*
X65321220Y-50017680D02*
X65324060Y-50020520D01*
D46*
%TO.N,Board_1-D5*%
X71498800Y-23059200D02*
X71498800Y-20523200D01*
X71498800Y-20523200D02*
X75258000Y-16764000D01*
X70178000Y-24380000D02*
X71498800Y-23059200D01*
%TO.N,Board_1-D4*%
X79118800Y-18084800D02*
X75258000Y-14224000D01*
X70178000Y-32000000D02*
X71190000Y-30988000D01*
X71190000Y-30988000D02*
X78153600Y-30988000D01*
X78153600Y-30988000D02*
X79118800Y-30022800D01*
X79118800Y-30022800D02*
X79118800Y-18084800D01*
%TO.N,Board_1-D2*%
X48588000Y-24384000D02*
X49096000Y-24892000D01*
X58113000Y-24892000D02*
X58240000Y-24765000D01*
X49096000Y-24892000D02*
X58113000Y-24892000D01*
D50*
%TO.N,Board_1-5V*%
X62495800Y-26631600D02*
X62558000Y-26569400D01*
X62761200Y-25857200D02*
X62761200Y-25311400D01*
X62761200Y-25857200D02*
X62761200Y-23205300D01*
X62977400Y-25095200D02*
X62977400Y-24904400D01*
D51*
X71117800Y-25654000D02*
X69238200Y-25654000D01*
D44*
X64717000Y-20955000D02*
X63106500Y-22565500D01*
X77823400Y-24409400D02*
X77823400Y-21869400D01*
D50*
X62558000Y-26569400D02*
X62761200Y-26366200D01*
D44*
X68298400Y-21665062D02*
X67587328Y-20953990D01*
X76197800Y-25654000D02*
X76528000Y-25654000D01*
X77823400Y-21869400D02*
X77823400Y-21844000D01*
X63106500Y-22565500D02*
X63106500Y-22860000D01*
X76578800Y-25654000D02*
X77823400Y-24409400D01*
X65575672Y-20953990D02*
X65574662Y-20955000D01*
X68298400Y-24714200D02*
X68298400Y-21665062D01*
X76197800Y-25654000D02*
X76578800Y-25654000D01*
X69238200Y-25654000D02*
X68298400Y-24714200D01*
X76528000Y-25654000D02*
X77823400Y-26949400D01*
D50*
X62761200Y-26366200D02*
X62761200Y-25857200D01*
D44*
X77823400Y-26949400D02*
X77823400Y-29489400D01*
D50*
X62761200Y-25311400D02*
X62977400Y-25095200D01*
D44*
X65574662Y-20955000D02*
X64717000Y-20955000D01*
X67587328Y-20953990D02*
X65575672Y-20953990D01*
D51*
X76197800Y-25654000D02*
X71117800Y-25654000D01*
D50*
X62761200Y-23205300D02*
X63106500Y-22860000D01*
X61440400Y-26631600D02*
X62495800Y-26631600D01*
D51*
%TO.N,Board_1-3V3*%
X80850750Y-32700000D02*
X82037500Y-33886750D01*
D50*
X61286990Y-43410276D02*
X61750276Y-42946990D01*
X69391010Y-42946990D02*
X70178000Y-42160000D01*
X66686000Y-48895000D02*
X66686000Y-49962600D01*
X61286990Y-45367612D02*
X61286990Y-43410276D01*
D51*
X80100000Y-32700000D02*
X80850750Y-32700000D01*
X82037500Y-33886750D02*
X82037500Y-34036000D01*
D50*
X63196000Y-47755000D02*
X62561000Y-47755000D01*
X66559000Y-48641000D02*
X63868500Y-48641000D01*
D51*
X79100000Y-31700000D02*
X80100000Y-32700000D01*
D50*
X66813000Y-49962600D02*
X66863000Y-50012600D01*
X62939000Y-47711500D02*
X62939000Y-47501000D01*
X63868500Y-48641000D02*
X62939000Y-47711500D01*
X61288000Y-45368622D02*
X61286990Y-45367612D01*
X61750276Y-42946990D02*
X69391010Y-42946990D01*
X61288000Y-46482000D02*
X61288000Y-45368622D01*
X66813000Y-48895000D02*
X66559000Y-48641000D01*
X62939000Y-47501000D02*
X63066000Y-47628000D01*
X62561000Y-47755000D02*
X61288000Y-46482000D01*
D45*
%TO.N,Board_1-/Sheet6057E9B8/EN*%
X44778000Y-7244080D02*
X44778000Y-6604000D01*
D46*
X46683000Y-8509000D02*
X46683000Y-9779000D01*
X44778000Y-6604000D02*
X46683000Y-8509000D01*
X46683000Y-9779000D02*
X48588000Y-11684000D01*
%TO.N,Board_1-/Sheet6057E9B8/D39*%
X44778000Y-11684000D02*
X46683000Y-13589000D01*
X46683000Y-13589000D02*
X46683000Y-14859000D01*
X46683000Y-14859000D02*
X48588000Y-16764000D01*
%TO.N,Board_1-/Sheet6057E9B8/D36*%
X46683000Y-12319000D02*
X48588000Y-14224000D01*
X46683000Y-11049000D02*
X46683000Y-12319000D01*
X44778000Y-9144000D02*
X46683000Y-11049000D01*
%TO.N,Board_1-/Sheet6057E9B8/D35*%
X46657600Y-18643600D02*
X44778000Y-16764000D01*
X48588000Y-21844000D02*
X46657600Y-19913600D01*
X46657600Y-19913600D02*
X46657600Y-18643600D01*
%TO.N,Board_1-/Sheet6057E9B8/D34*%
X46657600Y-16103600D02*
X44778000Y-14224000D01*
X46657600Y-17373600D02*
X46657600Y-16103600D01*
X48588000Y-19304000D02*
X46657600Y-17373600D01*
D44*
%TO.N,Board_0-VIN*%
X23342600Y-36880800D02*
X23622000Y-36601400D01*
X23863600Y-29286200D02*
X23863600Y-28388000D01*
D45*
X12192000Y-34543196D02*
X12192000Y-35039000D01*
D46*
X23368000Y-13779000D02*
X22098000Y-12509000D01*
D44*
X14569400Y-33341398D02*
X21098598Y-33341398D01*
D47*
X23342600Y-35585400D02*
X23342600Y-35788600D01*
D45*
X16078200Y-29413200D02*
X16078200Y-19735800D01*
D48*
X23736300Y-35902900D02*
X23736300Y-36487100D01*
X23736300Y-36487100D02*
X23342600Y-36880800D01*
D45*
X14490282Y-33525460D02*
X13314680Y-33525460D01*
D49*
X30340300Y-36576000D02*
X28536900Y-38379400D01*
D44*
X23622000Y-36601400D02*
X23622000Y-30518700D01*
X14503400Y-30030400D02*
X14503400Y-33341398D01*
D45*
X8820000Y-35364500D02*
X8820000Y-36442800D01*
X15113000Y-17679204D02*
X16356796Y-18923000D01*
X16078200Y-19735800D02*
X16703000Y-19111000D01*
D44*
X23863600Y-29286200D02*
X23863600Y-30277100D01*
D45*
X9575800Y-33401000D02*
X8820000Y-34156800D01*
X18217000Y-17521604D02*
X18217000Y-16578500D01*
X16200000Y-35364500D02*
X16200000Y-33645000D01*
X8820000Y-34156800D02*
X8820000Y-35364500D01*
D50*
X26517600Y-44589400D02*
X25611800Y-44589400D01*
X28702000Y-42799000D02*
X28702000Y-38544500D01*
D45*
X22780960Y-35023760D02*
X23037800Y-35280600D01*
D47*
X28536900Y-38379400D02*
X28143200Y-38379400D01*
D44*
X23622000Y-30518700D02*
X23863600Y-30277100D01*
D49*
X36322000Y-37084000D02*
X35814000Y-36576000D01*
D45*
X8820000Y-36442800D02*
X8813800Y-36449000D01*
D47*
X23342600Y-35788600D02*
X25933400Y-38379400D01*
D50*
X24381500Y-29527500D02*
X23863600Y-30045400D01*
D45*
X7653020Y-33375600D02*
X9624020Y-33375600D01*
D44*
X23037800Y-35280600D02*
X23342600Y-35585400D01*
D50*
X26784600Y-44716400D02*
X28702000Y-42799000D01*
D45*
X7366000Y-33639800D02*
X7604800Y-33401000D01*
X9575800Y-33401000D02*
X9601200Y-33375600D01*
D44*
X21098598Y-33341398D02*
X23037800Y-35280600D01*
D45*
X16815604Y-18923000D02*
X18217000Y-17521604D01*
X15494000Y-29997400D02*
X16078200Y-29413200D01*
X16200000Y-33645000D02*
X16205200Y-33639800D01*
D50*
X28702000Y-38544500D02*
X28536900Y-38379400D01*
D45*
X16703000Y-18923000D02*
X16815604Y-18923000D01*
D51*
X28143200Y-38379400D02*
X28109701Y-38345901D01*
D44*
X23850600Y-28295600D02*
X23850600Y-27345600D01*
D45*
X19301460Y-35023760D02*
X22780960Y-35023760D01*
X16703000Y-19111000D02*
X16703000Y-18923000D01*
D50*
X26595400Y-44892600D02*
X26771600Y-44716400D01*
D49*
X37084000Y-39002000D02*
X37110000Y-39028000D01*
X37084000Y-37084000D02*
X37084000Y-39002000D01*
D45*
X18211800Y-16573300D02*
X18217000Y-16578500D01*
D49*
X37084000Y-37084000D02*
X36322000Y-37084000D01*
D44*
X14536400Y-29997400D02*
X14503400Y-30030400D01*
D51*
X28109701Y-38345901D02*
X26246299Y-38345901D01*
D45*
X15113000Y-16904000D02*
X15113000Y-17679204D01*
D50*
X25526400Y-44729400D02*
X25689600Y-44892600D01*
X26771600Y-44716400D02*
X26784600Y-44716400D01*
D45*
X18211800Y-15494000D02*
X18211800Y-16573300D01*
D46*
X23368000Y-15494000D02*
X23368000Y-13779000D01*
D50*
X23863600Y-28388000D02*
X23679800Y-28204200D01*
D51*
X26246299Y-38345901D02*
X26212800Y-38379400D01*
D50*
X23863600Y-30045400D02*
X23863600Y-30277100D01*
X24648800Y-44602400D02*
X25272400Y-44602400D01*
D45*
X9601200Y-33375600D02*
X14535198Y-33375600D01*
X22008600Y-12598400D02*
X22098000Y-12509000D01*
D44*
X23342600Y-35585400D02*
X23342600Y-36880800D01*
D45*
X14536400Y-29997400D02*
X15494000Y-29997400D01*
X13156396Y-33578800D02*
X12192000Y-34543196D01*
X16356796Y-18923000D02*
X16703000Y-18923000D01*
D47*
X25933400Y-38379400D02*
X26212800Y-38379400D01*
D49*
X35814000Y-36576000D02*
X30340300Y-36576000D01*
X37110000Y-39028000D02*
X37110000Y-38878000D01*
D46*
%TO.N,Board_0-SRV4*%
X15240000Y-27051000D02*
X15151800Y-26924000D01*
X15151800Y-26924000D02*
X1778000Y-26924000D01*
%TO.N,Board_0-SRV3*%
X15240000Y-25908000D02*
X3302000Y-25908000D01*
X3302000Y-25908000D02*
X1778000Y-24384000D01*
%TO.N,Board_0-SRV1*%
X27207400Y-29489400D02*
X27178000Y-29460000D01*
D45*
%TO.N,Board_0-Net-(U3-nSLEEP)*%
X13600000Y-42470000D02*
X13398000Y-42672000D01*
X13600000Y-41089500D02*
X13600000Y-42470000D01*
%TO.N,Board_0-Net-(U3-VINT)*%
X13783696Y-36551400D02*
X14556862Y-36551400D01*
X12395156Y-37939940D02*
X13783696Y-36551400D01*
X14900000Y-36208262D02*
X14900000Y-35364500D01*
X14556862Y-36551400D02*
X14900000Y-36208262D01*
X12166600Y-37939940D02*
X12395156Y-37939940D01*
%TO.N,Board_0-Net-(U3-VCP)*%
X16850000Y-36208262D02*
X16850000Y-35364500D01*
X19301460Y-36573760D02*
X19279100Y-36551400D01*
X19279100Y-36551400D02*
X17193138Y-36551400D01*
X17193138Y-36551400D02*
X16850000Y-36208262D01*
%TO.N,Board_0-Net-(U3-AISEN)*%
X14902180Y-41091680D02*
X14900000Y-41089500D01*
X16850000Y-40245738D02*
X17193138Y-39902600D01*
X19685000Y-41114980D02*
X19685000Y-41340500D01*
X14900000Y-41089500D02*
X14900000Y-40245738D01*
X18472620Y-39902600D02*
X19685000Y-41114980D01*
X14900000Y-40245738D02*
X15243138Y-39902600D01*
X16850000Y-41089500D02*
X16850000Y-40245738D01*
X15243138Y-39902600D02*
X17193138Y-39902600D01*
X16842740Y-41096760D02*
X16850000Y-41089500D01*
X17193138Y-39902600D02*
X18472620Y-39902600D01*
%TO.N,Board_0-Net-(U2-nSLEEP)*%
X22098000Y-10859000D02*
X20822500Y-10859000D01*
X20822500Y-10859000D02*
X20817000Y-10853500D01*
%TO.N,Board_0-Net-(U2-VINT)*%
X22225000Y-16571000D02*
X22225000Y-16492738D01*
X19860138Y-15391600D02*
X19517000Y-15734738D01*
X22225000Y-16492738D02*
X21123862Y-15391600D01*
X19517000Y-15734738D02*
X19517000Y-16578500D01*
X21123862Y-15391600D02*
X19860138Y-15391600D01*
%TO.N,Board_0-Net-(U2-VCP)*%
X17567000Y-15734738D02*
X17567000Y-16578500D01*
X17223862Y-15391600D02*
X17567000Y-15734738D01*
X15150600Y-15391600D02*
X17223862Y-15391600D01*
X15113000Y-15354000D02*
X15150600Y-15391600D01*
%TO.N,Board_0-Net-(U2-AISEN)*%
X14732000Y-10602500D02*
X14732000Y-11165000D01*
X14732000Y-11165000D02*
X15607400Y-12040400D01*
X15607400Y-12040400D02*
X16788600Y-12040400D01*
X17567000Y-11770000D02*
X17567000Y-10853500D01*
X16788600Y-12040400D02*
X17296600Y-12040400D01*
X17296600Y-12040400D02*
X17567000Y-11770000D01*
X19173862Y-12040400D02*
X19517000Y-11697262D01*
X16788600Y-12040400D02*
X19173862Y-12040400D01*
X19517000Y-11697262D02*
X19517000Y-10853500D01*
D50*
%TO.N,Board_0-Net-(U11-LX)*%
X23838200Y-25095200D02*
X23698200Y-24955200D01*
X23679800Y-25253600D02*
X23838200Y-25095200D01*
D44*
X23825200Y-24942800D02*
X23825200Y-22997000D01*
D50*
X23698200Y-23009400D02*
X23650400Y-22961600D01*
D44*
X23825200Y-26187400D02*
X23825200Y-25136800D01*
D50*
%TO.N,Board_0-Net-(U11-FB)*%
X18440400Y-28181600D02*
X21037200Y-28181600D01*
X19647400Y-29286200D02*
X19647400Y-28308800D01*
X19647400Y-28308800D02*
X19558000Y-28219400D01*
X21037200Y-28181600D02*
X21059800Y-28204200D01*
%TO.N,Board_0-Net-(U11-BS)*%
X21059800Y-26304200D02*
X21079200Y-26304200D01*
X21079200Y-26304200D02*
X22288200Y-25095200D01*
%TO.N,Board_0-Net-(U10-LX)*%
X23431500Y-44765600D02*
X20151300Y-44765600D01*
%TO.N,Board_0-Net-(U10-FB)*%
X25286000Y-49162000D02*
X25286000Y-48945000D01*
X25463000Y-49339000D02*
X25286000Y-49162000D01*
X26390600Y-49339000D02*
X25463000Y-49339000D01*
X25413000Y-48945000D02*
X25463000Y-48895000D01*
X25336000Y-48895000D02*
X25336000Y-47413000D01*
X25286000Y-48945000D02*
X25336000Y-48895000D01*
X25286000Y-50012600D02*
X25286000Y-48945000D01*
%TO.N,Board_0-Net-(U10-BS)*%
X22326600Y-46190200D02*
X22326600Y-46215300D01*
X22197700Y-46200700D02*
X23368000Y-47371000D01*
D45*
%TO.N,Board_0-Net-(U1-nSLEEP)*%
X6220000Y-42230000D02*
X6220000Y-41089500D01*
X5778000Y-42672000D02*
X6220000Y-42230000D01*
%TO.N,Board_0-Net-(U1-VINT)*%
X7520000Y-35364500D02*
X7520000Y-36208262D01*
X7520000Y-36208262D02*
X7176862Y-36551400D01*
X7176862Y-36551400D02*
X5913138Y-36551400D01*
X5913138Y-36551400D02*
X4549140Y-35187402D01*
X4549140Y-35187402D02*
X4549140Y-35102760D01*
%TO.N,Board_0-Net-(U1-VCP)*%
X9819347Y-36557609D02*
X12160609Y-36557609D01*
X12160609Y-36557609D02*
X12192000Y-36589000D01*
X9470000Y-36208262D02*
X9819347Y-36557609D01*
X9470000Y-35364500D02*
X9470000Y-36208262D01*
%TO.N,Board_0-Net-(U1-AISEN)*%
X7176862Y-39902600D02*
X5885980Y-39902600D01*
X9471660Y-41091160D02*
X9470000Y-41089500D01*
X7176862Y-39902600D02*
X9126862Y-39902600D01*
X9470000Y-40245738D02*
X9470000Y-41089500D01*
X7520000Y-40245738D02*
X7176862Y-39902600D01*
X5885980Y-39902600D02*
X4699000Y-41089580D01*
X7515860Y-41093640D02*
X7520000Y-41089500D01*
X4699000Y-41089580D02*
X4699000Y-41340500D01*
X7520000Y-41089500D02*
X7520000Y-40245738D01*
X9126862Y-39902600D02*
X9470000Y-40245738D01*
D49*
%TO.N,Board_0-Net-(Q1-D)*%
X35020000Y-39338000D02*
X36410000Y-40728000D01*
X35020000Y-38572000D02*
X35020000Y-39338000D01*
X36410000Y-40728000D02*
X38060000Y-40728000D01*
D45*
%TO.N,Board_0-Net-(J19-Pin_2)*%
X12928600Y-6070600D02*
X12065000Y-5207000D01*
X14277862Y-6070600D02*
X12928600Y-6070600D01*
X18217000Y-10853500D02*
X18217000Y-10009738D01*
X18217000Y-10009738D02*
X14277862Y-6070600D01*
%TO.N,Board_0-Net-(J19-Pin_1)*%
X14349462Y-7442200D02*
X9220200Y-7442200D01*
X16917000Y-10853500D02*
X16917000Y-10009738D01*
X9220200Y-7442200D02*
X6985000Y-5207000D01*
X16917000Y-10009738D02*
X14349462Y-7442200D01*
%TO.N,Board_0-Net-(J18-Pin_2)*%
X20167000Y-10853500D02*
X20167000Y-7442800D01*
X22225000Y-5384800D02*
X22225000Y-5207000D01*
X20167000Y-7442800D02*
X22225000Y-5384800D01*
%TO.N,Board_0-Net-(J18-Pin_1)*%
X18867000Y-10853500D02*
X18867000Y-7386200D01*
X18867000Y-7386200D02*
X17145000Y-5664200D01*
X17145000Y-5664200D02*
X17145000Y-5207000D01*
%TO.N,Board_0-Net-(J17-Pin_2)*%
X16200000Y-47696000D02*
X21844000Y-53340000D01*
X21844000Y-53340000D02*
X30734000Y-53340000D01*
X30734000Y-53340000D02*
X33274000Y-55880000D01*
X16200000Y-41089500D02*
X16200000Y-47696000D01*
%TO.N,Board_0-Net-(J17-Pin_1)*%
X17500000Y-41089500D02*
X17500000Y-47980000D01*
X35179000Y-52705000D02*
X38354000Y-55880000D01*
X17500000Y-47980000D02*
X22225000Y-52705000D01*
X22225000Y-52705000D02*
X35179000Y-52705000D01*
%TO.N,Board_0-Net-(J16-Pin_2)*%
X23114000Y-55880000D02*
X22352000Y-55880000D01*
X14250000Y-47778000D02*
X14250000Y-41089500D01*
X22352000Y-55880000D02*
X14250000Y-47778000D01*
%TO.N,Board_0-Net-(J16-Pin_1)*%
X26294609Y-53980609D02*
X28194000Y-55880000D01*
X21468609Y-53980609D02*
X26294609Y-53980609D01*
X15550000Y-48062000D02*
X21468609Y-53980609D01*
X15550000Y-41089500D02*
X15550000Y-48062000D01*
%TO.N,Board_0-Net-(J15-Pin_2)*%
X8820000Y-51746000D02*
X8820000Y-41089500D01*
X12954000Y-55880000D02*
X8820000Y-51746000D01*
%TO.N,Board_0-Net-(J15-Pin_1)*%
X18034000Y-55880000D02*
X10120000Y-47966000D01*
X10120000Y-47966000D02*
X10120000Y-41089500D01*
%TO.N,Board_0-Net-(J11-Pin_2)*%
X2794000Y-55880000D02*
X6870000Y-51804000D01*
X6870000Y-51804000D02*
X6870000Y-41089500D01*
%TO.N,Board_0-Net-(J11-Pin_1)*%
X8170000Y-55584000D02*
X7874000Y-55880000D01*
X8170000Y-41089500D02*
X8170000Y-55584000D01*
D49*
%TO.N,Board_0-Net-(J10-Pad1)*%
X34036000Y-40894000D02*
X33020000Y-39878000D01*
X33020000Y-39878000D02*
X33020000Y-38572000D01*
X29083000Y-46700000D02*
X30262000Y-46700000D01*
X30262000Y-46700000D02*
X34036000Y-42926000D01*
X34036000Y-42926000D02*
X34036000Y-40894000D01*
D50*
%TO.N,Board_0-Net-(D3-A)*%
X39116000Y-37552000D02*
X39584000Y-37084000D01*
X39860000Y-36808000D02*
X39584000Y-37084000D01*
X39860000Y-35560000D02*
X39860000Y-36808000D01*
X39116000Y-38772000D02*
X39116000Y-37552000D01*
X39010000Y-38878000D02*
X39116000Y-38772000D01*
%TO.N,Board_0-Net-(D1-K)*%
X36808000Y-34390500D02*
X37162500Y-34036000D01*
X36808000Y-35560000D02*
X36808000Y-34390500D01*
D46*
%TO.N,Board_0-M6B*%
X28549600Y-10312400D02*
X32258000Y-6604000D01*
X27178000Y-16760000D02*
X28549600Y-15388400D01*
X28549600Y-15388400D02*
X28549600Y-10312400D01*
D45*
X16267000Y-17515000D02*
X16154400Y-17627600D01*
X16267000Y-16578500D02*
X16267000Y-17515000D01*
%TO.N,Board_0-M6A*%
X16917000Y-16578500D02*
X16917000Y-17526600D01*
X16917000Y-17526600D02*
X17018000Y-17627600D01*
D46*
X32254000Y-4064000D02*
X32258000Y-4064000D01*
%TO.N,Board_0-M5B*%
X13335000Y-27940000D02*
X5842000Y-27940000D01*
D45*
X20167000Y-16578500D02*
X20167000Y-17526600D01*
D46*
X5842000Y-27940000D02*
X1778000Y-32004000D01*
D45*
X20167000Y-17526600D02*
X20066000Y-17627600D01*
%TO.N,Board_0-M5A*%
X20817000Y-16578500D02*
X20817000Y-17565800D01*
X20929600Y-17678400D02*
X20929600Y-17627600D01*
X20817000Y-17565800D02*
X20929600Y-17678400D01*
%TO.N,Board_0-M4B*%
X18150000Y-34453400D02*
X18262600Y-34340800D01*
X18150000Y-35364500D02*
X18150000Y-34453400D01*
D46*
X25857200Y-7920800D02*
X25857200Y-18084800D01*
X16814800Y-30717302D02*
X17653000Y-31555502D01*
X16814800Y-22301200D02*
X16814800Y-30717302D01*
X25857200Y-18084800D02*
X25069800Y-18872200D01*
X27178000Y-6600000D02*
X25857200Y-7920800D01*
X20243800Y-18872200D02*
X16814800Y-22301200D01*
X25069800Y-18872200D02*
X20243800Y-18872200D01*
X17653000Y-31555502D02*
X17653000Y-32455588D01*
%TO.N,Board_0-M4A*%
X18542000Y-31496000D02*
X18542000Y-32455588D01*
X17218013Y-22468213D02*
X17218013Y-30172013D01*
X27178000Y-19300000D02*
X20386226Y-19300000D01*
X17218013Y-30172013D02*
X18542000Y-31496000D01*
X20386226Y-19300000D02*
X17218013Y-22468213D01*
D45*
X17500000Y-35364500D02*
X17500000Y-34441800D01*
X17500000Y-34441800D02*
X17399000Y-34340800D01*
D46*
%TO.N,Board_0-M3B*%
X19431000Y-31445200D02*
X19431000Y-32455588D01*
X17621224Y-29635424D02*
X19431000Y-31445200D01*
X25073800Y-19735800D02*
X20520652Y-19735800D01*
X14250000Y-34416400D02*
X14325600Y-34340800D01*
D45*
X14250000Y-35364500D02*
X14250000Y-34416400D01*
D46*
X27178000Y-21840000D02*
X25073800Y-19735800D01*
X17621224Y-22635228D02*
X17621224Y-29635424D01*
X20520652Y-19735800D02*
X17621224Y-22635228D01*
D45*
%TO.N,Board_0-M3A*%
X13600000Y-35364500D02*
X13600000Y-34428000D01*
X13600000Y-34428000D02*
X13512800Y-34340800D01*
%TO.N,Board_0-M2B*%
X10770000Y-34442000D02*
X10871200Y-34340800D01*
X10770000Y-35364500D02*
X10770000Y-34442000D01*
%TO.N,Board_0-M2A*%
X10120000Y-34427800D02*
X10120000Y-35364500D01*
X10033000Y-34340800D02*
X10120000Y-34427800D01*
D46*
%TO.N,Board_0-M1B*%
X6870000Y-34657600D02*
X6870000Y-35364500D01*
X1778000Y-33883600D02*
X6096000Y-33883600D01*
X1778000Y-34544000D02*
X1778000Y-33883600D01*
X6096000Y-33883600D02*
X6870000Y-34657600D01*
%TO.N,Board_0-M1A*%
X1778000Y-37084000D02*
X1778000Y-36368802D01*
X6220000Y-34668000D02*
X6220000Y-35364500D01*
X1778000Y-36368802D02*
X3845652Y-34301150D01*
X3845652Y-34301150D02*
X5853150Y-34301150D01*
X5853150Y-34301150D02*
X6220000Y-34668000D01*
D50*
%TO.N,Board_0-GND*%
X22377400Y-27254200D02*
X22400000Y-27276800D01*
X24358600Y-47385600D02*
X24358600Y-46141640D01*
X22400000Y-29199800D02*
X22313600Y-29286200D01*
X24358600Y-46141640D02*
X24431477Y-46068763D01*
X21059800Y-27254200D02*
X22377400Y-27254200D01*
X26390600Y-47689000D02*
X26390600Y-46758900D01*
X26332220Y-46543000D02*
X26606500Y-46543000D01*
X22400000Y-27276800D02*
X22400000Y-29199800D01*
X26390600Y-46758900D02*
X26606500Y-46543000D01*
X24431477Y-46068763D02*
X25857983Y-46068763D01*
X25857983Y-46068763D02*
X26332220Y-46543000D01*
X38354000Y-35814000D02*
X38354000Y-36576000D01*
X38100000Y-35560000D02*
X38354000Y-35814000D01*
X38100000Y-35560000D02*
X37828000Y-35560000D01*
X38840000Y-35560000D02*
X38100000Y-35560000D01*
X22313600Y-29286200D02*
X21297400Y-29286200D01*
X22321220Y-50017680D02*
X22324060Y-50020520D01*
D46*
%TO.N,Board_0-D5*%
X28498800Y-23059200D02*
X28498800Y-20523200D01*
X28498800Y-20523200D02*
X32258000Y-16764000D01*
X27178000Y-24380000D02*
X28498800Y-23059200D01*
%TO.N,Board_0-D4*%
X36118800Y-18084800D02*
X32258000Y-14224000D01*
X27178000Y-32000000D02*
X28190000Y-30988000D01*
X28190000Y-30988000D02*
X35153600Y-30988000D01*
X35153600Y-30988000D02*
X36118800Y-30022800D01*
X36118800Y-30022800D02*
X36118800Y-18084800D01*
%TO.N,Board_0-D2*%
X5588000Y-24384000D02*
X6096000Y-24892000D01*
X15113000Y-24892000D02*
X15240000Y-24765000D01*
X6096000Y-24892000D02*
X15113000Y-24892000D01*
D50*
%TO.N,Board_0-5V*%
X19495800Y-26631600D02*
X19558000Y-26569400D01*
X19761200Y-25857200D02*
X19761200Y-25311400D01*
X19761200Y-25857200D02*
X19761200Y-23205300D01*
X19977400Y-25095200D02*
X19977400Y-24904400D01*
D51*
X28117800Y-25654000D02*
X26238200Y-25654000D01*
D44*
X21717000Y-20955000D02*
X20106500Y-22565500D01*
X34823400Y-24409400D02*
X34823400Y-21869400D01*
D50*
X19558000Y-26569400D02*
X19761200Y-26366200D01*
D44*
X25298400Y-21665062D02*
X24587328Y-20953990D01*
X33197800Y-25654000D02*
X33528000Y-25654000D01*
X34823400Y-21869400D02*
X34823400Y-21844000D01*
X20106500Y-22565500D02*
X20106500Y-22860000D01*
X33578800Y-25654000D02*
X34823400Y-24409400D01*
X22575672Y-20953990D02*
X22574662Y-20955000D01*
X25298400Y-24714200D02*
X25298400Y-21665062D01*
X33197800Y-25654000D02*
X33578800Y-25654000D01*
X26238200Y-25654000D02*
X25298400Y-24714200D01*
X33528000Y-25654000D02*
X34823400Y-26949400D01*
D50*
X19761200Y-26366200D02*
X19761200Y-25857200D01*
D44*
X34823400Y-26949400D02*
X34823400Y-29489400D01*
D50*
X19761200Y-25311400D02*
X19977400Y-25095200D01*
D44*
X22574662Y-20955000D02*
X21717000Y-20955000D01*
X24587328Y-20953990D02*
X22575672Y-20953990D01*
D51*
X33197800Y-25654000D02*
X28117800Y-25654000D01*
D50*
X19761200Y-23205300D02*
X20106500Y-22860000D01*
X18440400Y-26631600D02*
X19495800Y-26631600D01*
D51*
%TO.N,Board_0-3V3*%
X37850750Y-32700000D02*
X39037500Y-33886750D01*
D50*
X18286990Y-43410276D02*
X18750276Y-42946990D01*
X26391010Y-42946990D02*
X27178000Y-42160000D01*
X23686000Y-48895000D02*
X23686000Y-49962600D01*
X18286990Y-45367612D02*
X18286990Y-43410276D01*
D51*
X37100000Y-32700000D02*
X37850750Y-32700000D01*
X39037500Y-33886750D02*
X39037500Y-34036000D01*
D50*
X20196000Y-47755000D02*
X19561000Y-47755000D01*
X23559000Y-48641000D02*
X20868500Y-48641000D01*
D51*
X36100000Y-31700000D02*
X37100000Y-32700000D01*
D50*
X23813000Y-49962600D02*
X23863000Y-50012600D01*
X19939000Y-47711500D02*
X19939000Y-47501000D01*
X20868500Y-48641000D02*
X19939000Y-47711500D01*
X18288000Y-45368622D02*
X18286990Y-45367612D01*
X18750276Y-42946990D02*
X26391010Y-42946990D01*
X18288000Y-46482000D02*
X18288000Y-45368622D01*
X23813000Y-48895000D02*
X23559000Y-48641000D01*
X19939000Y-47501000D02*
X20066000Y-47628000D01*
X19561000Y-47755000D02*
X18288000Y-46482000D01*
D45*
%TO.N,Board_0-/Sheet6057E9B8/EN*%
X1778000Y-7244080D02*
X1778000Y-6604000D01*
D46*
X3683000Y-8509000D02*
X3683000Y-9779000D01*
X1778000Y-6604000D02*
X3683000Y-8509000D01*
X3683000Y-9779000D02*
X5588000Y-11684000D01*
%TO.N,Board_0-/Sheet6057E9B8/D39*%
X1778000Y-11684000D02*
X3683000Y-13589000D01*
X3683000Y-13589000D02*
X3683000Y-14859000D01*
X3683000Y-14859000D02*
X5588000Y-16764000D01*
%TO.N,Board_0-/Sheet6057E9B8/D36*%
X3683000Y-12319000D02*
X5588000Y-14224000D01*
X3683000Y-11049000D02*
X3683000Y-12319000D01*
X1778000Y-9144000D02*
X3683000Y-11049000D01*
%TO.N,Board_0-/Sheet6057E9B8/D35*%
X3657600Y-18643600D02*
X1778000Y-16764000D01*
X5588000Y-21844000D02*
X3657600Y-19913600D01*
X3657600Y-19913600D02*
X3657600Y-18643600D01*
%TO.N,Board_0-/Sheet6057E9B8/D34*%
X3657600Y-16103600D02*
X1778000Y-14224000D01*
X3657600Y-17373600D02*
X3657600Y-16103600D01*
X5588000Y-19304000D02*
X3657600Y-17373600D01*
%TD*%
%TA.AperFunction,Conductor*%
%TO.N,Board_0-GND*%
G36*
X14285830Y-10075947D02*
G01*
X14332106Y-10123699D01*
X14347629Y-10188358D01*
X14328076Y-10251915D01*
X14278893Y-10296667D01*
X14225587Y-10323827D01*
X14225582Y-10323829D01*
X14216753Y-10328329D01*
X14209744Y-10335337D01*
X14209741Y-10335340D01*
X14133340Y-10411741D01*
X14133337Y-10411744D01*
X14126329Y-10418753D01*
X14121831Y-10427580D01*
X14121828Y-10427585D01*
X14072773Y-10523861D01*
X14072771Y-10523867D01*
X14068273Y-10532695D01*
X14066722Y-10542484D01*
X14066722Y-10542486D01*
X14054074Y-10622339D01*
X14054073Y-10622347D01*
X14053300Y-10627230D01*
X14053300Y-11090770D01*
X14054073Y-11095653D01*
X14054074Y-11095660D01*
X14066722Y-11175513D01*
X14068273Y-11185305D01*
X14072771Y-11194134D01*
X14072773Y-11194138D01*
X14115998Y-11278971D01*
X14126329Y-11299247D01*
X14216753Y-11389671D01*
X14330695Y-11447727D01*
X14425230Y-11462700D01*
X14425024Y-11463998D01*
X14458585Y-11472708D01*
X14495030Y-11498085D01*
X15277227Y-12280283D01*
X15277228Y-12280284D01*
X15367516Y-12370572D01*
X15387301Y-12380653D01*
X15404152Y-12390978D01*
X15422120Y-12404033D01*
X15443240Y-12410895D01*
X15461497Y-12418457D01*
X15481286Y-12428540D01*
X15501363Y-12431719D01*
X15503204Y-12432011D01*
X15522437Y-12436628D01*
X15543557Y-12443491D01*
X15671238Y-12443491D01*
X15671244Y-12443491D01*
X15671246Y-12443490D01*
X15671250Y-12443490D01*
X19227785Y-12443490D01*
X19237705Y-12443490D01*
X19258815Y-12436629D01*
X19278041Y-12432013D01*
X19299976Y-12428540D01*
X19319762Y-12418458D01*
X19338028Y-12410892D01*
X19359142Y-12404032D01*
X19377097Y-12390986D01*
X19393965Y-12380650D01*
X19413746Y-12370572D01*
X19504034Y-12280284D01*
X19504035Y-12280281D01*
X19756881Y-12027435D01*
X19756884Y-12027434D01*
X19847172Y-11937146D01*
X19857251Y-11917361D01*
X19867575Y-11900512D01*
X19874244Y-11891333D01*
X19911423Y-11857311D01*
X19958969Y-11840580D01*
X19996121Y-11842974D01*
X19996263Y-11841754D01*
X20021655Y-11844700D01*
X20312344Y-11844699D01*
X20337737Y-11841754D01*
X20441107Y-11796111D01*
X20492000Y-11785376D01*
X20542892Y-11796111D01*
X20646263Y-11841754D01*
X20671655Y-11844700D01*
X20962344Y-11844699D01*
X20987737Y-11841754D01*
X21091605Y-11795892D01*
X21171892Y-11715605D01*
X21217754Y-11611737D01*
X21220700Y-11586345D01*
X21220700Y-11388090D01*
X21237581Y-11325090D01*
X21283700Y-11278971D01*
X21346700Y-11262090D01*
X21403051Y-11262090D01*
X21460267Y-11275830D01*
X21490184Y-11301391D01*
X21492329Y-11299247D01*
X21582753Y-11389671D01*
X21696695Y-11447727D01*
X21791230Y-11462700D01*
X22399817Y-11462700D01*
X22404770Y-11462700D01*
X22499305Y-11447727D01*
X22613247Y-11389671D01*
X22703671Y-11299247D01*
X22761727Y-11185305D01*
X22776700Y-11090770D01*
X22776700Y-10627230D01*
X22761727Y-10532695D01*
X22703671Y-10418753D01*
X22613247Y-10328329D01*
X22604413Y-10323828D01*
X22604412Y-10323827D01*
X22551107Y-10296667D01*
X22501924Y-10251915D01*
X22482371Y-10188358D01*
X22497894Y-10123699D01*
X22544170Y-10075947D01*
X22608309Y-10058400D01*
X23496000Y-10058400D01*
X23559000Y-10075281D01*
X23605119Y-10121400D01*
X23622000Y-10184400D01*
X23622000Y-13297051D01*
X23608267Y-13354254D01*
X23570061Y-13398987D01*
X23515711Y-13421500D01*
X23457064Y-13416884D01*
X23406905Y-13386146D01*
X22813605Y-12792846D01*
X22786291Y-12751969D01*
X22776700Y-12703751D01*
X22776700Y-12282183D01*
X22776700Y-12277230D01*
X22761727Y-12182695D01*
X22703671Y-12068753D01*
X22613247Y-11978329D01*
X22604415Y-11973829D01*
X22604414Y-11973828D01*
X22508138Y-11924773D01*
X22508134Y-11924771D01*
X22499305Y-11920273D01*
X22489513Y-11918722D01*
X22409660Y-11906074D01*
X22409653Y-11906073D01*
X22404770Y-11905300D01*
X21791230Y-11905300D01*
X21786347Y-11906073D01*
X21786339Y-11906074D01*
X21706486Y-11918722D01*
X21706484Y-11918722D01*
X21696695Y-11920273D01*
X21687867Y-11924771D01*
X21687861Y-11924773D01*
X21591585Y-11973828D01*
X21591580Y-11973831D01*
X21582753Y-11978329D01*
X21575744Y-11985337D01*
X21575741Y-11985340D01*
X21499340Y-12061741D01*
X21499337Y-12061744D01*
X21492329Y-12068753D01*
X21487831Y-12077580D01*
X21487828Y-12077585D01*
X21438773Y-12173861D01*
X21438771Y-12173867D01*
X21434273Y-12182695D01*
X21432722Y-12192484D01*
X21432722Y-12192486D01*
X21420074Y-12272339D01*
X21420073Y-12272347D01*
X21419300Y-12277230D01*
X21419300Y-12740770D01*
X21420073Y-12745653D01*
X21420074Y-12745660D01*
X21421374Y-12753866D01*
X21434273Y-12835305D01*
X21438771Y-12844134D01*
X21438773Y-12844138D01*
X21487828Y-12940414D01*
X21492329Y-12949247D01*
X21582753Y-13039671D01*
X21696695Y-13097727D01*
X21791230Y-13112700D01*
X22217750Y-13112700D01*
X22265968Y-13122291D01*
X22306846Y-13149605D01*
X23025796Y-13868556D01*
X23053109Y-13909433D01*
X23062700Y-13957651D01*
X23062700Y-15022938D01*
X23051316Y-15075275D01*
X23029714Y-15104134D01*
X23031579Y-15105750D01*
X22941726Y-15209445D01*
X22941724Y-15209447D01*
X22935824Y-15216257D01*
X22932081Y-15224450D01*
X22932080Y-15224454D01*
X22878824Y-15341067D01*
X22878821Y-15341075D01*
X22875081Y-15349266D01*
X22854271Y-15494000D01*
X22875081Y-15638734D01*
X22878822Y-15646927D01*
X22878825Y-15646935D01*
X22899039Y-15691197D01*
X22909860Y-15755461D01*
X22887125Y-15816536D01*
X22836916Y-15858083D01*
X22772666Y-15868988D01*
X22757602Y-15867575D01*
X22757569Y-15867573D01*
X22754653Y-15867300D01*
X22751699Y-15867300D01*
X22221807Y-15867300D01*
X22173589Y-15857709D01*
X22132712Y-15830395D01*
X21454035Y-15151718D01*
X21454034Y-15151716D01*
X21370762Y-15068444D01*
X21370761Y-15068443D01*
X21363746Y-15061428D01*
X21343957Y-15051345D01*
X21327104Y-15041017D01*
X21317168Y-15033798D01*
X21317162Y-15033795D01*
X21309142Y-15027968D01*
X21288028Y-15021107D01*
X21269769Y-15013544D01*
X21258810Y-15007960D01*
X21258804Y-15007958D01*
X21249976Y-15003460D01*
X21240190Y-15001910D01*
X21240187Y-15001909D01*
X21228042Y-14999986D01*
X21208820Y-14995371D01*
X21187705Y-14988510D01*
X21155588Y-14988510D01*
X19923981Y-14988510D01*
X19796294Y-14988510D01*
X19775169Y-14995373D01*
X19755955Y-14999986D01*
X19743817Y-15001908D01*
X19743812Y-15001909D01*
X19734024Y-15003460D01*
X19725195Y-15007957D01*
X19725186Y-15007961D01*
X19714231Y-15013543D01*
X19695978Y-15021104D01*
X19684288Y-15024902D01*
X19684280Y-15024905D01*
X19674857Y-15027968D01*
X19666840Y-15033792D01*
X19666833Y-15033796D01*
X19656889Y-15041021D01*
X19640041Y-15051345D01*
X19629093Y-15056923D01*
X19629087Y-15056926D01*
X19620254Y-15061428D01*
X19613241Y-15068440D01*
X19613238Y-15068443D01*
X19193843Y-15487838D01*
X19193840Y-15487841D01*
X19186828Y-15494854D01*
X19182327Y-15503686D01*
X19182322Y-15503694D01*
X19176741Y-15514648D01*
X19166420Y-15531491D01*
X19159195Y-15541435D01*
X19159190Y-15541442D01*
X19153368Y-15549458D01*
X19150305Y-15558881D01*
X19150303Y-15558887D01*
X19146505Y-15570576D01*
X19138944Y-15588829D01*
X19133360Y-15599789D01*
X19133357Y-15599796D01*
X19128860Y-15608624D01*
X19127309Y-15618409D01*
X19127308Y-15618416D01*
X19125384Y-15630562D01*
X19120770Y-15649780D01*
X19116975Y-15661459D01*
X19116974Y-15661464D01*
X19113910Y-15670895D01*
X19113910Y-15680814D01*
X19113910Y-15835098D01*
X19113706Y-15842154D01*
X19113300Y-15845655D01*
X19113300Y-15849287D01*
X19113300Y-15849288D01*
X19113301Y-17247600D01*
X19096420Y-17310600D01*
X19050301Y-17356719D01*
X18987301Y-17373600D01*
X18746700Y-17373600D01*
X18683700Y-17356719D01*
X18637581Y-17310600D01*
X18620700Y-17247600D01*
X18620699Y-15874914D01*
X18628644Y-15830881D01*
X18651476Y-15792400D01*
X18654268Y-15789178D01*
X18669376Y-15771743D01*
X18730119Y-15638734D01*
X18750929Y-15494000D01*
X18730119Y-15349266D01*
X18669376Y-15216257D01*
X18573621Y-15105750D01*
X18450611Y-15026696D01*
X18441150Y-15023918D01*
X18318955Y-14988038D01*
X18318954Y-14988037D01*
X18310311Y-14985500D01*
X18164089Y-14985500D01*
X18155446Y-14988037D01*
X18155444Y-14988038D01*
X18032435Y-15024157D01*
X18032433Y-15024157D01*
X18023789Y-15026696D01*
X18016211Y-15031566D01*
X18016209Y-15031567D01*
X17908359Y-15100878D01*
X17908356Y-15100880D01*
X17900779Y-15105750D01*
X17894881Y-15112556D01*
X17894877Y-15112560D01*
X17807090Y-15213872D01*
X17750231Y-15251376D01*
X17682160Y-15253807D01*
X17622771Y-15220454D01*
X17554035Y-15151718D01*
X17554034Y-15151716D01*
X17470762Y-15068444D01*
X17470761Y-15068443D01*
X17463746Y-15061428D01*
X17443957Y-15051345D01*
X17427104Y-15041017D01*
X17417168Y-15033798D01*
X17417162Y-15033795D01*
X17409142Y-15027968D01*
X17388028Y-15021107D01*
X17369769Y-15013544D01*
X17358810Y-15007960D01*
X17358804Y-15007958D01*
X17349976Y-15003460D01*
X17340190Y-15001910D01*
X17340187Y-15001909D01*
X17328042Y-14999986D01*
X17308820Y-14995371D01*
X17287705Y-14988510D01*
X17277787Y-14988510D01*
X15853448Y-14988510D01*
X15788420Y-14970433D01*
X15746599Y-14926198D01*
X15746301Y-14926419D01*
X15744498Y-14923976D01*
X15744497Y-14923975D01*
X15669560Y-14822440D01*
X15565581Y-14745699D01*
X15556668Y-14742580D01*
X15556666Y-14742579D01*
X15450837Y-14705548D01*
X15450834Y-14705547D01*
X15443600Y-14703016D01*
X15435970Y-14702300D01*
X15435968Y-14702300D01*
X15417572Y-14700575D01*
X15417565Y-14700574D01*
X15414636Y-14700300D01*
X14811364Y-14700300D01*
X14808435Y-14700574D01*
X14808427Y-14700575D01*
X14790031Y-14702300D01*
X14790027Y-14702300D01*
X14782400Y-14703016D01*
X14775167Y-14705546D01*
X14775162Y-14705548D01*
X14669333Y-14742579D01*
X14669328Y-14742581D01*
X14660419Y-14745699D01*
X14652824Y-14751304D01*
X14652821Y-14751306D01*
X14564032Y-14816836D01*
X14564029Y-14816838D01*
X14556440Y-14822440D01*
X14550838Y-14830029D01*
X14550836Y-14830032D01*
X14485306Y-14918821D01*
X14485304Y-14918824D01*
X14479699Y-14926419D01*
X14476581Y-14935328D01*
X14476579Y-14935333D01*
X14439548Y-15041162D01*
X14439546Y-15041167D01*
X14437016Y-15048400D01*
X14436300Y-15056027D01*
X14436300Y-15056031D01*
X14435136Y-15068444D01*
X14434300Y-15077364D01*
X14434300Y-15630636D01*
X14434574Y-15633565D01*
X14434575Y-15633572D01*
X14435210Y-15640349D01*
X14437016Y-15659600D01*
X14439547Y-15666834D01*
X14439548Y-15666837D01*
X14476579Y-15772666D01*
X14476580Y-15772668D01*
X14479699Y-15781581D01*
X14556440Y-15885560D01*
X14660419Y-15962301D01*
X14782400Y-16004984D01*
X14790037Y-16005700D01*
X14790957Y-16005901D01*
X14850630Y-16037438D01*
X14885466Y-16095247D01*
X14885469Y-16162741D01*
X14850638Y-16220553D01*
X14790967Y-16252095D01*
X14790023Y-16252301D01*
X14782400Y-16253016D01*
X14775171Y-16255545D01*
X14775164Y-16255547D01*
X14669333Y-16292579D01*
X14669328Y-16292581D01*
X14660419Y-16295699D01*
X14652824Y-16301304D01*
X14652821Y-16301306D01*
X14564032Y-16366836D01*
X14564029Y-16366838D01*
X14556440Y-16372440D01*
X14550838Y-16380029D01*
X14550836Y-16380032D01*
X14485306Y-16468821D01*
X14485304Y-16468824D01*
X14479699Y-16476419D01*
X14476581Y-16485328D01*
X14476579Y-16485333D01*
X14439548Y-16591162D01*
X14439546Y-16591167D01*
X14437016Y-16598400D01*
X14434300Y-16627364D01*
X14434300Y-17180636D01*
X14434574Y-17183565D01*
X14434575Y-17183572D01*
X14436300Y-17201972D01*
X14436301Y-17201977D01*
X14437016Y-17209600D01*
X14439546Y-17216831D01*
X14440394Y-17220711D01*
X14439939Y-17276497D01*
X14415440Y-17326619D01*
X14371701Y-17361249D01*
X14317297Y-17373600D01*
X13207000Y-17373600D01*
X13144000Y-17356719D01*
X13097881Y-17310600D01*
X13081000Y-17247600D01*
X13081000Y-10184400D01*
X13097881Y-10121400D01*
X13144000Y-10075281D01*
X13207000Y-10058400D01*
X14221691Y-10058400D01*
X14285830Y-10075947D01*
G37*
%TD.AperFunction*%
%TD*%
%TA.AperFunction,Conductor*%
%TO.N,Board_1-GND*%
G36*
X57285830Y-10075947D02*
G01*
X57332106Y-10123699D01*
X57347629Y-10188358D01*
X57328076Y-10251915D01*
X57278893Y-10296667D01*
X57225587Y-10323827D01*
X57225582Y-10323829D01*
X57216753Y-10328329D01*
X57209744Y-10335337D01*
X57209741Y-10335340D01*
X57133340Y-10411741D01*
X57133337Y-10411744D01*
X57126329Y-10418753D01*
X57121831Y-10427580D01*
X57121828Y-10427585D01*
X57072773Y-10523861D01*
X57072771Y-10523867D01*
X57068273Y-10532695D01*
X57066722Y-10542484D01*
X57066722Y-10542486D01*
X57054074Y-10622339D01*
X57054073Y-10622347D01*
X57053300Y-10627230D01*
X57053300Y-11090770D01*
X57054073Y-11095653D01*
X57054074Y-11095660D01*
X57066722Y-11175513D01*
X57068273Y-11185305D01*
X57072771Y-11194134D01*
X57072773Y-11194138D01*
X57115998Y-11278971D01*
X57126329Y-11299247D01*
X57216753Y-11389671D01*
X57330695Y-11447727D01*
X57425230Y-11462700D01*
X57425024Y-11463998D01*
X57458585Y-11472708D01*
X57495030Y-11498085D01*
X58277227Y-12280283D01*
X58277228Y-12280284D01*
X58367516Y-12370572D01*
X58387301Y-12380653D01*
X58404152Y-12390978D01*
X58422120Y-12404033D01*
X58443240Y-12410895D01*
X58461497Y-12418457D01*
X58481286Y-12428540D01*
X58501363Y-12431719D01*
X58503204Y-12432011D01*
X58522437Y-12436628D01*
X58543557Y-12443491D01*
X58671238Y-12443491D01*
X58671244Y-12443491D01*
X58671246Y-12443490D01*
X58671250Y-12443490D01*
X62227785Y-12443490D01*
X62237705Y-12443490D01*
X62258815Y-12436629D01*
X62278041Y-12432013D01*
X62299976Y-12428540D01*
X62319762Y-12418458D01*
X62338028Y-12410892D01*
X62359142Y-12404032D01*
X62377097Y-12390986D01*
X62393965Y-12380650D01*
X62413746Y-12370572D01*
X62504034Y-12280284D01*
X62504035Y-12280281D01*
X62756881Y-12027435D01*
X62756884Y-12027434D01*
X62847172Y-11937146D01*
X62857251Y-11917361D01*
X62867575Y-11900512D01*
X62874244Y-11891333D01*
X62911423Y-11857311D01*
X62958969Y-11840580D01*
X62996121Y-11842974D01*
X62996263Y-11841754D01*
X63021655Y-11844700D01*
X63312344Y-11844699D01*
X63337737Y-11841754D01*
X63441107Y-11796111D01*
X63492000Y-11785376D01*
X63542892Y-11796111D01*
X63646263Y-11841754D01*
X63671655Y-11844700D01*
X63962344Y-11844699D01*
X63987737Y-11841754D01*
X64091605Y-11795892D01*
X64171892Y-11715605D01*
X64217754Y-11611737D01*
X64220700Y-11586345D01*
X64220700Y-11388090D01*
X64237581Y-11325090D01*
X64283700Y-11278971D01*
X64346700Y-11262090D01*
X64403051Y-11262090D01*
X64460267Y-11275830D01*
X64490184Y-11301391D01*
X64492329Y-11299247D01*
X64582753Y-11389671D01*
X64696695Y-11447727D01*
X64791230Y-11462700D01*
X65399817Y-11462700D01*
X65404770Y-11462700D01*
X65499305Y-11447727D01*
X65613247Y-11389671D01*
X65703671Y-11299247D01*
X65761727Y-11185305D01*
X65776700Y-11090770D01*
X65776700Y-10627230D01*
X65761727Y-10532695D01*
X65703671Y-10418753D01*
X65613247Y-10328329D01*
X65604413Y-10323828D01*
X65604412Y-10323827D01*
X65551107Y-10296667D01*
X65501924Y-10251915D01*
X65482371Y-10188358D01*
X65497894Y-10123699D01*
X65544170Y-10075947D01*
X65608309Y-10058400D01*
X66496000Y-10058400D01*
X66559000Y-10075281D01*
X66605119Y-10121400D01*
X66622000Y-10184400D01*
X66622000Y-13297051D01*
X66608267Y-13354254D01*
X66570061Y-13398987D01*
X66515711Y-13421500D01*
X66457064Y-13416884D01*
X66406905Y-13386146D01*
X65813605Y-12792846D01*
X65786291Y-12751969D01*
X65776700Y-12703751D01*
X65776700Y-12282183D01*
X65776700Y-12277230D01*
X65761727Y-12182695D01*
X65703671Y-12068753D01*
X65613247Y-11978329D01*
X65604415Y-11973829D01*
X65604414Y-11973828D01*
X65508138Y-11924773D01*
X65508134Y-11924771D01*
X65499305Y-11920273D01*
X65489513Y-11918722D01*
X65409660Y-11906074D01*
X65409653Y-11906073D01*
X65404770Y-11905300D01*
X64791230Y-11905300D01*
X64786347Y-11906073D01*
X64786339Y-11906074D01*
X64706486Y-11918722D01*
X64706484Y-11918722D01*
X64696695Y-11920273D01*
X64687867Y-11924771D01*
X64687861Y-11924773D01*
X64591585Y-11973828D01*
X64591580Y-11973831D01*
X64582753Y-11978329D01*
X64575744Y-11985337D01*
X64575741Y-11985340D01*
X64499340Y-12061741D01*
X64499337Y-12061744D01*
X64492329Y-12068753D01*
X64487831Y-12077580D01*
X64487828Y-12077585D01*
X64438773Y-12173861D01*
X64438771Y-12173867D01*
X64434273Y-12182695D01*
X64432722Y-12192484D01*
X64432722Y-12192486D01*
X64420074Y-12272339D01*
X64420073Y-12272347D01*
X64419300Y-12277230D01*
X64419300Y-12740770D01*
X64420073Y-12745653D01*
X64420074Y-12745660D01*
X64421374Y-12753866D01*
X64434273Y-12835305D01*
X64438771Y-12844134D01*
X64438773Y-12844138D01*
X64487828Y-12940414D01*
X64492329Y-12949247D01*
X64582753Y-13039671D01*
X64696695Y-13097727D01*
X64791230Y-13112700D01*
X65217750Y-13112700D01*
X65265968Y-13122291D01*
X65306846Y-13149605D01*
X66025796Y-13868556D01*
X66053109Y-13909433D01*
X66062700Y-13957651D01*
X66062700Y-15022938D01*
X66051316Y-15075275D01*
X66029714Y-15104134D01*
X66031579Y-15105750D01*
X65941726Y-15209445D01*
X65941724Y-15209447D01*
X65935824Y-15216257D01*
X65932081Y-15224450D01*
X65932080Y-15224454D01*
X65878824Y-15341067D01*
X65878821Y-15341075D01*
X65875081Y-15349266D01*
X65854271Y-15494000D01*
X65875081Y-15638734D01*
X65878822Y-15646927D01*
X65878825Y-15646935D01*
X65899039Y-15691197D01*
X65909860Y-15755461D01*
X65887125Y-15816536D01*
X65836916Y-15858083D01*
X65772666Y-15868988D01*
X65757602Y-15867575D01*
X65757569Y-15867573D01*
X65754653Y-15867300D01*
X65751699Y-15867300D01*
X65221807Y-15867300D01*
X65173589Y-15857709D01*
X65132712Y-15830395D01*
X64454035Y-15151718D01*
X64454034Y-15151716D01*
X64370762Y-15068444D01*
X64370761Y-15068443D01*
X64363746Y-15061428D01*
X64343957Y-15051345D01*
X64327104Y-15041017D01*
X64317168Y-15033798D01*
X64317162Y-15033795D01*
X64309142Y-15027968D01*
X64288028Y-15021107D01*
X64269769Y-15013544D01*
X64258810Y-15007960D01*
X64258804Y-15007958D01*
X64249976Y-15003460D01*
X64240190Y-15001910D01*
X64240187Y-15001909D01*
X64228042Y-14999986D01*
X64208820Y-14995371D01*
X64187705Y-14988510D01*
X64155588Y-14988510D01*
X62923981Y-14988510D01*
X62796294Y-14988510D01*
X62775169Y-14995373D01*
X62755955Y-14999986D01*
X62743817Y-15001908D01*
X62743812Y-15001909D01*
X62734024Y-15003460D01*
X62725195Y-15007957D01*
X62725186Y-15007961D01*
X62714231Y-15013543D01*
X62695978Y-15021104D01*
X62684288Y-15024902D01*
X62684280Y-15024905D01*
X62674857Y-15027968D01*
X62666840Y-15033792D01*
X62666833Y-15033796D01*
X62656889Y-15041021D01*
X62640041Y-15051345D01*
X62629093Y-15056923D01*
X62629087Y-15056926D01*
X62620254Y-15061428D01*
X62613241Y-15068440D01*
X62613238Y-15068443D01*
X62193843Y-15487838D01*
X62193840Y-15487841D01*
X62186828Y-15494854D01*
X62182327Y-15503686D01*
X62182322Y-15503694D01*
X62176741Y-15514648D01*
X62166420Y-15531491D01*
X62159195Y-15541435D01*
X62159190Y-15541442D01*
X62153368Y-15549458D01*
X62150305Y-15558881D01*
X62150303Y-15558887D01*
X62146505Y-15570576D01*
X62138944Y-15588829D01*
X62133360Y-15599789D01*
X62133357Y-15599796D01*
X62128860Y-15608624D01*
X62127309Y-15618409D01*
X62127308Y-15618416D01*
X62125384Y-15630562D01*
X62120770Y-15649780D01*
X62116975Y-15661459D01*
X62116974Y-15661464D01*
X62113910Y-15670895D01*
X62113910Y-15680814D01*
X62113910Y-15835098D01*
X62113706Y-15842154D01*
X62113300Y-15845655D01*
X62113300Y-15849287D01*
X62113300Y-15849288D01*
X62113301Y-17247600D01*
X62096420Y-17310600D01*
X62050301Y-17356719D01*
X61987301Y-17373600D01*
X61746700Y-17373600D01*
X61683700Y-17356719D01*
X61637581Y-17310600D01*
X61620700Y-17247600D01*
X61620699Y-15874914D01*
X61628644Y-15830881D01*
X61651476Y-15792400D01*
X61654268Y-15789178D01*
X61669376Y-15771743D01*
X61730119Y-15638734D01*
X61750929Y-15494000D01*
X61730119Y-15349266D01*
X61669376Y-15216257D01*
X61573621Y-15105750D01*
X61450611Y-15026696D01*
X61441150Y-15023918D01*
X61318955Y-14988038D01*
X61318954Y-14988037D01*
X61310311Y-14985500D01*
X61164089Y-14985500D01*
X61155446Y-14988037D01*
X61155444Y-14988038D01*
X61032435Y-15024157D01*
X61032433Y-15024157D01*
X61023789Y-15026696D01*
X61016211Y-15031566D01*
X61016209Y-15031567D01*
X60908359Y-15100878D01*
X60908356Y-15100880D01*
X60900779Y-15105750D01*
X60894881Y-15112556D01*
X60894877Y-15112560D01*
X60807090Y-15213872D01*
X60750231Y-15251376D01*
X60682160Y-15253807D01*
X60622771Y-15220454D01*
X60554035Y-15151718D01*
X60554034Y-15151716D01*
X60470762Y-15068444D01*
X60470761Y-15068443D01*
X60463746Y-15061428D01*
X60443957Y-15051345D01*
X60427104Y-15041017D01*
X60417168Y-15033798D01*
X60417162Y-15033795D01*
X60409142Y-15027968D01*
X60388028Y-15021107D01*
X60369769Y-15013544D01*
X60358810Y-15007960D01*
X60358804Y-15007958D01*
X60349976Y-15003460D01*
X60340190Y-15001910D01*
X60340187Y-15001909D01*
X60328042Y-14999986D01*
X60308820Y-14995371D01*
X60287705Y-14988510D01*
X60277787Y-14988510D01*
X58853448Y-14988510D01*
X58788420Y-14970433D01*
X58746599Y-14926198D01*
X58746301Y-14926419D01*
X58744498Y-14923976D01*
X58744497Y-14923975D01*
X58669560Y-14822440D01*
X58565581Y-14745699D01*
X58556668Y-14742580D01*
X58556666Y-14742579D01*
X58450837Y-14705548D01*
X58450834Y-14705547D01*
X58443600Y-14703016D01*
X58435970Y-14702300D01*
X58435968Y-14702300D01*
X58417572Y-14700575D01*
X58417565Y-14700574D01*
X58414636Y-14700300D01*
X57811364Y-14700300D01*
X57808435Y-14700574D01*
X57808427Y-14700575D01*
X57790031Y-14702300D01*
X57790027Y-14702300D01*
X57782400Y-14703016D01*
X57775167Y-14705546D01*
X57775162Y-14705548D01*
X57669333Y-14742579D01*
X57669328Y-14742581D01*
X57660419Y-14745699D01*
X57652824Y-14751304D01*
X57652821Y-14751306D01*
X57564032Y-14816836D01*
X57564029Y-14816838D01*
X57556440Y-14822440D01*
X57550838Y-14830029D01*
X57550836Y-14830032D01*
X57485306Y-14918821D01*
X57485304Y-14918824D01*
X57479699Y-14926419D01*
X57476581Y-14935328D01*
X57476579Y-14935333D01*
X57439548Y-15041162D01*
X57439546Y-15041167D01*
X57437016Y-15048400D01*
X57436300Y-15056027D01*
X57436300Y-15056031D01*
X57435136Y-15068444D01*
X57434300Y-15077364D01*
X57434300Y-15630636D01*
X57434574Y-15633565D01*
X57434575Y-15633572D01*
X57435210Y-15640349D01*
X57437016Y-15659600D01*
X57439547Y-15666834D01*
X57439548Y-15666837D01*
X57476579Y-15772666D01*
X57476580Y-15772668D01*
X57479699Y-15781581D01*
X57556440Y-15885560D01*
X57660419Y-15962301D01*
X57782400Y-16004984D01*
X57790037Y-16005700D01*
X57790957Y-16005901D01*
X57850630Y-16037438D01*
X57885466Y-16095247D01*
X57885469Y-16162741D01*
X57850638Y-16220553D01*
X57790967Y-16252095D01*
X57790023Y-16252301D01*
X57782400Y-16253016D01*
X57775171Y-16255545D01*
X57775164Y-16255547D01*
X57669333Y-16292579D01*
X57669328Y-16292581D01*
X57660419Y-16295699D01*
X57652824Y-16301304D01*
X57652821Y-16301306D01*
X57564032Y-16366836D01*
X57564029Y-16366838D01*
X57556440Y-16372440D01*
X57550838Y-16380029D01*
X57550836Y-16380032D01*
X57485306Y-16468821D01*
X57485304Y-16468824D01*
X57479699Y-16476419D01*
X57476581Y-16485328D01*
X57476579Y-16485333D01*
X57439548Y-16591162D01*
X57439546Y-16591167D01*
X57437016Y-16598400D01*
X57434300Y-16627364D01*
X57434300Y-17180636D01*
X57434574Y-17183565D01*
X57434575Y-17183572D01*
X57436300Y-17201972D01*
X57436301Y-17201977D01*
X57437016Y-17209600D01*
X57439546Y-17216831D01*
X57440394Y-17220711D01*
X57439939Y-17276497D01*
X57415440Y-17326619D01*
X57371701Y-17361249D01*
X57317297Y-17373600D01*
X56207000Y-17373600D01*
X56144000Y-17356719D01*
X56097881Y-17310600D01*
X56081000Y-17247600D01*
X56081000Y-10184400D01*
X56097881Y-10121400D01*
X56144000Y-10075281D01*
X56207000Y-10058400D01*
X57221691Y-10058400D01*
X57285830Y-10075947D01*
G37*
%TD.AperFunction*%
%TD*%
%TA.AperFunction,Conductor*%
%TO.N,Board_0-GND*%
G36*
X8353910Y-34375601D02*
G01*
X8400029Y-34421720D01*
X8416910Y-34484720D01*
X8416910Y-34583933D01*
X8414559Y-34601532D01*
X8415212Y-34601608D01*
X8412686Y-34623373D01*
X8412685Y-34623386D01*
X8412266Y-34627000D01*
X8412266Y-34630646D01*
X8412266Y-34630647D01*
X8412266Y-36059583D01*
X8404323Y-36103613D01*
X8381494Y-36142092D01*
X8362125Y-36164446D01*
X8362123Y-36164448D01*
X8356224Y-36171257D01*
X8352481Y-36179450D01*
X8352480Y-36179454D01*
X8299224Y-36296067D01*
X8299221Y-36296075D01*
X8295481Y-36304266D01*
X8274671Y-36449000D01*
X8295481Y-36593734D01*
X8299222Y-36601926D01*
X8299224Y-36601932D01*
X8343023Y-36697837D01*
X8356224Y-36726743D01*
X8451979Y-36837250D01*
X8574989Y-36916304D01*
X8715289Y-36957500D01*
X8852502Y-36957500D01*
X8861511Y-36957500D01*
X9001811Y-36916304D01*
X9124821Y-36837250D01*
X9220576Y-36726743D01*
X9221794Y-36727798D01*
X9252285Y-36697837D01*
X9305038Y-36679748D01*
X9360431Y-36686200D01*
X9407613Y-36715930D01*
X9489173Y-36797490D01*
X9489175Y-36797493D01*
X9579463Y-36887781D01*
X9599246Y-36897860D01*
X9616104Y-36908191D01*
X9634066Y-36921241D01*
X9655185Y-36928103D01*
X9673437Y-36935663D01*
X9693233Y-36945749D01*
X9715160Y-36949221D01*
X9734387Y-36953837D01*
X9755504Y-36960699D01*
X9787621Y-36960699D01*
X9883190Y-36960699D01*
X11454834Y-36960699D01*
X11519865Y-36978778D01*
X11556876Y-37017927D01*
X11558699Y-37016582D01*
X11597617Y-37069314D01*
X11620458Y-37123029D01*
X11616640Y-37181274D01*
X11586984Y-37231549D01*
X11537854Y-37263064D01*
X11486117Y-37281167D01*
X11486113Y-37281168D01*
X11477205Y-37284286D01*
X11469609Y-37289891D01*
X11469607Y-37289893D01*
X11374754Y-37359898D01*
X11374750Y-37359901D01*
X11367162Y-37365502D01*
X11361561Y-37373090D01*
X11361558Y-37373094D01*
X11291553Y-37467947D01*
X11291551Y-37467949D01*
X11285946Y-37475545D01*
X11282828Y-37484454D01*
X11282826Y-37484459D01*
X11243306Y-37597401D01*
X11243304Y-37597406D01*
X11240774Y-37604639D01*
X11237900Y-37635287D01*
X11237900Y-37638239D01*
X11237900Y-37638240D01*
X11237900Y-38241656D01*
X11237900Y-38241677D01*
X11237901Y-38244592D01*
X11238173Y-38247494D01*
X11238174Y-38247514D01*
X11240058Y-38267605D01*
X11240774Y-38275241D01*
X11243306Y-38282478D01*
X11243307Y-38282481D01*
X11282826Y-38395420D01*
X11282827Y-38395422D01*
X11285946Y-38404335D01*
X11367162Y-38514378D01*
X11477205Y-38595594D01*
X11606299Y-38640766D01*
X11636947Y-38643640D01*
X12696252Y-38643639D01*
X12726901Y-38640766D01*
X12855995Y-38595594D01*
X12966038Y-38514378D01*
X13047254Y-38404335D01*
X13092426Y-38275241D01*
X13095300Y-38244593D01*
X13095299Y-37862040D01*
X13104890Y-37813823D01*
X13132201Y-37772948D01*
X13913756Y-36991394D01*
X13954634Y-36964081D01*
X14002852Y-36954490D01*
X14610785Y-36954490D01*
X14620705Y-36954490D01*
X14641815Y-36947629D01*
X14661041Y-36943013D01*
X14682976Y-36939540D01*
X14702762Y-36929458D01*
X14721024Y-36921893D01*
X14742142Y-36915032D01*
X14760097Y-36901986D01*
X14776965Y-36891650D01*
X14776967Y-36891649D01*
X14796746Y-36881572D01*
X14887034Y-36791284D01*
X14887035Y-36791281D01*
X15139881Y-36538435D01*
X15139884Y-36538434D01*
X15230172Y-36448146D01*
X15240251Y-36428361D01*
X15250584Y-36411500D01*
X15263632Y-36393543D01*
X15270494Y-36372421D01*
X15278055Y-36354168D01*
X15288140Y-36334376D01*
X15291612Y-36312448D01*
X15296227Y-36293225D01*
X15303090Y-36272106D01*
X15303090Y-36144419D01*
X15303090Y-36107902D01*
X15303293Y-36100845D01*
X15303700Y-36097345D01*
X15303699Y-34631656D01*
X15300754Y-34606263D01*
X15296924Y-34597588D01*
X15269560Y-34535613D01*
X15259236Y-34474543D01*
X15279258Y-34415932D01*
X15324787Y-34373943D01*
X15384824Y-34358720D01*
X15670910Y-34358720D01*
X15733910Y-34375601D01*
X15780029Y-34421720D01*
X15796910Y-34484720D01*
X15796910Y-34621098D01*
X15796706Y-34628154D01*
X15796300Y-34631655D01*
X15796300Y-34635287D01*
X15796300Y-34635288D01*
X15796300Y-36093707D01*
X15796300Y-36093724D01*
X15796301Y-36097344D01*
X15796720Y-36100956D01*
X15798153Y-36113320D01*
X15798154Y-36113325D01*
X15799246Y-36122737D01*
X15803073Y-36131404D01*
X15803074Y-36131408D01*
X15840391Y-36215923D01*
X15845108Y-36226605D01*
X15925395Y-36306892D01*
X16029263Y-36352754D01*
X16054655Y-36355700D01*
X16345344Y-36355699D01*
X16370737Y-36352754D01*
X16370878Y-36353974D01*
X16408027Y-36351579D01*
X16455575Y-36368311D01*
X16492760Y-36402340D01*
X16499417Y-36411503D01*
X16509745Y-36428357D01*
X16519828Y-36448146D01*
X16610116Y-36538434D01*
X16610118Y-36538435D01*
X16862964Y-36791281D01*
X16862966Y-36791284D01*
X16953254Y-36881572D01*
X16973037Y-36891651D01*
X16989895Y-36901982D01*
X17007857Y-36915032D01*
X17028976Y-36921894D01*
X17047228Y-36929454D01*
X17067024Y-36939540D01*
X17088961Y-36943014D01*
X17108169Y-36947625D01*
X17129294Y-36954490D01*
X17161412Y-36954490D01*
X17256981Y-36954490D01*
X18569974Y-36954490D01*
X18626756Y-36968010D01*
X18671351Y-37005666D01*
X18744900Y-37105320D01*
X18848879Y-37182061D01*
X18970860Y-37224744D01*
X18999824Y-37227460D01*
X19600142Y-37227460D01*
X19603096Y-37227460D01*
X19632060Y-37224744D01*
X19754041Y-37182061D01*
X19858020Y-37105320D01*
X19934761Y-37001341D01*
X19977444Y-36879360D01*
X19980160Y-36850396D01*
X19980160Y-36297124D01*
X19977444Y-36268160D01*
X19934761Y-36146179D01*
X19858020Y-36042200D01*
X19754041Y-35965459D01*
X19745128Y-35962340D01*
X19745126Y-35962339D01*
X19639296Y-35925308D01*
X19632060Y-35922776D01*
X19624429Y-35922060D01*
X19623498Y-35921857D01*
X19563825Y-35890318D01*
X19528991Y-35832507D01*
X19528991Y-35765013D01*
X19563825Y-35707202D01*
X19623498Y-35675663D01*
X19624428Y-35675459D01*
X19632060Y-35674744D01*
X19754041Y-35632061D01*
X19858020Y-35555320D01*
X19915064Y-35478028D01*
X19959662Y-35440370D01*
X20016444Y-35426850D01*
X22304969Y-35426850D01*
X22353187Y-35436441D01*
X22394064Y-35463755D01*
X22636217Y-35705908D01*
X22665523Y-35751908D01*
X22672643Y-35805984D01*
X22656241Y-35858003D01*
X22619393Y-35898216D01*
X22560108Y-35939728D01*
X22560105Y-35939730D01*
X22555597Y-35942887D01*
X22551705Y-35946778D01*
X22551699Y-35946784D01*
X22408584Y-36089899D01*
X22408578Y-36089905D01*
X22404687Y-36093797D01*
X22401530Y-36098305D01*
X22401528Y-36098308D01*
X22285430Y-36264112D01*
X22285424Y-36264122D01*
X22282274Y-36268621D01*
X22279950Y-36273603D01*
X22279948Y-36273608D01*
X22194402Y-36457062D01*
X22194399Y-36457067D01*
X22192079Y-36462045D01*
X22190657Y-36467349D01*
X22190656Y-36467354D01*
X22144359Y-36640139D01*
X22136842Y-36668192D01*
X22136363Y-36673665D01*
X22136362Y-36673672D01*
X22122647Y-36830440D01*
X22118241Y-36880800D01*
X22118720Y-36886275D01*
X22135668Y-37080000D01*
X22136842Y-37093408D01*
X22192079Y-37299555D01*
X22194401Y-37304535D01*
X22194402Y-37304537D01*
X22270601Y-37467947D01*
X22282274Y-37492980D01*
X22285427Y-37497483D01*
X22285430Y-37497488D01*
X22355391Y-37597401D01*
X22404687Y-37667803D01*
X22555597Y-37818713D01*
X22730420Y-37941126D01*
X22923845Y-38031321D01*
X23129992Y-38086558D01*
X23342600Y-38105159D01*
X23555208Y-38086558D01*
X23761355Y-38031321D01*
X23954780Y-37941126D01*
X24129603Y-37818713D01*
X24212697Y-37735618D01*
X24269181Y-37703007D01*
X24334403Y-37703007D01*
X24390887Y-37735619D01*
X25428145Y-38772877D01*
X25435722Y-38781203D01*
X25439847Y-38787703D01*
X25445624Y-38793128D01*
X25445625Y-38793129D01*
X25489681Y-38834500D01*
X25492522Y-38837254D01*
X25512306Y-38857038D01*
X25515431Y-38859462D01*
X25515432Y-38859463D01*
X25515521Y-38859532D01*
X25524543Y-38867238D01*
X25556894Y-38897617D01*
X25574735Y-38907425D01*
X25591247Y-38918272D01*
X25607333Y-38930749D01*
X25614609Y-38933897D01*
X25614608Y-38933897D01*
X25648050Y-38948369D01*
X25658709Y-38953591D01*
X25682025Y-38966408D01*
X25697597Y-38974969D01*
X25705274Y-38976940D01*
X25717312Y-38980031D01*
X25736013Y-38986434D01*
X25754692Y-38994517D01*
X25788221Y-38999827D01*
X25798514Y-39001457D01*
X25810142Y-39003865D01*
X25845441Y-39012929D01*
X25845442Y-39012929D01*
X25853118Y-39014900D01*
X25873465Y-39014900D01*
X25893176Y-39016451D01*
X25913279Y-39019635D01*
X25942605Y-39016862D01*
X25957456Y-39015459D01*
X25969314Y-39014900D01*
X26042512Y-39014900D01*
X26103824Y-39030824D01*
X26149640Y-39074570D01*
X26168378Y-39135081D01*
X26155302Y-39197064D01*
X26146734Y-39214268D01*
X26142584Y-39224982D01*
X26142057Y-39236378D01*
X26153204Y-39239000D01*
X27433000Y-39239000D01*
X27496000Y-39255881D01*
X27542119Y-39302000D01*
X27559000Y-39365000D01*
X27559000Y-41004571D01*
X27545546Y-41061223D01*
X27508057Y-41105776D01*
X27454538Y-41128716D01*
X27396420Y-41125144D01*
X27390488Y-41123344D01*
X27390479Y-41123342D01*
X27384561Y-41121547D01*
X27378405Y-41120940D01*
X27378397Y-41120939D01*
X27184163Y-41101809D01*
X27178000Y-41101202D01*
X27171837Y-41101809D01*
X26977602Y-41120939D01*
X26977592Y-41120940D01*
X26971439Y-41121547D01*
X26965522Y-41123341D01*
X26965516Y-41123343D01*
X26778738Y-41180001D01*
X26778732Y-41180003D01*
X26772816Y-41181798D01*
X26767358Y-41184715D01*
X26767354Y-41184717D01*
X26695517Y-41223115D01*
X26589763Y-41279642D01*
X26584984Y-41283563D01*
X26584978Y-41283568D01*
X26434096Y-41407394D01*
X26434090Y-41407399D01*
X26429317Y-41411317D01*
X26425399Y-41416090D01*
X26425394Y-41416096D01*
X26301568Y-41566978D01*
X26301563Y-41566984D01*
X26297642Y-41571763D01*
X26294724Y-41577221D01*
X26294724Y-41577222D01*
X26202717Y-41749354D01*
X26202715Y-41749358D01*
X26199798Y-41754816D01*
X26198003Y-41760732D01*
X26198001Y-41760738D01*
X26141343Y-41947516D01*
X26141341Y-41947522D01*
X26139547Y-41953439D01*
X26138940Y-41959592D01*
X26138939Y-41959602D01*
X26120807Y-42143700D01*
X26119202Y-42160000D01*
X26119809Y-42166163D01*
X26138008Y-42350940D01*
X26125621Y-42419018D01*
X26079152Y-42470289D01*
X26012615Y-42489290D01*
X18783064Y-42489290D01*
X18768956Y-42488498D01*
X18742352Y-42485500D01*
X18742350Y-42485500D01*
X18732969Y-42484443D01*
X18723693Y-42486197D01*
X18723692Y-42486198D01*
X18675904Y-42495240D01*
X18671263Y-42496028D01*
X18623176Y-42503277D01*
X18623174Y-42503277D01*
X18613843Y-42504684D01*
X18605976Y-42508472D01*
X18597400Y-42510095D01*
X18589060Y-42514502D01*
X18589050Y-42514506D01*
X18556344Y-42531791D01*
X18497613Y-42546390D01*
X18029230Y-42546909D01*
X17966171Y-42530075D01*
X17919994Y-42483949D01*
X17903090Y-42420909D01*
X17903090Y-42206700D01*
X17919971Y-42143700D01*
X17966090Y-42097581D01*
X18029090Y-42080700D01*
X18257682Y-42080699D01*
X18295344Y-42080699D01*
X18320737Y-42077754D01*
X18424605Y-42031892D01*
X18504892Y-41951605D01*
X18519476Y-41918576D01*
X22759134Y-41918576D01*
X22768173Y-41925830D01*
X22901592Y-41988044D01*
X22911884Y-41991790D01*
X23115909Y-42046458D01*
X23126704Y-42048362D01*
X23337125Y-42066772D01*
X23348075Y-42066772D01*
X23558495Y-42048362D01*
X23569290Y-42046458D01*
X23773315Y-41991790D01*
X23783607Y-41988044D01*
X23917025Y-41925830D01*
X23926064Y-41918575D01*
X23920052Y-41908668D01*
X23354330Y-41342945D01*
X23342599Y-41336172D01*
X23330870Y-41342944D01*
X22765147Y-41908667D01*
X22759134Y-41918576D01*
X18519476Y-41918576D01*
X18550754Y-41847737D01*
X18553700Y-41822345D01*
X18553699Y-40857923D01*
X18567432Y-40800721D01*
X18605638Y-40755988D01*
X18659988Y-40733475D01*
X18718635Y-40738091D01*
X18768794Y-40768829D01*
X19096395Y-41096430D01*
X19123709Y-41137307D01*
X19133300Y-41185525D01*
X19133300Y-41442770D01*
X19134073Y-41447653D01*
X19134074Y-41447660D01*
X19138476Y-41475450D01*
X19148273Y-41537305D01*
X19152771Y-41546134D01*
X19152773Y-41546138D01*
X19201828Y-41642414D01*
X19206329Y-41651247D01*
X19296753Y-41741671D01*
X19410695Y-41799727D01*
X19505230Y-41814700D01*
X20113817Y-41814700D01*
X20118770Y-41814700D01*
X20213305Y-41799727D01*
X20327247Y-41741671D01*
X20417671Y-41651247D01*
X20475727Y-41537305D01*
X20490700Y-41442770D01*
X20490700Y-40979230D01*
X20475727Y-40884695D01*
X20431490Y-40797875D01*
X22068228Y-40797875D01*
X22086637Y-41008295D01*
X22088541Y-41019090D01*
X22143209Y-41223115D01*
X22146955Y-41233407D01*
X22209168Y-41366825D01*
X22216423Y-41375864D01*
X22226330Y-41369852D01*
X22792053Y-40804130D01*
X22798826Y-40792399D01*
X23886372Y-40792399D01*
X23893145Y-40804130D01*
X24458868Y-41369852D01*
X24468775Y-41375864D01*
X24476030Y-41366825D01*
X24538244Y-41233407D01*
X24541990Y-41223115D01*
X24596658Y-41019090D01*
X24598562Y-41008295D01*
X24616972Y-40797875D01*
X24616972Y-40786925D01*
X24598562Y-40576504D01*
X24596658Y-40565709D01*
X24541990Y-40361684D01*
X24538244Y-40351392D01*
X24476029Y-40217973D01*
X24468775Y-40208934D01*
X24458866Y-40214947D01*
X23893143Y-40780671D01*
X23886372Y-40792399D01*
X22798826Y-40792399D01*
X22792055Y-40780671D01*
X22226332Y-40214947D01*
X22216423Y-40208934D01*
X22209169Y-40217973D01*
X22146955Y-40351392D01*
X22143209Y-40361684D01*
X22088541Y-40565709D01*
X22086637Y-40576504D01*
X22068228Y-40786925D01*
X22068228Y-40797875D01*
X20431490Y-40797875D01*
X20417671Y-40770753D01*
X20327247Y-40680329D01*
X20318415Y-40675829D01*
X20318414Y-40675828D01*
X20222138Y-40626773D01*
X20222134Y-40626771D01*
X20213305Y-40622273D01*
X20203513Y-40620722D01*
X20123660Y-40608074D01*
X20123653Y-40608073D01*
X20118770Y-40607300D01*
X20113817Y-40607300D01*
X19799565Y-40607300D01*
X19751347Y-40597709D01*
X19710470Y-40570395D01*
X18806298Y-39666223D01*
X22759134Y-39666223D01*
X22765147Y-39676132D01*
X23330871Y-40241855D01*
X23342599Y-40248626D01*
X23354330Y-40241853D01*
X23592562Y-40003621D01*
X26142057Y-40003621D01*
X26142584Y-40015017D01*
X26146733Y-40025726D01*
X26232742Y-40198456D01*
X26238850Y-40208321D01*
X26355126Y-40362296D01*
X26362944Y-40370872D01*
X26505533Y-40500859D01*
X26514796Y-40507854D01*
X26678847Y-40609429D01*
X26689225Y-40614596D01*
X26782680Y-40650801D01*
X26794208Y-40652274D01*
X26797000Y-40640991D01*
X26797000Y-40017590D01*
X26793493Y-40004506D01*
X26780410Y-40001000D01*
X26153204Y-40001000D01*
X26142057Y-40003621D01*
X23592562Y-40003621D01*
X23920052Y-39676130D01*
X23926064Y-39666223D01*
X23917025Y-39658968D01*
X23783607Y-39596755D01*
X23773315Y-39593009D01*
X23569290Y-39538341D01*
X23558495Y-39536437D01*
X23348075Y-39518028D01*
X23337125Y-39518028D01*
X23126704Y-39536437D01*
X23115909Y-39538341D01*
X22911884Y-39593009D01*
X22901592Y-39596755D01*
X22768173Y-39658969D01*
X22759134Y-39666223D01*
X18806298Y-39666223D01*
X18802793Y-39662718D01*
X18802792Y-39662716D01*
X18719520Y-39579444D01*
X18719519Y-39579443D01*
X18712504Y-39572428D01*
X18692715Y-39562345D01*
X18675862Y-39552017D01*
X18665926Y-39544798D01*
X18665920Y-39544795D01*
X18657900Y-39538968D01*
X18636786Y-39532107D01*
X18618527Y-39524544D01*
X18607568Y-39518960D01*
X18607562Y-39518958D01*
X18598734Y-39514460D01*
X18588948Y-39512910D01*
X18588945Y-39512909D01*
X18576800Y-39510986D01*
X18557578Y-39506371D01*
X18536463Y-39499510D01*
X18504346Y-39499510D01*
X17256981Y-39499510D01*
X17224864Y-39499510D01*
X15306981Y-39499510D01*
X15179294Y-39499510D01*
X15158169Y-39506373D01*
X15138955Y-39510986D01*
X15126817Y-39512908D01*
X15126812Y-39512909D01*
X15117024Y-39514460D01*
X15108195Y-39518957D01*
X15108186Y-39518961D01*
X15097231Y-39524543D01*
X15078978Y-39532104D01*
X15067288Y-39535902D01*
X15067280Y-39535905D01*
X15057857Y-39538968D01*
X15049840Y-39544792D01*
X15049833Y-39544796D01*
X15039889Y-39552021D01*
X15023041Y-39562345D01*
X15012093Y-39567923D01*
X15012087Y-39567926D01*
X15003254Y-39572428D01*
X14996241Y-39579440D01*
X14996238Y-39579443D01*
X14576843Y-39998838D01*
X14576840Y-39998841D01*
X14569828Y-40005854D01*
X14565327Y-40014686D01*
X14565322Y-40014694D01*
X14559741Y-40025648D01*
X14549423Y-40042487D01*
X14542768Y-40051649D01*
X14505588Y-40085681D01*
X14458045Y-40102417D01*
X14420878Y-40100025D01*
X14420737Y-40101246D01*
X14398971Y-40098720D01*
X14398959Y-40098719D01*
X14395345Y-40098300D01*
X14391698Y-40098300D01*
X14108292Y-40098300D01*
X14108274Y-40098300D01*
X14104656Y-40098301D01*
X14101043Y-40098719D01*
X14101043Y-40098720D01*
X14088679Y-40100153D01*
X14088672Y-40100154D01*
X14079263Y-40101246D01*
X14070596Y-40105072D01*
X14070588Y-40105075D01*
X13975893Y-40146887D01*
X13925000Y-40157623D01*
X13874107Y-40146887D01*
X13779412Y-40105076D01*
X13779409Y-40105075D01*
X13770737Y-40101246D01*
X13761319Y-40100153D01*
X13761318Y-40100153D01*
X13748971Y-40098720D01*
X13748959Y-40098719D01*
X13745345Y-40098300D01*
X13741698Y-40098300D01*
X13458292Y-40098300D01*
X13458274Y-40098300D01*
X13454656Y-40098301D01*
X13451043Y-40098719D01*
X13451043Y-40098720D01*
X13438679Y-40100153D01*
X13438672Y-40100154D01*
X13429263Y-40101246D01*
X13420597Y-40105072D01*
X13420591Y-40105074D01*
X13336076Y-40142391D01*
X13336072Y-40142393D01*
X13325395Y-40147108D01*
X13317140Y-40155362D01*
X13317137Y-40155365D01*
X13253365Y-40219137D01*
X13253362Y-40219140D01*
X13245108Y-40227395D01*
X13240393Y-40238072D01*
X13240391Y-40238076D01*
X13205130Y-40317936D01*
X13199246Y-40331263D01*
X13198153Y-40340678D01*
X13198153Y-40340681D01*
X13196720Y-40353028D01*
X13196719Y-40353041D01*
X13196300Y-40356655D01*
X13196300Y-40360300D01*
X13196300Y-40360301D01*
X13196300Y-41818707D01*
X13196300Y-41818724D01*
X13196301Y-41822344D01*
X13196706Y-41825841D01*
X13196910Y-41832881D01*
X13196910Y-41982426D01*
X13183177Y-42039628D01*
X13144972Y-42084361D01*
X13090623Y-42106874D01*
X13081491Y-42108320D01*
X13081482Y-42108322D01*
X13071695Y-42109873D01*
X13062867Y-42114371D01*
X13062861Y-42114373D01*
X12966585Y-42163428D01*
X12966580Y-42163431D01*
X12957753Y-42167929D01*
X12950744Y-42174937D01*
X12950741Y-42174940D01*
X12874340Y-42251341D01*
X12874337Y-42251344D01*
X12867329Y-42258353D01*
X12862831Y-42267180D01*
X12862828Y-42267185D01*
X12813773Y-42363461D01*
X12813771Y-42363467D01*
X12809273Y-42372295D01*
X12807722Y-42382084D01*
X12807720Y-42382092D01*
X12797511Y-42446546D01*
X12775026Y-42500858D01*
X12730348Y-42539059D01*
X12673202Y-42552834D01*
X12473110Y-42553055D01*
X12415851Y-42539364D01*
X12371062Y-42501153D01*
X12348522Y-42446766D01*
X12346247Y-42432401D01*
X12336727Y-42372295D01*
X12278671Y-42258353D01*
X12188247Y-42167929D01*
X12179415Y-42163429D01*
X12179414Y-42163428D01*
X12083138Y-42114373D01*
X12083134Y-42114371D01*
X12074305Y-42109873D01*
X12064513Y-42108322D01*
X11984660Y-42095674D01*
X11984653Y-42095673D01*
X11979770Y-42094900D01*
X11516230Y-42094900D01*
X11511347Y-42095673D01*
X11511339Y-42095674D01*
X11431486Y-42108322D01*
X11431484Y-42108322D01*
X11421695Y-42109873D01*
X11412867Y-42114371D01*
X11412861Y-42114373D01*
X11316585Y-42163428D01*
X11316580Y-42163431D01*
X11307753Y-42167929D01*
X11300744Y-42174937D01*
X11300741Y-42174940D01*
X11224340Y-42251341D01*
X11224337Y-42251344D01*
X11217329Y-42258353D01*
X11212831Y-42267180D01*
X11212828Y-42267185D01*
X11163773Y-42363461D01*
X11163771Y-42363467D01*
X11159273Y-42372295D01*
X11157722Y-42382082D01*
X11157722Y-42382085D01*
X11147223Y-42448372D01*
X11124737Y-42502684D01*
X11080059Y-42540885D01*
X11022914Y-42554660D01*
X10940598Y-42554751D01*
X10649228Y-42555073D01*
X10586171Y-42538240D01*
X10539994Y-42492114D01*
X10523090Y-42429074D01*
X10523090Y-42202045D01*
X10539971Y-42139045D01*
X10586090Y-42092926D01*
X10649090Y-42076045D01*
X10878380Y-42076044D01*
X10911310Y-42076044D01*
X10936703Y-42073099D01*
X11040571Y-42027237D01*
X11120858Y-41946950D01*
X11166720Y-41843082D01*
X11169666Y-41817690D01*
X11169665Y-40352001D01*
X11166720Y-40326608D01*
X11120858Y-40222740D01*
X11040571Y-40142453D01*
X11029890Y-40137737D01*
X11029889Y-40137736D01*
X10945375Y-40100420D01*
X10945374Y-40100419D01*
X10936703Y-40096591D01*
X10927285Y-40095498D01*
X10927284Y-40095498D01*
X10914937Y-40094065D01*
X10914925Y-40094064D01*
X10911311Y-40093645D01*
X10907664Y-40093645D01*
X10624258Y-40093645D01*
X10624240Y-40093645D01*
X10620622Y-40093646D01*
X10617009Y-40094064D01*
X10617009Y-40094065D01*
X10604645Y-40095498D01*
X10604638Y-40095499D01*
X10595229Y-40096591D01*
X10586562Y-40100417D01*
X10586554Y-40100420D01*
X10491859Y-40142232D01*
X10440966Y-40152968D01*
X10390073Y-40142232D01*
X10295378Y-40100421D01*
X10295375Y-40100420D01*
X10286703Y-40096591D01*
X10277285Y-40095498D01*
X10277284Y-40095498D01*
X10264937Y-40094065D01*
X10264925Y-40094064D01*
X10261311Y-40093645D01*
X10257664Y-40093645D01*
X9974258Y-40093645D01*
X9974240Y-40093645D01*
X9970622Y-40093646D01*
X9967009Y-40094064D01*
X9967009Y-40094065D01*
X9945229Y-40096591D01*
X9945074Y-40095261D01*
X9908459Y-40097613D01*
X9860933Y-40080883D01*
X9823761Y-40046870D01*
X9820591Y-40042508D01*
X9810249Y-40025633D01*
X9806151Y-40017590D01*
X9800172Y-40005854D01*
X9709884Y-39915566D01*
X9709881Y-39915564D01*
X9457035Y-39662718D01*
X9457034Y-39662716D01*
X9366746Y-39572428D01*
X9346957Y-39562345D01*
X9330104Y-39552017D01*
X9320168Y-39544798D01*
X9320162Y-39544795D01*
X9312142Y-39538968D01*
X9291028Y-39532107D01*
X9272769Y-39524544D01*
X9261810Y-39518960D01*
X9261804Y-39518958D01*
X9252976Y-39514460D01*
X9243190Y-39512910D01*
X9243187Y-39512909D01*
X9231042Y-39510986D01*
X9211820Y-39506371D01*
X9190705Y-39499510D01*
X9158588Y-39499510D01*
X7240705Y-39499510D01*
X7208588Y-39499510D01*
X5949823Y-39499510D01*
X5822137Y-39499510D01*
X5812705Y-39502574D01*
X5812702Y-39502575D01*
X5801017Y-39506372D01*
X5781798Y-39510986D01*
X5769657Y-39512909D01*
X5769656Y-39512909D01*
X5759866Y-39514460D01*
X5751036Y-39518958D01*
X5751029Y-39518961D01*
X5740073Y-39524543D01*
X5721820Y-39532104D01*
X5710130Y-39535902D01*
X5710122Y-39535905D01*
X5700699Y-39538968D01*
X5692682Y-39544792D01*
X5692675Y-39544796D01*
X5682731Y-39552021D01*
X5665883Y-39562345D01*
X5654935Y-39567923D01*
X5654929Y-39567926D01*
X5646096Y-39572428D01*
X5639083Y-39579440D01*
X5639080Y-39579443D01*
X5555806Y-39662717D01*
X5555806Y-39662718D01*
X5084489Y-40134036D01*
X4648130Y-40570395D01*
X4607252Y-40597709D01*
X4559034Y-40607300D01*
X4011230Y-40607300D01*
X4006347Y-40608073D01*
X4006339Y-40608074D01*
X3926486Y-40620722D01*
X3926484Y-40620722D01*
X3916695Y-40622273D01*
X3907867Y-40626771D01*
X3907861Y-40626773D01*
X3811585Y-40675828D01*
X3811580Y-40675831D01*
X3802753Y-40680329D01*
X3795744Y-40687337D01*
X3795744Y-40687338D01*
X3777119Y-40705963D01*
X3726885Y-40736724D01*
X3668159Y-40741290D01*
X3613774Y-40718664D01*
X3575617Y-40673790D01*
X3562026Y-40616476D01*
X3562052Y-40608074D01*
X3576941Y-35798895D01*
X3595784Y-35733001D01*
X3646332Y-35686718D01*
X3713628Y-35673740D01*
X3777760Y-35697906D01*
X3859745Y-35758414D01*
X3988839Y-35803586D01*
X4019487Y-35806460D01*
X4545952Y-35806459D01*
X4594170Y-35816050D01*
X4635047Y-35843364D01*
X5582964Y-36791281D01*
X5582966Y-36791284D01*
X5673254Y-36881572D01*
X5693037Y-36891651D01*
X5709895Y-36901982D01*
X5727857Y-36915032D01*
X5748976Y-36921894D01*
X5767228Y-36929454D01*
X5787024Y-36939540D01*
X5808961Y-36943014D01*
X5828169Y-36947625D01*
X5849294Y-36954490D01*
X5881412Y-36954490D01*
X5976981Y-36954490D01*
X7113019Y-36954490D01*
X7208588Y-36954490D01*
X7230785Y-36954490D01*
X7240705Y-36954490D01*
X7261815Y-36947629D01*
X7281041Y-36943013D01*
X7302976Y-36939540D01*
X7322762Y-36929458D01*
X7341024Y-36921893D01*
X7362142Y-36915032D01*
X7380097Y-36901986D01*
X7396965Y-36891650D01*
X7396967Y-36891649D01*
X7416746Y-36881572D01*
X7507034Y-36791284D01*
X7507035Y-36791281D01*
X7759881Y-36538435D01*
X7759884Y-36538434D01*
X7850172Y-36448146D01*
X7860251Y-36428361D01*
X7870584Y-36411500D01*
X7883632Y-36393543D01*
X7890494Y-36372421D01*
X7898055Y-36354168D01*
X7908140Y-36334376D01*
X7911612Y-36312448D01*
X7916227Y-36293225D01*
X7923090Y-36272106D01*
X7923090Y-36144419D01*
X7923090Y-35332774D01*
X7921216Y-35320949D01*
X7919665Y-35301237D01*
X7919665Y-34630638D01*
X7919665Y-34627001D01*
X7916720Y-34601608D01*
X7902541Y-34569495D01*
X7887581Y-34535614D01*
X7877257Y-34474544D01*
X7897278Y-34415933D01*
X7942808Y-34373943D01*
X8002845Y-34358720D01*
X8290910Y-34358720D01*
X8353910Y-34375601D01*
G37*
%TD.AperFunction*%
%TD*%
%TA.AperFunction,Conductor*%
%TO.N,Board_1-GND*%
G36*
X51353910Y-34375601D02*
G01*
X51400029Y-34421720D01*
X51416910Y-34484720D01*
X51416910Y-34583933D01*
X51414559Y-34601532D01*
X51415212Y-34601608D01*
X51412686Y-34623373D01*
X51412685Y-34623386D01*
X51412266Y-34627000D01*
X51412266Y-34630646D01*
X51412266Y-34630647D01*
X51412266Y-36059583D01*
X51404323Y-36103613D01*
X51381494Y-36142092D01*
X51362125Y-36164446D01*
X51362123Y-36164448D01*
X51356224Y-36171257D01*
X51352481Y-36179450D01*
X51352480Y-36179454D01*
X51299224Y-36296067D01*
X51299221Y-36296075D01*
X51295481Y-36304266D01*
X51274671Y-36449000D01*
X51295481Y-36593734D01*
X51299222Y-36601926D01*
X51299224Y-36601932D01*
X51343023Y-36697837D01*
X51356224Y-36726743D01*
X51451979Y-36837250D01*
X51574989Y-36916304D01*
X51715289Y-36957500D01*
X51852502Y-36957500D01*
X51861511Y-36957500D01*
X52001811Y-36916304D01*
X52124821Y-36837250D01*
X52220576Y-36726743D01*
X52221794Y-36727798D01*
X52252285Y-36697837D01*
X52305038Y-36679748D01*
X52360431Y-36686200D01*
X52407613Y-36715930D01*
X52489173Y-36797490D01*
X52489175Y-36797493D01*
X52579463Y-36887781D01*
X52599246Y-36897860D01*
X52616104Y-36908191D01*
X52634066Y-36921241D01*
X52655185Y-36928103D01*
X52673437Y-36935663D01*
X52693233Y-36945749D01*
X52715160Y-36949221D01*
X52734387Y-36953837D01*
X52755504Y-36960699D01*
X52787621Y-36960699D01*
X52883190Y-36960699D01*
X54454834Y-36960699D01*
X54519865Y-36978778D01*
X54556876Y-37017927D01*
X54558699Y-37016582D01*
X54597617Y-37069314D01*
X54620458Y-37123029D01*
X54616640Y-37181274D01*
X54586984Y-37231549D01*
X54537854Y-37263064D01*
X54486117Y-37281167D01*
X54486113Y-37281168D01*
X54477205Y-37284286D01*
X54469609Y-37289891D01*
X54469607Y-37289893D01*
X54374754Y-37359898D01*
X54374750Y-37359901D01*
X54367162Y-37365502D01*
X54361561Y-37373090D01*
X54361558Y-37373094D01*
X54291553Y-37467947D01*
X54291551Y-37467949D01*
X54285946Y-37475545D01*
X54282828Y-37484454D01*
X54282826Y-37484459D01*
X54243306Y-37597401D01*
X54243304Y-37597406D01*
X54240774Y-37604639D01*
X54237900Y-37635287D01*
X54237900Y-37638239D01*
X54237900Y-37638240D01*
X54237900Y-38241656D01*
X54237900Y-38241677D01*
X54237901Y-38244592D01*
X54238173Y-38247494D01*
X54238174Y-38247514D01*
X54240058Y-38267605D01*
X54240774Y-38275241D01*
X54243306Y-38282478D01*
X54243307Y-38282481D01*
X54282826Y-38395420D01*
X54282827Y-38395422D01*
X54285946Y-38404335D01*
X54367162Y-38514378D01*
X54477205Y-38595594D01*
X54606299Y-38640766D01*
X54636947Y-38643640D01*
X55696252Y-38643639D01*
X55726901Y-38640766D01*
X55855995Y-38595594D01*
X55966038Y-38514378D01*
X56047254Y-38404335D01*
X56092426Y-38275241D01*
X56095300Y-38244593D01*
X56095299Y-37862040D01*
X56104890Y-37813823D01*
X56132201Y-37772948D01*
X56913756Y-36991394D01*
X56954634Y-36964081D01*
X57002852Y-36954490D01*
X57610785Y-36954490D01*
X57620705Y-36954490D01*
X57641815Y-36947629D01*
X57661041Y-36943013D01*
X57682976Y-36939540D01*
X57702762Y-36929458D01*
X57721024Y-36921893D01*
X57742142Y-36915032D01*
X57760097Y-36901986D01*
X57776965Y-36891650D01*
X57776967Y-36891649D01*
X57796746Y-36881572D01*
X57887034Y-36791284D01*
X57887035Y-36791281D01*
X58139881Y-36538435D01*
X58139884Y-36538434D01*
X58230172Y-36448146D01*
X58240251Y-36428361D01*
X58250584Y-36411500D01*
X58263632Y-36393543D01*
X58270494Y-36372421D01*
X58278055Y-36354168D01*
X58288140Y-36334376D01*
X58291612Y-36312448D01*
X58296227Y-36293225D01*
X58303090Y-36272106D01*
X58303090Y-36144419D01*
X58303090Y-36107902D01*
X58303293Y-36100845D01*
X58303700Y-36097345D01*
X58303699Y-34631656D01*
X58300754Y-34606263D01*
X58296924Y-34597588D01*
X58269560Y-34535613D01*
X58259236Y-34474543D01*
X58279258Y-34415932D01*
X58324787Y-34373943D01*
X58384824Y-34358720D01*
X58670910Y-34358720D01*
X58733910Y-34375601D01*
X58780029Y-34421720D01*
X58796910Y-34484720D01*
X58796910Y-34621098D01*
X58796706Y-34628154D01*
X58796300Y-34631655D01*
X58796300Y-34635287D01*
X58796300Y-34635288D01*
X58796300Y-36093707D01*
X58796300Y-36093724D01*
X58796301Y-36097344D01*
X58796720Y-36100956D01*
X58798153Y-36113320D01*
X58798154Y-36113325D01*
X58799246Y-36122737D01*
X58803073Y-36131404D01*
X58803074Y-36131408D01*
X58840391Y-36215923D01*
X58845108Y-36226605D01*
X58925395Y-36306892D01*
X59029263Y-36352754D01*
X59054655Y-36355700D01*
X59345344Y-36355699D01*
X59370737Y-36352754D01*
X59370878Y-36353974D01*
X59408027Y-36351579D01*
X59455575Y-36368311D01*
X59492760Y-36402340D01*
X59499417Y-36411503D01*
X59509745Y-36428357D01*
X59519828Y-36448146D01*
X59610116Y-36538434D01*
X59610118Y-36538435D01*
X59862964Y-36791281D01*
X59862966Y-36791284D01*
X59953254Y-36881572D01*
X59973037Y-36891651D01*
X59989895Y-36901982D01*
X60007857Y-36915032D01*
X60028976Y-36921894D01*
X60047228Y-36929454D01*
X60067024Y-36939540D01*
X60088961Y-36943014D01*
X60108169Y-36947625D01*
X60129294Y-36954490D01*
X60161412Y-36954490D01*
X60256981Y-36954490D01*
X61569974Y-36954490D01*
X61626756Y-36968010D01*
X61671351Y-37005666D01*
X61744900Y-37105320D01*
X61848879Y-37182061D01*
X61970860Y-37224744D01*
X61999824Y-37227460D01*
X62600142Y-37227460D01*
X62603096Y-37227460D01*
X62632060Y-37224744D01*
X62754041Y-37182061D01*
X62858020Y-37105320D01*
X62934761Y-37001341D01*
X62977444Y-36879360D01*
X62980160Y-36850396D01*
X62980160Y-36297124D01*
X62977444Y-36268160D01*
X62934761Y-36146179D01*
X62858020Y-36042200D01*
X62754041Y-35965459D01*
X62745128Y-35962340D01*
X62745126Y-35962339D01*
X62639296Y-35925308D01*
X62632060Y-35922776D01*
X62624429Y-35922060D01*
X62623498Y-35921857D01*
X62563825Y-35890318D01*
X62528991Y-35832507D01*
X62528991Y-35765013D01*
X62563825Y-35707202D01*
X62623498Y-35675663D01*
X62624428Y-35675459D01*
X62632060Y-35674744D01*
X62754041Y-35632061D01*
X62858020Y-35555320D01*
X62915064Y-35478028D01*
X62959662Y-35440370D01*
X63016444Y-35426850D01*
X65304969Y-35426850D01*
X65353187Y-35436441D01*
X65394064Y-35463755D01*
X65636217Y-35705908D01*
X65665523Y-35751908D01*
X65672643Y-35805984D01*
X65656241Y-35858003D01*
X65619393Y-35898216D01*
X65560108Y-35939728D01*
X65560105Y-35939730D01*
X65555597Y-35942887D01*
X65551705Y-35946778D01*
X65551699Y-35946784D01*
X65408584Y-36089899D01*
X65408578Y-36089905D01*
X65404687Y-36093797D01*
X65401530Y-36098305D01*
X65401528Y-36098308D01*
X65285430Y-36264112D01*
X65285424Y-36264122D01*
X65282274Y-36268621D01*
X65279950Y-36273603D01*
X65279948Y-36273608D01*
X65194402Y-36457062D01*
X65194399Y-36457067D01*
X65192079Y-36462045D01*
X65190657Y-36467349D01*
X65190656Y-36467354D01*
X65144359Y-36640139D01*
X65136842Y-36668192D01*
X65136363Y-36673665D01*
X65136362Y-36673672D01*
X65122647Y-36830440D01*
X65118241Y-36880800D01*
X65118720Y-36886275D01*
X65135668Y-37080000D01*
X65136842Y-37093408D01*
X65192079Y-37299555D01*
X65194401Y-37304535D01*
X65194402Y-37304537D01*
X65270601Y-37467947D01*
X65282274Y-37492980D01*
X65285427Y-37497483D01*
X65285430Y-37497488D01*
X65355391Y-37597401D01*
X65404687Y-37667803D01*
X65555597Y-37818713D01*
X65730420Y-37941126D01*
X65923845Y-38031321D01*
X66129992Y-38086558D01*
X66342600Y-38105159D01*
X66555208Y-38086558D01*
X66761355Y-38031321D01*
X66954780Y-37941126D01*
X67129603Y-37818713D01*
X67212697Y-37735618D01*
X67269181Y-37703007D01*
X67334403Y-37703007D01*
X67390887Y-37735619D01*
X68428145Y-38772877D01*
X68435722Y-38781203D01*
X68439847Y-38787703D01*
X68445624Y-38793128D01*
X68445625Y-38793129D01*
X68489681Y-38834500D01*
X68492522Y-38837254D01*
X68512306Y-38857038D01*
X68515431Y-38859462D01*
X68515432Y-38859463D01*
X68515521Y-38859532D01*
X68524543Y-38867238D01*
X68556894Y-38897617D01*
X68574735Y-38907425D01*
X68591247Y-38918272D01*
X68607333Y-38930749D01*
X68614609Y-38933897D01*
X68614608Y-38933897D01*
X68648050Y-38948369D01*
X68658709Y-38953591D01*
X68682025Y-38966408D01*
X68697597Y-38974969D01*
X68705274Y-38976940D01*
X68717312Y-38980031D01*
X68736013Y-38986434D01*
X68754692Y-38994517D01*
X68788221Y-38999827D01*
X68798514Y-39001457D01*
X68810142Y-39003865D01*
X68845441Y-39012929D01*
X68845442Y-39012929D01*
X68853118Y-39014900D01*
X68873465Y-39014900D01*
X68893176Y-39016451D01*
X68913279Y-39019635D01*
X68942605Y-39016862D01*
X68957456Y-39015459D01*
X68969314Y-39014900D01*
X69042512Y-39014900D01*
X69103824Y-39030824D01*
X69149640Y-39074570D01*
X69168378Y-39135081D01*
X69155302Y-39197064D01*
X69146734Y-39214268D01*
X69142584Y-39224982D01*
X69142057Y-39236378D01*
X69153204Y-39239000D01*
X70433000Y-39239000D01*
X70496000Y-39255881D01*
X70542119Y-39302000D01*
X70559000Y-39365000D01*
X70559000Y-41004571D01*
X70545546Y-41061223D01*
X70508057Y-41105776D01*
X70454538Y-41128716D01*
X70396420Y-41125144D01*
X70390488Y-41123344D01*
X70390479Y-41123342D01*
X70384561Y-41121547D01*
X70378405Y-41120940D01*
X70378397Y-41120939D01*
X70184163Y-41101809D01*
X70178000Y-41101202D01*
X70171837Y-41101809D01*
X69977602Y-41120939D01*
X69977592Y-41120940D01*
X69971439Y-41121547D01*
X69965522Y-41123341D01*
X69965516Y-41123343D01*
X69778738Y-41180001D01*
X69778732Y-41180003D01*
X69772816Y-41181798D01*
X69767358Y-41184715D01*
X69767354Y-41184717D01*
X69695517Y-41223115D01*
X69589763Y-41279642D01*
X69584984Y-41283563D01*
X69584978Y-41283568D01*
X69434096Y-41407394D01*
X69434090Y-41407399D01*
X69429317Y-41411317D01*
X69425399Y-41416090D01*
X69425394Y-41416096D01*
X69301568Y-41566978D01*
X69301563Y-41566984D01*
X69297642Y-41571763D01*
X69294724Y-41577221D01*
X69294724Y-41577222D01*
X69202717Y-41749354D01*
X69202715Y-41749358D01*
X69199798Y-41754816D01*
X69198003Y-41760732D01*
X69198001Y-41760738D01*
X69141343Y-41947516D01*
X69141341Y-41947522D01*
X69139547Y-41953439D01*
X69138940Y-41959592D01*
X69138939Y-41959602D01*
X69120807Y-42143700D01*
X69119202Y-42160000D01*
X69119809Y-42166163D01*
X69138008Y-42350940D01*
X69125621Y-42419018D01*
X69079152Y-42470289D01*
X69012615Y-42489290D01*
X61783064Y-42489290D01*
X61768956Y-42488498D01*
X61742352Y-42485500D01*
X61742350Y-42485500D01*
X61732969Y-42484443D01*
X61723693Y-42486197D01*
X61723692Y-42486198D01*
X61675904Y-42495240D01*
X61671263Y-42496028D01*
X61623176Y-42503277D01*
X61623174Y-42503277D01*
X61613843Y-42504684D01*
X61605976Y-42508472D01*
X61597400Y-42510095D01*
X61589060Y-42514502D01*
X61589050Y-42514506D01*
X61556344Y-42531791D01*
X61497613Y-42546390D01*
X61029230Y-42546909D01*
X60966171Y-42530075D01*
X60919994Y-42483949D01*
X60903090Y-42420909D01*
X60903090Y-42206700D01*
X60919971Y-42143700D01*
X60966090Y-42097581D01*
X61029090Y-42080700D01*
X61257682Y-42080699D01*
X61295344Y-42080699D01*
X61320737Y-42077754D01*
X61424605Y-42031892D01*
X61504892Y-41951605D01*
X61519476Y-41918576D01*
X65759134Y-41918576D01*
X65768173Y-41925830D01*
X65901592Y-41988044D01*
X65911884Y-41991790D01*
X66115909Y-42046458D01*
X66126704Y-42048362D01*
X66337125Y-42066772D01*
X66348075Y-42066772D01*
X66558495Y-42048362D01*
X66569290Y-42046458D01*
X66773315Y-41991790D01*
X66783607Y-41988044D01*
X66917025Y-41925830D01*
X66926064Y-41918575D01*
X66920052Y-41908668D01*
X66354330Y-41342945D01*
X66342599Y-41336172D01*
X66330870Y-41342944D01*
X65765147Y-41908667D01*
X65759134Y-41918576D01*
X61519476Y-41918576D01*
X61550754Y-41847737D01*
X61553700Y-41822345D01*
X61553699Y-40857923D01*
X61567432Y-40800721D01*
X61605638Y-40755988D01*
X61659988Y-40733475D01*
X61718635Y-40738091D01*
X61768794Y-40768829D01*
X62096395Y-41096430D01*
X62123709Y-41137307D01*
X62133300Y-41185525D01*
X62133300Y-41442770D01*
X62134073Y-41447653D01*
X62134074Y-41447660D01*
X62138476Y-41475450D01*
X62148273Y-41537305D01*
X62152771Y-41546134D01*
X62152773Y-41546138D01*
X62201828Y-41642414D01*
X62206329Y-41651247D01*
X62296753Y-41741671D01*
X62410695Y-41799727D01*
X62505230Y-41814700D01*
X63113817Y-41814700D01*
X63118770Y-41814700D01*
X63213305Y-41799727D01*
X63327247Y-41741671D01*
X63417671Y-41651247D01*
X63475727Y-41537305D01*
X63490700Y-41442770D01*
X63490700Y-40979230D01*
X63475727Y-40884695D01*
X63431490Y-40797875D01*
X65068228Y-40797875D01*
X65086637Y-41008295D01*
X65088541Y-41019090D01*
X65143209Y-41223115D01*
X65146955Y-41233407D01*
X65209168Y-41366825D01*
X65216423Y-41375864D01*
X65226330Y-41369852D01*
X65792053Y-40804130D01*
X65798826Y-40792399D01*
X66886372Y-40792399D01*
X66893145Y-40804130D01*
X67458868Y-41369852D01*
X67468775Y-41375864D01*
X67476030Y-41366825D01*
X67538244Y-41233407D01*
X67541990Y-41223115D01*
X67596658Y-41019090D01*
X67598562Y-41008295D01*
X67616972Y-40797875D01*
X67616972Y-40786925D01*
X67598562Y-40576504D01*
X67596658Y-40565709D01*
X67541990Y-40361684D01*
X67538244Y-40351392D01*
X67476029Y-40217973D01*
X67468775Y-40208934D01*
X67458866Y-40214947D01*
X66893143Y-40780671D01*
X66886372Y-40792399D01*
X65798826Y-40792399D01*
X65792055Y-40780671D01*
X65226332Y-40214947D01*
X65216423Y-40208934D01*
X65209169Y-40217973D01*
X65146955Y-40351392D01*
X65143209Y-40361684D01*
X65088541Y-40565709D01*
X65086637Y-40576504D01*
X65068228Y-40786925D01*
X65068228Y-40797875D01*
X63431490Y-40797875D01*
X63417671Y-40770753D01*
X63327247Y-40680329D01*
X63318415Y-40675829D01*
X63318414Y-40675828D01*
X63222138Y-40626773D01*
X63222134Y-40626771D01*
X63213305Y-40622273D01*
X63203513Y-40620722D01*
X63123660Y-40608074D01*
X63123653Y-40608073D01*
X63118770Y-40607300D01*
X63113817Y-40607300D01*
X62799565Y-40607300D01*
X62751347Y-40597709D01*
X62710470Y-40570395D01*
X61806298Y-39666223D01*
X65759134Y-39666223D01*
X65765147Y-39676132D01*
X66330871Y-40241855D01*
X66342599Y-40248626D01*
X66354330Y-40241853D01*
X66592562Y-40003621D01*
X69142057Y-40003621D01*
X69142584Y-40015017D01*
X69146733Y-40025726D01*
X69232742Y-40198456D01*
X69238850Y-40208321D01*
X69355126Y-40362296D01*
X69362944Y-40370872D01*
X69505533Y-40500859D01*
X69514796Y-40507854D01*
X69678847Y-40609429D01*
X69689225Y-40614596D01*
X69782680Y-40650801D01*
X69794208Y-40652274D01*
X69797000Y-40640991D01*
X69797000Y-40017590D01*
X69793493Y-40004506D01*
X69780410Y-40001000D01*
X69153204Y-40001000D01*
X69142057Y-40003621D01*
X66592562Y-40003621D01*
X66920052Y-39676130D01*
X66926064Y-39666223D01*
X66917025Y-39658968D01*
X66783607Y-39596755D01*
X66773315Y-39593009D01*
X66569290Y-39538341D01*
X66558495Y-39536437D01*
X66348075Y-39518028D01*
X66337125Y-39518028D01*
X66126704Y-39536437D01*
X66115909Y-39538341D01*
X65911884Y-39593009D01*
X65901592Y-39596755D01*
X65768173Y-39658969D01*
X65759134Y-39666223D01*
X61806298Y-39666223D01*
X61802793Y-39662718D01*
X61802792Y-39662716D01*
X61719520Y-39579444D01*
X61719519Y-39579443D01*
X61712504Y-39572428D01*
X61692715Y-39562345D01*
X61675862Y-39552017D01*
X61665926Y-39544798D01*
X61665920Y-39544795D01*
X61657900Y-39538968D01*
X61636786Y-39532107D01*
X61618527Y-39524544D01*
X61607568Y-39518960D01*
X61607562Y-39518958D01*
X61598734Y-39514460D01*
X61588948Y-39512910D01*
X61588945Y-39512909D01*
X61576800Y-39510986D01*
X61557578Y-39506371D01*
X61536463Y-39499510D01*
X61504346Y-39499510D01*
X60256981Y-39499510D01*
X60224864Y-39499510D01*
X58306981Y-39499510D01*
X58179294Y-39499510D01*
X58158169Y-39506373D01*
X58138955Y-39510986D01*
X58126817Y-39512908D01*
X58126812Y-39512909D01*
X58117024Y-39514460D01*
X58108195Y-39518957D01*
X58108186Y-39518961D01*
X58097231Y-39524543D01*
X58078978Y-39532104D01*
X58067288Y-39535902D01*
X58067280Y-39535905D01*
X58057857Y-39538968D01*
X58049840Y-39544792D01*
X58049833Y-39544796D01*
X58039889Y-39552021D01*
X58023041Y-39562345D01*
X58012093Y-39567923D01*
X58012087Y-39567926D01*
X58003254Y-39572428D01*
X57996241Y-39579440D01*
X57996238Y-39579443D01*
X57576843Y-39998838D01*
X57576840Y-39998841D01*
X57569828Y-40005854D01*
X57565327Y-40014686D01*
X57565322Y-40014694D01*
X57559741Y-40025648D01*
X57549423Y-40042487D01*
X57542768Y-40051649D01*
X57505588Y-40085681D01*
X57458045Y-40102417D01*
X57420878Y-40100025D01*
X57420737Y-40101246D01*
X57398971Y-40098720D01*
X57398959Y-40098719D01*
X57395345Y-40098300D01*
X57391698Y-40098300D01*
X57108292Y-40098300D01*
X57108274Y-40098300D01*
X57104656Y-40098301D01*
X57101043Y-40098719D01*
X57101043Y-40098720D01*
X57088679Y-40100153D01*
X57088672Y-40100154D01*
X57079263Y-40101246D01*
X57070596Y-40105072D01*
X57070588Y-40105075D01*
X56975893Y-40146887D01*
X56925000Y-40157623D01*
X56874107Y-40146887D01*
X56779412Y-40105076D01*
X56779409Y-40105075D01*
X56770737Y-40101246D01*
X56761319Y-40100153D01*
X56761318Y-40100153D01*
X56748971Y-40098720D01*
X56748959Y-40098719D01*
X56745345Y-40098300D01*
X56741698Y-40098300D01*
X56458292Y-40098300D01*
X56458274Y-40098300D01*
X56454656Y-40098301D01*
X56451043Y-40098719D01*
X56451043Y-40098720D01*
X56438679Y-40100153D01*
X56438672Y-40100154D01*
X56429263Y-40101246D01*
X56420597Y-40105072D01*
X56420591Y-40105074D01*
X56336076Y-40142391D01*
X56336072Y-40142393D01*
X56325395Y-40147108D01*
X56317140Y-40155362D01*
X56317137Y-40155365D01*
X56253365Y-40219137D01*
X56253362Y-40219140D01*
X56245108Y-40227395D01*
X56240393Y-40238072D01*
X56240391Y-40238076D01*
X56205130Y-40317936D01*
X56199246Y-40331263D01*
X56198153Y-40340678D01*
X56198153Y-40340681D01*
X56196720Y-40353028D01*
X56196719Y-40353041D01*
X56196300Y-40356655D01*
X56196300Y-40360300D01*
X56196300Y-40360301D01*
X56196300Y-41818707D01*
X56196300Y-41818724D01*
X56196301Y-41822344D01*
X56196706Y-41825841D01*
X56196910Y-41832881D01*
X56196910Y-41982426D01*
X56183177Y-42039628D01*
X56144972Y-42084361D01*
X56090623Y-42106874D01*
X56081491Y-42108320D01*
X56081482Y-42108322D01*
X56071695Y-42109873D01*
X56062867Y-42114371D01*
X56062861Y-42114373D01*
X55966585Y-42163428D01*
X55966580Y-42163431D01*
X55957753Y-42167929D01*
X55950744Y-42174937D01*
X55950741Y-42174940D01*
X55874340Y-42251341D01*
X55874337Y-42251344D01*
X55867329Y-42258353D01*
X55862831Y-42267180D01*
X55862828Y-42267185D01*
X55813773Y-42363461D01*
X55813771Y-42363467D01*
X55809273Y-42372295D01*
X55807722Y-42382084D01*
X55807720Y-42382092D01*
X55797511Y-42446546D01*
X55775026Y-42500858D01*
X55730348Y-42539059D01*
X55673202Y-42552834D01*
X55473110Y-42553055D01*
X55415851Y-42539364D01*
X55371062Y-42501153D01*
X55348522Y-42446766D01*
X55346247Y-42432401D01*
X55336727Y-42372295D01*
X55278671Y-42258353D01*
X55188247Y-42167929D01*
X55179415Y-42163429D01*
X55179414Y-42163428D01*
X55083138Y-42114373D01*
X55083134Y-42114371D01*
X55074305Y-42109873D01*
X55064513Y-42108322D01*
X54984660Y-42095674D01*
X54984653Y-42095673D01*
X54979770Y-42094900D01*
X54516230Y-42094900D01*
X54511347Y-42095673D01*
X54511339Y-42095674D01*
X54431486Y-42108322D01*
X54431484Y-42108322D01*
X54421695Y-42109873D01*
X54412867Y-42114371D01*
X54412861Y-42114373D01*
X54316585Y-42163428D01*
X54316580Y-42163431D01*
X54307753Y-42167929D01*
X54300744Y-42174937D01*
X54300741Y-42174940D01*
X54224340Y-42251341D01*
X54224337Y-42251344D01*
X54217329Y-42258353D01*
X54212831Y-42267180D01*
X54212828Y-42267185D01*
X54163773Y-42363461D01*
X54163771Y-42363467D01*
X54159273Y-42372295D01*
X54157722Y-42382082D01*
X54157722Y-42382085D01*
X54147223Y-42448372D01*
X54124737Y-42502684D01*
X54080059Y-42540885D01*
X54022914Y-42554660D01*
X53940598Y-42554751D01*
X53649228Y-42555073D01*
X53586171Y-42538240D01*
X53539994Y-42492114D01*
X53523090Y-42429074D01*
X53523090Y-42202045D01*
X53539971Y-42139045D01*
X53586090Y-42092926D01*
X53649090Y-42076045D01*
X53878380Y-42076044D01*
X53911310Y-42076044D01*
X53936703Y-42073099D01*
X54040571Y-42027237D01*
X54120858Y-41946950D01*
X54166720Y-41843082D01*
X54169666Y-41817690D01*
X54169665Y-40352001D01*
X54166720Y-40326608D01*
X54120858Y-40222740D01*
X54040571Y-40142453D01*
X54029890Y-40137737D01*
X54029889Y-40137736D01*
X53945375Y-40100420D01*
X53945374Y-40100419D01*
X53936703Y-40096591D01*
X53927285Y-40095498D01*
X53927284Y-40095498D01*
X53914937Y-40094065D01*
X53914925Y-40094064D01*
X53911311Y-40093645D01*
X53907664Y-40093645D01*
X53624258Y-40093645D01*
X53624240Y-40093645D01*
X53620622Y-40093646D01*
X53617009Y-40094064D01*
X53617009Y-40094065D01*
X53604645Y-40095498D01*
X53604638Y-40095499D01*
X53595229Y-40096591D01*
X53586562Y-40100417D01*
X53586554Y-40100420D01*
X53491859Y-40142232D01*
X53440966Y-40152968D01*
X53390073Y-40142232D01*
X53295378Y-40100421D01*
X53295375Y-40100420D01*
X53286703Y-40096591D01*
X53277285Y-40095498D01*
X53277284Y-40095498D01*
X53264937Y-40094065D01*
X53264925Y-40094064D01*
X53261311Y-40093645D01*
X53257664Y-40093645D01*
X52974258Y-40093645D01*
X52974240Y-40093645D01*
X52970622Y-40093646D01*
X52967009Y-40094064D01*
X52967009Y-40094065D01*
X52945229Y-40096591D01*
X52945074Y-40095261D01*
X52908459Y-40097613D01*
X52860933Y-40080883D01*
X52823761Y-40046870D01*
X52820591Y-40042508D01*
X52810249Y-40025633D01*
X52806151Y-40017590D01*
X52800172Y-40005854D01*
X52709884Y-39915566D01*
X52709881Y-39915564D01*
X52457035Y-39662718D01*
X52457034Y-39662716D01*
X52366746Y-39572428D01*
X52346957Y-39562345D01*
X52330104Y-39552017D01*
X52320168Y-39544798D01*
X52320162Y-39544795D01*
X52312142Y-39538968D01*
X52291028Y-39532107D01*
X52272769Y-39524544D01*
X52261810Y-39518960D01*
X52261804Y-39518958D01*
X52252976Y-39514460D01*
X52243190Y-39512910D01*
X52243187Y-39512909D01*
X52231042Y-39510986D01*
X52211820Y-39506371D01*
X52190705Y-39499510D01*
X52158588Y-39499510D01*
X50240705Y-39499510D01*
X50208588Y-39499510D01*
X48949823Y-39499510D01*
X48822137Y-39499510D01*
X48812705Y-39502574D01*
X48812702Y-39502575D01*
X48801017Y-39506372D01*
X48781798Y-39510986D01*
X48769657Y-39512909D01*
X48769656Y-39512909D01*
X48759866Y-39514460D01*
X48751036Y-39518958D01*
X48751029Y-39518961D01*
X48740073Y-39524543D01*
X48721820Y-39532104D01*
X48710130Y-39535902D01*
X48710122Y-39535905D01*
X48700699Y-39538968D01*
X48692682Y-39544792D01*
X48692675Y-39544796D01*
X48682731Y-39552021D01*
X48665883Y-39562345D01*
X48654935Y-39567923D01*
X48654929Y-39567926D01*
X48646096Y-39572428D01*
X48639083Y-39579440D01*
X48639080Y-39579443D01*
X48555806Y-39662717D01*
X48555806Y-39662718D01*
X48084489Y-40134036D01*
X47648130Y-40570395D01*
X47607252Y-40597709D01*
X47559034Y-40607300D01*
X47011230Y-40607300D01*
X47006347Y-40608073D01*
X47006339Y-40608074D01*
X46926486Y-40620722D01*
X46926484Y-40620722D01*
X46916695Y-40622273D01*
X46907867Y-40626771D01*
X46907861Y-40626773D01*
X46811585Y-40675828D01*
X46811580Y-40675831D01*
X46802753Y-40680329D01*
X46795744Y-40687337D01*
X46795744Y-40687338D01*
X46777119Y-40705963D01*
X46726885Y-40736724D01*
X46668159Y-40741290D01*
X46613774Y-40718664D01*
X46575617Y-40673790D01*
X46562026Y-40616476D01*
X46562052Y-40608074D01*
X46576941Y-35798895D01*
X46595784Y-35733001D01*
X46646332Y-35686718D01*
X46713628Y-35673740D01*
X46777760Y-35697906D01*
X46859745Y-35758414D01*
X46988839Y-35803586D01*
X47019487Y-35806460D01*
X47545952Y-35806459D01*
X47594170Y-35816050D01*
X47635047Y-35843364D01*
X48582964Y-36791281D01*
X48582966Y-36791284D01*
X48673254Y-36881572D01*
X48693037Y-36891651D01*
X48709895Y-36901982D01*
X48727857Y-36915032D01*
X48748976Y-36921894D01*
X48767228Y-36929454D01*
X48787024Y-36939540D01*
X48808961Y-36943014D01*
X48828169Y-36947625D01*
X48849294Y-36954490D01*
X48881412Y-36954490D01*
X48976981Y-36954490D01*
X50113019Y-36954490D01*
X50208588Y-36954490D01*
X50230785Y-36954490D01*
X50240705Y-36954490D01*
X50261815Y-36947629D01*
X50281041Y-36943013D01*
X50302976Y-36939540D01*
X50322762Y-36929458D01*
X50341024Y-36921893D01*
X50362142Y-36915032D01*
X50380097Y-36901986D01*
X50396965Y-36891650D01*
X50396967Y-36891649D01*
X50416746Y-36881572D01*
X50507034Y-36791284D01*
X50507035Y-36791281D01*
X50759881Y-36538435D01*
X50759884Y-36538434D01*
X50850172Y-36448146D01*
X50860251Y-36428361D01*
X50870584Y-36411500D01*
X50883632Y-36393543D01*
X50890494Y-36372421D01*
X50898055Y-36354168D01*
X50908140Y-36334376D01*
X50911612Y-36312448D01*
X50916227Y-36293225D01*
X50923090Y-36272106D01*
X50923090Y-36144419D01*
X50923090Y-35332774D01*
X50921216Y-35320949D01*
X50919665Y-35301237D01*
X50919665Y-34630638D01*
X50919665Y-34627001D01*
X50916720Y-34601608D01*
X50902541Y-34569495D01*
X50887581Y-34535614D01*
X50877257Y-34474544D01*
X50897278Y-34415933D01*
X50942808Y-34373943D01*
X51002845Y-34358720D01*
X51290910Y-34358720D01*
X51353910Y-34375601D01*
G37*
%TD.AperFunction*%
%TD*%
M02*
