M48
; DRILL file {KiCad (7.0.0)} date Tue Apr 25 01:58:54 2023
; FORMAT={-:-/ absolute / inch / decimal}
; #@! TF.CreationDate,2023-04-25T01:58:54-04:00
; #@! TF.GenerationSoftware,Kicad,Pcbnew,(7.0.0)
; #@! TF.FileFunction,NonPlated,1,2,NPTH
FMAT,2
INCH
; #@! TA.AperFunction,NonPlated,NPTH,ComponentDrill
T1C0.0197
; #@! TA.AperFunction,NonPlated,NPTH,ComponentDrill
T2C0.1260
%
G90
G05
T1
X0.2855Y-1.1023
X0.2855Y-1.1417
X0.2855Y-1.1811
X0.2855Y-1.2205
X0.2855Y-1.2599
X0.2855Y-1.2993
X0.2855Y-3.5826
X0.2855Y-3.622
X0.2855Y-3.6614
X0.2855Y-3.7008
X0.2855Y-3.7402
X0.2855Y-3.7796
X0.2855Y-6.063
X0.2855Y-6.1023
X0.2855Y-6.1417
X0.2855Y-6.1811
X0.2855Y-6.2205
X0.2855Y-6.2599
X0.2855Y-8.5433
X0.2855Y-8.5827
X0.2855Y-8.622
X0.2855Y-8.6614
X0.2855Y-8.7008
X0.2855Y-8.7402
X0.9843Y-2.3917
X0.9843Y-2.4902
X0.9843Y-4.872
X0.9843Y-4.9705
X0.9843Y-7.3524
X0.9843Y-7.4508
X1.0236Y-2.3917
X1.0236Y-2.4902
X1.0236Y-4.872
X1.0236Y-4.9705
X1.0236Y-7.3524
X1.0236Y-7.4508
X1.063Y-2.3917
X1.063Y-2.4902
X1.063Y-4.872
X1.063Y-4.9705
X1.063Y-7.3524
X1.063Y-7.4508
X1.1024Y-2.3917
X1.1024Y-2.4902
X1.1024Y-4.872
X1.1024Y-4.9705
X1.1024Y-7.3524
X1.1024Y-7.4508
X1.1418Y-2.3917
X1.1418Y-2.4902
X1.1418Y-4.872
X1.1418Y-4.9705
X1.1418Y-7.3524
X1.1418Y-7.4508
X1.1812Y-2.3917
X1.1812Y-2.4902
X1.1812Y-4.872
X1.1812Y-4.9705
X1.1812Y-7.3524
X1.1812Y-7.4508
X1.88Y-1.1023
X1.88Y-1.1417
X1.88Y-1.1811
X1.88Y-1.2205
X1.88Y-1.2599
X1.88Y-1.2993
X1.88Y-3.5826
X1.88Y-3.622
X1.88Y-3.6614
X1.88Y-3.7008
X1.88Y-3.7402
X1.88Y-3.7796
X1.88Y-6.063
X1.88Y-6.1023
X1.88Y-6.1417
X1.88Y-6.1811
X1.88Y-6.2205
X1.88Y-6.2599
X1.88Y-8.5433
X1.88Y-8.5827
X1.88Y-8.622
X1.88Y-8.6614
X1.88Y-8.7008
X1.88Y-8.7402
X1.9784Y-1.1023
X1.9784Y-1.1417
X1.9784Y-1.1811
X1.9784Y-1.2205
X1.9784Y-1.2599
X1.9784Y-1.2993
X1.9784Y-3.5826
X1.9784Y-3.622
X1.9784Y-3.6614
X1.9784Y-3.7008
X1.9784Y-3.7402
X1.9784Y-3.7796
X1.9784Y-6.063
X1.9784Y-6.1023
X1.9784Y-6.1417
X1.9784Y-6.1811
X1.9784Y-6.2205
X1.9784Y-6.2599
X1.9784Y-8.5433
X1.9784Y-8.5827
X1.9784Y-8.622
X1.9784Y-8.6614
X1.9784Y-8.7008
X1.9784Y-8.7402
X2.6772Y-2.3917
X2.6772Y-2.4902
X2.6772Y-4.872
X2.6772Y-4.9705
X2.6772Y-7.3524
X2.6772Y-7.4508
X2.7166Y-2.3917
X2.7166Y-2.4902
X2.7166Y-4.872
X2.7166Y-4.9705
X2.7166Y-7.3524
X2.7166Y-7.4508
X2.7559Y-2.3917
X2.7559Y-2.4902
X2.7559Y-4.872
X2.7559Y-4.9705
X2.7559Y-7.3524
X2.7559Y-7.4508
X2.7953Y-2.3917
X2.7953Y-2.4902
X2.7953Y-4.872
X2.7953Y-4.9705
X2.7953Y-7.3524
X2.7953Y-7.4508
X2.8347Y-2.3917
X2.8347Y-2.4902
X2.8347Y-4.872
X2.8347Y-4.9705
X2.8347Y-7.3524
X2.8347Y-7.4508
X2.8741Y-2.3917
X2.8741Y-2.4902
X2.8741Y-4.872
X2.8741Y-4.9705
X2.8741Y-7.3524
X2.8741Y-7.4508
X3.5729Y-1.1023
X3.5729Y-1.1417
X3.5729Y-1.1811
X3.5729Y-1.2205
X3.5729Y-1.2599
X3.5729Y-1.2993
X3.5729Y-3.5826
X3.5729Y-3.622
X3.5729Y-3.6614
X3.5729Y-3.7008
X3.5729Y-3.7402
X3.5729Y-3.7796
X3.5729Y-6.063
X3.5729Y-6.1023
X3.5729Y-6.1417
X3.5729Y-6.1811
X3.5729Y-6.2205
X3.5729Y-6.2599
X3.5729Y-8.5433
X3.5729Y-8.5827
X3.5729Y-8.622
X3.5729Y-8.6614
X3.5729Y-8.7008
X3.5729Y-8.7402
X3.6713Y-1.1023
X3.6713Y-1.1417
X3.6713Y-1.1811
X3.6713Y-1.2205
X3.6713Y-1.2599
X3.6713Y-1.2993
X3.6713Y-3.5826
X3.6713Y-3.622
X3.6713Y-3.6614
X3.6713Y-3.7008
X3.6713Y-3.7402
X3.6713Y-3.7796
X3.6713Y-6.063
X3.6713Y-6.1023
X3.6713Y-6.1417
X3.6713Y-6.1811
X3.6713Y-6.2205
X3.6713Y-6.2599
X3.6713Y-8.5433
X3.6713Y-8.5827
X3.6713Y-8.622
X3.6713Y-8.6614
X3.6713Y-8.7008
X3.6713Y-8.7402
X4.3701Y-2.3917
X4.3701Y-2.4902
X4.3701Y-4.872
X4.3701Y-4.9705
X4.3701Y-7.3524
X4.3701Y-7.4508
X4.4095Y-2.3917
X4.4095Y-2.4902
X4.4095Y-4.872
X4.4095Y-4.9705
X4.4095Y-7.3524
X4.4095Y-7.4508
X4.4489Y-2.3917
X4.4489Y-2.4902
X4.4489Y-4.872
X4.4489Y-4.9705
X4.4489Y-7.3524
X4.4489Y-7.4508
X4.4882Y-2.3917
X4.4882Y-2.4902
X4.4882Y-4.872
X4.4882Y-4.9705
X4.4882Y-7.3524
X4.4882Y-7.4508
X4.5276Y-2.3917
X4.5276Y-2.4902
X4.5276Y-4.872
X4.5276Y-4.9705
X4.5276Y-7.3524
X4.5276Y-7.4508
X4.567Y-2.3917
X4.567Y-2.4902
X4.567Y-4.872
X4.567Y-4.9705
X4.567Y-7.3524
X4.567Y-7.4508
X5.2658Y-1.1023
X5.2658Y-1.1417
X5.2658Y-1.1811
X5.2658Y-1.2205
X5.2658Y-1.2599
X5.2658Y-1.2993
X5.2658Y-3.5826
X5.2658Y-3.622
X5.2658Y-3.6614
X5.2658Y-3.7008
X5.2658Y-3.7402
X5.2658Y-3.7796
X5.2658Y-6.063
X5.2658Y-6.1023
X5.2658Y-6.1417
X5.2658Y-6.1811
X5.2658Y-6.2205
X5.2658Y-6.2599
X5.2658Y-8.5433
X5.2658Y-8.5827
X5.2658Y-8.622
X5.2658Y-8.6614
X5.2658Y-8.7008
X5.2658Y-8.7402
X5.3642Y-1.1023
X5.3642Y-1.1417
X5.3642Y-1.1811
X5.3642Y-1.2205
X5.3642Y-1.2599
X5.3642Y-1.2993
X5.3642Y-3.5826
X5.3642Y-3.622
X5.3642Y-3.6614
X5.3642Y-3.7008
X5.3642Y-3.7402
X5.3642Y-3.7796
X5.3642Y-6.063
X5.3642Y-6.1023
X5.3642Y-6.1417
X5.3642Y-6.1811
X5.3642Y-6.2205
X5.3642Y-6.2599
X5.3642Y-8.5433
X5.3642Y-8.5827
X5.3642Y-8.622
X5.3642Y-8.6614
X5.3642Y-8.7008
X5.3642Y-8.7402
X6.063Y-2.3917
X6.063Y-2.4902
X6.063Y-4.872
X6.063Y-4.9705
X6.063Y-7.3524
X6.063Y-7.4508
X6.1024Y-2.3917
X6.1024Y-2.4902
X6.1024Y-4.872
X6.1024Y-4.9705
X6.1024Y-7.3524
X6.1024Y-7.4508
X6.1418Y-2.3917
X6.1418Y-2.4902
X6.1418Y-4.872
X6.1418Y-4.9705
X6.1418Y-7.3524
X6.1418Y-7.4508
X6.1811Y-2.3917
X6.1811Y-2.4902
X6.1811Y-4.872
X6.1811Y-4.9705
X6.1811Y-7.3524
X6.1811Y-7.4508
X6.2205Y-2.3917
X6.2205Y-2.4902
X6.2205Y-4.872
X6.2205Y-4.9705
X6.2205Y-7.3524
X6.2205Y-7.4508
X6.2599Y-2.3917
X6.2599Y-2.4902
X6.2599Y-4.872
X6.2599Y-4.9705
X6.2599Y-7.3524
X6.2599Y-7.4508
X6.9587Y-1.1023
X6.9587Y-1.1417
X6.9587Y-1.1811
X6.9587Y-1.2205
X6.9587Y-1.2599
X6.9587Y-1.2993
X6.9587Y-3.5826
X6.9587Y-3.622
X6.9587Y-3.6614
X6.9587Y-3.7008
X6.9587Y-3.7402
X6.9587Y-3.7796
X6.9587Y-6.063
X6.9587Y-6.1023
X6.9587Y-6.1417
X6.9587Y-6.1811
X6.9587Y-6.2205
X6.9587Y-6.2599
X6.9587Y-8.5433
X6.9587Y-8.5827
X6.9587Y-8.622
X6.9587Y-8.6614
X6.9587Y-8.7008
X6.9587Y-8.7402
X7.0571Y-1.1023
X7.0571Y-1.1417
X7.0571Y-1.1811
X7.0571Y-1.2205
X7.0571Y-1.2599
X7.0571Y-1.2993
X7.0571Y-3.5826
X7.0571Y-3.622
X7.0571Y-3.6614
X7.0571Y-3.7008
X7.0571Y-3.7402
X7.0571Y-3.7796
X7.0571Y-6.063
X7.0571Y-6.1023
X7.0571Y-6.1417
X7.0571Y-6.1811
X7.0571Y-6.2205
X7.0571Y-6.2599
X7.0571Y-8.5433
X7.0571Y-8.5827
X7.0571Y-8.622
X7.0571Y-8.6614
X7.0571Y-8.7008
X7.0571Y-8.7402
X7.7559Y-2.3917
X7.7559Y-2.4902
X7.7559Y-4.872
X7.7559Y-4.9705
X7.7559Y-7.3524
X7.7559Y-7.4508
X7.7953Y-2.3917
X7.7953Y-2.4902
X7.7953Y-4.872
X7.7953Y-4.9705
X7.7953Y-7.3524
X7.7953Y-7.4508
X7.8347Y-2.3917
X7.8347Y-2.4902
X7.8347Y-4.872
X7.8347Y-4.9705
X7.8347Y-7.3524
X7.8347Y-7.4508
X7.8741Y-2.3917
X7.8741Y-2.4902
X7.8741Y-4.872
X7.8741Y-4.9705
X7.8741Y-7.3524
X7.8741Y-7.4508
X7.9134Y-2.3917
X7.9134Y-2.4902
X7.9134Y-4.872
X7.9134Y-4.9705
X7.9134Y-7.3524
X7.9134Y-7.4508
X7.9528Y-2.3917
X7.9528Y-2.4902
X7.9528Y-4.872
X7.9528Y-4.9705
X7.9528Y-7.3524
X7.9528Y-7.4508
X8.6516Y-1.1023
X8.6516Y-1.1417
X8.6516Y-1.1811
X8.6516Y-1.2205
X8.6516Y-1.2599
X8.6516Y-1.2993
X8.6516Y-3.5826
X8.6516Y-3.622
X8.6516Y-3.6614
X8.6516Y-3.7008
X8.6516Y-3.7402
X8.6516Y-3.7796
X8.6516Y-6.063
X8.6516Y-6.1023
X8.6516Y-6.1417
X8.6516Y-6.1811
X8.6516Y-6.2205
X8.6516Y-6.2599
X8.6516Y-8.5433
X8.6516Y-8.5827
X8.6516Y-8.622
X8.6516Y-8.6614
X8.6516Y-8.7008
X8.6516Y-8.7402
T2
X0.4134Y-1.8504
X0.4134Y-4.3307
X0.4134Y-6.811
X0.4134Y-9.2913
X0.6693Y-0.5512
X0.6693Y-3.0315
X0.6693Y-5.5118
X0.6693Y-7.9921
X1.752Y-0.1378
X1.752Y-2.6181
X1.752Y-5.0984
X1.752Y-7.5787
X2.1063Y-1.8504
X2.1063Y-4.3307
X2.1063Y-6.811
X2.1063Y-9.2913
X2.3622Y-0.5512
X2.3622Y-3.0315
X2.3622Y-5.5118
X2.3622Y-7.9921
X3.4449Y-0.1378
X3.4449Y-2.6181
X3.4449Y-5.0984
X3.4449Y-7.5787
X3.7993Y-1.8504
X3.7993Y-4.3307
X3.7993Y-6.811
X3.7993Y-9.2913
X4.0552Y-0.5512
X4.0552Y-3.0315
X4.0552Y-5.5118
X4.0552Y-7.9921
X5.1378Y-0.1378
X5.1378Y-2.6181
X5.1378Y-5.0984
X5.1378Y-7.5787
X5.4922Y-1.8504
X5.4922Y-4.3307
X5.4922Y-6.811
X5.4922Y-9.2913
X5.7481Y-0.5512
X5.7481Y-3.0315
X5.7481Y-5.5118
X5.7481Y-7.9921
X6.8307Y-0.1378
X6.8307Y-2.6181
X6.8307Y-5.0984
X6.8307Y-7.5787
X7.1851Y-1.8504
X7.1851Y-4.3307
X7.1851Y-6.811
X7.1851Y-9.2913
X7.441Y-0.5512
X7.441Y-3.0315
X7.441Y-5.5118
X7.441Y-7.9921
X8.5237Y-0.1378
X8.5237Y-2.6181
X8.5237Y-5.0984
X8.5237Y-7.5787
T0
M30
