%TF.GenerationSoftware,KiCad,Pcbnew,(6.0.5)*%
%TF.CreationDate,2022-06-09T01:52:49-04:00*%
%TF.ProjectId,NoU2-panelized,4e6f5532-2d70-4616-9e65-6c697a65642e,rev?*%
%TF.SameCoordinates,Original*%
%TF.FileFunction,Other,Comment*%
%FSLAX46Y46*%
G04 Gerber Fmt 4.6, Leading zero omitted, Abs format (unit mm)*
G04 Created by KiCad (PCBNEW (6.0.5)) date 2022-06-09 01:52:49*
%MOMM*%
%LPD*%
G01*
G04 APERTURE LIST*
%ADD10C,0.150000*%
G04 APERTURE END LIST*
D10*
%TO.C,REF\u002A\u002A*%
X164200000Y-218000000D02*
G75*
G03*
X164200000Y-218000000I-3200000J0D01*
G01*
X105700000Y-81500000D02*
G75*
G03*
X105700000Y-81500000I-3200000J0D01*
G01*
X71700000Y-125000000D02*
G75*
G03*
X71700000Y-125000000I-3200000J0D01*
G01*
X191700000Y-81500000D02*
G75*
G03*
X191700000Y-81500000I-3200000J0D01*
G01*
X35200000Y-29000000D02*
G75*
G03*
X35200000Y-29000000I-3200000J0D01*
G01*
X35200000Y-155000000D02*
G75*
G03*
X35200000Y-155000000I-3200000J0D01*
G01*
X78200000Y-155000000D02*
G75*
G03*
X78200000Y-155000000I-3200000J0D01*
G01*
X234700000Y-144500000D02*
G75*
G03*
X234700000Y-144500000I-3200000J0D01*
G01*
X191700000Y-207500000D02*
G75*
G03*
X191700000Y-207500000I-3200000J0D01*
G01*
X71700000Y-188000000D02*
G75*
G03*
X71700000Y-188000000I-3200000J0D01*
G01*
X148700000Y-81500000D02*
G75*
G03*
X148700000Y-81500000I-3200000J0D01*
G01*
X200700000Y-62000000D02*
G75*
G03*
X200700000Y-62000000I-3200000J0D01*
G01*
X121200000Y-92000000D02*
G75*
G03*
X121200000Y-92000000I-3200000J0D01*
G01*
X200700000Y-188000000D02*
G75*
G03*
X200700000Y-188000000I-3200000J0D01*
G01*
X114700000Y-251000000D02*
G75*
G03*
X114700000Y-251000000I-3200000J0D01*
G01*
X164200000Y-155000000D02*
G75*
G03*
X164200000Y-155000000I-3200000J0D01*
G01*
X78200000Y-92000000D02*
G75*
G03*
X78200000Y-92000000I-3200000J0D01*
G01*
X28700000Y-188000000D02*
G75*
G03*
X28700000Y-188000000I-3200000J0D01*
G01*
X121200000Y-29000000D02*
G75*
G03*
X121200000Y-29000000I-3200000J0D01*
G01*
X234700000Y-81500000D02*
G75*
G03*
X234700000Y-81500000I-3200000J0D01*
G01*
X148700000Y-18500000D02*
G75*
G03*
X148700000Y-18500000I-3200000J0D01*
G01*
X157700000Y-125000000D02*
G75*
G03*
X157700000Y-125000000I-3200000J0D01*
G01*
X62700000Y-81500000D02*
G75*
G03*
X62700000Y-81500000I-3200000J0D01*
G01*
X114700000Y-125000000D02*
G75*
G03*
X114700000Y-125000000I-3200000J0D01*
G01*
X234700000Y-18500000D02*
G75*
G03*
X234700000Y-18500000I-3200000J0D01*
G01*
X105700000Y-144500000D02*
G75*
G03*
X105700000Y-144500000I-3200000J0D01*
G01*
X164200000Y-29000000D02*
G75*
G03*
X164200000Y-29000000I-3200000J0D01*
G01*
X157700000Y-188000000D02*
G75*
G03*
X157700000Y-188000000I-3200000J0D01*
G01*
X35200000Y-92000000D02*
G75*
G03*
X35200000Y-92000000I-3200000J0D01*
G01*
X200700000Y-125000000D02*
G75*
G03*
X200700000Y-125000000I-3200000J0D01*
G01*
X121200000Y-155000000D02*
G75*
G03*
X121200000Y-155000000I-3200000J0D01*
G01*
X78200000Y-218000000D02*
G75*
G03*
X78200000Y-218000000I-3200000J0D01*
G01*
X191700000Y-144500000D02*
G75*
G03*
X191700000Y-144500000I-3200000J0D01*
G01*
X157700000Y-251000000D02*
G75*
G03*
X157700000Y-251000000I-3200000J0D01*
G01*
X71700000Y-62000000D02*
G75*
G03*
X71700000Y-62000000I-3200000J0D01*
G01*
X114700000Y-62000000D02*
G75*
G03*
X114700000Y-62000000I-3200000J0D01*
G01*
X148700000Y-144500000D02*
G75*
G03*
X148700000Y-144500000I-3200000J0D01*
G01*
X148700000Y-207500000D02*
G75*
G03*
X148700000Y-207500000I-3200000J0D01*
G01*
X28700000Y-125000000D02*
G75*
G03*
X28700000Y-125000000I-3200000J0D01*
G01*
X105700000Y-207500000D02*
G75*
G03*
X105700000Y-207500000I-3200000J0D01*
G01*
X28700000Y-251000000D02*
G75*
G03*
X28700000Y-251000000I-3200000J0D01*
G01*
X62700000Y-18500000D02*
G75*
G03*
X62700000Y-18500000I-3200000J0D01*
G01*
X207200000Y-29000000D02*
G75*
G03*
X207200000Y-29000000I-3200000J0D01*
G01*
X35200000Y-218000000D02*
G75*
G03*
X35200000Y-218000000I-3200000J0D01*
G01*
X62700000Y-207500000D02*
G75*
G03*
X62700000Y-207500000I-3200000J0D01*
G01*
X28700000Y-62000000D02*
G75*
G03*
X28700000Y-62000000I-3200000J0D01*
G01*
X207200000Y-155000000D02*
G75*
G03*
X207200000Y-155000000I-3200000J0D01*
G01*
X71700000Y-251000000D02*
G75*
G03*
X71700000Y-251000000I-3200000J0D01*
G01*
X164200000Y-92000000D02*
G75*
G03*
X164200000Y-92000000I-3200000J0D01*
G01*
X62700000Y-144500000D02*
G75*
G03*
X62700000Y-144500000I-3200000J0D01*
G01*
X191700000Y-18500000D02*
G75*
G03*
X191700000Y-18500000I-3200000J0D01*
G01*
X78200000Y-29000000D02*
G75*
G03*
X78200000Y-29000000I-3200000J0D01*
G01*
X157700000Y-62000000D02*
G75*
G03*
X157700000Y-62000000I-3200000J0D01*
G01*
X234700000Y-207500000D02*
G75*
G03*
X234700000Y-207500000I-3200000J0D01*
G01*
X207200000Y-218000000D02*
G75*
G03*
X207200000Y-218000000I-3200000J0D01*
G01*
X200700000Y-251000000D02*
G75*
G03*
X200700000Y-251000000I-3200000J0D01*
G01*
X207200000Y-92000000D02*
G75*
G03*
X207200000Y-92000000I-3200000J0D01*
G01*
X121200000Y-218000000D02*
G75*
G03*
X121200000Y-218000000I-3200000J0D01*
G01*
X114700000Y-188000000D02*
G75*
G03*
X114700000Y-188000000I-3200000J0D01*
G01*
X105700000Y-18500000D02*
G75*
G03*
X105700000Y-18500000I-3200000J0D01*
G01*
%TD*%
M02*
