M48
; DRILL file {KiCad (7.0.0)} date Tue Apr 25 01:58:54 2023
; FORMAT={-:-/ absolute / inch / decimal}
; #@! TF.CreationDate,2023-04-25T01:58:54-04:00
; #@! TF.GenerationSoftware,Kicad,Pcbnew,(7.0.0)
; #@! TF.FileFunction,Plated,1,2,PTH
FMAT,2
INCH
; #@! TA.AperFunction,Plated,PTH,ViaDrill
T1C0.0120
; #@! TA.AperFunction,Plated,PTH,ViaDrill
T2C0.0157
; #@! TA.AperFunction,Plated,PTH,ComponentDrill
T3C0.0315
; #@! TA.AperFunction,Plated,PTH,ComponentDrill
T4C0.0354
; #@! TA.AperFunction,Plated,PTH,ComponentDrill
T5C0.0394
; #@! TA.AperFunction,Plated,PTH,ComponentDrill
T6C0.0400
; #@! TA.AperFunction,Plated,PTH,ComponentDrill
T7C0.0472
%
G90
G05
T1
X0.4416Y-1.685
X0.4416Y-4.1653
X0.4416Y-6.6456
X0.4416Y-9.1259
X0.5706Y-1.505
X0.5706Y-3.9853
X0.5706Y-6.4656
X0.5706Y-8.9459
X0.5796Y-1.255
X0.5796Y-3.7353
X0.5796Y-6.2156
X0.5796Y-8.6959
X0.6101Y-1.505
X0.6101Y-3.9853
X0.6101Y-6.4656
X0.6101Y-8.9459
X0.6216Y-1.435
X0.6216Y-3.9153
X0.6216Y-6.3956
X0.6216Y-8.8759
X0.6506Y-1.505
X0.6506Y-3.9853
X0.6506Y-6.4656
X0.6506Y-8.9459
X0.6546Y-1.196
X0.6546Y-3.6763
X0.6546Y-6.1566
X0.6546Y-8.6369
X0.6706Y-1.3495
X0.6706Y-3.8298
X0.6706Y-6.3101
X0.6706Y-8.7904
X0.6886Y-1.196
X0.6886Y-3.6763
X0.6886Y-6.1566
X0.6886Y-8.6369
X0.7036Y-1.35
X0.7036Y-3.8303
X0.7036Y-6.3106
X0.7036Y-8.7909
X0.7386Y-1.685
X0.7386Y-4.1653
X0.7386Y-6.6456
X0.7386Y-9.1259
X0.8006Y-1.1
X0.8006Y-3.5803
X0.8006Y-6.0606
X0.8006Y-8.5409
X0.8076Y-1.3497
X0.8076Y-3.83
X0.8076Y-6.3104
X0.8076Y-8.7907
X0.8396Y-1.35
X0.8396Y-3.8303
X0.8396Y-6.3106
X0.8396Y-8.7909
X0.8606Y-1.505
X0.8606Y-3.9853
X0.8606Y-6.4656
X0.8606Y-8.9459
X0.8756Y-0.975
X0.8756Y-1.02
X0.8756Y-1.065
X0.8756Y-3.4553
X0.8756Y-3.5003
X0.8756Y-3.5453
X0.8756Y-5.9356
X0.8756Y-5.9806
X0.8756Y-6.0256
X0.8756Y-8.4159
X0.8756Y-8.4609
X0.8756Y-8.5059
X0.9006Y-1.505
X0.9006Y-3.9853
X0.9006Y-6.4656
X0.9006Y-8.9459
X0.9116Y-0.696
X0.9116Y-3.1763
X0.9116Y-5.6566
X0.9116Y-8.1369
X0.9336Y-1.255
X0.9336Y-3.7353
X0.9336Y-6.2156
X0.9336Y-8.6959
X0.9406Y-1.505
X0.9406Y-3.9853
X0.9406Y-6.4656
X0.9406Y-8.9459
X0.9456Y-0.696
X0.9456Y-3.1763
X0.9456Y-5.6566
X0.9456Y-8.1369
X0.9606Y-1.349
X0.9606Y-3.8293
X0.9606Y-6.3096
X0.9606Y-8.7899
X0.9656Y-0.54
X0.9656Y-3.0203
X0.9656Y-5.5006
X0.9656Y-7.9809
X0.9706Y-1.2778
X0.9706Y-3.7581
X0.9706Y-6.2384
X0.9706Y-8.7187
X0.9936Y-0.61
X0.9936Y-3.0903
X0.9936Y-5.5706
X0.9936Y-8.0509
X0.9957Y-1.3501
X0.9957Y-3.8304
X0.9957Y-6.3107
X0.9957Y-8.791
X0.9996Y-0.988
X0.9996Y-3.4683
X0.9996Y-5.9486
X0.9996Y-8.4289
X1.0006Y-0.73
X1.0006Y-3.2103
X1.0006Y-5.6906
X1.0006Y-8.1709
X1.0056Y-0.54
X1.0056Y-1.2778
X1.0056Y-3.0203
X1.0056Y-3.7581
X1.0056Y-5.5006
X1.0056Y-6.2384
X1.0056Y-7.9809
X1.0056Y-8.7187
X1.0406Y-1.2778
X1.0406Y-3.7581
X1.0406Y-6.2384
X1.0406Y-8.7187
X1.0456Y-0.54
X1.0456Y-3.0203
X1.0456Y-5.5006
X1.0456Y-7.9809
X1.0656Y-0.696
X1.0656Y-3.1763
X1.0656Y-5.6566
X1.0656Y-8.1369
X1.0996Y-0.696
X1.0996Y-3.1763
X1.0996Y-5.6566
X1.0996Y-8.1369
X1.1506Y-1.97
X1.1506Y-4.4503
X1.1506Y-6.9306
X1.1506Y-9.4109
X1.1566Y-1.073
X1.1566Y-3.5533
X1.1566Y-6.0336
X1.1566Y-8.5139
X1.1956Y-0.61
X1.1956Y-3.0903
X1.1956Y-5.5706
X1.1956Y-8.0509
X1.2346Y-1.8166
X1.2346Y-4.2969
X1.2346Y-6.7772
X1.2346Y-9.2575
X1.3076Y-1.511
X1.3076Y-3.9913
X1.3076Y-6.4716
X1.3076Y-8.9519
X1.3086Y-1.01
X1.3086Y-3.4903
X1.3086Y-5.9706
X1.3086Y-8.4509
X1.3836Y-1.511
X1.3836Y-3.9913
X1.3836Y-6.4716
X1.3836Y-8.9519
X1.5826Y-1.01
X1.5826Y-3.4903
X1.5826Y-5.9706
X1.5826Y-8.4509
X2.1345Y-1.685
X2.1345Y-4.1653
X2.1345Y-6.6456
X2.1345Y-9.1259
X2.2635Y-1.505
X2.2635Y-3.9853
X2.2635Y-6.4656
X2.2635Y-8.9459
X2.2725Y-1.255
X2.2725Y-3.7353
X2.2725Y-6.2156
X2.2725Y-8.6959
X2.303Y-1.505
X2.303Y-3.9853
X2.303Y-6.4656
X2.303Y-8.9459
X2.3145Y-1.435
X2.3145Y-3.9153
X2.3145Y-6.3956
X2.3145Y-8.8759
X2.3435Y-1.505
X2.3435Y-3.9853
X2.3435Y-6.4656
X2.3435Y-8.9459
X2.3475Y-1.196
X2.3475Y-3.6763
X2.3475Y-6.1566
X2.3475Y-8.6369
X2.3635Y-1.3495
X2.3635Y-3.8298
X2.3635Y-6.3101
X2.3635Y-8.7904
X2.3815Y-1.196
X2.3815Y-3.6763
X2.3815Y-6.1566
X2.3815Y-8.6369
X2.3965Y-1.35
X2.3965Y-3.8303
X2.3965Y-6.3106
X2.3965Y-8.7909
X2.4315Y-1.685
X2.4315Y-4.1653
X2.4315Y-6.6456
X2.4315Y-9.1259
X2.4935Y-1.1
X2.4935Y-3.5803
X2.4935Y-6.0606
X2.4935Y-8.5409
X2.5005Y-1.3497
X2.5005Y-3.83
X2.5005Y-6.3104
X2.5005Y-8.7907
X2.5325Y-1.35
X2.5325Y-3.8303
X2.5325Y-6.3106
X2.5325Y-8.7909
X2.5535Y-1.505
X2.5535Y-3.9853
X2.5535Y-6.4656
X2.5535Y-8.9459
X2.5685Y-0.975
X2.5685Y-1.02
X2.5685Y-1.065
X2.5685Y-3.4553
X2.5685Y-3.5003
X2.5685Y-3.5453
X2.5685Y-5.9356
X2.5685Y-5.9806
X2.5685Y-6.0256
X2.5685Y-8.4159
X2.5685Y-8.4609
X2.5685Y-8.5059
X2.5935Y-1.505
X2.5935Y-3.9853
X2.5935Y-6.4656
X2.5935Y-8.9459
X2.6045Y-0.696
X2.6045Y-3.1763
X2.6045Y-5.6566
X2.6045Y-8.1369
X2.6265Y-1.255
X2.6265Y-3.7353
X2.6265Y-6.2156
X2.6265Y-8.6959
X2.6335Y-1.505
X2.6335Y-3.9853
X2.6335Y-6.4656
X2.6335Y-8.9459
X2.6385Y-0.696
X2.6385Y-3.1763
X2.6385Y-5.6566
X2.6385Y-8.1369
X2.6535Y-1.349
X2.6535Y-3.8293
X2.6535Y-6.3096
X2.6535Y-8.7899
X2.6585Y-0.54
X2.6585Y-3.0203
X2.6585Y-5.5006
X2.6585Y-7.9809
X2.6635Y-1.2778
X2.6635Y-3.7581
X2.6635Y-6.2384
X2.6635Y-8.7187
X2.6865Y-0.61
X2.6865Y-3.0903
X2.6865Y-5.5706
X2.6865Y-8.0509
X2.6886Y-1.3501
X2.6886Y-3.8304
X2.6886Y-6.3107
X2.6886Y-8.791
X2.6925Y-0.988
X2.6925Y-3.4683
X2.6925Y-5.9486
X2.6925Y-8.4289
X2.6935Y-0.73
X2.6935Y-3.2103
X2.6935Y-5.6906
X2.6935Y-8.1709
X2.6985Y-0.54
X2.6985Y-1.2778
X2.6985Y-3.0203
X2.6985Y-3.7581
X2.6985Y-5.5006
X2.6985Y-6.2384
X2.6985Y-7.9809
X2.6985Y-8.7187
X2.7335Y-1.2778
X2.7335Y-3.7581
X2.7335Y-6.2384
X2.7335Y-8.7187
X2.7385Y-0.54
X2.7385Y-3.0203
X2.7385Y-5.5006
X2.7385Y-7.9809
X2.7585Y-0.696
X2.7585Y-3.1763
X2.7585Y-5.6566
X2.7585Y-8.1369
X2.7925Y-0.696
X2.7925Y-3.1763
X2.7925Y-5.6566
X2.7925Y-8.1369
X2.8435Y-1.97
X2.8435Y-4.4503
X2.8435Y-6.9306
X2.8435Y-9.4109
X2.8495Y-1.073
X2.8495Y-3.5533
X2.8495Y-6.0336
X2.8495Y-8.5139
X2.8885Y-0.61
X2.8885Y-3.0903
X2.8885Y-5.5706
X2.8885Y-8.0509
X2.9275Y-1.8166
X2.9275Y-4.2969
X2.9275Y-6.7772
X2.9275Y-9.2575
X3.0005Y-1.511
X3.0005Y-3.9913
X3.0005Y-6.4716
X3.0005Y-8.9519
X3.0015Y-1.01
X3.0015Y-3.4903
X3.0015Y-5.9706
X3.0015Y-8.4509
X3.0765Y-1.511
X3.0765Y-3.9913
X3.0765Y-6.4716
X3.0765Y-8.9519
X3.2755Y-1.01
X3.2755Y-3.4903
X3.2755Y-5.9706
X3.2755Y-8.4509
X3.8275Y-1.685
X3.8275Y-4.1653
X3.8275Y-6.6456
X3.8275Y-9.1259
X3.9565Y-1.505
X3.9565Y-3.9853
X3.9565Y-6.4656
X3.9565Y-8.9459
X3.9655Y-1.255
X3.9655Y-3.7353
X3.9655Y-6.2156
X3.9655Y-8.6959
X3.9959Y-1.505
X3.9959Y-3.9853
X3.9959Y-6.4656
X3.9959Y-8.9459
X4.0075Y-1.435
X4.0075Y-3.9153
X4.0075Y-6.3956
X4.0075Y-8.8759
X4.0365Y-1.505
X4.0365Y-3.9853
X4.0365Y-6.4656
X4.0365Y-8.9459
X4.0405Y-1.196
X4.0405Y-3.6763
X4.0405Y-6.1566
X4.0405Y-8.6369
X4.0565Y-1.3495
X4.0565Y-3.8298
X4.0565Y-6.3101
X4.0565Y-8.7904
X4.0745Y-1.196
X4.0745Y-3.6763
X4.0745Y-6.1566
X4.0745Y-8.6369
X4.0895Y-1.35
X4.0895Y-3.8303
X4.0895Y-6.3106
X4.0895Y-8.7909
X4.1245Y-1.685
X4.1245Y-4.1653
X4.1245Y-6.6456
X4.1245Y-9.1259
X4.1865Y-1.1
X4.1865Y-3.5803
X4.1865Y-6.0606
X4.1865Y-8.5409
X4.1935Y-1.3497
X4.1935Y-3.83
X4.1935Y-6.3104
X4.1935Y-8.7907
X4.2255Y-1.35
X4.2255Y-3.8303
X4.2255Y-6.3106
X4.2255Y-8.7909
X4.2465Y-1.505
X4.2465Y-3.9853
X4.2465Y-6.4656
X4.2465Y-8.9459
X4.2615Y-0.975
X4.2615Y-1.02
X4.2615Y-1.065
X4.2615Y-3.4553
X4.2615Y-3.5003
X4.2615Y-3.5453
X4.2615Y-5.9356
X4.2615Y-5.9806
X4.2615Y-6.0256
X4.2615Y-8.4159
X4.2615Y-8.4609
X4.2615Y-8.5059
X4.2865Y-1.505
X4.2865Y-3.9853
X4.2865Y-6.4656
X4.2865Y-8.9459
X4.2975Y-0.696
X4.2975Y-3.1763
X4.2975Y-5.6566
X4.2975Y-8.1369
X4.3195Y-1.255
X4.3195Y-3.7353
X4.3195Y-6.2156
X4.3195Y-8.6959
X4.3265Y-1.505
X4.3265Y-3.9853
X4.3265Y-6.4656
X4.3265Y-8.9459
X4.3315Y-0.696
X4.3315Y-3.1763
X4.3315Y-5.6566
X4.3315Y-8.1369
X4.3465Y-1.349
X4.3465Y-3.8293
X4.3465Y-6.3096
X4.3465Y-8.7899
X4.3515Y-0.54
X4.3515Y-3.0203
X4.3515Y-5.5006
X4.3515Y-7.9809
X4.3565Y-1.2778
X4.3565Y-3.7581
X4.3565Y-6.2384
X4.3565Y-8.7187
X4.3795Y-0.61
X4.3795Y-3.0903
X4.3795Y-5.5706
X4.3795Y-8.0509
X4.3815Y-1.3501
X4.3815Y-3.8304
X4.3815Y-6.3107
X4.3815Y-8.791
X4.3855Y-0.988
X4.3855Y-3.4683
X4.3855Y-5.9486
X4.3855Y-8.4289
X4.3865Y-0.73
X4.3865Y-3.2103
X4.3865Y-5.6906
X4.3865Y-8.1709
X4.3915Y-0.54
X4.3915Y-1.2778
X4.3915Y-3.0203
X4.3915Y-3.7581
X4.3915Y-5.5006
X4.3915Y-6.2384
X4.3915Y-7.9809
X4.3915Y-8.7187
X4.4265Y-1.2778
X4.4265Y-3.7581
X4.4265Y-6.2384
X4.4265Y-8.7187
X4.4315Y-0.54
X4.4315Y-3.0203
X4.4315Y-5.5006
X4.4315Y-7.9809
X4.4515Y-0.696
X4.4515Y-3.1763
X4.4515Y-5.6566
X4.4515Y-8.1369
X4.4855Y-0.696
X4.4855Y-3.1763
X4.4855Y-5.6566
X4.4855Y-8.1369
X4.5365Y-1.97
X4.5365Y-4.4503
X4.5365Y-6.9306
X4.5365Y-9.4109
X4.5425Y-1.073
X4.5425Y-3.5533
X4.5425Y-6.0336
X4.5425Y-8.5139
X4.5815Y-0.61
X4.5815Y-3.0903
X4.5815Y-5.5706
X4.5815Y-8.0509
X4.6205Y-1.8166
X4.6205Y-4.2969
X4.6205Y-6.7772
X4.6205Y-9.2575
X4.6935Y-1.511
X4.6935Y-3.9913
X4.6935Y-6.4716
X4.6935Y-8.9519
X4.6945Y-1.01
X4.6945Y-3.4903
X4.6945Y-5.9706
X4.6945Y-8.4509
X4.7695Y-1.511
X4.7695Y-3.9913
X4.7695Y-6.4716
X4.7695Y-8.9519
X4.9685Y-1.01
X4.9685Y-3.4903
X4.9685Y-5.9706
X4.9685Y-8.4509
X5.5204Y-1.685
X5.5204Y-4.1653
X5.5204Y-6.6456
X5.5204Y-9.1259
X5.6494Y-1.505
X5.6494Y-3.9853
X5.6494Y-6.4656
X5.6494Y-8.9459
X5.6584Y-1.255
X5.6584Y-3.7353
X5.6584Y-6.2156
X5.6584Y-8.6959
X5.6888Y-1.505
X5.6888Y-3.9853
X5.6888Y-6.4656
X5.6888Y-8.9459
X5.7004Y-1.435
X5.7004Y-3.9153
X5.7004Y-6.3956
X5.7004Y-8.8759
X5.7294Y-1.505
X5.7294Y-3.9853
X5.7294Y-6.4656
X5.7294Y-8.9459
X5.7334Y-1.196
X5.7334Y-3.6763
X5.7334Y-6.1566
X5.7334Y-8.6369
X5.7494Y-1.3495
X5.7494Y-3.8298
X5.7494Y-6.3101
X5.7494Y-8.7904
X5.7674Y-1.196
X5.7674Y-3.6763
X5.7674Y-6.1566
X5.7674Y-8.6369
X5.7824Y-1.35
X5.7824Y-3.8303
X5.7824Y-6.3106
X5.7824Y-8.7909
X5.8174Y-1.685
X5.8174Y-4.1653
X5.8174Y-6.6456
X5.8174Y-9.1259
X5.8794Y-1.1
X5.8794Y-3.5803
X5.8794Y-6.0606
X5.8794Y-8.5409
X5.8864Y-1.3497
X5.8864Y-3.83
X5.8864Y-6.3104
X5.8864Y-8.7907
X5.9184Y-1.35
X5.9184Y-3.8303
X5.9184Y-6.3106
X5.9184Y-8.7909
X5.9394Y-1.505
X5.9394Y-3.9853
X5.9394Y-6.4656
X5.9394Y-8.9459
X5.9544Y-0.975
X5.9544Y-1.02
X5.9544Y-1.065
X5.9544Y-3.4553
X5.9544Y-3.5003
X5.9544Y-3.5453
X5.9544Y-5.9356
X5.9544Y-5.9806
X5.9544Y-6.0256
X5.9544Y-8.4159
X5.9544Y-8.4609
X5.9544Y-8.5059
X5.9794Y-1.505
X5.9794Y-3.9853
X5.9794Y-6.4656
X5.9794Y-8.9459
X5.9904Y-0.696
X5.9904Y-3.1763
X5.9904Y-5.6566
X5.9904Y-8.1369
X6.0124Y-1.255
X6.0124Y-3.7353
X6.0124Y-6.2156
X6.0124Y-8.6959
X6.0194Y-1.505
X6.0194Y-3.9853
X6.0194Y-6.4656
X6.0194Y-8.9459
X6.0244Y-0.696
X6.0244Y-3.1763
X6.0244Y-5.6566
X6.0244Y-8.1369
X6.0394Y-1.349
X6.0394Y-3.8293
X6.0394Y-6.3096
X6.0394Y-8.7899
X6.0444Y-0.54
X6.0444Y-3.0203
X6.0444Y-5.5006
X6.0444Y-7.9809
X6.0494Y-1.2778
X6.0494Y-3.7581
X6.0494Y-6.2384
X6.0494Y-8.7187
X6.0724Y-0.61
X6.0724Y-3.0903
X6.0724Y-5.5706
X6.0724Y-8.0509
X6.0744Y-1.3501
X6.0744Y-3.8304
X6.0744Y-6.3107
X6.0744Y-8.791
X6.0784Y-0.988
X6.0784Y-3.4683
X6.0784Y-5.9486
X6.0784Y-8.4289
X6.0794Y-0.73
X6.0794Y-3.2103
X6.0794Y-5.6906
X6.0794Y-8.1709
X6.0844Y-0.54
X6.0844Y-1.2778
X6.0844Y-3.0203
X6.0844Y-3.7581
X6.0844Y-5.5006
X6.0844Y-6.2384
X6.0844Y-7.9809
X6.0844Y-8.7187
X6.1194Y-1.2778
X6.1194Y-3.7581
X6.1194Y-6.2384
X6.1194Y-8.7187
X6.1244Y-0.54
X6.1244Y-3.0203
X6.1244Y-5.5006
X6.1244Y-7.9809
X6.1444Y-0.696
X6.1444Y-3.1763
X6.1444Y-5.6566
X6.1444Y-8.1369
X6.1784Y-0.696
X6.1784Y-3.1763
X6.1784Y-5.6566
X6.1784Y-8.1369
X6.2294Y-1.97
X6.2294Y-4.4503
X6.2294Y-6.9306
X6.2294Y-9.4109
X6.2354Y-1.073
X6.2354Y-3.5533
X6.2354Y-6.0336
X6.2354Y-8.5139
X6.2744Y-0.61
X6.2744Y-3.0903
X6.2744Y-5.5706
X6.2744Y-8.0509
X6.3134Y-1.8166
X6.3134Y-4.2969
X6.3134Y-6.7772
X6.3134Y-9.2575
X6.3864Y-1.511
X6.3864Y-3.9913
X6.3864Y-6.4716
X6.3864Y-8.9519
X6.3874Y-1.01
X6.3874Y-3.4903
X6.3874Y-5.9706
X6.3874Y-8.4509
X6.4624Y-1.511
X6.4624Y-3.9913
X6.4624Y-6.4716
X6.4624Y-8.9519
X6.6614Y-1.01
X6.6614Y-3.4903
X6.6614Y-5.9706
X6.6614Y-8.4509
X7.2133Y-1.685
X7.2133Y-4.1653
X7.2133Y-6.6456
X7.2133Y-9.1259
X7.3423Y-1.505
X7.3423Y-3.9853
X7.3423Y-6.4656
X7.3423Y-8.9459
X7.3513Y-1.255
X7.3513Y-3.7353
X7.3513Y-6.2156
X7.3513Y-8.6959
X7.3817Y-1.505
X7.3817Y-3.9853
X7.3817Y-6.4656
X7.3817Y-8.9459
X7.3933Y-1.435
X7.3933Y-3.9153
X7.3933Y-6.3956
X7.3933Y-8.8759
X7.4223Y-1.505
X7.4223Y-3.9853
X7.4223Y-6.4656
X7.4223Y-8.9459
X7.4263Y-1.196
X7.4263Y-3.6763
X7.4263Y-6.1566
X7.4263Y-8.6369
X7.4423Y-1.3495
X7.4423Y-3.8298
X7.4423Y-6.3101
X7.4423Y-8.7904
X7.4603Y-1.196
X7.4603Y-3.6763
X7.4603Y-6.1566
X7.4603Y-8.6369
X7.4753Y-1.35
X7.4753Y-3.8303
X7.4753Y-6.3106
X7.4753Y-8.7909
X7.5103Y-1.685
X7.5103Y-4.1653
X7.5103Y-6.6456
X7.5103Y-9.1259
X7.5723Y-1.1
X7.5723Y-3.5803
X7.5723Y-6.0606
X7.5723Y-8.5409
X7.5793Y-1.3497
X7.5793Y-3.83
X7.5793Y-6.3104
X7.5793Y-8.7907
X7.6113Y-1.35
X7.6113Y-3.8303
X7.6113Y-6.3106
X7.6113Y-8.7909
X7.6323Y-1.505
X7.6323Y-3.9853
X7.6323Y-6.4656
X7.6323Y-8.9459
X7.6473Y-0.975
X7.6473Y-1.02
X7.6473Y-1.065
X7.6473Y-3.4553
X7.6473Y-3.5003
X7.6473Y-3.5453
X7.6473Y-5.9356
X7.6473Y-5.9806
X7.6473Y-6.0256
X7.6473Y-8.4159
X7.6473Y-8.4609
X7.6473Y-8.5059
X7.6723Y-1.505
X7.6723Y-3.9853
X7.6723Y-6.4656
X7.6723Y-8.9459
X7.6833Y-0.696
X7.6833Y-3.1763
X7.6833Y-5.6566
X7.6833Y-8.1369
X7.7053Y-1.255
X7.7053Y-3.7353
X7.7053Y-6.2156
X7.7053Y-8.6959
X7.7123Y-1.505
X7.7123Y-3.9853
X7.7123Y-6.4656
X7.7123Y-8.9459
X7.7173Y-0.696
X7.7173Y-3.1763
X7.7173Y-5.6566
X7.7173Y-8.1369
X7.7323Y-1.349
X7.7323Y-3.8293
X7.7323Y-6.3096
X7.7323Y-8.7899
X7.7373Y-0.54
X7.7373Y-3.0203
X7.7373Y-5.5006
X7.7373Y-7.9809
X7.7423Y-1.2778
X7.7423Y-3.7581
X7.7423Y-6.2384
X7.7423Y-8.7187
X7.7653Y-0.61
X7.7653Y-3.0903
X7.7653Y-5.5706
X7.7653Y-8.0509
X7.7674Y-1.3501
X7.7674Y-3.8304
X7.7674Y-6.3107
X7.7674Y-8.791
X7.7713Y-0.988
X7.7713Y-3.4683
X7.7713Y-5.9486
X7.7713Y-8.4289
X7.7723Y-0.73
X7.7723Y-3.2103
X7.7723Y-5.6906
X7.7723Y-8.1709
X7.7773Y-0.54
X7.7773Y-1.2778
X7.7773Y-3.0203
X7.7773Y-3.7581
X7.7773Y-5.5006
X7.7773Y-6.2384
X7.7773Y-7.9809
X7.7773Y-8.7187
X7.8123Y-1.2778
X7.8123Y-3.7581
X7.8123Y-6.2384
X7.8123Y-8.7187
X7.8173Y-0.54
X7.8173Y-3.0203
X7.8173Y-5.5006
X7.8173Y-7.9809
X7.8373Y-0.696
X7.8373Y-3.1763
X7.8373Y-5.6566
X7.8373Y-8.1369
X7.8713Y-0.696
X7.8713Y-3.1763
X7.8713Y-5.6566
X7.8713Y-8.1369
X7.9223Y-1.97
X7.9223Y-4.4503
X7.9223Y-6.9306
X7.9223Y-9.4109
X7.9283Y-1.073
X7.9283Y-3.5533
X7.9283Y-6.0336
X7.9283Y-8.5139
X7.9673Y-0.61
X7.9673Y-3.0903
X7.9673Y-5.5706
X7.9673Y-8.0509
X8.0063Y-1.8166
X8.0063Y-4.2969
X8.0063Y-6.7772
X8.0063Y-9.2575
X8.0793Y-1.511
X8.0793Y-3.9913
X8.0793Y-6.4716
X8.0793Y-8.9519
X8.0803Y-1.01
X8.0803Y-3.4903
X8.0803Y-5.9706
X8.0803Y-8.4509
X8.1553Y-1.511
X8.1553Y-3.9913
X8.1553Y-6.4716
X8.1553Y-8.9519
X8.3543Y-1.01
X8.3543Y-3.4903
X8.3543Y-5.9706
X8.3543Y-8.4509
T2
X1.6969Y-1.248
X1.6969Y-3.7283
X1.6969Y-6.2087
X1.6969Y-8.689
X1.7856Y-1.44
X1.7856Y-3.9203
X1.7856Y-6.4006
X1.7856Y-8.8809
X3.3898Y-1.248
X3.3898Y-3.7283
X3.3898Y-6.2087
X3.3898Y-8.689
X3.4785Y-1.44
X3.4785Y-3.9203
X3.4785Y-6.4006
X3.4785Y-8.8809
X5.0827Y-1.248
X5.0827Y-3.7283
X5.0827Y-6.2087
X5.0827Y-8.689
X5.1715Y-1.44
X5.1715Y-3.9203
X5.1715Y-6.4006
X5.1715Y-8.8809
X6.7756Y-1.248
X6.7756Y-3.7283
X6.7756Y-6.2087
X6.7756Y-8.689
X6.8644Y-1.44
X6.8644Y-3.9203
X6.8644Y-6.4006
X6.8644Y-8.8809
X8.4685Y-1.248
X8.4685Y-3.7283
X8.4685Y-6.2087
X8.4685Y-8.689
X8.5573Y-1.44
X8.5573Y-3.9203
X8.5573Y-6.4006
X8.5573Y-8.8809
T4
X1.4969Y-1.3414
X1.4969Y-1.5186
X1.4969Y-3.8217
X1.4969Y-3.9989
X1.4969Y-6.302
X1.4969Y-6.4792
X1.4969Y-8.7824
X1.4969Y-8.9595
X1.5756Y-1.3414
X1.5756Y-1.5186
X1.5756Y-3.8217
X1.5756Y-3.9989
X1.5756Y-6.302
X1.5756Y-6.4792
X1.5756Y-8.7824
X1.5756Y-8.9595
X1.6544Y-1.3414
X1.6544Y-1.5186
X1.6544Y-3.8217
X1.6544Y-3.9989
X1.6544Y-6.302
X1.6544Y-6.4792
X1.6544Y-8.7824
X1.6544Y-8.9595
X3.1898Y-1.3414
X3.1898Y-1.5186
X3.1898Y-3.8217
X3.1898Y-3.9989
X3.1898Y-6.302
X3.1898Y-6.4792
X3.1898Y-8.7824
X3.1898Y-8.9595
X3.2685Y-1.3414
X3.2685Y-1.5186
X3.2685Y-3.8217
X3.2685Y-3.9989
X3.2685Y-6.302
X3.2685Y-6.4792
X3.2685Y-8.7824
X3.2685Y-8.9595
X3.3473Y-1.3414
X3.3473Y-1.5186
X3.3473Y-3.8217
X3.3473Y-3.9989
X3.3473Y-6.302
X3.3473Y-6.4792
X3.3473Y-8.7824
X3.3473Y-8.9595
X4.8827Y-1.3414
X4.8827Y-1.5186
X4.8827Y-3.8217
X4.8827Y-3.9989
X4.8827Y-6.302
X4.8827Y-6.4792
X4.8827Y-8.7824
X4.8827Y-8.9595
X4.9615Y-1.3414
X4.9615Y-1.5186
X4.9615Y-3.8217
X4.9615Y-3.9989
X4.9615Y-6.302
X4.9615Y-6.4792
X4.9615Y-8.7824
X4.9615Y-8.9595
X5.0402Y-1.3414
X5.0402Y-1.5186
X5.0402Y-3.8217
X5.0402Y-3.9989
X5.0402Y-6.302
X5.0402Y-6.4792
X5.0402Y-8.7824
X5.0402Y-8.9595
X6.5756Y-1.3414
X6.5756Y-1.5186
X6.5756Y-3.8217
X6.5756Y-3.9989
X6.5756Y-6.302
X6.5756Y-6.4792
X6.5756Y-8.7824
X6.5756Y-8.9595
X6.6544Y-1.3414
X6.6544Y-1.5186
X6.6544Y-3.8217
X6.6544Y-3.9989
X6.6544Y-6.302
X6.6544Y-6.4792
X6.6544Y-8.7824
X6.6544Y-8.9595
X6.7331Y-1.3414
X6.7331Y-1.5186
X6.7331Y-3.8217
X6.7331Y-3.9989
X6.7331Y-6.302
X6.7331Y-6.4792
X6.7331Y-8.7824
X6.7331Y-8.9595
X8.2685Y-1.3414
X8.2685Y-1.5186
X8.2685Y-3.8217
X8.2685Y-3.9989
X8.2685Y-6.302
X8.2685Y-6.4792
X8.2685Y-8.7824
X8.2685Y-8.9595
X8.3473Y-1.3414
X8.3473Y-1.5186
X8.3473Y-3.8217
X8.3473Y-3.9989
X8.3473Y-6.302
X8.3473Y-6.4792
X8.3473Y-8.7824
X8.3473Y-8.9595
X8.426Y-1.3414
X8.426Y-1.5186
X8.426Y-3.8217
X8.426Y-3.9989
X8.426Y-6.302
X8.426Y-6.4792
X8.426Y-8.7824
X8.426Y-8.9595
T5
X0.3456Y-0.26
X0.3456Y-0.36
X0.3456Y-0.46
X0.3456Y-0.56
X0.3456Y-0.66
X0.3456Y-0.76
X0.3456Y-0.86
X0.3456Y-0.96
X0.3456Y-1.06
X0.3456Y-1.16
X0.3456Y-1.26
X0.3456Y-1.36
X0.3456Y-1.46
X0.3456Y-1.56
X0.3456Y-1.66
X0.3456Y-2.7403
X0.3456Y-2.8403
X0.3456Y-2.9403
X0.3456Y-3.0403
X0.3456Y-3.1403
X0.3456Y-3.2403
X0.3456Y-3.3403
X0.3456Y-3.4403
X0.3456Y-3.5403
X0.3456Y-3.6403
X0.3456Y-3.7403
X0.3456Y-3.8403
X0.3456Y-3.9403
X0.3456Y-4.0403
X0.3456Y-4.1403
X0.3456Y-5.2206
X0.3456Y-5.3206
X0.3456Y-5.4206
X0.3456Y-5.5206
X0.3456Y-5.6206
X0.3456Y-5.7206
X0.3456Y-5.8206
X0.3456Y-5.9206
X0.3456Y-6.0206
X0.3456Y-6.1206
X0.3456Y-6.2206
X0.3456Y-6.3206
X0.3456Y-6.4206
X0.3456Y-6.5206
X0.3456Y-6.6206
X0.3456Y-7.7009
X0.3456Y-7.8009
X0.3456Y-7.9009
X0.3456Y-8.0009
X0.3456Y-8.1009
X0.3456Y-8.2009
X0.3456Y-8.3009
X0.3456Y-8.4009
X0.3456Y-8.5009
X0.3456Y-8.6009
X0.3456Y-8.7009
X0.3456Y-8.8009
X0.3456Y-8.9009
X0.3456Y-9.0009
X0.3456Y-9.1009
X0.4956Y-0.46
X0.4956Y-0.56
X0.4956Y-0.66
X0.4956Y-0.76
X0.4956Y-0.86
X0.4956Y-0.96
X0.4956Y-2.9403
X0.4956Y-3.0403
X0.4956Y-3.1403
X0.4956Y-3.2403
X0.4956Y-3.3403
X0.4956Y-3.4403
X0.4956Y-5.4206
X0.4956Y-5.5206
X0.4956Y-5.6206
X0.4956Y-5.7206
X0.4956Y-5.8206
X0.4956Y-5.9206
X0.4956Y-7.9009
X0.4956Y-8.0009
X0.4956Y-8.1009
X0.4956Y-8.2009
X0.4956Y-8.3009
X0.4956Y-8.4009
X1.3456Y-0.2598
X1.3456Y-0.3598
X1.3456Y-0.4598
X1.3456Y-0.5598
X1.3456Y-0.6598
X1.3456Y-0.7598
X1.3456Y-0.8598
X1.3456Y-0.9598
X1.3456Y-1.0598
X1.3456Y-1.1598
X1.3456Y-1.2598
X1.3456Y-1.3598
X1.3456Y-1.4598
X1.3456Y-1.5598
X1.3456Y-1.6598
X1.3456Y-2.7402
X1.3456Y-2.8402
X1.3456Y-2.9402
X1.3456Y-3.0402
X1.3456Y-3.1402
X1.3456Y-3.2402
X1.3456Y-3.3402
X1.3456Y-3.4402
X1.3456Y-3.5402
X1.3456Y-3.6402
X1.3456Y-3.7402
X1.3456Y-3.8402
X1.3456Y-3.9402
X1.3456Y-4.0402
X1.3456Y-4.1402
X1.3456Y-5.2205
X1.3456Y-5.3205
X1.3456Y-5.4205
X1.3456Y-5.5205
X1.3456Y-5.6205
X1.3456Y-5.7205
X1.3456Y-5.8205
X1.3456Y-5.9205
X1.3456Y-6.0205
X1.3456Y-6.1205
X1.3456Y-6.2205
X1.3456Y-6.3205
X1.3456Y-6.4205
X1.3456Y-6.5205
X1.3456Y-6.6205
X1.3456Y-7.7008
X1.3456Y-7.8008
X1.3456Y-7.9008
X1.3456Y-8.0008
X1.3456Y-8.1008
X1.3456Y-8.2008
X1.3456Y-8.3008
X1.3456Y-8.4008
X1.3456Y-8.5008
X1.3456Y-8.6008
X1.3456Y-8.7008
X1.3456Y-8.8008
X1.3456Y-8.9008
X1.3456Y-9.0008
X1.3456Y-9.1008
X1.5456Y-0.16
X1.5456Y-0.26
X1.5456Y-0.36
X1.5456Y-0.46
X1.5456Y-0.56
X1.5456Y-0.66
X1.5456Y-1.06
X1.5456Y-1.16
X1.5456Y-2.6403
X1.5456Y-2.7403
X1.5456Y-2.8403
X1.5456Y-2.9403
X1.5456Y-3.0403
X1.5456Y-3.1403
X1.5456Y-3.5403
X1.5456Y-3.6403
X1.5456Y-5.1206
X1.5456Y-5.2206
X1.5456Y-5.3206
X1.5456Y-5.4206
X1.5456Y-5.5206
X1.5456Y-5.6206
X1.5456Y-6.0206
X1.5456Y-6.1206
X1.5456Y-7.6009
X1.5456Y-7.7009
X1.5456Y-7.8009
X1.5456Y-7.9009
X1.5456Y-8.0009
X1.5456Y-8.1009
X1.5456Y-8.5009
X1.5456Y-8.6009
X1.5473Y-0.8594
X1.5473Y-0.9594
X1.5473Y-3.3398
X1.5473Y-3.4398
X1.5473Y-5.8201
X1.5473Y-5.9201
X1.5473Y-8.3004
X1.5473Y-8.4004
X1.6456Y-1.06
X1.6456Y-1.16
X1.6456Y-3.5403
X1.6456Y-3.6403
X1.6456Y-6.0206
X1.6456Y-6.1206
X1.6456Y-8.5009
X1.6456Y-8.6009
X1.6473Y-0.8594
X1.6473Y-0.9594
X1.6473Y-3.3398
X1.6473Y-3.4398
X1.6473Y-5.8201
X1.6473Y-5.9201
X1.6473Y-8.3004
X1.6473Y-8.4004
X1.7456Y-0.36
X1.7456Y-0.46
X1.7456Y-0.56
X1.7456Y-0.66
X1.7456Y-1.06
X1.7456Y-1.16
X1.7456Y-2.8403
X1.7456Y-2.9403
X1.7456Y-3.0403
X1.7456Y-3.1403
X1.7456Y-3.5403
X1.7456Y-3.6403
X1.7456Y-5.3206
X1.7456Y-5.4206
X1.7456Y-5.5206
X1.7456Y-5.6206
X1.7456Y-6.0206
X1.7456Y-6.1206
X1.7456Y-7.8009
X1.7456Y-7.9009
X1.7456Y-8.0009
X1.7456Y-8.1009
X1.7456Y-8.5009
X1.7456Y-8.6009
X1.7473Y-0.8594
X1.7473Y-0.9594
X1.7473Y-3.3398
X1.7473Y-3.4398
X1.7473Y-5.8201
X1.7473Y-5.9201
X1.7473Y-8.3004
X1.7473Y-8.4004
X2.0385Y-0.26
X2.0385Y-0.36
X2.0385Y-0.46
X2.0385Y-0.56
X2.0385Y-0.66
X2.0385Y-0.76
X2.0385Y-0.86
X2.0385Y-0.96
X2.0385Y-1.06
X2.0385Y-1.16
X2.0385Y-1.26
X2.0385Y-1.36
X2.0385Y-1.46
X2.0385Y-1.56
X2.0385Y-1.66
X2.0385Y-2.7403
X2.0385Y-2.8403
X2.0385Y-2.9403
X2.0385Y-3.0403
X2.0385Y-3.1403
X2.0385Y-3.2403
X2.0385Y-3.3403
X2.0385Y-3.4403
X2.0385Y-3.5403
X2.0385Y-3.6403
X2.0385Y-3.7403
X2.0385Y-3.8403
X2.0385Y-3.9403
X2.0385Y-4.0403
X2.0385Y-4.1403
X2.0385Y-5.2206
X2.0385Y-5.3206
X2.0385Y-5.4206
X2.0385Y-5.5206
X2.0385Y-5.6206
X2.0385Y-5.7206
X2.0385Y-5.8206
X2.0385Y-5.9206
X2.0385Y-6.0206
X2.0385Y-6.1206
X2.0385Y-6.2206
X2.0385Y-6.3206
X2.0385Y-6.4206
X2.0385Y-6.5206
X2.0385Y-6.6206
X2.0385Y-7.7009
X2.0385Y-7.8009
X2.0385Y-7.9009
X2.0385Y-8.0009
X2.0385Y-8.1009
X2.0385Y-8.2009
X2.0385Y-8.3009
X2.0385Y-8.4009
X2.0385Y-8.5009
X2.0385Y-8.6009
X2.0385Y-8.7009
X2.0385Y-8.8009
X2.0385Y-8.9009
X2.0385Y-9.0009
X2.0385Y-9.1009
X2.1885Y-0.46
X2.1885Y-0.56
X2.1885Y-0.66
X2.1885Y-0.76
X2.1885Y-0.86
X2.1885Y-0.96
X2.1885Y-2.9403
X2.1885Y-3.0403
X2.1885Y-3.1403
X2.1885Y-3.2403
X2.1885Y-3.3403
X2.1885Y-3.4403
X2.1885Y-5.4206
X2.1885Y-5.5206
X2.1885Y-5.6206
X2.1885Y-5.7206
X2.1885Y-5.8206
X2.1885Y-5.9206
X2.1885Y-7.9009
X2.1885Y-8.0009
X2.1885Y-8.1009
X2.1885Y-8.2009
X2.1885Y-8.3009
X2.1885Y-8.4009
X3.0385Y-0.2598
X3.0385Y-0.3598
X3.0385Y-0.4598
X3.0385Y-0.5598
X3.0385Y-0.6598
X3.0385Y-0.7598
X3.0385Y-0.8598
X3.0385Y-0.9598
X3.0385Y-1.0598
X3.0385Y-1.1598
X3.0385Y-1.2598
X3.0385Y-1.3598
X3.0385Y-1.4598
X3.0385Y-1.5598
X3.0385Y-1.6598
X3.0385Y-2.7402
X3.0385Y-2.8402
X3.0385Y-2.9402
X3.0385Y-3.0402
X3.0385Y-3.1402
X3.0385Y-3.2402
X3.0385Y-3.3402
X3.0385Y-3.4402
X3.0385Y-3.5402
X3.0385Y-3.6402
X3.0385Y-3.7402
X3.0385Y-3.8402
X3.0385Y-3.9402
X3.0385Y-4.0402
X3.0385Y-4.1402
X3.0385Y-5.2205
X3.0385Y-5.3205
X3.0385Y-5.4205
X3.0385Y-5.5205
X3.0385Y-5.6205
X3.0385Y-5.7205
X3.0385Y-5.8205
X3.0385Y-5.9205
X3.0385Y-6.0205
X3.0385Y-6.1205
X3.0385Y-6.2205
X3.0385Y-6.3205
X3.0385Y-6.4205
X3.0385Y-6.5205
X3.0385Y-6.6205
X3.0385Y-7.7008
X3.0385Y-7.8008
X3.0385Y-7.9008
X3.0385Y-8.0008
X3.0385Y-8.1008
X3.0385Y-8.2008
X3.0385Y-8.3008
X3.0385Y-8.4008
X3.0385Y-8.5008
X3.0385Y-8.6008
X3.0385Y-8.7008
X3.0385Y-8.8008
X3.0385Y-8.9008
X3.0385Y-9.0008
X3.0385Y-9.1008
X3.2385Y-0.16
X3.2385Y-0.26
X3.2385Y-0.36
X3.2385Y-0.46
X3.2385Y-0.56
X3.2385Y-0.66
X3.2385Y-1.06
X3.2385Y-1.16
X3.2385Y-2.6403
X3.2385Y-2.7403
X3.2385Y-2.8403
X3.2385Y-2.9403
X3.2385Y-3.0403
X3.2385Y-3.1403
X3.2385Y-3.5403
X3.2385Y-3.6403
X3.2385Y-5.1206
X3.2385Y-5.2206
X3.2385Y-5.3206
X3.2385Y-5.4206
X3.2385Y-5.5206
X3.2385Y-5.6206
X3.2385Y-6.0206
X3.2385Y-6.1206
X3.2385Y-7.6009
X3.2385Y-7.7009
X3.2385Y-7.8009
X3.2385Y-7.9009
X3.2385Y-8.0009
X3.2385Y-8.1009
X3.2385Y-8.5009
X3.2385Y-8.6009
X3.2402Y-0.8594
X3.2402Y-0.9594
X3.2402Y-3.3398
X3.2402Y-3.4398
X3.2402Y-5.8201
X3.2402Y-5.9201
X3.2402Y-8.3004
X3.2402Y-8.4004
X3.3385Y-1.06
X3.3385Y-1.16
X3.3385Y-3.5403
X3.3385Y-3.6403
X3.3385Y-6.0206
X3.3385Y-6.1206
X3.3385Y-8.5009
X3.3385Y-8.6009
X3.3402Y-0.8594
X3.3402Y-0.9594
X3.3402Y-3.3398
X3.3402Y-3.4398
X3.3402Y-5.8201
X3.3402Y-5.9201
X3.3402Y-8.3004
X3.3402Y-8.4004
X3.4385Y-0.36
X3.4385Y-0.46
X3.4385Y-0.56
X3.4385Y-0.66
X3.4385Y-1.06
X3.4385Y-1.16
X3.4385Y-2.8403
X3.4385Y-2.9403
X3.4385Y-3.0403
X3.4385Y-3.1403
X3.4385Y-3.5403
X3.4385Y-3.6403
X3.4385Y-5.3206
X3.4385Y-5.4206
X3.4385Y-5.5206
X3.4385Y-5.6206
X3.4385Y-6.0206
X3.4385Y-6.1206
X3.4385Y-7.8009
X3.4385Y-7.9009
X3.4385Y-8.0009
X3.4385Y-8.1009
X3.4385Y-8.5009
X3.4385Y-8.6009
X3.4402Y-0.8594
X3.4402Y-0.9594
X3.4402Y-3.3398
X3.4402Y-3.4398
X3.4402Y-5.8201
X3.4402Y-5.9201
X3.4402Y-8.3004
X3.4402Y-8.4004
X3.7315Y-0.26
X3.7315Y-0.36
X3.7315Y-0.46
X3.7315Y-0.56
X3.7315Y-0.66
X3.7315Y-0.76
X3.7315Y-0.86
X3.7315Y-0.96
X3.7315Y-1.06
X3.7315Y-1.16
X3.7315Y-1.26
X3.7315Y-1.36
X3.7315Y-1.46
X3.7315Y-1.56
X3.7315Y-1.66
X3.7315Y-2.7403
X3.7315Y-2.8403
X3.7315Y-2.9403
X3.7315Y-3.0403
X3.7315Y-3.1403
X3.7315Y-3.2403
X3.7315Y-3.3403
X3.7315Y-3.4403
X3.7315Y-3.5403
X3.7315Y-3.6403
X3.7315Y-3.7403
X3.7315Y-3.8403
X3.7315Y-3.9403
X3.7315Y-4.0403
X3.7315Y-4.1403
X3.7315Y-5.2206
X3.7315Y-5.3206
X3.7315Y-5.4206
X3.7315Y-5.5206
X3.7315Y-5.6206
X3.7315Y-5.7206
X3.7315Y-5.8206
X3.7315Y-5.9206
X3.7315Y-6.0206
X3.7315Y-6.1206
X3.7315Y-6.2206
X3.7315Y-6.3206
X3.7315Y-6.4206
X3.7315Y-6.5206
X3.7315Y-6.6206
X3.7315Y-7.7009
X3.7315Y-7.8009
X3.7315Y-7.9009
X3.7315Y-8.0009
X3.7315Y-8.1009
X3.7315Y-8.2009
X3.7315Y-8.3009
X3.7315Y-8.4009
X3.7315Y-8.5009
X3.7315Y-8.6009
X3.7315Y-8.7009
X3.7315Y-8.8009
X3.7315Y-8.9009
X3.7315Y-9.0009
X3.7315Y-9.1009
X3.8815Y-0.46
X3.8815Y-0.56
X3.8815Y-0.66
X3.8815Y-0.76
X3.8815Y-0.86
X3.8815Y-0.96
X3.8815Y-2.9403
X3.8815Y-3.0403
X3.8815Y-3.1403
X3.8815Y-3.2403
X3.8815Y-3.3403
X3.8815Y-3.4403
X3.8815Y-5.4206
X3.8815Y-5.5206
X3.8815Y-5.6206
X3.8815Y-5.7206
X3.8815Y-5.8206
X3.8815Y-5.9206
X3.8815Y-7.9009
X3.8815Y-8.0009
X3.8815Y-8.1009
X3.8815Y-8.2009
X3.8815Y-8.3009
X3.8815Y-8.4009
X4.7315Y-0.2598
X4.7315Y-0.3598
X4.7315Y-0.4598
X4.7315Y-0.5598
X4.7315Y-0.6598
X4.7315Y-0.7598
X4.7315Y-0.8598
X4.7315Y-0.9598
X4.7315Y-1.0598
X4.7315Y-1.1598
X4.7315Y-1.2598
X4.7315Y-1.3598
X4.7315Y-1.4598
X4.7315Y-1.5598
X4.7315Y-1.6598
X4.7315Y-2.7402
X4.7315Y-2.8402
X4.7315Y-2.9402
X4.7315Y-3.0402
X4.7315Y-3.1402
X4.7315Y-3.2402
X4.7315Y-3.3402
X4.7315Y-3.4402
X4.7315Y-3.5402
X4.7315Y-3.6402
X4.7315Y-3.7402
X4.7315Y-3.8402
X4.7315Y-3.9402
X4.7315Y-4.0402
X4.7315Y-4.1402
X4.7315Y-5.2205
X4.7315Y-5.3205
X4.7315Y-5.4205
X4.7315Y-5.5205
X4.7315Y-5.6205
X4.7315Y-5.7205
X4.7315Y-5.8205
X4.7315Y-5.9205
X4.7315Y-6.0205
X4.7315Y-6.1205
X4.7315Y-6.2205
X4.7315Y-6.3205
X4.7315Y-6.4205
X4.7315Y-6.5205
X4.7315Y-6.6205
X4.7315Y-7.7008
X4.7315Y-7.8008
X4.7315Y-7.9008
X4.7315Y-8.0008
X4.7315Y-8.1008
X4.7315Y-8.2008
X4.7315Y-8.3008
X4.7315Y-8.4008
X4.7315Y-8.5008
X4.7315Y-8.6008
X4.7315Y-8.7008
X4.7315Y-8.8008
X4.7315Y-8.9008
X4.7315Y-9.0008
X4.7315Y-9.1008
X4.9315Y-0.16
X4.9315Y-0.26
X4.9315Y-0.36
X4.9315Y-0.46
X4.9315Y-0.56
X4.9315Y-0.66
X4.9315Y-1.06
X4.9315Y-1.16
X4.9315Y-2.6403
X4.9315Y-2.7403
X4.9315Y-2.8403
X4.9315Y-2.9403
X4.9315Y-3.0403
X4.9315Y-3.1403
X4.9315Y-3.5403
X4.9315Y-3.6403
X4.9315Y-5.1206
X4.9315Y-5.2206
X4.9315Y-5.3206
X4.9315Y-5.4206
X4.9315Y-5.5206
X4.9315Y-5.6206
X4.9315Y-6.0206
X4.9315Y-6.1206
X4.9315Y-7.6009
X4.9315Y-7.7009
X4.9315Y-7.8009
X4.9315Y-7.9009
X4.9315Y-8.0009
X4.9315Y-8.1009
X4.9315Y-8.5009
X4.9315Y-8.6009
X4.9331Y-0.8594
X4.9331Y-0.9594
X4.9331Y-3.3398
X4.9331Y-3.4398
X4.9331Y-5.8201
X4.9331Y-5.9201
X4.9331Y-8.3004
X4.9331Y-8.4004
X5.0315Y-1.06
X5.0315Y-1.16
X5.0315Y-3.5403
X5.0315Y-3.6403
X5.0315Y-6.0206
X5.0315Y-6.1206
X5.0315Y-8.5009
X5.0315Y-8.6009
X5.0331Y-0.8594
X5.0331Y-0.9594
X5.0331Y-3.3398
X5.0331Y-3.4398
X5.0331Y-5.8201
X5.0331Y-5.9201
X5.0331Y-8.3004
X5.0331Y-8.4004
X5.1315Y-0.36
X5.1315Y-0.46
X5.1315Y-0.56
X5.1315Y-0.66
X5.1315Y-1.06
X5.1315Y-1.16
X5.1315Y-2.8403
X5.1315Y-2.9403
X5.1315Y-3.0403
X5.1315Y-3.1403
X5.1315Y-3.5403
X5.1315Y-3.6403
X5.1315Y-5.3206
X5.1315Y-5.4206
X5.1315Y-5.5206
X5.1315Y-5.6206
X5.1315Y-6.0206
X5.1315Y-6.1206
X5.1315Y-7.8009
X5.1315Y-7.9009
X5.1315Y-8.0009
X5.1315Y-8.1009
X5.1315Y-8.5009
X5.1315Y-8.6009
X5.1331Y-0.8594
X5.1331Y-0.9594
X5.1331Y-3.3398
X5.1331Y-3.4398
X5.1331Y-5.8201
X5.1331Y-5.9201
X5.1331Y-8.3004
X5.1331Y-8.4004
X5.4244Y-0.26
X5.4244Y-0.36
X5.4244Y-0.46
X5.4244Y-0.56
X5.4244Y-0.66
X5.4244Y-0.76
X5.4244Y-0.86
X5.4244Y-0.96
X5.4244Y-1.06
X5.4244Y-1.16
X5.4244Y-1.26
X5.4244Y-1.36
X5.4244Y-1.46
X5.4244Y-1.56
X5.4244Y-1.66
X5.4244Y-2.7403
X5.4244Y-2.8403
X5.4244Y-2.9403
X5.4244Y-3.0403
X5.4244Y-3.1403
X5.4244Y-3.2403
X5.4244Y-3.3403
X5.4244Y-3.4403
X5.4244Y-3.5403
X5.4244Y-3.6403
X5.4244Y-3.7403
X5.4244Y-3.8403
X5.4244Y-3.9403
X5.4244Y-4.0403
X5.4244Y-4.1403
X5.4244Y-5.2206
X5.4244Y-5.3206
X5.4244Y-5.4206
X5.4244Y-5.5206
X5.4244Y-5.6206
X5.4244Y-5.7206
X5.4244Y-5.8206
X5.4244Y-5.9206
X5.4244Y-6.0206
X5.4244Y-6.1206
X5.4244Y-6.2206
X5.4244Y-6.3206
X5.4244Y-6.4206
X5.4244Y-6.5206
X5.4244Y-6.6206
X5.4244Y-7.7009
X5.4244Y-7.8009
X5.4244Y-7.9009
X5.4244Y-8.0009
X5.4244Y-8.1009
X5.4244Y-8.2009
X5.4244Y-8.3009
X5.4244Y-8.4009
X5.4244Y-8.5009
X5.4244Y-8.6009
X5.4244Y-8.7009
X5.4244Y-8.8009
X5.4244Y-8.9009
X5.4244Y-9.0009
X5.4244Y-9.1009
X5.5744Y-0.46
X5.5744Y-0.56
X5.5744Y-0.66
X5.5744Y-0.76
X5.5744Y-0.86
X5.5744Y-0.96
X5.5744Y-2.9403
X5.5744Y-3.0403
X5.5744Y-3.1403
X5.5744Y-3.2403
X5.5744Y-3.3403
X5.5744Y-3.4403
X5.5744Y-5.4206
X5.5744Y-5.5206
X5.5744Y-5.6206
X5.5744Y-5.7206
X5.5744Y-5.8206
X5.5744Y-5.9206
X5.5744Y-7.9009
X5.5744Y-8.0009
X5.5744Y-8.1009
X5.5744Y-8.2009
X5.5744Y-8.3009
X5.5744Y-8.4009
X6.4244Y-0.2598
X6.4244Y-0.3598
X6.4244Y-0.4598
X6.4244Y-0.5598
X6.4244Y-0.6598
X6.4244Y-0.7598
X6.4244Y-0.8598
X6.4244Y-0.9598
X6.4244Y-1.0598
X6.4244Y-1.1598
X6.4244Y-1.2598
X6.4244Y-1.3598
X6.4244Y-1.4598
X6.4244Y-1.5598
X6.4244Y-1.6598
X6.4244Y-2.7402
X6.4244Y-2.8402
X6.4244Y-2.9402
X6.4244Y-3.0402
X6.4244Y-3.1402
X6.4244Y-3.2402
X6.4244Y-3.3402
X6.4244Y-3.4402
X6.4244Y-3.5402
X6.4244Y-3.6402
X6.4244Y-3.7402
X6.4244Y-3.8402
X6.4244Y-3.9402
X6.4244Y-4.0402
X6.4244Y-4.1402
X6.4244Y-5.2205
X6.4244Y-5.3205
X6.4244Y-5.4205
X6.4244Y-5.5205
X6.4244Y-5.6205
X6.4244Y-5.7205
X6.4244Y-5.8205
X6.4244Y-5.9205
X6.4244Y-6.0205
X6.4244Y-6.1205
X6.4244Y-6.2205
X6.4244Y-6.3205
X6.4244Y-6.4205
X6.4244Y-6.5205
X6.4244Y-6.6205
X6.4244Y-7.7008
X6.4244Y-7.8008
X6.4244Y-7.9008
X6.4244Y-8.0008
X6.4244Y-8.1008
X6.4244Y-8.2008
X6.4244Y-8.3008
X6.4244Y-8.4008
X6.4244Y-8.5008
X6.4244Y-8.6008
X6.4244Y-8.7008
X6.4244Y-8.8008
X6.4244Y-8.9008
X6.4244Y-9.0008
X6.4244Y-9.1008
X6.6244Y-0.16
X6.6244Y-0.26
X6.6244Y-0.36
X6.6244Y-0.46
X6.6244Y-0.56
X6.6244Y-0.66
X6.6244Y-1.06
X6.6244Y-1.16
X6.6244Y-2.6403
X6.6244Y-2.7403
X6.6244Y-2.8403
X6.6244Y-2.9403
X6.6244Y-3.0403
X6.6244Y-3.1403
X6.6244Y-3.5403
X6.6244Y-3.6403
X6.6244Y-5.1206
X6.6244Y-5.2206
X6.6244Y-5.3206
X6.6244Y-5.4206
X6.6244Y-5.5206
X6.6244Y-5.6206
X6.6244Y-6.0206
X6.6244Y-6.1206
X6.6244Y-7.6009
X6.6244Y-7.7009
X6.6244Y-7.8009
X6.6244Y-7.9009
X6.6244Y-8.0009
X6.6244Y-8.1009
X6.6244Y-8.5009
X6.6244Y-8.6009
X6.626Y-0.8594
X6.626Y-0.9594
X6.626Y-3.3398
X6.626Y-3.4398
X6.626Y-5.8201
X6.626Y-5.9201
X6.626Y-8.3004
X6.626Y-8.4004
X6.7244Y-1.06
X6.7244Y-1.16
X6.7244Y-3.5403
X6.7244Y-3.6403
X6.7244Y-6.0206
X6.7244Y-6.1206
X6.7244Y-8.5009
X6.7244Y-8.6009
X6.726Y-0.8594
X6.726Y-0.9594
X6.726Y-3.3398
X6.726Y-3.4398
X6.726Y-5.8201
X6.726Y-5.9201
X6.726Y-8.3004
X6.726Y-8.4004
X6.8244Y-0.36
X6.8244Y-0.46
X6.8244Y-0.56
X6.8244Y-0.66
X6.8244Y-1.06
X6.8244Y-1.16
X6.8244Y-2.8403
X6.8244Y-2.9403
X6.8244Y-3.0403
X6.8244Y-3.1403
X6.8244Y-3.5403
X6.8244Y-3.6403
X6.8244Y-5.3206
X6.8244Y-5.4206
X6.8244Y-5.5206
X6.8244Y-5.6206
X6.8244Y-6.0206
X6.8244Y-6.1206
X6.8244Y-7.8009
X6.8244Y-7.9009
X6.8244Y-8.0009
X6.8244Y-8.1009
X6.8244Y-8.5009
X6.8244Y-8.6009
X6.826Y-0.8594
X6.826Y-0.9594
X6.826Y-3.3398
X6.826Y-3.4398
X6.826Y-5.8201
X6.826Y-5.9201
X6.826Y-8.3004
X6.826Y-8.4004
X7.1173Y-0.26
X7.1173Y-0.36
X7.1173Y-0.46
X7.1173Y-0.56
X7.1173Y-0.66
X7.1173Y-0.76
X7.1173Y-0.86
X7.1173Y-0.96
X7.1173Y-1.06
X7.1173Y-1.16
X7.1173Y-1.26
X7.1173Y-1.36
X7.1173Y-1.46
X7.1173Y-1.56
X7.1173Y-1.66
X7.1173Y-2.7403
X7.1173Y-2.8403
X7.1173Y-2.9403
X7.1173Y-3.0403
X7.1173Y-3.1403
X7.1173Y-3.2403
X7.1173Y-3.3403
X7.1173Y-3.4403
X7.1173Y-3.5403
X7.1173Y-3.6403
X7.1173Y-3.7403
X7.1173Y-3.8403
X7.1173Y-3.9403
X7.1173Y-4.0403
X7.1173Y-4.1403
X7.1173Y-5.2206
X7.1173Y-5.3206
X7.1173Y-5.4206
X7.1173Y-5.5206
X7.1173Y-5.6206
X7.1173Y-5.7206
X7.1173Y-5.8206
X7.1173Y-5.9206
X7.1173Y-6.0206
X7.1173Y-6.1206
X7.1173Y-6.2206
X7.1173Y-6.3206
X7.1173Y-6.4206
X7.1173Y-6.5206
X7.1173Y-6.6206
X7.1173Y-7.7009
X7.1173Y-7.8009
X7.1173Y-7.9009
X7.1173Y-8.0009
X7.1173Y-8.1009
X7.1173Y-8.2009
X7.1173Y-8.3009
X7.1173Y-8.4009
X7.1173Y-8.5009
X7.1173Y-8.6009
X7.1173Y-8.7009
X7.1173Y-8.8009
X7.1173Y-8.9009
X7.1173Y-9.0009
X7.1173Y-9.1009
X7.2673Y-0.46
X7.2673Y-0.56
X7.2673Y-0.66
X7.2673Y-0.76
X7.2673Y-0.86
X7.2673Y-0.96
X7.2673Y-2.9403
X7.2673Y-3.0403
X7.2673Y-3.1403
X7.2673Y-3.2403
X7.2673Y-3.3403
X7.2673Y-3.4403
X7.2673Y-5.4206
X7.2673Y-5.5206
X7.2673Y-5.6206
X7.2673Y-5.7206
X7.2673Y-5.8206
X7.2673Y-5.9206
X7.2673Y-7.9009
X7.2673Y-8.0009
X7.2673Y-8.1009
X7.2673Y-8.2009
X7.2673Y-8.3009
X7.2673Y-8.4009
X8.1173Y-0.2598
X8.1173Y-0.3598
X8.1173Y-0.4598
X8.1173Y-0.5598
X8.1173Y-0.6598
X8.1173Y-0.7598
X8.1173Y-0.8598
X8.1173Y-0.9598
X8.1173Y-1.0598
X8.1173Y-1.1598
X8.1173Y-1.2598
X8.1173Y-1.3598
X8.1173Y-1.4598
X8.1173Y-1.5598
X8.1173Y-1.6598
X8.1173Y-2.7402
X8.1173Y-2.8402
X8.1173Y-2.9402
X8.1173Y-3.0402
X8.1173Y-3.1402
X8.1173Y-3.2402
X8.1173Y-3.3402
X8.1173Y-3.4402
X8.1173Y-3.5402
X8.1173Y-3.6402
X8.1173Y-3.7402
X8.1173Y-3.8402
X8.1173Y-3.9402
X8.1173Y-4.0402
X8.1173Y-4.1402
X8.1173Y-5.2205
X8.1173Y-5.3205
X8.1173Y-5.4205
X8.1173Y-5.5205
X8.1173Y-5.6205
X8.1173Y-5.7205
X8.1173Y-5.8205
X8.1173Y-5.9205
X8.1173Y-6.0205
X8.1173Y-6.1205
X8.1173Y-6.2205
X8.1173Y-6.3205
X8.1173Y-6.4205
X8.1173Y-6.5205
X8.1173Y-6.6205
X8.1173Y-7.7008
X8.1173Y-7.8008
X8.1173Y-7.9008
X8.1173Y-8.0008
X8.1173Y-8.1008
X8.1173Y-8.2008
X8.1173Y-8.3008
X8.1173Y-8.4008
X8.1173Y-8.5008
X8.1173Y-8.6008
X8.1173Y-8.7008
X8.1173Y-8.8008
X8.1173Y-8.9008
X8.1173Y-9.0008
X8.1173Y-9.1008
X8.3173Y-0.16
X8.3173Y-0.26
X8.3173Y-0.36
X8.3173Y-0.46
X8.3173Y-0.56
X8.3173Y-0.66
X8.3173Y-1.06
X8.3173Y-1.16
X8.3173Y-2.6403
X8.3173Y-2.7403
X8.3173Y-2.8403
X8.3173Y-2.9403
X8.3173Y-3.0403
X8.3173Y-3.1403
X8.3173Y-3.5403
X8.3173Y-3.6403
X8.3173Y-5.1206
X8.3173Y-5.2206
X8.3173Y-5.3206
X8.3173Y-5.4206
X8.3173Y-5.5206
X8.3173Y-5.6206
X8.3173Y-6.0206
X8.3173Y-6.1206
X8.3173Y-7.6009
X8.3173Y-7.7009
X8.3173Y-7.8009
X8.3173Y-7.9009
X8.3173Y-8.0009
X8.3173Y-8.1009
X8.3173Y-8.5009
X8.3173Y-8.6009
X8.3189Y-0.8594
X8.3189Y-0.9594
X8.3189Y-3.3398
X8.3189Y-3.4398
X8.3189Y-5.8201
X8.3189Y-5.9201
X8.3189Y-8.3004
X8.3189Y-8.4004
X8.4173Y-1.06
X8.4173Y-1.16
X8.4173Y-3.5403
X8.4173Y-3.6403
X8.4173Y-6.0206
X8.4173Y-6.1206
X8.4173Y-8.5009
X8.4173Y-8.6009
X8.4189Y-0.8594
X8.4189Y-0.9594
X8.4189Y-3.3398
X8.4189Y-3.4398
X8.4189Y-5.8201
X8.4189Y-5.9201
X8.4189Y-8.3004
X8.4189Y-8.4004
X8.5173Y-0.36
X8.5173Y-0.46
X8.5173Y-0.56
X8.5173Y-0.66
X8.5173Y-1.06
X8.5173Y-1.16
X8.5173Y-2.8403
X8.5173Y-2.9403
X8.5173Y-3.0403
X8.5173Y-3.1403
X8.5173Y-3.5403
X8.5173Y-3.6403
X8.5173Y-5.3206
X8.5173Y-5.4206
X8.5173Y-5.5206
X8.5173Y-5.6206
X8.5173Y-6.0206
X8.5173Y-6.1206
X8.5173Y-7.8009
X8.5173Y-7.9009
X8.5173Y-8.0009
X8.5173Y-8.1009
X8.5173Y-8.5009
X8.5173Y-8.6009
X8.5189Y-0.8594
X8.5189Y-0.9594
X8.5189Y-3.3398
X8.5189Y-3.4398
X8.5189Y-5.8201
X8.5189Y-5.9201
X8.5189Y-8.3004
X8.5189Y-8.4004
T6
X1.1946Y-1.452
X1.1946Y-1.606
X1.1946Y-3.9323
X1.1946Y-4.0863
X1.1946Y-6.4126
X1.1946Y-6.5666
X1.1946Y-8.8929
X1.1946Y-9.0469
X2.8875Y-1.452
X2.8875Y-1.606
X2.8875Y-3.9323
X2.8875Y-4.0863
X2.8875Y-6.4126
X2.8875Y-6.5666
X2.8875Y-8.8929
X2.8875Y-9.0469
X4.5805Y-1.452
X4.5805Y-1.606
X4.5805Y-3.9323
X4.5805Y-4.0863
X4.5805Y-6.4126
X4.5805Y-6.5666
X4.5805Y-8.8929
X4.5805Y-9.0469
X6.2734Y-1.452
X6.2734Y-1.606
X6.2734Y-3.9323
X6.2734Y-4.0863
X6.2734Y-6.4126
X6.2734Y-6.5666
X6.2734Y-8.8929
X6.2734Y-9.0469
X7.9663Y-1.452
X7.9663Y-1.606
X7.9663Y-3.9323
X7.9663Y-4.0863
X7.9663Y-6.4126
X7.9663Y-6.5666
X7.9663Y-8.8929
X7.9663Y-9.0469
T7
X0.3832Y-2.1862
X0.3832Y-4.6665
X0.3832Y-7.1469
X0.3832Y-9.6272
X0.551Y-0.2184
X0.551Y-2.6987
X0.551Y-5.179
X0.551Y-7.6594
X0.58Y-2.1862
X0.58Y-4.6665
X0.58Y-7.1469
X0.58Y-9.6272
X0.7479Y-0.2184
X0.7479Y-2.6987
X0.7479Y-5.179
X0.7479Y-7.6594
X0.7832Y-2.1862
X0.7832Y-4.6665
X0.7832Y-7.1469
X0.7832Y-9.6272
X0.951Y-0.2184
X0.951Y-2.6987
X0.951Y-5.179
X0.951Y-7.6594
X0.98Y-2.1862
X0.98Y-4.6665
X0.98Y-7.1469
X0.98Y-9.6272
X1.1479Y-0.2184
X1.1479Y-2.6987
X1.1479Y-5.179
X1.1479Y-7.6594
X1.1832Y-2.1862
X1.1832Y-4.6665
X1.1832Y-7.1469
X1.1832Y-9.6272
X1.38Y-2.1862
X1.38Y-4.6665
X1.38Y-7.1469
X1.38Y-9.6272
X1.5832Y-2.1862
X1.5832Y-4.6665
X1.5832Y-7.1469
X1.5832Y-9.6272
X1.78Y-2.1862
X1.78Y-4.6665
X1.78Y-7.1469
X1.78Y-9.6272
X2.0761Y-2.1862
X2.0761Y-4.6665
X2.0761Y-7.1469
X2.0761Y-9.6272
X2.2439Y-0.2184
X2.2439Y-2.6987
X2.2439Y-5.179
X2.2439Y-7.6594
X2.273Y-2.1862
X2.273Y-4.6665
X2.273Y-7.1469
X2.273Y-9.6272
X2.4408Y-0.2184
X2.4408Y-2.6987
X2.4408Y-5.179
X2.4408Y-7.6594
X2.4761Y-2.1862
X2.4761Y-4.6665
X2.4761Y-7.1469
X2.4761Y-9.6272
X2.6439Y-0.2184
X2.6439Y-2.6987
X2.6439Y-5.179
X2.6439Y-7.6594
X2.673Y-2.1862
X2.673Y-4.6665
X2.673Y-7.1469
X2.673Y-9.6272
X2.8408Y-0.2184
X2.8408Y-2.6987
X2.8408Y-5.179
X2.8408Y-7.6594
X2.8761Y-2.1862
X2.8761Y-4.6665
X2.8761Y-7.1469
X2.8761Y-9.6272
X3.073Y-2.1862
X3.073Y-4.6665
X3.073Y-7.1469
X3.073Y-9.6272
X3.2761Y-2.1862
X3.2761Y-4.6665
X3.2761Y-7.1469
X3.2761Y-9.6272
X3.473Y-2.1862
X3.473Y-4.6665
X3.473Y-7.1469
X3.473Y-9.6272
X3.769Y-2.1862
X3.769Y-4.6665
X3.769Y-7.1469
X3.769Y-9.6272
X3.9368Y-0.2184
X3.9368Y-2.6987
X3.9368Y-5.179
X3.9368Y-7.6594
X3.9659Y-2.1862
X3.9659Y-4.6665
X3.9659Y-7.1469
X3.9659Y-9.6272
X4.1337Y-0.2184
X4.1337Y-2.6987
X4.1337Y-5.179
X4.1337Y-7.6594
X4.169Y-2.1862
X4.169Y-4.6665
X4.169Y-7.1469
X4.169Y-9.6272
X4.3368Y-0.2184
X4.3368Y-2.6987
X4.3368Y-5.179
X4.3368Y-7.6594
X4.3659Y-2.1862
X4.3659Y-4.6665
X4.3659Y-7.1469
X4.3659Y-9.6272
X4.5337Y-0.2184
X4.5337Y-2.6987
X4.5337Y-5.179
X4.5337Y-7.6594
X4.569Y-2.1862
X4.569Y-4.6665
X4.569Y-7.1469
X4.569Y-9.6272
X4.7659Y-2.1862
X4.7659Y-4.6665
X4.7659Y-7.1469
X4.7659Y-9.6272
X4.969Y-2.1862
X4.969Y-4.6665
X4.969Y-7.1469
X4.969Y-9.6272
X5.1659Y-2.1862
X5.1659Y-4.6665
X5.1659Y-7.1469
X5.1659Y-9.6272
X5.4619Y-2.1862
X5.4619Y-4.6665
X5.4619Y-7.1469
X5.4619Y-9.6272
X5.6298Y-0.2184
X5.6298Y-2.6987
X5.6298Y-5.179
X5.6298Y-7.6594
X5.6588Y-2.1862
X5.6588Y-4.6665
X5.6588Y-7.1469
X5.6588Y-9.6272
X5.8266Y-0.2184
X5.8266Y-2.6987
X5.8266Y-5.179
X5.8266Y-7.6594
X5.8619Y-2.1862
X5.8619Y-4.6665
X5.8619Y-7.1469
X5.8619Y-9.6272
X6.0298Y-0.2184
X6.0298Y-2.6987
X6.0298Y-5.179
X6.0298Y-7.6594
X6.0588Y-2.1862
X6.0588Y-4.6665
X6.0588Y-7.1469
X6.0588Y-9.6272
X6.2266Y-0.2184
X6.2266Y-2.6987
X6.2266Y-5.179
X6.2266Y-7.6594
X6.2619Y-2.1862
X6.2619Y-4.6665
X6.2619Y-7.1469
X6.2619Y-9.6272
X6.4588Y-2.1862
X6.4588Y-4.6665
X6.4588Y-7.1469
X6.4588Y-9.6272
X6.6619Y-2.1862
X6.6619Y-4.6665
X6.6619Y-7.1469
X6.6619Y-9.6272
X6.8588Y-2.1862
X6.8588Y-4.6665
X6.8588Y-7.1469
X6.8588Y-9.6272
X7.1548Y-2.1862
X7.1548Y-4.6665
X7.1548Y-7.1469
X7.1548Y-9.6272
X7.3227Y-0.2184
X7.3227Y-2.6987
X7.3227Y-5.179
X7.3227Y-7.6594
X7.3517Y-2.1862
X7.3517Y-4.6665
X7.3517Y-7.1469
X7.3517Y-9.6272
X7.5195Y-0.2184
X7.5195Y-2.6987
X7.5195Y-5.179
X7.5195Y-7.6594
X7.5548Y-2.1862
X7.5548Y-4.6665
X7.5548Y-7.1469
X7.5548Y-9.6272
X7.7227Y-0.2184
X7.7227Y-2.6987
X7.7227Y-5.179
X7.7227Y-7.6594
X7.7517Y-2.1862
X7.7517Y-4.6665
X7.7517Y-7.1469
X7.7517Y-9.6272
X7.9195Y-0.2184
X7.9195Y-2.6987
X7.9195Y-5.179
X7.9195Y-7.6594
X7.9548Y-2.1862
X7.9548Y-4.6665
X7.9548Y-7.1469
X7.9548Y-9.6272
X8.1517Y-2.1862
X8.1517Y-4.6665
X8.1517Y-7.1469
X8.1517Y-9.6272
X8.3548Y-2.1862
X8.3548Y-4.6665
X8.3548Y-7.1469
X8.3548Y-9.6272
X8.5517Y-2.1862
X8.5517Y-4.6665
X8.5517Y-7.1469
X8.5517Y-9.6272
T3
G00X1.4211Y-1.8622
M15
G01X1.4211Y-1.815
M16
G05
G00X1.4211Y-4.3425
M15
G01X1.4211Y-4.2953
M16
G05
G00X1.4211Y-6.8228
M15
G01X1.4211Y-6.7756
M16
G05
G00X1.4211Y-9.3031
M15
G01X1.4211Y-9.2559
M16
G05
G00X1.5451Y-1.6535
M15
G01X1.4979Y-1.6535
M16
G05
G00X1.5451Y-4.1339
M15
G01X1.4979Y-4.1339
M16
G05
G00X1.5451Y-6.6142
M15
G01X1.4979Y-6.6142
M16
G05
G00X1.5451Y-9.0945
M15
G01X1.4979Y-9.0945
M16
G05
G00X1.6829Y-1.8622
M15
G01X1.6829Y-1.815
M16
G05
G00X1.6829Y-4.3425
M15
G01X1.6829Y-4.2953
M16
G05
G00X1.6829Y-6.8228
M15
G01X1.6829Y-6.7756
M16
G05
G00X1.6829Y-9.3031
M15
G01X1.6829Y-9.2559
M16
G05
G00X3.114Y-1.8622
M15
G01X3.114Y-1.815
M16
G05
G00X3.114Y-4.3425
M15
G01X3.114Y-4.2953
M16
G05
G00X3.114Y-6.8228
M15
G01X3.114Y-6.7756
M16
G05
G00X3.114Y-9.3031
M15
G01X3.114Y-9.2559
M16
G05
G00X3.238Y-1.6535
M15
G01X3.1908Y-1.6535
M16
G05
G00X3.238Y-4.1339
M15
G01X3.1908Y-4.1339
M16
G05
G00X3.238Y-6.6142
M15
G01X3.1908Y-6.6142
M16
G05
G00X3.238Y-9.0945
M15
G01X3.1908Y-9.0945
M16
G05
G00X3.3758Y-1.8622
M15
G01X3.3758Y-1.815
M16
G05
G00X3.3758Y-4.3425
M15
G01X3.3758Y-4.2953
M16
G05
G00X3.3758Y-6.8228
M15
G01X3.3758Y-6.7756
M16
G05
G00X3.3758Y-9.3031
M15
G01X3.3758Y-9.2559
M16
G05
G00X4.8069Y-1.8622
M15
G01X4.8069Y-1.815
M16
G05
G00X4.8069Y-4.3425
M15
G01X4.8069Y-4.2953
M16
G05
G00X4.8069Y-6.8228
M15
G01X4.8069Y-6.7756
M16
G05
G00X4.8069Y-9.3031
M15
G01X4.8069Y-9.2559
M16
G05
G00X4.9309Y-1.6535
M15
G01X4.8837Y-1.6535
M16
G05
G00X4.9309Y-4.1339
M15
G01X4.8837Y-4.1339
M16
G05
G00X4.9309Y-6.6142
M15
G01X4.8837Y-6.6142
M16
G05
G00X4.9309Y-9.0945
M15
G01X4.8837Y-9.0945
M16
G05
G00X5.0687Y-1.8622
M15
G01X5.0687Y-1.815
M16
G05
G00X5.0687Y-4.3425
M15
G01X5.0687Y-4.2953
M16
G05
G00X5.0687Y-6.8228
M15
G01X5.0687Y-6.7756
M16
G05
G00X5.0687Y-9.3031
M15
G01X5.0687Y-9.2559
M16
G05
G00X6.4998Y-1.8622
M15
G01X6.4998Y-1.815
M16
G05
G00X6.4998Y-4.3425
M15
G01X6.4998Y-4.2953
M16
G05
G00X6.4998Y-6.8228
M15
G01X6.4998Y-6.7756
M16
G05
G00X6.4998Y-9.3031
M15
G01X6.4998Y-9.2559
M16
G05
G00X6.6239Y-1.6535
M15
G01X6.5766Y-1.6535
M16
G05
G00X6.6239Y-4.1339
M15
G01X6.5766Y-4.1339
M16
G05
G00X6.6239Y-6.6142
M15
G01X6.5766Y-6.6142
M16
G05
G00X6.6239Y-9.0945
M15
G01X6.5766Y-9.0945
M16
G05
G00X6.7617Y-1.8622
M15
G01X6.7617Y-1.815
M16
G05
G00X6.7617Y-4.3425
M15
G01X6.7617Y-4.2953
M16
G05
G00X6.7617Y-6.8228
M15
G01X6.7617Y-6.7756
M16
G05
G00X6.7617Y-9.3031
M15
G01X6.7617Y-9.2559
M16
G05
G00X8.1928Y-1.8622
M15
G01X8.1928Y-1.815
M16
G05
G00X8.1928Y-4.3425
M15
G01X8.1928Y-4.2953
M16
G05
G00X8.1928Y-6.8228
M15
G01X8.1928Y-6.7756
M16
G05
G00X8.1928Y-9.3031
M15
G01X8.1928Y-9.2559
M16
G05
G00X8.3168Y-1.6535
M15
G01X8.2695Y-1.6535
M16
G05
G00X8.3168Y-4.1339
M15
G01X8.2695Y-4.1339
M16
G05
G00X8.3168Y-6.6142
M15
G01X8.2695Y-6.6142
M16
G05
G00X8.3168Y-9.0945
M15
G01X8.2695Y-9.0945
M16
G05
G00X8.4546Y-1.8622
M15
G01X8.4546Y-1.815
M16
G05
G00X8.4546Y-4.3425
M15
G01X8.4546Y-4.2953
M16
G05
G00X8.4546Y-6.8228
M15
G01X8.4546Y-6.7756
M16
G05
G00X8.4546Y-9.3031
M15
G01X8.4546Y-9.2559
M16
G05
T0
M30
