%TF.GenerationSoftware,KiCad,Pcbnew,(6.0.5)*%
%TF.CreationDate,2022-06-07T03:25:40-04:00*%
%TF.ProjectId,NoU2-panelized,4e6f5532-2d70-4616-9e65-6c697a65642e,rev?*%
%TF.SameCoordinates,Original*%
%TF.FileFunction,Soldermask,Bot*%
%TF.FilePolarity,Negative*%
%FSLAX46Y46*%
G04 Gerber Fmt 4.6, Leading zero omitted, Abs format (unit mm)*
G04 Created by KiCad (PCBNEW (6.0.5)) date 2022-06-07 03:25:40*
%MOMM*%
%LPD*%
G01*
G04 APERTURE LIST*
G04 Aperture macros list*
%AMRoundRect*
0 Rectangle with rounded corners*
0 $1 Rounding radius*
0 $2 $3 $4 $5 $6 $7 $8 $9 X,Y pos of 4 corners*
0 Add a 4 corners polygon primitive as box body*
4,1,4,$2,$3,$4,$5,$6,$7,$8,$9,$2,$3,0*
0 Add four circle primitives for the rounded corners*
1,1,$1+$1,$2,$3*
1,1,$1+$1,$4,$5*
1,1,$1+$1,$6,$7*
1,1,$1+$1,$8,$9*
0 Add four rect primitives between the rounded corners*
20,1,$1+$1,$2,$3,$4,$5,0*
20,1,$1+$1,$4,$5,$6,$7,0*
20,1,$1+$1,$6,$7,$8,$9,0*
20,1,$1+$1,$8,$9,$2,$3,0*%
G04 Aperture macros list end*
%ADD10C,2.500000*%
%ADD11C,1.700000*%
%ADD12O,1.700000X1.700000*%
%ADD13C,3.200000*%
%ADD14C,0.500000*%
%ADD15C,2.032000*%
%ADD16RoundRect,1.000000X0.000000X0.800000X0.000000X0.800000X0.000000X-0.800000X0.000000X-0.800000X0*%
%ADD17RoundRect,1.000000X0.800000X0.000000X-0.800000X0.000000X-0.800000X0.000000X0.800000X0.000000X0*%
G04 APERTURE END LIST*
D10*
%TO.C,J8*%
X44225000Y-20207000D03*
X39145000Y-20207000D03*
X34065000Y-20207000D03*
X28985000Y-20207000D03*
%TD*%
D11*
%TO.C,J5*%
X102363400Y-36844000D03*
D12*
X102363400Y-39384000D03*
X102363400Y-41924000D03*
X102363400Y-44464000D03*
%TD*%
D13*
%TO.C,REF\u002A\u002A*%
X68500000Y-62000000D03*
%TD*%
D14*
%TO.C,REF\u002A\u002A*%
X65200000Y-55166666D03*
%TD*%
D11*
%TO.C,J12*%
X56823400Y-36844000D03*
D12*
X56823400Y-39384000D03*
X56823400Y-41924000D03*
X56823400Y-44464000D03*
%TD*%
D15*
%TO.C,J13*%
X45342600Y-55792400D03*
%TD*%
D14*
%TO.C,REF\u002A\u002A*%
X22200000Y-34833333D03*
%TD*%
D13*
%TO.C,REF\u002A\u002A*%
X75000000Y-29000000D03*
%TD*%
D14*
%TO.C,REF\u002A\u002A*%
X105800000Y-35833333D03*
%TD*%
%TO.C,REF\u002A\u002A*%
X22200000Y-36833333D03*
%TD*%
D11*
%TO.C,J11*%
X49178000Y-21600000D03*
D12*
X49178000Y-24140000D03*
X49178000Y-26680000D03*
X49178000Y-29220000D03*
X49178000Y-31760000D03*
X49178000Y-34300000D03*
X49178000Y-36840000D03*
X49178000Y-39380000D03*
X49178000Y-41920000D03*
X49178000Y-44460000D03*
X49178000Y-47000000D03*
X49178000Y-49540000D03*
X49178000Y-52080000D03*
X49178000Y-54620000D03*
X49178000Y-57160000D03*
%TD*%
D14*
%TO.C,REF\u002A\u002A*%
X22200000Y-35833333D03*
%TD*%
D11*
%TO.C,J5*%
X59363400Y-36844000D03*
D12*
X59363400Y-39384000D03*
X59363400Y-41924000D03*
X59363400Y-44464000D03*
%TD*%
D14*
%TO.C,REF\u002A\u002A*%
X105800000Y-57166666D03*
%TD*%
%TO.C,REF\u002A\u002A*%
X22200000Y-56166666D03*
%TD*%
%TO.C,REF\u002A\u002A*%
X62800000Y-34833333D03*
%TD*%
%TO.C,REF\u002A\u002A*%
X62800000Y-33833333D03*
%TD*%
D11*
%TO.C,J12*%
X99823400Y-36844000D03*
D12*
X99823400Y-39384000D03*
X99823400Y-41924000D03*
X99823400Y-44464000D03*
%TD*%
D11*
%TO.C,J10*%
X66778000Y-21604000D03*
D12*
X66778000Y-24144000D03*
X66778000Y-26684000D03*
X66778000Y-29224000D03*
X66778000Y-31764000D03*
X66778000Y-34304000D03*
X66778000Y-36844000D03*
X66778000Y-39384000D03*
X66778000Y-41924000D03*
X66778000Y-44464000D03*
X66778000Y-47004000D03*
X66778000Y-49544000D03*
X66778000Y-52084000D03*
X66778000Y-54624000D03*
X66778000Y-57164000D03*
%TD*%
D14*
%TO.C,REF\u002A\u002A*%
X65200000Y-54166666D03*
%TD*%
D11*
%TO.C,J4*%
X70588000Y-26684000D03*
D12*
X70588000Y-29224000D03*
X70588000Y-31764000D03*
X70588000Y-34304000D03*
X70588000Y-36844000D03*
X70588000Y-39384000D03*
%TD*%
D14*
%TO.C,REF\u002A\u002A*%
X65200000Y-33833333D03*
%TD*%
D11*
%TO.C,J3*%
X59338000Y-24144000D03*
D12*
X59338000Y-26684000D03*
X59338000Y-29224000D03*
X59338000Y-31764000D03*
%TD*%
D14*
%TO.C,REF\u002A\u002A*%
X65200000Y-34833333D03*
%TD*%
%TO.C,REF\u002A\u002A*%
X62800000Y-35833333D03*
%TD*%
D11*
%TO.C,U8*%
X102363400Y-49544000D03*
D12*
X102363400Y-52084000D03*
X102363400Y-54624000D03*
%TD*%
D14*
%TO.C,REF\u002A\u002A*%
X62800000Y-54166666D03*
%TD*%
D10*
%TO.C,J6*%
X67794000Y-70880000D03*
X72874000Y-70880000D03*
X77954000Y-70880000D03*
X83034000Y-70880000D03*
%TD*%
D14*
%TO.C,REF\u002A\u002A*%
X65200000Y-36833333D03*
%TD*%
D13*
%TO.C,REF\u002A\u002A*%
X25500000Y-62000000D03*
%TD*%
%TO.C,REF\u002A\u002A*%
X102500000Y-18500000D03*
%TD*%
D11*
%TO.C,J2*%
X54283400Y-36844000D03*
D12*
X54283400Y-39384000D03*
X54283400Y-41924000D03*
X54283400Y-44464000D03*
%TD*%
D14*
%TO.C,REF\u002A\u002A*%
X105800000Y-36833333D03*
%TD*%
D10*
%TO.C,J8*%
X87225000Y-20207000D03*
X82145000Y-20207000D03*
X77065000Y-20207000D03*
X71985000Y-20207000D03*
%TD*%
D15*
%TO.C,J14*%
X88342600Y-51880800D03*
%TD*%
D11*
%TO.C,J3*%
X102338000Y-24144000D03*
D12*
X102338000Y-26684000D03*
X102338000Y-29224000D03*
X102338000Y-31764000D03*
%TD*%
D16*
%TO.C,J9*%
X51083000Y-61700000D03*
X57083000Y-61700000D03*
D17*
X53583000Y-56950000D03*
%TD*%
D14*
%TO.C,REF\u002A\u002A*%
X105800000Y-33833333D03*
%TD*%
D10*
%TO.C,J7*%
X88114000Y-70880000D03*
X93194000Y-70880000D03*
X98274000Y-70880000D03*
X103354000Y-70880000D03*
%TD*%
D15*
%TO.C,J14*%
X45342600Y-51880800D03*
%TD*%
D11*
%TO.C,J1*%
X97258000Y-19064000D03*
D12*
X97258000Y-21604000D03*
X97258000Y-24144000D03*
X97258000Y-26684000D03*
X97258000Y-29224000D03*
X97258000Y-31764000D03*
%TD*%
D11*
%TO.C,J2*%
X97283400Y-36844000D03*
D12*
X97283400Y-39384000D03*
X97283400Y-41924000D03*
X97283400Y-44464000D03*
%TD*%
D11*
%TO.C,J4*%
X27588000Y-26684000D03*
D12*
X27588000Y-29224000D03*
X27588000Y-31764000D03*
X27588000Y-34304000D03*
X27588000Y-36844000D03*
X27588000Y-39384000D03*
%TD*%
D14*
%TO.C,REF\u002A\u002A*%
X62800000Y-57166666D03*
%TD*%
%TO.C,REF\u002A\u002A*%
X62800000Y-36833333D03*
%TD*%
D15*
%TO.C,J13*%
X88342600Y-55792400D03*
%TD*%
D14*
%TO.C,REF\u002A\u002A*%
X105800000Y-56166666D03*
%TD*%
D11*
%TO.C,J11*%
X92178000Y-21600000D03*
D12*
X92178000Y-24140000D03*
X92178000Y-26680000D03*
X92178000Y-29220000D03*
X92178000Y-31760000D03*
X92178000Y-34300000D03*
X92178000Y-36840000D03*
X92178000Y-39380000D03*
X92178000Y-41920000D03*
X92178000Y-44460000D03*
X92178000Y-47000000D03*
X92178000Y-49540000D03*
X92178000Y-52080000D03*
X92178000Y-54620000D03*
X92178000Y-57160000D03*
%TD*%
D14*
%TO.C,REF\u002A\u002A*%
X22200000Y-54166666D03*
%TD*%
D11*
%TO.C,J10*%
X23778000Y-21604000D03*
D12*
X23778000Y-24144000D03*
X23778000Y-26684000D03*
X23778000Y-29224000D03*
X23778000Y-31764000D03*
X23778000Y-34304000D03*
X23778000Y-36844000D03*
X23778000Y-39384000D03*
X23778000Y-41924000D03*
X23778000Y-44464000D03*
X23778000Y-47004000D03*
X23778000Y-49544000D03*
X23778000Y-52084000D03*
X23778000Y-54624000D03*
X23778000Y-57164000D03*
%TD*%
D14*
%TO.C,REF\u002A\u002A*%
X65200000Y-57166666D03*
%TD*%
%TO.C,REF\u002A\u002A*%
X22200000Y-55166666D03*
%TD*%
D10*
%TO.C,J7*%
X45114000Y-70880000D03*
X50194000Y-70880000D03*
X55274000Y-70880000D03*
X60354000Y-70880000D03*
%TD*%
D14*
%TO.C,REF\u002A\u002A*%
X22200000Y-33833333D03*
%TD*%
D16*
%TO.C,J9*%
X94083000Y-61700000D03*
X100083000Y-61700000D03*
D17*
X96583000Y-56950000D03*
%TD*%
D14*
%TO.C,REF\u002A\u002A*%
X62800000Y-56166666D03*
%TD*%
%TO.C,REF\u002A\u002A*%
X105800000Y-34833333D03*
%TD*%
%TO.C,REF\u002A\u002A*%
X62800000Y-55166666D03*
%TD*%
D13*
%TO.C,REF\u002A\u002A*%
X59500000Y-18500000D03*
%TD*%
D14*
%TO.C,REF\u002A\u002A*%
X65200000Y-35833333D03*
%TD*%
D10*
%TO.C,J6*%
X24794000Y-70880000D03*
X29874000Y-70880000D03*
X34954000Y-70880000D03*
X40034000Y-70880000D03*
%TD*%
D11*
%TO.C,J1*%
X54258000Y-19064000D03*
D12*
X54258000Y-21604000D03*
X54258000Y-24144000D03*
X54258000Y-26684000D03*
X54258000Y-29224000D03*
X54258000Y-31764000D03*
%TD*%
D14*
%TO.C,REF\u002A\u002A*%
X22200000Y-57166666D03*
%TD*%
%TO.C,REF\u002A\u002A*%
X65200000Y-56166666D03*
%TD*%
%TO.C,REF\u002A\u002A*%
X105800000Y-55166666D03*
%TD*%
D13*
%TO.C,REF\u002A\u002A*%
X32000000Y-29000000D03*
%TD*%
D11*
%TO.C,U8*%
X59363400Y-49544000D03*
D12*
X59363400Y-52084000D03*
X59363400Y-54624000D03*
%TD*%
D14*
%TO.C,REF\u002A\u002A*%
X105800000Y-54166666D03*
%TD*%
M02*
