%TF.GenerationSoftware,KiCad,Pcbnew,(6.0.5)*%
%TF.CreationDate,2022-06-06T15:53:17-04:00*%
%TF.ProjectId,NoU2,4e6f5532-2e6b-4696-9361-645f70636258,rev?*%
%TF.SameCoordinates,Original*%
%TF.FileFunction,Paste,Top*%
%TF.FilePolarity,Positive*%
%FSLAX46Y46*%
G04 Gerber Fmt 4.6, Leading zero omitted, Abs format (unit mm)*
G04 Created by KiCad (PCBNEW (6.0.5)) date 2022-06-06 15:53:17*
%MOMM*%
%LPD*%
G01*
G04 APERTURE LIST*
G04 Aperture macros list*
%AMRoundRect*
0 Rectangle with rounded corners*
0 $1 Rounding radius*
0 $2 $3 $4 $5 $6 $7 $8 $9 X,Y pos of 4 corners*
0 Add a 4 corners polygon primitive as box body*
4,1,4,$2,$3,$4,$5,$6,$7,$8,$9,$2,$3,0*
0 Add four circle primitives for the rounded corners*
1,1,$1+$1,$2,$3*
1,1,$1+$1,$4,$5*
1,1,$1+$1,$6,$7*
1,1,$1+$1,$8,$9*
0 Add four rect primitives between the rounded corners*
20,1,$1+$1,$2,$3,$4,$5,0*
20,1,$1+$1,$4,$5,$6,$7,0*
20,1,$1+$1,$6,$7,$8,$9,0*
20,1,$1+$1,$8,$9,$2,$3,0*%
G04 Aperture macros list end*
%ADD10RoundRect,0.250000X-0.475000X0.250000X-0.475000X-0.250000X0.475000X-0.250000X0.475000X0.250000X0*%
%ADD11R,3.556000X2.540000*%
%ADD12RoundRect,0.100000X0.100000X-0.687500X0.100000X0.687500X-0.100000X0.687500X-0.100000X-0.687500X0*%
%ADD13RoundRect,0.225000X-0.250000X0.225000X-0.250000X-0.225000X0.250000X-0.225000X0.250000X0.225000X0*%
%ADD14RoundRect,0.250000X0.475000X-0.250000X0.475000X0.250000X-0.475000X0.250000X-0.475000X-0.250000X0*%
%ADD15RoundRect,0.225000X0.250000X-0.225000X0.250000X0.225000X-0.250000X0.225000X-0.250000X-0.225000X0*%
%ADD16RoundRect,0.225000X0.225000X0.250000X-0.225000X0.250000X-0.225000X-0.250000X0.225000X-0.250000X0*%
%ADD17RoundRect,0.250000X-0.250000X-0.475000X0.250000X-0.475000X0.250000X0.475000X-0.250000X0.475000X0*%
%ADD18RoundRect,0.225000X-0.225000X-0.250000X0.225000X-0.250000X0.225000X0.250000X-0.225000X0.250000X0*%
%ADD19R,1.300000X1.700000*%
%ADD20RoundRect,0.250000X-1.075000X0.375000X-1.075000X-0.375000X1.075000X-0.375000X1.075000X0.375000X0*%
%ADD21RoundRect,0.250000X0.375000X1.075000X-0.375000X1.075000X-0.375000X-1.075000X0.375000X-1.075000X0*%
%ADD22R,0.900000X0.800000*%
%ADD23RoundRect,0.200000X-0.200000X-0.275000X0.200000X-0.275000X0.200000X0.275000X-0.200000X0.275000X0*%
%ADD24RoundRect,0.200000X0.275000X-0.200000X0.275000X0.200000X-0.275000X0.200000X-0.275000X-0.200000X0*%
%ADD25RoundRect,0.200000X-0.275000X0.200000X-0.275000X-0.200000X0.275000X-0.200000X0.275000X0.200000X0*%
%ADD26RoundRect,0.249997X-0.625003X0.312503X-0.625003X-0.312503X0.625003X-0.312503X0.625003X0.312503X0*%
%ADD27RoundRect,0.249997X0.625003X-0.312503X0.625003X0.312503X-0.625003X0.312503X-0.625003X-0.312503X0*%
%ADD28RoundRect,0.200000X0.200000X0.275000X-0.200000X0.275000X-0.200000X-0.275000X0.200000X-0.275000X0*%
%ADD29RoundRect,0.100000X-0.100000X0.687500X-0.100000X-0.687500X0.100000X-0.687500X0.100000X0.687500X0*%
%ADD30RoundRect,0.243750X-0.243750X-0.456250X0.243750X-0.456250X0.243750X0.456250X-0.243750X0.456250X0*%
%ADD31RoundRect,0.150000X0.150000X-0.512500X0.150000X0.512500X-0.150000X0.512500X-0.150000X-0.512500X0*%
%ADD32RoundRect,0.250000X1.500000X0.550000X-1.500000X0.550000X-1.500000X-0.550000X1.500000X-0.550000X0*%
%ADD33RoundRect,0.150000X-0.512500X-0.150000X0.512500X-0.150000X0.512500X0.150000X-0.512500X0.150000X0*%
G04 APERTURE END LIST*
D10*
%TO.C,C8*%
X104549140Y-135102760D03*
X104549140Y-137002760D03*
%TD*%
D11*
%TO.C,U1*%
X108495000Y-138227000D03*
D12*
X106220000Y-141089500D03*
X106870000Y-141089500D03*
X107520000Y-141089500D03*
X108170000Y-141089500D03*
X108820000Y-141089500D03*
X109470000Y-141089500D03*
X110120000Y-141089500D03*
X110770000Y-141089500D03*
X110770000Y-135364500D03*
X110120000Y-135364500D03*
X109470000Y-135364500D03*
X108820000Y-135364500D03*
X108170000Y-135364500D03*
X107520000Y-135364500D03*
X106870000Y-135364500D03*
X106220000Y-135364500D03*
%TD*%
D13*
%TO.C,C1*%
X122225000Y-144640200D03*
X122225000Y-146190200D03*
%TD*%
D14*
%TO.C,C2*%
X126606500Y-146543000D03*
X126606500Y-144643000D03*
%TD*%
D15*
%TO.C,C3*%
X122225000Y-150025600D03*
X122225000Y-148475600D03*
%TD*%
D16*
%TO.C,C4*%
X125286000Y-150012600D03*
X123736000Y-150012600D03*
%TD*%
D13*
%TO.C,C5*%
X112192000Y-135039000D03*
X112192000Y-136589000D03*
%TD*%
%TO.C,C6*%
X119301460Y-135023760D03*
X119301460Y-136573760D03*
%TD*%
D15*
%TO.C,C7*%
X115113000Y-116904000D03*
X115113000Y-115354000D03*
%TD*%
D10*
%TO.C,C9*%
X112166600Y-137939940D03*
X112166600Y-139839940D03*
%TD*%
D14*
%TO.C,C10*%
X122225000Y-116571000D03*
X122225000Y-114671000D03*
%TD*%
D16*
%TO.C,C11*%
X123838200Y-125095200D03*
X122288200Y-125095200D03*
%TD*%
D17*
%TO.C,C12*%
X122481500Y-129527500D03*
X124381500Y-129527500D03*
%TD*%
D18*
%TO.C,C13*%
X118402000Y-125095200D03*
X119952000Y-125095200D03*
%TD*%
D15*
%TO.C,C14*%
X118440400Y-128181600D03*
X118440400Y-126631600D03*
%TD*%
D14*
%TO.C,C22*%
X107366000Y-133639800D03*
X107366000Y-131739800D03*
%TD*%
%TO.C,C23*%
X116230600Y-133639800D03*
X116230600Y-131739800D03*
%TD*%
D17*
%TO.C,C24*%
X116703000Y-118923000D03*
X118603000Y-118923000D03*
%TD*%
D19*
%TO.C,D2*%
X130533400Y-139395400D03*
X134033400Y-139395400D03*
%TD*%
D20*
%TO.C,L1*%
X120066000Y-144701000D03*
X120066000Y-147501000D03*
%TD*%
D21*
%TO.C,L2*%
X123117000Y-122860000D03*
X120317000Y-122860000D03*
%TD*%
D22*
%TO.C,Q1*%
X131562800Y-135829200D03*
X131562800Y-137729200D03*
X133562800Y-136779200D03*
%TD*%
D23*
%TO.C,R1*%
X123686000Y-148895000D03*
X125336000Y-148895000D03*
%TD*%
D24*
%TO.C,R2*%
X126390600Y-149339000D03*
X126390600Y-147689000D03*
%TD*%
D25*
%TO.C,R3*%
X119558000Y-126569400D03*
X119558000Y-128219400D03*
%TD*%
D23*
%TO.C,R4*%
X119647400Y-129286200D03*
X121297400Y-129286200D03*
%TD*%
D24*
%TO.C,R5*%
X130175200Y-135089600D03*
X130175200Y-133439600D03*
%TD*%
D26*
%TO.C,R6*%
X104699000Y-138415500D03*
X104699000Y-141340500D03*
%TD*%
%TO.C,R7*%
X119685000Y-138415500D03*
X119685000Y-141340500D03*
%TD*%
D27*
%TO.C,R8*%
X114732000Y-113654500D03*
X114732000Y-110729500D03*
%TD*%
D25*
%TO.C,R9*%
X122098000Y-110859000D03*
X122098000Y-112509000D03*
%TD*%
D28*
%TO.C,R10*%
X113398000Y-142773600D03*
X111748000Y-142773600D03*
%TD*%
%TO.C,R11*%
X105854200Y-142773600D03*
X104204200Y-142773600D03*
%TD*%
D24*
%TO.C,R12*%
X130175200Y-137731200D03*
X130175200Y-136081200D03*
%TD*%
D11*
%TO.C,U2*%
X118542000Y-113716000D03*
D29*
X120817000Y-110853500D03*
X120167000Y-110853500D03*
X119517000Y-110853500D03*
X118867000Y-110853500D03*
X118217000Y-110853500D03*
X117567000Y-110853500D03*
X116917000Y-110853500D03*
X116267000Y-110853500D03*
X116267000Y-116578500D03*
X116917000Y-116578500D03*
X117567000Y-116578500D03*
X118217000Y-116578500D03*
X118867000Y-116578500D03*
X119517000Y-116578500D03*
X120167000Y-116578500D03*
X120817000Y-116578500D03*
%TD*%
D11*
%TO.C,U3*%
X115875000Y-138227000D03*
D12*
X113600000Y-141089500D03*
X114250000Y-141089500D03*
X114900000Y-141089500D03*
X115550000Y-141089500D03*
X116200000Y-141089500D03*
X116850000Y-141089500D03*
X117500000Y-141089500D03*
X118150000Y-141089500D03*
X118150000Y-135364500D03*
X117500000Y-135364500D03*
X116850000Y-135364500D03*
X116200000Y-135364500D03*
X115550000Y-135364500D03*
X114900000Y-135364500D03*
X114250000Y-135364500D03*
X113600000Y-135364500D03*
%TD*%
D30*
%TO.C,D1*%
X131599900Y-134188400D03*
X133474900Y-134188400D03*
%TD*%
D31*
%TO.C,U10*%
X123408600Y-147213100D03*
X124358600Y-147213100D03*
X125308600Y-147213100D03*
X125308600Y-144938100D03*
X124358600Y-144938100D03*
X123408600Y-144938100D03*
%TD*%
D32*
%TO.C,C17*%
X114536400Y-129997400D03*
X109136400Y-129997400D03*
%TD*%
D33*
%TO.C,U11*%
X121262500Y-126300000D03*
X121262500Y-127250000D03*
X121262500Y-128200000D03*
X123537500Y-128200000D03*
X123537500Y-127250000D03*
X123537500Y-126300000D03*
%TD*%
M02*
