%TF.GenerationSoftware,KiCad,Pcbnew,(6.0.5)*%
%TF.CreationDate,2022-06-06T15:53:17-04:00*%
%TF.ProjectId,NoU2,4e6f5532-2e6b-4696-9361-645f70636258,rev?*%
%TF.SameCoordinates,Original*%
%TF.FileFunction,Soldermask,Bot*%
%TF.FilePolarity,Negative*%
%FSLAX46Y46*%
G04 Gerber Fmt 4.6, Leading zero omitted, Abs format (unit mm)*
G04 Created by KiCad (PCBNEW (6.0.5)) date 2022-06-06 15:53:17*
%MOMM*%
%LPD*%
G01*
G04 APERTURE LIST*
G04 Aperture macros list*
%AMRoundRect*
0 Rectangle with rounded corners*
0 $1 Rounding radius*
0 $2 $3 $4 $5 $6 $7 $8 $9 X,Y pos of 4 corners*
0 Add a 4 corners polygon primitive as box body*
4,1,4,$2,$3,$4,$5,$6,$7,$8,$9,$2,$3,0*
0 Add four circle primitives for the rounded corners*
1,1,$1+$1,$2,$3*
1,1,$1+$1,$4,$5*
1,1,$1+$1,$6,$7*
1,1,$1+$1,$8,$9*
0 Add four rect primitives between the rounded corners*
20,1,$1+$1,$2,$3,$4,$5,0*
20,1,$1+$1,$4,$5,$6,$7,0*
20,1,$1+$1,$6,$7,$8,$9,0*
20,1,$1+$1,$8,$9,$2,$3,0*%
G04 Aperture macros list end*
%ADD10RoundRect,1.000000X0.000000X0.800000X0.000000X0.800000X0.000000X-0.800000X0.000000X-0.800000X0*%
%ADD11RoundRect,1.000000X0.800000X0.000000X-0.800000X0.000000X-0.800000X0.000000X0.800000X0.000000X0*%
%ADD12C,1.700000*%
%ADD13O,1.700000X1.700000*%
%ADD14C,2.500000*%
%ADD15C,3.200000*%
%ADD16C,2.032000*%
G04 APERTURE END LIST*
D10*
%TO.C,J9*%
X129083000Y-146700000D03*
X135083000Y-146700000D03*
D11*
X131583000Y-141950000D03*
%TD*%
D12*
%TO.C,J1*%
X132258000Y-104064000D03*
D13*
X132258000Y-106604000D03*
X132258000Y-109144000D03*
X132258000Y-111684000D03*
X132258000Y-114224000D03*
X132258000Y-116764000D03*
%TD*%
D12*
%TO.C,J2*%
X132283400Y-121844000D03*
D13*
X132283400Y-124384000D03*
X132283400Y-126924000D03*
X132283400Y-129464000D03*
%TD*%
D12*
%TO.C,J3*%
X137338000Y-109144000D03*
D13*
X137338000Y-111684000D03*
X137338000Y-114224000D03*
X137338000Y-116764000D03*
%TD*%
D12*
%TO.C,J4*%
X105588000Y-111684000D03*
D13*
X105588000Y-114224000D03*
X105588000Y-116764000D03*
X105588000Y-119304000D03*
X105588000Y-121844000D03*
X105588000Y-124384000D03*
%TD*%
D14*
%TO.C,J7*%
X123114000Y-155880000D03*
X128194000Y-155880000D03*
X133274000Y-155880000D03*
X138354000Y-155880000D03*
%TD*%
%TO.C,J6*%
X102794000Y-155880000D03*
X107874000Y-155880000D03*
X112954000Y-155880000D03*
X118034000Y-155880000D03*
%TD*%
D12*
%TO.C,J10*%
X101778000Y-106604000D03*
D13*
X101778000Y-109144000D03*
X101778000Y-111684000D03*
X101778000Y-114224000D03*
X101778000Y-116764000D03*
X101778000Y-119304000D03*
X101778000Y-121844000D03*
X101778000Y-124384000D03*
X101778000Y-126924000D03*
X101778000Y-129464000D03*
X101778000Y-132004000D03*
X101778000Y-134544000D03*
X101778000Y-137084000D03*
X101778000Y-139624000D03*
X101778000Y-142164000D03*
%TD*%
D12*
%TO.C,J11*%
X127178000Y-106600000D03*
D13*
X127178000Y-109140000D03*
X127178000Y-111680000D03*
X127178000Y-114220000D03*
X127178000Y-116760000D03*
X127178000Y-119300000D03*
X127178000Y-121840000D03*
X127178000Y-124380000D03*
X127178000Y-126920000D03*
X127178000Y-129460000D03*
X127178000Y-132000000D03*
X127178000Y-134540000D03*
X127178000Y-137080000D03*
X127178000Y-139620000D03*
X127178000Y-142160000D03*
%TD*%
D12*
%TO.C,U8*%
X137363400Y-134544000D03*
D13*
X137363400Y-137084000D03*
X137363400Y-139624000D03*
%TD*%
D12*
%TO.C,J5*%
X137363400Y-121844000D03*
D13*
X137363400Y-124384000D03*
X137363400Y-126924000D03*
X137363400Y-129464000D03*
%TD*%
D12*
%TO.C,J12*%
X134823400Y-121844000D03*
D13*
X134823400Y-124384000D03*
X134823400Y-126924000D03*
X134823400Y-129464000D03*
%TD*%
D15*
%TO.C,REF\u002A\u002A*%
X103500000Y-147000000D03*
%TD*%
%TO.C,REF\u002A\u002A*%
X137500000Y-103500000D03*
%TD*%
D14*
%TO.C,J8*%
X122225000Y-105207000D03*
X117145000Y-105207000D03*
X112065000Y-105207000D03*
X106985000Y-105207000D03*
%TD*%
D16*
%TO.C,J13*%
X123342600Y-140792400D03*
%TD*%
%TO.C,J14*%
X123342600Y-136880800D03*
%TD*%
D15*
%TO.C,REF\u002A\u002A*%
X110000000Y-114000000D03*
%TD*%
M02*
