M48
; DRILL file {KiCad (6.0.5)} date Mon Jun  6 15:53:17 2022
; FORMAT={-:-/ absolute / inch / decimal}
; #@! TF.CreationDate,2022-06-06T15:53:17-04:00
; #@! TF.GenerationSoftware,Kicad,Pcbnew,(6.0.5)
; #@! TF.FileFunction,Plated,1,2,PTH
FMAT,2
INCH
; #@! TA.AperFunction,Plated,PTH,ViaDrill
T1C0.0120
; #@! TA.AperFunction,Plated,PTH,ComponentDrill
T2C0.0394
; #@! TA.AperFunction,Plated,PTH,ComponentDrill
T3C0.0400
; #@! TA.AperFunction,Plated,PTH,ComponentDrill
T4C0.0472
%
G90
G05
T1
X4.103Y-5.622
X4.232Y-5.442
X4.241Y-5.192
X4.2715Y-5.442
X4.283Y-5.372
X4.312Y-5.442
X4.316Y-5.133
X4.332Y-5.2865
X4.35Y-5.133
X4.365Y-5.287
X4.4Y-5.622
X4.462Y-5.037
X4.469Y-5.2867
X4.501Y-5.287
X4.522Y-5.442
X4.537Y-4.912
X4.537Y-4.957
X4.537Y-5.002
X4.562Y-5.442
X4.573Y-4.633
X4.595Y-5.192
X4.602Y-5.442
X4.607Y-4.633
X4.622Y-5.286
X4.627Y-4.477
X4.632Y-5.2148
X4.655Y-4.547
X4.6571Y-5.2871
X4.661Y-4.925
X4.662Y-4.667
X4.667Y-4.477
X4.667Y-5.2148
X4.702Y-5.2148
X4.707Y-4.477
X4.727Y-4.633
X4.761Y-4.633
X4.812Y-5.907
X4.818Y-5.01
X4.857Y-4.547
X4.896Y-5.7536
X4.969Y-5.448
X4.97Y-4.947
X5.045Y-5.448
X5.125Y-5.337
X5.244Y-4.947
X5.257Y-5.282
T2
X4.007Y-4.197
X4.007Y-4.297
X4.007Y-4.397
X4.007Y-4.497
X4.007Y-4.597
X4.007Y-4.697
X4.007Y-4.797
X4.007Y-4.897
X4.007Y-4.997
X4.007Y-5.097
X4.007Y-5.197
X4.007Y-5.297
X4.007Y-5.397
X4.007Y-5.497
X4.007Y-5.597
X4.157Y-4.397
X4.157Y-4.497
X4.157Y-4.597
X4.157Y-4.697
X4.157Y-4.797
X4.157Y-4.897
X5.007Y-4.1969
X5.007Y-4.2969
X5.007Y-4.3969
X5.007Y-4.4969
X5.007Y-4.5969
X5.007Y-4.6969
X5.007Y-4.7969
X5.007Y-4.8969
X5.007Y-4.9969
X5.007Y-5.0969
X5.007Y-5.1969
X5.007Y-5.2969
X5.007Y-5.3969
X5.007Y-5.4969
X5.007Y-5.5969
X5.207Y-4.097
X5.207Y-4.197
X5.207Y-4.297
X5.207Y-4.397
X5.207Y-4.497
X5.207Y-4.597
X5.208Y-4.797
X5.208Y-4.897
X5.208Y-4.997
X5.208Y-5.097
X5.308Y-4.797
X5.308Y-4.897
X5.308Y-4.997
X5.308Y-5.097
X5.407Y-4.297
X5.407Y-4.397
X5.407Y-4.497
X5.407Y-4.597
X5.408Y-4.797
X5.408Y-4.897
X5.408Y-4.997
X5.408Y-5.097
X5.408Y-5.297
X5.408Y-5.397
X5.408Y-5.497
T3
X4.856Y-5.389
X4.856Y-5.543
T4
X4.047Y-6.137
X4.212Y-4.142
X4.247Y-6.137
X4.412Y-4.142
X4.447Y-6.137
X4.612Y-4.142
X4.647Y-6.137
X4.812Y-4.142
X4.847Y-6.137
X5.047Y-6.137
X5.247Y-6.137
X5.447Y-6.137
T2
G00X5.082Y-5.8071
M15
G01X5.082Y-5.7441
M16
G05
G00X5.2119Y-5.5886
M15
G01X5.1489Y-5.5886
M16
G05
G00X5.3182Y-5.8071
M15
G01X5.3182Y-5.7441
M16
G05
T0
M30
