M48
; DRILL file {KiCad (6.0.5)} date Thu Jun  9 01:52:49 2022
; FORMAT={-:-/ absolute / inch / decimal}
; #@! TF.CreationDate,2022-06-09T01:52:49-04:00
; #@! TF.GenerationSoftware,Kicad,Pcbnew,(6.0.5)
; #@! TF.FileFunction,Plated,1,2,PTH
FMAT,2
INCH
; #@! TA.AperFunction,Plated,PTH,ViaDrill
T1C0.0120
; #@! TA.AperFunction,Plated,PTH,ComponentDrill
T2C0.0394
; #@! TA.AperFunction,Plated,PTH,ComponentDrill
T3C0.0400
; #@! TA.AperFunction,Plated,PTH,ComponentDrill
T4C0.0472
%
G90
G05
T1
X1.0321Y-2.2756
X1.0321Y-4.7559
X1.0321Y-7.2362
X1.0321Y-9.7165
X1.1611Y-2.0956
X1.1611Y-4.5759
X1.1611Y-7.0562
X1.1611Y-9.5365
X1.1701Y-1.8456
X1.1701Y-4.3259
X1.1701Y-6.8062
X1.1701Y-9.2865
X1.2006Y-2.0956
X1.2006Y-4.5759
X1.2006Y-7.0562
X1.2006Y-9.5365
X1.2121Y-2.0256
X1.2121Y-4.5059
X1.2121Y-6.9862
X1.2121Y-9.4665
X1.2411Y-2.0956
X1.2411Y-4.5759
X1.2411Y-7.0562
X1.2411Y-9.5365
X1.2451Y-1.7866
X1.2451Y-4.2669
X1.2451Y-6.7472
X1.2451Y-9.2275
X1.2611Y-1.9401
X1.2611Y-4.4204
X1.2611Y-6.9007
X1.2611Y-9.381
X1.2791Y-1.7866
X1.2791Y-4.2669
X1.2791Y-6.7472
X1.2791Y-9.2275
X1.2941Y-1.9406
X1.2941Y-4.4209
X1.2941Y-6.9012
X1.2941Y-9.3815
X1.3291Y-2.2756
X1.3291Y-4.7559
X1.3291Y-7.2362
X1.3291Y-9.7165
X1.3911Y-1.6906
X1.3911Y-4.1709
X1.3911Y-6.6512
X1.3911Y-9.1315
X1.3981Y-1.9403
X1.3981Y-4.4206
X1.3981Y-6.9009
X1.3981Y-9.3812
X1.4301Y-1.9406
X1.4301Y-4.4209
X1.4301Y-6.9012
X1.4301Y-9.3815
X1.4511Y-2.0956
X1.4511Y-4.5759
X1.4511Y-7.0562
X1.4511Y-9.5365
X1.4661Y-1.5656
X1.4661Y-1.6106
X1.4661Y-1.6556
X1.4661Y-4.0459
X1.4661Y-4.0909
X1.4661Y-4.1359
X1.4661Y-6.5262
X1.4661Y-6.5712
X1.4661Y-6.6162
X1.4661Y-9.0065
X1.4661Y-9.0515
X1.4661Y-9.0965
X1.4911Y-2.0956
X1.4911Y-4.5759
X1.4911Y-7.0562
X1.4911Y-9.5365
X1.5021Y-1.2866
X1.5021Y-3.7669
X1.5021Y-6.2472
X1.5021Y-8.7275
X1.5241Y-1.8456
X1.5241Y-4.3259
X1.5241Y-6.8062
X1.5241Y-9.2865
X1.5311Y-2.0956
X1.5311Y-4.5759
X1.5311Y-7.0562
X1.5311Y-9.5365
X1.5361Y-1.2866
X1.5361Y-3.7669
X1.5361Y-6.2472
X1.5361Y-8.7275
X1.5511Y-1.9396
X1.5511Y-4.4199
X1.5511Y-6.9002
X1.5511Y-9.3805
X1.5561Y-1.1306
X1.5561Y-3.6109
X1.5561Y-6.0912
X1.5561Y-8.5715
X1.5611Y-1.8683
X1.5611Y-4.3486
X1.5611Y-6.829
X1.5611Y-9.3093
X1.5841Y-1.2006
X1.5841Y-3.6809
X1.5841Y-6.1612
X1.5841Y-8.6415
X1.5862Y-1.9406
X1.5862Y-4.4209
X1.5862Y-6.9013
X1.5862Y-9.3816
X1.5901Y-1.5786
X1.5901Y-4.0589
X1.5901Y-6.5392
X1.5901Y-9.0195
X1.5911Y-1.3206
X1.5911Y-3.8009
X1.5911Y-6.2812
X1.5911Y-8.7615
X1.5961Y-1.1306
X1.5961Y-1.8683
X1.5961Y-3.6109
X1.5961Y-4.3486
X1.5961Y-6.0912
X1.5961Y-6.829
X1.5961Y-8.5715
X1.5961Y-9.3093
X1.6311Y-1.8683
X1.6311Y-4.3486
X1.6311Y-6.829
X1.6311Y-9.3093
X1.6361Y-1.1306
X1.6361Y-3.6109
X1.6361Y-6.0912
X1.6361Y-8.5715
X1.6561Y-1.2866
X1.6561Y-3.7669
X1.6561Y-6.2472
X1.6561Y-8.7275
X1.6901Y-1.2866
X1.6901Y-3.7669
X1.6901Y-6.2472
X1.6901Y-8.7275
X1.7411Y-2.5606
X1.7411Y-5.0409
X1.7411Y-7.5212
X1.7411Y-10.0015
X1.7471Y-1.6636
X1.7471Y-4.1439
X1.7471Y-6.6242
X1.7471Y-9.1045
X1.7861Y-1.2006
X1.7861Y-3.6809
X1.7861Y-6.1612
X1.7861Y-8.6415
X1.8251Y-2.4072
X1.8251Y-4.8875
X1.8251Y-7.3678
X1.8251Y-9.8481
X1.8981Y-2.1016
X1.8981Y-4.5819
X1.8981Y-7.0622
X1.8981Y-9.5425
X1.8991Y-1.6006
X1.8991Y-4.0809
X1.8991Y-6.5612
X1.8991Y-9.0415
X1.9741Y-2.1016
X1.9741Y-4.5819
X1.9741Y-7.0622
X1.9741Y-9.5425
X2.0541Y-1.9906
X2.0541Y-4.4709
X2.0541Y-6.9512
X2.0541Y-9.4315
X2.1731Y-1.6006
X2.1731Y-4.0809
X2.1731Y-6.5612
X2.1731Y-9.0415
X2.1861Y-1.9356
X2.1861Y-4.4159
X2.1861Y-6.8962
X2.1861Y-9.3765
X2.7251Y-2.2756
X2.7251Y-4.7559
X2.7251Y-7.2362
X2.7251Y-9.7165
X2.8541Y-2.0956
X2.8541Y-4.5759
X2.8541Y-7.0562
X2.8541Y-9.5365
X2.8631Y-1.8456
X2.8631Y-4.3259
X2.8631Y-6.8062
X2.8631Y-9.2865
X2.8935Y-2.0956
X2.8935Y-4.5759
X2.8935Y-7.0562
X2.8935Y-9.5365
X2.9051Y-2.0256
X2.9051Y-4.5059
X2.9051Y-6.9862
X2.9051Y-9.4665
X2.9341Y-2.0956
X2.9341Y-4.5759
X2.9341Y-7.0562
X2.9341Y-9.5365
X2.9381Y-1.7866
X2.9381Y-4.2669
X2.9381Y-6.7472
X2.9381Y-9.2275
X2.9541Y-1.9401
X2.9541Y-4.4204
X2.9541Y-6.9007
X2.9541Y-9.381
X2.9721Y-1.7866
X2.9721Y-4.2669
X2.9721Y-6.7472
X2.9721Y-9.2275
X2.9871Y-1.9406
X2.9871Y-4.4209
X2.9871Y-6.9012
X2.9871Y-9.3815
X3.0221Y-2.2756
X3.0221Y-4.7559
X3.0221Y-7.2362
X3.0221Y-9.7165
X3.0841Y-1.6906
X3.0841Y-4.1709
X3.0841Y-6.6512
X3.0841Y-9.1315
X3.0911Y-1.9403
X3.0911Y-4.4206
X3.0911Y-6.9009
X3.0911Y-9.3812
X3.1231Y-1.9406
X3.1231Y-4.4209
X3.1231Y-6.9012
X3.1231Y-9.3815
X3.1441Y-2.0956
X3.1441Y-4.5759
X3.1441Y-7.0562
X3.1441Y-9.5365
X3.1591Y-1.5656
X3.1591Y-1.6106
X3.1591Y-1.6556
X3.1591Y-4.0459
X3.1591Y-4.0909
X3.1591Y-4.1359
X3.1591Y-6.5262
X3.1591Y-6.5712
X3.1591Y-6.6162
X3.1591Y-9.0065
X3.1591Y-9.0515
X3.1591Y-9.0965
X3.1841Y-2.0956
X3.1841Y-4.5759
X3.1841Y-7.0562
X3.1841Y-9.5365
X3.1951Y-1.2866
X3.1951Y-3.7669
X3.1951Y-6.2472
X3.1951Y-8.7275
X3.2171Y-1.8456
X3.2171Y-4.3259
X3.2171Y-6.8062
X3.2171Y-9.2865
X3.2241Y-2.0956
X3.2241Y-4.5759
X3.2241Y-7.0562
X3.2241Y-9.5365
X3.2291Y-1.2866
X3.2291Y-3.7669
X3.2291Y-6.2472
X3.2291Y-8.7275
X3.2441Y-1.9396
X3.2441Y-4.4199
X3.2441Y-6.9002
X3.2441Y-9.3805
X3.2491Y-1.1306
X3.2491Y-3.6109
X3.2491Y-6.0912
X3.2491Y-8.5715
X3.2541Y-1.8683
X3.2541Y-4.3486
X3.2541Y-6.829
X3.2541Y-9.3093
X3.2771Y-1.2006
X3.2771Y-3.6809
X3.2771Y-6.1612
X3.2771Y-8.6415
X3.2791Y-1.9406
X3.2791Y-4.4209
X3.2791Y-6.9013
X3.2791Y-9.3816
X3.2831Y-1.5786
X3.2831Y-4.0589
X3.2831Y-6.5392
X3.2831Y-9.0195
X3.2841Y-1.3206
X3.2841Y-3.8009
X3.2841Y-6.2812
X3.2841Y-8.7615
X3.2891Y-1.1306
X3.2891Y-1.8683
X3.2891Y-3.6109
X3.2891Y-4.3486
X3.2891Y-6.0912
X3.2891Y-6.829
X3.2891Y-8.5715
X3.2891Y-9.3093
X3.3241Y-1.8683
X3.3241Y-4.3486
X3.3241Y-6.829
X3.3241Y-9.3093
X3.3291Y-1.1306
X3.3291Y-3.6109
X3.3291Y-6.0912
X3.3291Y-8.5715
X3.3491Y-1.2866
X3.3491Y-3.7669
X3.3491Y-6.2472
X3.3491Y-8.7275
X3.3831Y-1.2866
X3.3831Y-3.7669
X3.3831Y-6.2472
X3.3831Y-8.7275
X3.4341Y-2.5606
X3.4341Y-5.0409
X3.4341Y-7.5212
X3.4341Y-10.0015
X3.4401Y-1.6636
X3.4401Y-4.1439
X3.4401Y-6.6242
X3.4401Y-9.1045
X3.4791Y-1.2006
X3.4791Y-3.6809
X3.4791Y-6.1612
X3.4791Y-8.6415
X3.5181Y-2.4072
X3.5181Y-4.8875
X3.5181Y-7.3678
X3.5181Y-9.8481
X3.5911Y-2.1016
X3.5911Y-4.5819
X3.5911Y-7.0622
X3.5911Y-9.5425
X3.5921Y-1.6006
X3.5921Y-4.0809
X3.5921Y-6.5612
X3.5921Y-9.0415
X3.6671Y-2.1016
X3.6671Y-4.5819
X3.6671Y-7.0622
X3.6671Y-9.5425
X3.7471Y-1.9906
X3.7471Y-4.4709
X3.7471Y-6.9512
X3.7471Y-9.4315
X3.8661Y-1.6006
X3.8661Y-4.0809
X3.8661Y-6.5612
X3.8661Y-9.0415
X3.8791Y-1.9356
X3.8791Y-4.4159
X3.8791Y-6.8962
X3.8791Y-9.3765
X4.418Y-2.2756
X4.418Y-4.7559
X4.418Y-7.2362
X4.418Y-9.7165
X4.547Y-2.0956
X4.547Y-4.5759
X4.547Y-7.0562
X4.547Y-9.5365
X4.556Y-1.8456
X4.556Y-4.3259
X4.556Y-6.8062
X4.556Y-9.2865
X4.5864Y-2.0956
X4.5864Y-4.5759
X4.5864Y-7.0562
X4.5864Y-9.5365
X4.598Y-2.0256
X4.598Y-4.5059
X4.598Y-6.9862
X4.598Y-9.4665
X4.627Y-2.0956
X4.627Y-4.5759
X4.627Y-7.0562
X4.627Y-9.5365
X4.631Y-1.7866
X4.631Y-4.2669
X4.631Y-6.7472
X4.631Y-9.2275
X4.647Y-1.9401
X4.647Y-4.4204
X4.647Y-6.9007
X4.647Y-9.381
X4.665Y-1.7866
X4.665Y-4.2669
X4.665Y-6.7472
X4.665Y-9.2275
X4.68Y-1.9406
X4.68Y-4.4209
X4.68Y-6.9012
X4.68Y-9.3815
X4.715Y-2.2756
X4.715Y-4.7559
X4.715Y-7.2362
X4.715Y-9.7165
X4.777Y-1.6906
X4.777Y-4.1709
X4.777Y-6.6512
X4.777Y-9.1315
X4.784Y-1.9403
X4.784Y-4.4206
X4.784Y-6.9009
X4.784Y-9.3812
X4.816Y-1.9406
X4.816Y-4.4209
X4.816Y-6.9012
X4.816Y-9.3815
X4.837Y-2.0956
X4.837Y-4.5759
X4.837Y-7.0562
X4.837Y-9.5365
X4.852Y-1.5656
X4.852Y-1.6106
X4.852Y-1.6556
X4.852Y-4.0459
X4.852Y-4.0909
X4.852Y-4.1359
X4.852Y-6.5262
X4.852Y-6.5712
X4.852Y-6.6162
X4.852Y-9.0065
X4.852Y-9.0515
X4.852Y-9.0965
X4.877Y-2.0956
X4.877Y-4.5759
X4.877Y-7.0562
X4.877Y-9.5365
X4.888Y-1.2866
X4.888Y-3.7669
X4.888Y-6.2472
X4.888Y-8.7275
X4.91Y-1.8456
X4.91Y-4.3259
X4.91Y-6.8062
X4.91Y-9.2865
X4.917Y-2.0956
X4.917Y-4.5759
X4.917Y-7.0562
X4.917Y-9.5365
X4.922Y-1.2866
X4.922Y-3.7669
X4.922Y-6.2472
X4.922Y-8.7275
X4.937Y-1.9396
X4.937Y-4.4199
X4.937Y-6.9002
X4.937Y-9.3805
X4.942Y-1.1306
X4.942Y-3.6109
X4.942Y-6.0912
X4.942Y-8.5715
X4.947Y-1.8683
X4.947Y-4.3486
X4.947Y-6.829
X4.947Y-9.3093
X4.97Y-1.2006
X4.97Y-3.6809
X4.97Y-6.1612
X4.97Y-8.6415
X4.972Y-1.9406
X4.972Y-4.4209
X4.972Y-6.9013
X4.972Y-9.3816
X4.976Y-1.5786
X4.976Y-4.0589
X4.976Y-6.5392
X4.976Y-9.0195
X4.977Y-1.3206
X4.977Y-3.8009
X4.977Y-6.2812
X4.977Y-8.7615
X4.982Y-1.1306
X4.982Y-1.8683
X4.982Y-3.6109
X4.982Y-4.3486
X4.982Y-6.0912
X4.982Y-6.829
X4.982Y-8.5715
X4.982Y-9.3093
X5.017Y-1.8683
X5.017Y-4.3486
X5.017Y-6.829
X5.017Y-9.3093
X5.022Y-1.1306
X5.022Y-3.6109
X5.022Y-6.0912
X5.022Y-8.5715
X5.042Y-1.2866
X5.042Y-3.7669
X5.042Y-6.2472
X5.042Y-8.7275
X5.076Y-1.2866
X5.076Y-3.7669
X5.076Y-6.2472
X5.076Y-8.7275
X5.127Y-2.5606
X5.127Y-5.0409
X5.127Y-7.5212
X5.127Y-10.0015
X5.133Y-1.6636
X5.133Y-4.1439
X5.133Y-6.6242
X5.133Y-9.1045
X5.172Y-1.2006
X5.172Y-3.6809
X5.172Y-6.1612
X5.172Y-8.6415
X5.211Y-2.4072
X5.211Y-4.8875
X5.211Y-7.3678
X5.211Y-9.8481
X5.284Y-2.1016
X5.284Y-4.5819
X5.284Y-7.0622
X5.284Y-9.5425
X5.285Y-1.6006
X5.285Y-4.0809
X5.285Y-6.5612
X5.285Y-9.0415
X5.36Y-2.1016
X5.36Y-4.5819
X5.36Y-7.0622
X5.36Y-9.5425
X5.44Y-1.9906
X5.44Y-4.4709
X5.44Y-6.9512
X5.44Y-9.4315
X5.559Y-1.6006
X5.559Y-4.0809
X5.559Y-6.5612
X5.559Y-9.0415
X5.572Y-1.9356
X5.572Y-4.4159
X5.572Y-6.8962
X5.572Y-9.3765
X6.1109Y-2.2756
X6.1109Y-4.7559
X6.1109Y-7.2362
X6.1109Y-9.7165
X6.2399Y-2.0956
X6.2399Y-4.5759
X6.2399Y-7.0562
X6.2399Y-9.5365
X6.2489Y-1.8456
X6.2489Y-4.3259
X6.2489Y-6.8062
X6.2489Y-9.2865
X6.2793Y-2.0956
X6.2793Y-4.5759
X6.2793Y-7.0562
X6.2793Y-9.5365
X6.2909Y-2.0256
X6.2909Y-4.5059
X6.2909Y-6.9862
X6.2909Y-9.4665
X6.3199Y-2.0956
X6.3199Y-4.5759
X6.3199Y-7.0562
X6.3199Y-9.5365
X6.3239Y-1.7866
X6.3239Y-4.2669
X6.3239Y-6.7472
X6.3239Y-9.2275
X6.3399Y-1.9401
X6.3399Y-4.4204
X6.3399Y-6.9007
X6.3399Y-9.381
X6.3579Y-1.7866
X6.3579Y-4.2669
X6.3579Y-6.7472
X6.3579Y-9.2275
X6.3729Y-1.9406
X6.3729Y-4.4209
X6.3729Y-6.9012
X6.3729Y-9.3815
X6.4079Y-2.2756
X6.4079Y-4.7559
X6.4079Y-7.2362
X6.4079Y-9.7165
X6.4699Y-1.6906
X6.4699Y-4.1709
X6.4699Y-6.6512
X6.4699Y-9.1315
X6.4769Y-1.9403
X6.4769Y-4.4206
X6.4769Y-6.9009
X6.4769Y-9.3812
X6.5089Y-1.9406
X6.5089Y-4.4209
X6.5089Y-6.9012
X6.5089Y-9.3815
X6.5299Y-2.0956
X6.5299Y-4.5759
X6.5299Y-7.0562
X6.5299Y-9.5365
X6.5449Y-1.5656
X6.5449Y-1.6106
X6.5449Y-1.6556
X6.5449Y-4.0459
X6.5449Y-4.0909
X6.5449Y-4.1359
X6.5449Y-6.5262
X6.5449Y-6.5712
X6.5449Y-6.6162
X6.5449Y-9.0065
X6.5449Y-9.0515
X6.5449Y-9.0965
X6.5699Y-2.0956
X6.5699Y-4.5759
X6.5699Y-7.0562
X6.5699Y-9.5365
X6.5809Y-1.2866
X6.5809Y-3.7669
X6.5809Y-6.2472
X6.5809Y-8.7275
X6.6029Y-1.8456
X6.6029Y-4.3259
X6.6029Y-6.8062
X6.6029Y-9.2865
X6.6099Y-2.0956
X6.6099Y-4.5759
X6.6099Y-7.0562
X6.6099Y-9.5365
X6.6149Y-1.2866
X6.6149Y-3.7669
X6.6149Y-6.2472
X6.6149Y-8.7275
X6.6299Y-1.9396
X6.6299Y-4.4199
X6.6299Y-6.9002
X6.6299Y-9.3805
X6.6349Y-1.1306
X6.6349Y-3.6109
X6.6349Y-6.0912
X6.6349Y-8.5715
X6.6399Y-1.8683
X6.6399Y-4.3486
X6.6399Y-6.829
X6.6399Y-9.3093
X6.6629Y-1.2006
X6.6629Y-3.6809
X6.6629Y-6.1612
X6.6629Y-8.6415
X6.665Y-1.9406
X6.665Y-4.4209
X6.665Y-6.9013
X6.665Y-9.3816
X6.6689Y-1.5786
X6.6689Y-4.0589
X6.6689Y-6.5392
X6.6689Y-9.0195
X6.6699Y-1.3206
X6.6699Y-3.8009
X6.6699Y-6.2812
X6.6699Y-8.7615
X6.6749Y-1.1306
X6.6749Y-1.8683
X6.6749Y-3.6109
X6.6749Y-4.3486
X6.6749Y-6.0912
X6.6749Y-6.829
X6.6749Y-8.5715
X6.6749Y-9.3093
X6.7099Y-1.8683
X6.7099Y-4.3486
X6.7099Y-6.829
X6.7099Y-9.3093
X6.7149Y-1.1306
X6.7149Y-3.6109
X6.7149Y-6.0912
X6.7149Y-8.5715
X6.7349Y-1.2866
X6.7349Y-3.7669
X6.7349Y-6.2472
X6.7349Y-8.7275
X6.7689Y-1.2866
X6.7689Y-3.7669
X6.7689Y-6.2472
X6.7689Y-8.7275
X6.8199Y-2.5606
X6.8199Y-5.0409
X6.8199Y-7.5212
X6.8199Y-10.0015
X6.8259Y-1.6636
X6.8259Y-4.1439
X6.8259Y-6.6242
X6.8259Y-9.1045
X6.8649Y-1.2006
X6.8649Y-3.6809
X6.8649Y-6.1612
X6.8649Y-8.6415
X6.9039Y-2.4072
X6.9039Y-4.8875
X6.9039Y-7.3678
X6.9039Y-9.8481
X6.9769Y-2.1016
X6.9769Y-4.5819
X6.9769Y-7.0622
X6.9769Y-9.5425
X6.9779Y-1.6006
X6.9779Y-4.0809
X6.9779Y-6.5612
X6.9779Y-9.0415
X7.0529Y-2.1016
X7.0529Y-4.5819
X7.0529Y-7.0622
X7.0529Y-9.5425
X7.1329Y-1.9906
X7.1329Y-4.4709
X7.1329Y-6.9512
X7.1329Y-9.4315
X7.2519Y-1.6006
X7.2519Y-4.0809
X7.2519Y-6.5612
X7.2519Y-9.0415
X7.2649Y-1.9356
X7.2649Y-4.4159
X7.2649Y-6.8962
X7.2649Y-9.3765
X7.8038Y-2.2756
X7.8038Y-4.7559
X7.8038Y-7.2362
X7.8038Y-9.7165
X7.9328Y-2.0956
X7.9328Y-4.5759
X7.9328Y-7.0562
X7.9328Y-9.5365
X7.9418Y-1.8456
X7.9418Y-4.3259
X7.9418Y-6.8062
X7.9418Y-9.2865
X7.9722Y-2.0956
X7.9722Y-4.5759
X7.9722Y-7.0562
X7.9722Y-9.5365
X7.9838Y-2.0256
X7.9838Y-4.5059
X7.9838Y-6.9862
X7.9838Y-9.4665
X8.0128Y-2.0956
X8.0128Y-4.5759
X8.0128Y-7.0562
X8.0128Y-9.5365
X8.0168Y-1.7866
X8.0168Y-4.2669
X8.0168Y-6.7472
X8.0168Y-9.2275
X8.0328Y-1.9401
X8.0328Y-4.4204
X8.0328Y-6.9007
X8.0328Y-9.381
X8.0508Y-1.7866
X8.0508Y-4.2669
X8.0508Y-6.7472
X8.0508Y-9.2275
X8.0658Y-1.9406
X8.0658Y-4.4209
X8.0658Y-6.9012
X8.0658Y-9.3815
X8.1008Y-2.2756
X8.1008Y-4.7559
X8.1008Y-7.2362
X8.1008Y-9.7165
X8.1628Y-1.6906
X8.1628Y-4.1709
X8.1628Y-6.6512
X8.1628Y-9.1315
X8.1698Y-1.9403
X8.1698Y-4.4206
X8.1698Y-6.9009
X8.1698Y-9.3812
X8.2018Y-1.9406
X8.2018Y-4.4209
X8.2018Y-6.9012
X8.2018Y-9.3815
X8.2228Y-2.0956
X8.2228Y-4.5759
X8.2228Y-7.0562
X8.2228Y-9.5365
X8.2378Y-1.5656
X8.2378Y-1.6106
X8.2378Y-1.6556
X8.2378Y-4.0459
X8.2378Y-4.0909
X8.2378Y-4.1359
X8.2378Y-6.5262
X8.2378Y-6.5712
X8.2378Y-6.6162
X8.2378Y-9.0065
X8.2378Y-9.0515
X8.2378Y-9.0965
X8.2628Y-2.0956
X8.2628Y-4.5759
X8.2628Y-7.0562
X8.2628Y-9.5365
X8.2738Y-1.2866
X8.2738Y-3.7669
X8.2738Y-6.2472
X8.2738Y-8.7275
X8.2958Y-1.8456
X8.2958Y-4.3259
X8.2958Y-6.8062
X8.2958Y-9.2865
X8.3028Y-2.0956
X8.3028Y-4.5759
X8.3028Y-7.0562
X8.3028Y-9.5365
X8.3078Y-1.2866
X8.3078Y-3.7669
X8.3078Y-6.2472
X8.3078Y-8.7275
X8.3228Y-1.9396
X8.3228Y-4.4199
X8.3228Y-6.9002
X8.3228Y-9.3805
X8.3278Y-1.1306
X8.3278Y-3.6109
X8.3278Y-6.0912
X8.3278Y-8.5715
X8.3328Y-1.8683
X8.3328Y-4.3486
X8.3328Y-6.829
X8.3328Y-9.3093
X8.3558Y-1.2006
X8.3558Y-3.6809
X8.3558Y-6.1612
X8.3558Y-8.6415
X8.3579Y-1.9406
X8.3579Y-4.4209
X8.3579Y-6.9013
X8.3579Y-9.3816
X8.3618Y-1.5786
X8.3618Y-4.0589
X8.3618Y-6.5392
X8.3618Y-9.0195
X8.3628Y-1.3206
X8.3628Y-3.8009
X8.3628Y-6.2812
X8.3628Y-8.7615
X8.3678Y-1.1306
X8.3678Y-1.8683
X8.3678Y-3.6109
X8.3678Y-4.3486
X8.3678Y-6.0912
X8.3678Y-6.829
X8.3678Y-8.5715
X8.3678Y-9.3093
X8.4028Y-1.8683
X8.4028Y-4.3486
X8.4028Y-6.829
X8.4028Y-9.3093
X8.4078Y-1.1306
X8.4078Y-3.6109
X8.4078Y-6.0912
X8.4078Y-8.5715
X8.4278Y-1.2866
X8.4278Y-3.7669
X8.4278Y-6.2472
X8.4278Y-8.7275
X8.4618Y-1.2866
X8.4618Y-3.7669
X8.4618Y-6.2472
X8.4618Y-8.7275
X8.5128Y-2.5606
X8.5128Y-5.0409
X8.5128Y-7.5212
X8.5128Y-10.0015
X8.5188Y-1.6636
X8.5188Y-4.1439
X8.5188Y-6.6242
X8.5188Y-9.1045
X8.5578Y-1.2006
X8.5578Y-3.6809
X8.5578Y-6.1612
X8.5578Y-8.6415
X8.5968Y-2.4072
X8.5968Y-4.8875
X8.5968Y-7.3678
X8.5968Y-9.8481
X8.6698Y-2.1016
X8.6698Y-4.5819
X8.6698Y-7.0622
X8.6698Y-9.5425
X8.6708Y-1.6006
X8.6708Y-4.0809
X8.6708Y-6.5612
X8.6708Y-9.0415
X8.7458Y-2.1016
X8.7458Y-4.5819
X8.7458Y-7.0622
X8.7458Y-9.5425
X8.8258Y-1.9906
X8.8258Y-4.4709
X8.8258Y-6.9512
X8.8258Y-9.4315
X8.9448Y-1.6006
X8.9448Y-4.0809
X8.9448Y-6.5612
X8.9448Y-9.0415
X8.9578Y-1.9356
X8.9578Y-4.4159
X8.9578Y-6.8962
X8.9578Y-9.3765
T2
X0.9361Y-0.8506
X0.9361Y-0.9506
X0.9361Y-1.0506
X0.9361Y-1.1506
X0.9361Y-1.2506
X0.9361Y-1.3506
X0.9361Y-1.4506
X0.9361Y-1.5506
X0.9361Y-1.6506
X0.9361Y-1.7506
X0.9361Y-1.8506
X0.9361Y-1.9506
X0.9361Y-2.0506
X0.9361Y-2.1506
X0.9361Y-2.2506
X0.9361Y-3.3309
X0.9361Y-3.4309
X0.9361Y-3.5309
X0.9361Y-3.6309
X0.9361Y-3.7309
X0.9361Y-3.8309
X0.9361Y-3.9309
X0.9361Y-4.0309
X0.9361Y-4.1309
X0.9361Y-4.2309
X0.9361Y-4.3309
X0.9361Y-4.4309
X0.9361Y-4.5309
X0.9361Y-4.6309
X0.9361Y-4.7309
X0.9361Y-5.8112
X0.9361Y-5.9112
X0.9361Y-6.0112
X0.9361Y-6.1112
X0.9361Y-6.2112
X0.9361Y-6.3112
X0.9361Y-6.4112
X0.9361Y-6.5112
X0.9361Y-6.6112
X0.9361Y-6.7112
X0.9361Y-6.8112
X0.9361Y-6.9112
X0.9361Y-7.0112
X0.9361Y-7.1112
X0.9361Y-7.2112
X0.9361Y-8.2915
X0.9361Y-8.3915
X0.9361Y-8.4915
X0.9361Y-8.5915
X0.9361Y-8.6915
X0.9361Y-8.7915
X0.9361Y-8.8915
X0.9361Y-8.9915
X0.9361Y-9.0915
X0.9361Y-9.1915
X0.9361Y-9.2915
X0.9361Y-9.3915
X0.9361Y-9.4915
X0.9361Y-9.5915
X0.9361Y-9.6915
X1.0861Y-1.0506
X1.0861Y-1.1506
X1.0861Y-1.2506
X1.0861Y-1.3506
X1.0861Y-1.4506
X1.0861Y-1.5506
X1.0861Y-3.5309
X1.0861Y-3.6309
X1.0861Y-3.7309
X1.0861Y-3.8309
X1.0861Y-3.9309
X1.0861Y-4.0309
X1.0861Y-6.0112
X1.0861Y-6.1112
X1.0861Y-6.2112
X1.0861Y-6.3112
X1.0861Y-6.4112
X1.0861Y-6.5112
X1.0861Y-8.4915
X1.0861Y-8.5915
X1.0861Y-8.6915
X1.0861Y-8.7915
X1.0861Y-8.8915
X1.0861Y-8.9915
X1.9361Y-0.8504
X1.9361Y-0.9504
X1.9361Y-1.0504
X1.9361Y-1.1504
X1.9361Y-1.2504
X1.9361Y-1.3504
X1.9361Y-1.4504
X1.9361Y-1.5504
X1.9361Y-1.6504
X1.9361Y-1.7504
X1.9361Y-1.8504
X1.9361Y-1.9504
X1.9361Y-2.0504
X1.9361Y-2.1504
X1.9361Y-2.2504
X1.9361Y-3.3307
X1.9361Y-3.4307
X1.9361Y-3.5307
X1.9361Y-3.6307
X1.9361Y-3.7307
X1.9361Y-3.8307
X1.9361Y-3.9307
X1.9361Y-4.0307
X1.9361Y-4.1307
X1.9361Y-4.2307
X1.9361Y-4.3307
X1.9361Y-4.4307
X1.9361Y-4.5307
X1.9361Y-4.6307
X1.9361Y-4.7307
X1.9361Y-5.811
X1.9361Y-5.911
X1.9361Y-6.011
X1.9361Y-6.111
X1.9361Y-6.211
X1.9361Y-6.311
X1.9361Y-6.411
X1.9361Y-6.511
X1.9361Y-6.611
X1.9361Y-6.711
X1.9361Y-6.811
X1.9361Y-6.911
X1.9361Y-7.011
X1.9361Y-7.111
X1.9361Y-7.211
X1.9361Y-8.2913
X1.9361Y-8.3913
X1.9361Y-8.4913
X1.9361Y-8.5913
X1.9361Y-8.6913
X1.9361Y-8.7913
X1.9361Y-8.8913
X1.9361Y-8.9913
X1.9361Y-9.0913
X1.9361Y-9.1913
X1.9361Y-9.2913
X1.9361Y-9.3913
X1.9361Y-9.4913
X1.9361Y-9.5913
X1.9361Y-9.6913
X2.1361Y-0.7506
X2.1361Y-0.8506
X2.1361Y-0.9506
X2.1361Y-1.0506
X2.1361Y-1.1506
X2.1361Y-1.2506
X2.1361Y-3.2309
X2.1361Y-3.3309
X2.1361Y-3.4309
X2.1361Y-3.5309
X2.1361Y-3.6309
X2.1361Y-3.7309
X2.1361Y-5.7112
X2.1361Y-5.8112
X2.1361Y-5.9112
X2.1361Y-6.0112
X2.1361Y-6.1112
X2.1361Y-6.2112
X2.1361Y-8.1915
X2.1361Y-8.2915
X2.1361Y-8.3915
X2.1361Y-8.4915
X2.1361Y-8.5915
X2.1361Y-8.6915
X2.1371Y-1.4506
X2.1371Y-1.5506
X2.1371Y-1.6506
X2.1371Y-1.7506
X2.1371Y-3.9309
X2.1371Y-4.0309
X2.1371Y-4.1309
X2.1371Y-4.2309
X2.1371Y-6.4112
X2.1371Y-6.5112
X2.1371Y-6.6112
X2.1371Y-6.7112
X2.1371Y-8.8915
X2.1371Y-8.9915
X2.1371Y-9.0915
X2.1371Y-9.1915
X2.2371Y-1.4506
X2.2371Y-1.5506
X2.2371Y-1.6506
X2.2371Y-1.7506
X2.2371Y-3.9309
X2.2371Y-4.0309
X2.2371Y-4.1309
X2.2371Y-4.2309
X2.2371Y-6.4112
X2.2371Y-6.5112
X2.2371Y-6.6112
X2.2371Y-6.7112
X2.2371Y-8.8915
X2.2371Y-8.9915
X2.2371Y-9.0915
X2.2371Y-9.1915
X2.3361Y-0.9506
X2.3361Y-1.0506
X2.3361Y-1.1506
X2.3361Y-1.2506
X2.3361Y-3.4309
X2.3361Y-3.5309
X2.3361Y-3.6309
X2.3361Y-3.7309
X2.3361Y-5.9112
X2.3361Y-6.0112
X2.3361Y-6.1112
X2.3361Y-6.2112
X2.3361Y-8.3915
X2.3361Y-8.4915
X2.3361Y-8.5915
X2.3361Y-8.6915
X2.3371Y-1.4506
X2.3371Y-1.5506
X2.3371Y-1.6506
X2.3371Y-1.7506
X2.3371Y-1.9506
X2.3371Y-2.0506
X2.3371Y-2.1506
X2.3371Y-3.9309
X2.3371Y-4.0309
X2.3371Y-4.1309
X2.3371Y-4.2309
X2.3371Y-4.4309
X2.3371Y-4.5309
X2.3371Y-4.6309
X2.3371Y-6.4112
X2.3371Y-6.5112
X2.3371Y-6.6112
X2.3371Y-6.7112
X2.3371Y-6.9112
X2.3371Y-7.0112
X2.3371Y-7.1112
X2.3371Y-8.8915
X2.3371Y-8.9915
X2.3371Y-9.0915
X2.3371Y-9.1915
X2.3371Y-9.3915
X2.3371Y-9.4915
X2.3371Y-9.5915
X2.6291Y-0.8506
X2.6291Y-0.9506
X2.6291Y-1.0506
X2.6291Y-1.1506
X2.6291Y-1.2506
X2.6291Y-1.3506
X2.6291Y-1.4506
X2.6291Y-1.5506
X2.6291Y-1.6506
X2.6291Y-1.7506
X2.6291Y-1.8506
X2.6291Y-1.9506
X2.6291Y-2.0506
X2.6291Y-2.1506
X2.6291Y-2.2506
X2.6291Y-3.3309
X2.6291Y-3.4309
X2.6291Y-3.5309
X2.6291Y-3.6309
X2.6291Y-3.7309
X2.6291Y-3.8309
X2.6291Y-3.9309
X2.6291Y-4.0309
X2.6291Y-4.1309
X2.6291Y-4.2309
X2.6291Y-4.3309
X2.6291Y-4.4309
X2.6291Y-4.5309
X2.6291Y-4.6309
X2.6291Y-4.7309
X2.6291Y-5.8112
X2.6291Y-5.9112
X2.6291Y-6.0112
X2.6291Y-6.1112
X2.6291Y-6.2112
X2.6291Y-6.3112
X2.6291Y-6.4112
X2.6291Y-6.5112
X2.6291Y-6.6112
X2.6291Y-6.7112
X2.6291Y-6.8112
X2.6291Y-6.9112
X2.6291Y-7.0112
X2.6291Y-7.1112
X2.6291Y-7.2112
X2.6291Y-8.2915
X2.6291Y-8.3915
X2.6291Y-8.4915
X2.6291Y-8.5915
X2.6291Y-8.6915
X2.6291Y-8.7915
X2.6291Y-8.8915
X2.6291Y-8.9915
X2.6291Y-9.0915
X2.6291Y-9.1915
X2.6291Y-9.2915
X2.6291Y-9.3915
X2.6291Y-9.4915
X2.6291Y-9.5915
X2.6291Y-9.6915
X2.7791Y-1.0506
X2.7791Y-1.1506
X2.7791Y-1.2506
X2.7791Y-1.3506
X2.7791Y-1.4506
X2.7791Y-1.5506
X2.7791Y-3.5309
X2.7791Y-3.6309
X2.7791Y-3.7309
X2.7791Y-3.8309
X2.7791Y-3.9309
X2.7791Y-4.0309
X2.7791Y-6.0112
X2.7791Y-6.1112
X2.7791Y-6.2112
X2.7791Y-6.3112
X2.7791Y-6.4112
X2.7791Y-6.5112
X2.7791Y-8.4915
X2.7791Y-8.5915
X2.7791Y-8.6915
X2.7791Y-8.7915
X2.7791Y-8.8915
X2.7791Y-8.9915
X3.6291Y-0.8504
X3.6291Y-0.9504
X3.6291Y-1.0504
X3.6291Y-1.1504
X3.6291Y-1.2504
X3.6291Y-1.3504
X3.6291Y-1.4504
X3.6291Y-1.5504
X3.6291Y-1.6504
X3.6291Y-1.7504
X3.6291Y-1.8504
X3.6291Y-1.9504
X3.6291Y-2.0504
X3.6291Y-2.1504
X3.6291Y-2.2504
X3.6291Y-3.3307
X3.6291Y-3.4307
X3.6291Y-3.5307
X3.6291Y-3.6307
X3.6291Y-3.7307
X3.6291Y-3.8307
X3.6291Y-3.9307
X3.6291Y-4.0307
X3.6291Y-4.1307
X3.6291Y-4.2307
X3.6291Y-4.3307
X3.6291Y-4.4307
X3.6291Y-4.5307
X3.6291Y-4.6307
X3.6291Y-4.7307
X3.6291Y-5.811
X3.6291Y-5.911
X3.6291Y-6.011
X3.6291Y-6.111
X3.6291Y-6.211
X3.6291Y-6.311
X3.6291Y-6.411
X3.6291Y-6.511
X3.6291Y-6.611
X3.6291Y-6.711
X3.6291Y-6.811
X3.6291Y-6.911
X3.6291Y-7.011
X3.6291Y-7.111
X3.6291Y-7.211
X3.6291Y-8.2913
X3.6291Y-8.3913
X3.6291Y-8.4913
X3.6291Y-8.5913
X3.6291Y-8.6913
X3.6291Y-8.7913
X3.6291Y-8.8913
X3.6291Y-8.9913
X3.6291Y-9.0913
X3.6291Y-9.1913
X3.6291Y-9.2913
X3.6291Y-9.3913
X3.6291Y-9.4913
X3.6291Y-9.5913
X3.6291Y-9.6913
X3.8291Y-0.7506
X3.8291Y-0.8506
X3.8291Y-0.9506
X3.8291Y-1.0506
X3.8291Y-1.1506
X3.8291Y-1.2506
X3.8291Y-3.2309
X3.8291Y-3.3309
X3.8291Y-3.4309
X3.8291Y-3.5309
X3.8291Y-3.6309
X3.8291Y-3.7309
X3.8291Y-5.7112
X3.8291Y-5.8112
X3.8291Y-5.9112
X3.8291Y-6.0112
X3.8291Y-6.1112
X3.8291Y-6.2112
X3.8291Y-8.1915
X3.8291Y-8.2915
X3.8291Y-8.3915
X3.8291Y-8.4915
X3.8291Y-8.5915
X3.8291Y-8.6915
X3.8301Y-1.4506
X3.8301Y-1.5506
X3.8301Y-1.6506
X3.8301Y-1.7506
X3.8301Y-3.9309
X3.8301Y-4.0309
X3.8301Y-4.1309
X3.8301Y-4.2309
X3.8301Y-6.4112
X3.8301Y-6.5112
X3.8301Y-6.6112
X3.8301Y-6.7112
X3.8301Y-8.8915
X3.8301Y-8.9915
X3.8301Y-9.0915
X3.8301Y-9.1915
X3.9301Y-1.4506
X3.9301Y-1.5506
X3.9301Y-1.6506
X3.9301Y-1.7506
X3.9301Y-3.9309
X3.9301Y-4.0309
X3.9301Y-4.1309
X3.9301Y-4.2309
X3.9301Y-6.4112
X3.9301Y-6.5112
X3.9301Y-6.6112
X3.9301Y-6.7112
X3.9301Y-8.8915
X3.9301Y-8.9915
X3.9301Y-9.0915
X3.9301Y-9.1915
X4.0291Y-0.9506
X4.0291Y-1.0506
X4.0291Y-1.1506
X4.0291Y-1.2506
X4.0291Y-3.4309
X4.0291Y-3.5309
X4.0291Y-3.6309
X4.0291Y-3.7309
X4.0291Y-5.9112
X4.0291Y-6.0112
X4.0291Y-6.1112
X4.0291Y-6.2112
X4.0291Y-8.3915
X4.0291Y-8.4915
X4.0291Y-8.5915
X4.0291Y-8.6915
X4.0301Y-1.4506
X4.0301Y-1.5506
X4.0301Y-1.6506
X4.0301Y-1.7506
X4.0301Y-1.9506
X4.0301Y-2.0506
X4.0301Y-2.1506
X4.0301Y-3.9309
X4.0301Y-4.0309
X4.0301Y-4.1309
X4.0301Y-4.2309
X4.0301Y-4.4309
X4.0301Y-4.5309
X4.0301Y-4.6309
X4.0301Y-6.4112
X4.0301Y-6.5112
X4.0301Y-6.6112
X4.0301Y-6.7112
X4.0301Y-6.9112
X4.0301Y-7.0112
X4.0301Y-7.1112
X4.0301Y-8.8915
X4.0301Y-8.9915
X4.0301Y-9.0915
X4.0301Y-9.1915
X4.0301Y-9.3915
X4.0301Y-9.4915
X4.0301Y-9.5915
X4.322Y-0.8506
X4.322Y-0.9506
X4.322Y-1.0506
X4.322Y-1.1506
X4.322Y-1.2506
X4.322Y-1.3506
X4.322Y-1.4506
X4.322Y-1.5506
X4.322Y-1.6506
X4.322Y-1.7506
X4.322Y-1.8506
X4.322Y-1.9506
X4.322Y-2.0506
X4.322Y-2.1506
X4.322Y-2.2506
X4.322Y-3.3309
X4.322Y-3.4309
X4.322Y-3.5309
X4.322Y-3.6309
X4.322Y-3.7309
X4.322Y-3.8309
X4.322Y-3.9309
X4.322Y-4.0309
X4.322Y-4.1309
X4.322Y-4.2309
X4.322Y-4.3309
X4.322Y-4.4309
X4.322Y-4.5309
X4.322Y-4.6309
X4.322Y-4.7309
X4.322Y-5.8112
X4.322Y-5.9112
X4.322Y-6.0112
X4.322Y-6.1112
X4.322Y-6.2112
X4.322Y-6.3112
X4.322Y-6.4112
X4.322Y-6.5112
X4.322Y-6.6112
X4.322Y-6.7112
X4.322Y-6.8112
X4.322Y-6.9112
X4.322Y-7.0112
X4.322Y-7.1112
X4.322Y-7.2112
X4.322Y-8.2915
X4.322Y-8.3915
X4.322Y-8.4915
X4.322Y-8.5915
X4.322Y-8.6915
X4.322Y-8.7915
X4.322Y-8.8915
X4.322Y-8.9915
X4.322Y-9.0915
X4.322Y-9.1915
X4.322Y-9.2915
X4.322Y-9.3915
X4.322Y-9.4915
X4.322Y-9.5915
X4.322Y-9.6915
X4.472Y-1.0506
X4.472Y-1.1506
X4.472Y-1.2506
X4.472Y-1.3506
X4.472Y-1.4506
X4.472Y-1.5506
X4.472Y-3.5309
X4.472Y-3.6309
X4.472Y-3.7309
X4.472Y-3.8309
X4.472Y-3.9309
X4.472Y-4.0309
X4.472Y-6.0112
X4.472Y-6.1112
X4.472Y-6.2112
X4.472Y-6.3112
X4.472Y-6.4112
X4.472Y-6.5112
X4.472Y-8.4915
X4.472Y-8.5915
X4.472Y-8.6915
X4.472Y-8.7915
X4.472Y-8.8915
X4.472Y-8.9915
X5.322Y-0.8504
X5.322Y-0.9504
X5.322Y-1.0504
X5.322Y-1.1504
X5.322Y-1.2504
X5.322Y-1.3504
X5.322Y-1.4504
X5.322Y-1.5504
X5.322Y-1.6504
X5.322Y-1.7504
X5.322Y-1.8504
X5.322Y-1.9504
X5.322Y-2.0504
X5.322Y-2.1504
X5.322Y-2.2504
X5.322Y-3.3307
X5.322Y-3.4307
X5.322Y-3.5307
X5.322Y-3.6307
X5.322Y-3.7307
X5.322Y-3.8307
X5.322Y-3.9307
X5.322Y-4.0307
X5.322Y-4.1307
X5.322Y-4.2307
X5.322Y-4.3307
X5.322Y-4.4307
X5.322Y-4.5307
X5.322Y-4.6307
X5.322Y-4.7307
X5.322Y-5.811
X5.322Y-5.911
X5.322Y-6.011
X5.322Y-6.111
X5.322Y-6.211
X5.322Y-6.311
X5.322Y-6.411
X5.322Y-6.511
X5.322Y-6.611
X5.322Y-6.711
X5.322Y-6.811
X5.322Y-6.911
X5.322Y-7.011
X5.322Y-7.111
X5.322Y-7.211
X5.322Y-8.2913
X5.322Y-8.3913
X5.322Y-8.4913
X5.322Y-8.5913
X5.322Y-8.6913
X5.322Y-8.7913
X5.322Y-8.8913
X5.322Y-8.9913
X5.322Y-9.0913
X5.322Y-9.1913
X5.322Y-9.2913
X5.322Y-9.3913
X5.322Y-9.4913
X5.322Y-9.5913
X5.322Y-9.6913
X5.522Y-0.7506
X5.522Y-0.8506
X5.522Y-0.9506
X5.522Y-1.0506
X5.522Y-1.1506
X5.522Y-1.2506
X5.522Y-3.2309
X5.522Y-3.3309
X5.522Y-3.4309
X5.522Y-3.5309
X5.522Y-3.6309
X5.522Y-3.7309
X5.522Y-5.7112
X5.522Y-5.8112
X5.522Y-5.9112
X5.522Y-6.0112
X5.522Y-6.1112
X5.522Y-6.2112
X5.522Y-8.1915
X5.522Y-8.2915
X5.522Y-8.3915
X5.522Y-8.4915
X5.522Y-8.5915
X5.522Y-8.6915
X5.523Y-1.4506
X5.523Y-1.5506
X5.523Y-1.6506
X5.523Y-1.7506
X5.523Y-3.9309
X5.523Y-4.0309
X5.523Y-4.1309
X5.523Y-4.2309
X5.523Y-6.4112
X5.523Y-6.5112
X5.523Y-6.6112
X5.523Y-6.7112
X5.523Y-8.8915
X5.523Y-8.9915
X5.523Y-9.0915
X5.523Y-9.1915
X5.623Y-1.4506
X5.623Y-1.5506
X5.623Y-1.6506
X5.623Y-1.7506
X5.623Y-3.9309
X5.623Y-4.0309
X5.623Y-4.1309
X5.623Y-4.2309
X5.623Y-6.4112
X5.623Y-6.5112
X5.623Y-6.6112
X5.623Y-6.7112
X5.623Y-8.8915
X5.623Y-8.9915
X5.623Y-9.0915
X5.623Y-9.1915
X5.722Y-0.9506
X5.722Y-1.0506
X5.722Y-1.1506
X5.722Y-1.2506
X5.722Y-3.4309
X5.722Y-3.5309
X5.722Y-3.6309
X5.722Y-3.7309
X5.722Y-5.9112
X5.722Y-6.0112
X5.722Y-6.1112
X5.722Y-6.2112
X5.722Y-8.3915
X5.722Y-8.4915
X5.722Y-8.5915
X5.722Y-8.6915
X5.723Y-1.4506
X5.723Y-1.5506
X5.723Y-1.6506
X5.723Y-1.7506
X5.723Y-1.9506
X5.723Y-2.0506
X5.723Y-2.1506
X5.723Y-3.9309
X5.723Y-4.0309
X5.723Y-4.1309
X5.723Y-4.2309
X5.723Y-4.4309
X5.723Y-4.5309
X5.723Y-4.6309
X5.723Y-6.4112
X5.723Y-6.5112
X5.723Y-6.6112
X5.723Y-6.7112
X5.723Y-6.9112
X5.723Y-7.0112
X5.723Y-7.1112
X5.723Y-8.8915
X5.723Y-8.9915
X5.723Y-9.0915
X5.723Y-9.1915
X5.723Y-9.3915
X5.723Y-9.4915
X5.723Y-9.5915
X6.0149Y-0.8506
X6.0149Y-0.9506
X6.0149Y-1.0506
X6.0149Y-1.1506
X6.0149Y-1.2506
X6.0149Y-1.3506
X6.0149Y-1.4506
X6.0149Y-1.5506
X6.0149Y-1.6506
X6.0149Y-1.7506
X6.0149Y-1.8506
X6.0149Y-1.9506
X6.0149Y-2.0506
X6.0149Y-2.1506
X6.0149Y-2.2506
X6.0149Y-3.3309
X6.0149Y-3.4309
X6.0149Y-3.5309
X6.0149Y-3.6309
X6.0149Y-3.7309
X6.0149Y-3.8309
X6.0149Y-3.9309
X6.0149Y-4.0309
X6.0149Y-4.1309
X6.0149Y-4.2309
X6.0149Y-4.3309
X6.0149Y-4.4309
X6.0149Y-4.5309
X6.0149Y-4.6309
X6.0149Y-4.7309
X6.0149Y-5.8112
X6.0149Y-5.9112
X6.0149Y-6.0112
X6.0149Y-6.1112
X6.0149Y-6.2112
X6.0149Y-6.3112
X6.0149Y-6.4112
X6.0149Y-6.5112
X6.0149Y-6.6112
X6.0149Y-6.7112
X6.0149Y-6.8112
X6.0149Y-6.9112
X6.0149Y-7.0112
X6.0149Y-7.1112
X6.0149Y-7.2112
X6.0149Y-8.2915
X6.0149Y-8.3915
X6.0149Y-8.4915
X6.0149Y-8.5915
X6.0149Y-8.6915
X6.0149Y-8.7915
X6.0149Y-8.8915
X6.0149Y-8.9915
X6.0149Y-9.0915
X6.0149Y-9.1915
X6.0149Y-9.2915
X6.0149Y-9.3915
X6.0149Y-9.4915
X6.0149Y-9.5915
X6.0149Y-9.6915
X6.1649Y-1.0506
X6.1649Y-1.1506
X6.1649Y-1.2506
X6.1649Y-1.3506
X6.1649Y-1.4506
X6.1649Y-1.5506
X6.1649Y-3.5309
X6.1649Y-3.6309
X6.1649Y-3.7309
X6.1649Y-3.8309
X6.1649Y-3.9309
X6.1649Y-4.0309
X6.1649Y-6.0112
X6.1649Y-6.1112
X6.1649Y-6.2112
X6.1649Y-6.3112
X6.1649Y-6.4112
X6.1649Y-6.5112
X6.1649Y-8.4915
X6.1649Y-8.5915
X6.1649Y-8.6915
X6.1649Y-8.7915
X6.1649Y-8.8915
X6.1649Y-8.9915
X7.0149Y-0.8504
X7.0149Y-0.9504
X7.0149Y-1.0504
X7.0149Y-1.1504
X7.0149Y-1.2504
X7.0149Y-1.3504
X7.0149Y-1.4504
X7.0149Y-1.5504
X7.0149Y-1.6504
X7.0149Y-1.7504
X7.0149Y-1.8504
X7.0149Y-1.9504
X7.0149Y-2.0504
X7.0149Y-2.1504
X7.0149Y-2.2504
X7.0149Y-3.3307
X7.0149Y-3.4307
X7.0149Y-3.5307
X7.0149Y-3.6307
X7.0149Y-3.7307
X7.0149Y-3.8307
X7.0149Y-3.9307
X7.0149Y-4.0307
X7.0149Y-4.1307
X7.0149Y-4.2307
X7.0149Y-4.3307
X7.0149Y-4.4307
X7.0149Y-4.5307
X7.0149Y-4.6307
X7.0149Y-4.7307
X7.0149Y-5.811
X7.0149Y-5.911
X7.0149Y-6.011
X7.0149Y-6.111
X7.0149Y-6.211
X7.0149Y-6.311
X7.0149Y-6.411
X7.0149Y-6.511
X7.0149Y-6.611
X7.0149Y-6.711
X7.0149Y-6.811
X7.0149Y-6.911
X7.0149Y-7.011
X7.0149Y-7.111
X7.0149Y-7.211
X7.0149Y-8.2913
X7.0149Y-8.3913
X7.0149Y-8.4913
X7.0149Y-8.5913
X7.0149Y-8.6913
X7.0149Y-8.7913
X7.0149Y-8.8913
X7.0149Y-8.9913
X7.0149Y-9.0913
X7.0149Y-9.1913
X7.0149Y-9.2913
X7.0149Y-9.3913
X7.0149Y-9.4913
X7.0149Y-9.5913
X7.0149Y-9.6913
X7.2149Y-0.7506
X7.2149Y-0.8506
X7.2149Y-0.9506
X7.2149Y-1.0506
X7.2149Y-1.1506
X7.2149Y-1.2506
X7.2149Y-3.2309
X7.2149Y-3.3309
X7.2149Y-3.4309
X7.2149Y-3.5309
X7.2149Y-3.6309
X7.2149Y-3.7309
X7.2149Y-5.7112
X7.2149Y-5.8112
X7.2149Y-5.9112
X7.2149Y-6.0112
X7.2149Y-6.1112
X7.2149Y-6.2112
X7.2149Y-8.1915
X7.2149Y-8.2915
X7.2149Y-8.3915
X7.2149Y-8.4915
X7.2149Y-8.5915
X7.2149Y-8.6915
X7.2159Y-1.4506
X7.2159Y-1.5506
X7.2159Y-1.6506
X7.2159Y-1.7506
X7.2159Y-3.9309
X7.2159Y-4.0309
X7.2159Y-4.1309
X7.2159Y-4.2309
X7.2159Y-6.4112
X7.2159Y-6.5112
X7.2159Y-6.6112
X7.2159Y-6.7112
X7.2159Y-8.8915
X7.2159Y-8.9915
X7.2159Y-9.0915
X7.2159Y-9.1915
X7.3159Y-1.4506
X7.3159Y-1.5506
X7.3159Y-1.6506
X7.3159Y-1.7506
X7.3159Y-3.9309
X7.3159Y-4.0309
X7.3159Y-4.1309
X7.3159Y-4.2309
X7.3159Y-6.4112
X7.3159Y-6.5112
X7.3159Y-6.6112
X7.3159Y-6.7112
X7.3159Y-8.8915
X7.3159Y-8.9915
X7.3159Y-9.0915
X7.3159Y-9.1915
X7.4149Y-0.9506
X7.4149Y-1.0506
X7.4149Y-1.1506
X7.4149Y-1.2506
X7.4149Y-3.4309
X7.4149Y-3.5309
X7.4149Y-3.6309
X7.4149Y-3.7309
X7.4149Y-5.9112
X7.4149Y-6.0112
X7.4149Y-6.1112
X7.4149Y-6.2112
X7.4149Y-8.3915
X7.4149Y-8.4915
X7.4149Y-8.5915
X7.4149Y-8.6915
X7.4159Y-1.4506
X7.4159Y-1.5506
X7.4159Y-1.6506
X7.4159Y-1.7506
X7.4159Y-1.9506
X7.4159Y-2.0506
X7.4159Y-2.1506
X7.4159Y-3.9309
X7.4159Y-4.0309
X7.4159Y-4.1309
X7.4159Y-4.2309
X7.4159Y-4.4309
X7.4159Y-4.5309
X7.4159Y-4.6309
X7.4159Y-6.4112
X7.4159Y-6.5112
X7.4159Y-6.6112
X7.4159Y-6.7112
X7.4159Y-6.9112
X7.4159Y-7.0112
X7.4159Y-7.1112
X7.4159Y-8.8915
X7.4159Y-8.9915
X7.4159Y-9.0915
X7.4159Y-9.1915
X7.4159Y-9.3915
X7.4159Y-9.4915
X7.4159Y-9.5915
X7.7078Y-0.8506
X7.7078Y-0.9506
X7.7078Y-1.0506
X7.7078Y-1.1506
X7.7078Y-1.2506
X7.7078Y-1.3506
X7.7078Y-1.4506
X7.7078Y-1.5506
X7.7078Y-1.6506
X7.7078Y-1.7506
X7.7078Y-1.8506
X7.7078Y-1.9506
X7.7078Y-2.0506
X7.7078Y-2.1506
X7.7078Y-2.2506
X7.7078Y-3.3309
X7.7078Y-3.4309
X7.7078Y-3.5309
X7.7078Y-3.6309
X7.7078Y-3.7309
X7.7078Y-3.8309
X7.7078Y-3.9309
X7.7078Y-4.0309
X7.7078Y-4.1309
X7.7078Y-4.2309
X7.7078Y-4.3309
X7.7078Y-4.4309
X7.7078Y-4.5309
X7.7078Y-4.6309
X7.7078Y-4.7309
X7.7078Y-5.8112
X7.7078Y-5.9112
X7.7078Y-6.0112
X7.7078Y-6.1112
X7.7078Y-6.2112
X7.7078Y-6.3112
X7.7078Y-6.4112
X7.7078Y-6.5112
X7.7078Y-6.6112
X7.7078Y-6.7112
X7.7078Y-6.8112
X7.7078Y-6.9112
X7.7078Y-7.0112
X7.7078Y-7.1112
X7.7078Y-7.2112
X7.7078Y-8.2915
X7.7078Y-8.3915
X7.7078Y-8.4915
X7.7078Y-8.5915
X7.7078Y-8.6915
X7.7078Y-8.7915
X7.7078Y-8.8915
X7.7078Y-8.9915
X7.7078Y-9.0915
X7.7078Y-9.1915
X7.7078Y-9.2915
X7.7078Y-9.3915
X7.7078Y-9.4915
X7.7078Y-9.5915
X7.7078Y-9.6915
X7.8578Y-1.0506
X7.8578Y-1.1506
X7.8578Y-1.2506
X7.8578Y-1.3506
X7.8578Y-1.4506
X7.8578Y-1.5506
X7.8578Y-3.5309
X7.8578Y-3.6309
X7.8578Y-3.7309
X7.8578Y-3.8309
X7.8578Y-3.9309
X7.8578Y-4.0309
X7.8578Y-6.0112
X7.8578Y-6.1112
X7.8578Y-6.2112
X7.8578Y-6.3112
X7.8578Y-6.4112
X7.8578Y-6.5112
X7.8578Y-8.4915
X7.8578Y-8.5915
X7.8578Y-8.6915
X7.8578Y-8.7915
X7.8578Y-8.8915
X7.8578Y-8.9915
X8.7078Y-0.8504
X8.7078Y-0.9504
X8.7078Y-1.0504
X8.7078Y-1.1504
X8.7078Y-1.2504
X8.7078Y-1.3504
X8.7078Y-1.4504
X8.7078Y-1.5504
X8.7078Y-1.6504
X8.7078Y-1.7504
X8.7078Y-1.8504
X8.7078Y-1.9504
X8.7078Y-2.0504
X8.7078Y-2.1504
X8.7078Y-2.2504
X8.7078Y-3.3307
X8.7078Y-3.4307
X8.7078Y-3.5307
X8.7078Y-3.6307
X8.7078Y-3.7307
X8.7078Y-3.8307
X8.7078Y-3.9307
X8.7078Y-4.0307
X8.7078Y-4.1307
X8.7078Y-4.2307
X8.7078Y-4.3307
X8.7078Y-4.4307
X8.7078Y-4.5307
X8.7078Y-4.6307
X8.7078Y-4.7307
X8.7078Y-5.811
X8.7078Y-5.911
X8.7078Y-6.011
X8.7078Y-6.111
X8.7078Y-6.211
X8.7078Y-6.311
X8.7078Y-6.411
X8.7078Y-6.511
X8.7078Y-6.611
X8.7078Y-6.711
X8.7078Y-6.811
X8.7078Y-6.911
X8.7078Y-7.011
X8.7078Y-7.111
X8.7078Y-7.211
X8.7078Y-8.2913
X8.7078Y-8.3913
X8.7078Y-8.4913
X8.7078Y-8.5913
X8.7078Y-8.6913
X8.7078Y-8.7913
X8.7078Y-8.8913
X8.7078Y-8.9913
X8.7078Y-9.0913
X8.7078Y-9.1913
X8.7078Y-9.2913
X8.7078Y-9.3913
X8.7078Y-9.4913
X8.7078Y-9.5913
X8.7078Y-9.6913
X8.9078Y-0.7506
X8.9078Y-0.8506
X8.9078Y-0.9506
X8.9078Y-1.0506
X8.9078Y-1.1506
X8.9078Y-1.2506
X8.9078Y-3.2309
X8.9078Y-3.3309
X8.9078Y-3.4309
X8.9078Y-3.5309
X8.9078Y-3.6309
X8.9078Y-3.7309
X8.9078Y-5.7112
X8.9078Y-5.8112
X8.9078Y-5.9112
X8.9078Y-6.0112
X8.9078Y-6.1112
X8.9078Y-6.2112
X8.9078Y-8.1915
X8.9078Y-8.2915
X8.9078Y-8.3915
X8.9078Y-8.4915
X8.9078Y-8.5915
X8.9078Y-8.6915
X8.9088Y-1.4506
X8.9088Y-1.5506
X8.9088Y-1.6506
X8.9088Y-1.7506
X8.9088Y-3.9309
X8.9088Y-4.0309
X8.9088Y-4.1309
X8.9088Y-4.2309
X8.9088Y-6.4112
X8.9088Y-6.5112
X8.9088Y-6.6112
X8.9088Y-6.7112
X8.9088Y-8.8915
X8.9088Y-8.9915
X8.9088Y-9.0915
X8.9088Y-9.1915
X9.0088Y-1.4506
X9.0088Y-1.5506
X9.0088Y-1.6506
X9.0088Y-1.7506
X9.0088Y-3.9309
X9.0088Y-4.0309
X9.0088Y-4.1309
X9.0088Y-4.2309
X9.0088Y-6.4112
X9.0088Y-6.5112
X9.0088Y-6.6112
X9.0088Y-6.7112
X9.0088Y-8.8915
X9.0088Y-8.9915
X9.0088Y-9.0915
X9.0088Y-9.1915
X9.1078Y-0.9506
X9.1078Y-1.0506
X9.1078Y-1.1506
X9.1078Y-1.2506
X9.1078Y-3.4309
X9.1078Y-3.5309
X9.1078Y-3.6309
X9.1078Y-3.7309
X9.1078Y-5.9112
X9.1078Y-6.0112
X9.1078Y-6.1112
X9.1078Y-6.2112
X9.1078Y-8.3915
X9.1078Y-8.4915
X9.1078Y-8.5915
X9.1078Y-8.6915
X9.1088Y-1.4506
X9.1088Y-1.5506
X9.1088Y-1.6506
X9.1088Y-1.7506
X9.1088Y-1.9506
X9.1088Y-2.0506
X9.1088Y-2.1506
X9.1088Y-3.9309
X9.1088Y-4.0309
X9.1088Y-4.1309
X9.1088Y-4.2309
X9.1088Y-4.4309
X9.1088Y-4.5309
X9.1088Y-4.6309
X9.1088Y-6.4112
X9.1088Y-6.5112
X9.1088Y-6.6112
X9.1088Y-6.7112
X9.1088Y-6.9112
X9.1088Y-7.0112
X9.1088Y-7.1112
X9.1088Y-8.8915
X9.1088Y-8.9915
X9.1088Y-9.0915
X9.1088Y-9.1915
X9.1088Y-9.3915
X9.1088Y-9.4915
X9.1088Y-9.5915
T3
X1.7851Y-2.0426
X1.7851Y-2.1966
X1.7851Y-4.5229
X1.7851Y-4.6769
X1.7851Y-7.0032
X1.7851Y-7.1572
X1.7851Y-9.4835
X1.7851Y-9.6375
X3.4781Y-2.0426
X3.4781Y-2.1966
X3.4781Y-4.5229
X3.4781Y-4.6769
X3.4781Y-7.0032
X3.4781Y-7.1572
X3.4781Y-9.4835
X3.4781Y-9.6375
X5.171Y-2.0426
X5.171Y-2.1966
X5.171Y-4.5229
X5.171Y-4.6769
X5.171Y-7.0032
X5.171Y-7.1572
X5.171Y-9.4835
X5.171Y-9.6375
X6.8639Y-2.0426
X6.8639Y-2.1966
X6.8639Y-4.5229
X6.8639Y-4.6769
X6.8639Y-7.0032
X6.8639Y-7.1572
X6.8639Y-9.4835
X6.8639Y-9.6375
X8.5568Y-2.0426
X8.5568Y-2.1966
X8.5568Y-4.5229
X8.5568Y-4.6769
X8.5568Y-7.0032
X8.5568Y-7.1572
X8.5568Y-9.4835
X8.5568Y-9.6375
T4
X0.9761Y-2.7906
X0.9761Y-5.2709
X0.9761Y-7.7512
X0.9761Y-10.2315
X1.1411Y-0.7956
X1.1411Y-3.2759
X1.1411Y-5.7562
X1.1411Y-8.2365
X1.1761Y-2.7906
X1.1761Y-5.2709
X1.1761Y-7.7512
X1.1761Y-10.2315
X1.3411Y-0.7956
X1.3411Y-3.2759
X1.3411Y-5.7562
X1.3411Y-8.2365
X1.3761Y-2.7906
X1.3761Y-5.2709
X1.3761Y-7.7512
X1.3761Y-10.2315
X1.5411Y-0.7956
X1.5411Y-3.2759
X1.5411Y-5.7562
X1.5411Y-8.2365
X1.5761Y-2.7906
X1.5761Y-5.2709
X1.5761Y-7.7512
X1.5761Y-10.2315
X1.7411Y-0.7956
X1.7411Y-3.2759
X1.7411Y-5.7562
X1.7411Y-8.2365
X1.7761Y-2.7906
X1.7761Y-5.2709
X1.7761Y-7.7512
X1.7761Y-10.2315
X1.9761Y-2.7906
X1.9761Y-5.2709
X1.9761Y-7.7512
X1.9761Y-10.2315
X2.1761Y-2.7906
X2.1761Y-5.2709
X2.1761Y-7.7512
X2.1761Y-10.2315
X2.3761Y-2.7906
X2.3761Y-5.2709
X2.3761Y-7.7512
X2.3761Y-10.2315
X2.6691Y-2.7906
X2.6691Y-5.2709
X2.6691Y-7.7512
X2.6691Y-10.2315
X2.8341Y-0.7956
X2.8341Y-3.2759
X2.8341Y-5.7562
X2.8341Y-8.2365
X2.8691Y-2.7906
X2.8691Y-5.2709
X2.8691Y-7.7512
X2.8691Y-10.2315
X3.0341Y-0.7956
X3.0341Y-3.2759
X3.0341Y-5.7562
X3.0341Y-8.2365
X3.0691Y-2.7906
X3.0691Y-5.2709
X3.0691Y-7.7512
X3.0691Y-10.2315
X3.2341Y-0.7956
X3.2341Y-3.2759
X3.2341Y-5.7562
X3.2341Y-8.2365
X3.2691Y-2.7906
X3.2691Y-5.2709
X3.2691Y-7.7512
X3.2691Y-10.2315
X3.4341Y-0.7956
X3.4341Y-3.2759
X3.4341Y-5.7562
X3.4341Y-8.2365
X3.4691Y-2.7906
X3.4691Y-5.2709
X3.4691Y-7.7512
X3.4691Y-10.2315
X3.6691Y-2.7906
X3.6691Y-5.2709
X3.6691Y-7.7512
X3.6691Y-10.2315
X3.8691Y-2.7906
X3.8691Y-5.2709
X3.8691Y-7.7512
X3.8691Y-10.2315
X4.0691Y-2.7906
X4.0691Y-5.2709
X4.0691Y-7.7512
X4.0691Y-10.2315
X4.362Y-2.7906
X4.362Y-5.2709
X4.362Y-7.7512
X4.362Y-10.2315
X4.527Y-0.7956
X4.527Y-3.2759
X4.527Y-5.7562
X4.527Y-8.2365
X4.562Y-2.7906
X4.562Y-5.2709
X4.562Y-7.7512
X4.562Y-10.2315
X4.727Y-0.7956
X4.727Y-3.2759
X4.727Y-5.7562
X4.727Y-8.2365
X4.762Y-2.7906
X4.762Y-5.2709
X4.762Y-7.7512
X4.762Y-10.2315
X4.927Y-0.7956
X4.927Y-3.2759
X4.927Y-5.7562
X4.927Y-8.2365
X4.962Y-2.7906
X4.962Y-5.2709
X4.962Y-7.7512
X4.962Y-10.2315
X5.127Y-0.7956
X5.127Y-3.2759
X5.127Y-5.7562
X5.127Y-8.2365
X5.162Y-2.7906
X5.162Y-5.2709
X5.162Y-7.7512
X5.162Y-10.2315
X5.362Y-2.7906
X5.362Y-5.2709
X5.362Y-7.7512
X5.362Y-10.2315
X5.562Y-2.7906
X5.562Y-5.2709
X5.562Y-7.7512
X5.562Y-10.2315
X5.762Y-2.7906
X5.762Y-5.2709
X5.762Y-7.7512
X5.762Y-10.2315
X6.0549Y-2.7906
X6.0549Y-5.2709
X6.0549Y-7.7512
X6.0549Y-10.2315
X6.2199Y-0.7956
X6.2199Y-3.2759
X6.2199Y-5.7562
X6.2199Y-8.2365
X6.2549Y-2.7906
X6.2549Y-5.2709
X6.2549Y-7.7512
X6.2549Y-10.2315
X6.4199Y-0.7956
X6.4199Y-3.2759
X6.4199Y-5.7562
X6.4199Y-8.2365
X6.4549Y-2.7906
X6.4549Y-5.2709
X6.4549Y-7.7512
X6.4549Y-10.2315
X6.6199Y-0.7956
X6.6199Y-3.2759
X6.6199Y-5.7562
X6.6199Y-8.2365
X6.6549Y-2.7906
X6.6549Y-5.2709
X6.6549Y-7.7512
X6.6549Y-10.2315
X6.8199Y-0.7956
X6.8199Y-3.2759
X6.8199Y-5.7562
X6.8199Y-8.2365
X6.8549Y-2.7906
X6.8549Y-5.2709
X6.8549Y-7.7512
X6.8549Y-10.2315
X7.0549Y-2.7906
X7.0549Y-5.2709
X7.0549Y-7.7512
X7.0549Y-10.2315
X7.2549Y-2.7906
X7.2549Y-5.2709
X7.2549Y-7.7512
X7.2549Y-10.2315
X7.4549Y-2.7906
X7.4549Y-5.2709
X7.4549Y-7.7512
X7.4549Y-10.2315
X7.7478Y-2.7906
X7.7478Y-5.2709
X7.7478Y-7.7512
X7.7478Y-10.2315
X7.9128Y-0.7956
X7.9128Y-3.2759
X7.9128Y-5.7562
X7.9128Y-8.2365
X7.9478Y-2.7906
X7.9478Y-5.2709
X7.9478Y-7.7512
X7.9478Y-10.2315
X8.1128Y-0.7956
X8.1128Y-3.2759
X8.1128Y-5.7562
X8.1128Y-8.2365
X8.1478Y-2.7906
X8.1478Y-5.2709
X8.1478Y-7.7512
X8.1478Y-10.2315
X8.3128Y-0.7956
X8.3128Y-3.2759
X8.3128Y-5.7562
X8.3128Y-8.2365
X8.3478Y-2.7906
X8.3478Y-5.2709
X8.3478Y-7.7512
X8.3478Y-10.2315
X8.5128Y-0.7956
X8.5128Y-3.2759
X8.5128Y-5.7562
X8.5128Y-8.2365
X8.5478Y-2.7906
X8.5478Y-5.2709
X8.5478Y-7.7512
X8.5478Y-10.2315
X8.7478Y-2.7906
X8.7478Y-5.2709
X8.7478Y-7.7512
X8.7478Y-10.2315
X8.9478Y-2.7906
X8.9478Y-5.2709
X8.9478Y-7.7512
X8.9478Y-10.2315
X9.1478Y-2.7906
X9.1478Y-5.2709
X9.1478Y-7.7512
X9.1478Y-10.2315
T2
G00X2.0111Y-2.4606
M15
G01X2.0111Y-2.3976
M16
G05
G00X2.0111Y-4.9409
M15
G01X2.0111Y-4.878
M16
G05
G00X2.0111Y-7.4213
M15
G01X2.0111Y-7.3583
M16
G05
G00X2.0111Y-9.9016
M15
G01X2.0111Y-9.8386
M16
G05
G00X2.1411Y-2.2421
M15
G01X2.0781Y-2.2421
M16
G05
G00X2.1411Y-4.7224
M15
G01X2.0781Y-4.7224
M16
G05
G00X2.1411Y-7.2028
M15
G01X2.0781Y-7.2028
M16
G05
G00X2.1411Y-9.6831
M15
G01X2.0781Y-9.6831
M16
G05
G00X2.2474Y-2.4606
M15
G01X2.2474Y-2.3976
M16
G05
G00X2.2474Y-4.9409
M15
G01X2.2474Y-4.878
M16
G05
G00X2.2474Y-7.4213
M15
G01X2.2474Y-7.3583
M16
G05
G00X2.2474Y-9.9016
M15
G01X2.2474Y-9.8386
M16
G05
G00X3.7041Y-2.4606
M15
G01X3.7041Y-2.3976
M16
G05
G00X3.7041Y-4.9409
M15
G01X3.7041Y-4.878
M16
G05
G00X3.7041Y-7.4213
M15
G01X3.7041Y-7.3583
M16
G05
G00X3.7041Y-9.9016
M15
G01X3.7041Y-9.8386
M16
G05
G00X3.834Y-2.2421
M15
G01X3.771Y-2.2421
M16
G05
G00X3.834Y-4.7224
M15
G01X3.771Y-4.7224
M16
G05
G00X3.834Y-7.2028
M15
G01X3.771Y-7.2028
M16
G05
G00X3.834Y-9.6831
M15
G01X3.771Y-9.6831
M16
G05
G00X3.9403Y-2.4606
M15
G01X3.9403Y-2.3976
M16
G05
G00X3.9403Y-4.9409
M15
G01X3.9403Y-4.878
M16
G05
G00X3.9403Y-7.4213
M15
G01X3.9403Y-7.3583
M16
G05
G00X3.9403Y-9.9016
M15
G01X3.9403Y-9.8386
M16
G05
G00X5.397Y-2.4606
M15
G01X5.397Y-2.3976
M16
G05
G00X5.397Y-4.9409
M15
G01X5.397Y-4.878
M16
G05
G00X5.397Y-7.4213
M15
G01X5.397Y-7.3583
M16
G05
G00X5.397Y-9.9016
M15
G01X5.397Y-9.8386
M16
G05
G00X5.5269Y-2.2421
M15
G01X5.4639Y-2.2421
M16
G05
G00X5.5269Y-4.7224
M15
G01X5.4639Y-4.7224
M16
G05
G00X5.5269Y-7.2028
M15
G01X5.4639Y-7.2028
M16
G05
G00X5.5269Y-9.6831
M15
G01X5.4639Y-9.6831
M16
G05
G00X5.6332Y-2.4606
M15
G01X5.6332Y-2.3976
M16
G05
G00X5.6332Y-4.9409
M15
G01X5.6332Y-4.878
M16
G05
G00X5.6332Y-7.4213
M15
G01X5.6332Y-7.3583
M16
G05
G00X5.6332Y-9.9016
M15
G01X5.6332Y-9.8386
M16
G05
G00X7.0899Y-2.4606
M15
G01X7.0899Y-2.3976
M16
G05
G00X7.0899Y-4.9409
M15
G01X7.0899Y-4.878
M16
G05
G00X7.0899Y-7.4213
M15
G01X7.0899Y-7.3583
M16
G05
G00X7.0899Y-9.9016
M15
G01X7.0899Y-9.8386
M16
G05
G00X7.2198Y-2.2421
M15
G01X7.1568Y-2.2421
M16
G05
G00X7.2198Y-4.7224
M15
G01X7.1568Y-4.7224
M16
G05
G00X7.2198Y-7.2028
M15
G01X7.1568Y-7.2028
M16
G05
G00X7.2198Y-9.6831
M15
G01X7.1568Y-9.6831
M16
G05
G00X7.3261Y-2.4606
M15
G01X7.3261Y-2.3976
M16
G05
G00X7.3261Y-4.9409
M15
G01X7.3261Y-4.878
M16
G05
G00X7.3261Y-7.4213
M15
G01X7.3261Y-7.3583
M16
G05
G00X7.3261Y-9.9016
M15
G01X7.3261Y-9.8386
M16
G05
G00X8.7828Y-2.4606
M15
G01X8.7828Y-2.3976
M16
G05
G00X8.7828Y-4.9409
M15
G01X8.7828Y-4.878
M16
G05
G00X8.7828Y-7.4213
M15
G01X8.7828Y-7.3583
M16
G05
G00X8.7828Y-9.9016
M15
G01X8.7828Y-9.8386
M16
G05
G00X8.9127Y-2.2421
M15
G01X8.8497Y-2.2421
M16
G05
G00X8.9127Y-4.7224
M15
G01X8.8497Y-4.7224
M16
G05
G00X8.9127Y-7.2028
M15
G01X8.8497Y-7.2028
M16
G05
G00X8.9127Y-9.6831
M15
G01X8.8497Y-9.6831
M16
G05
G00X9.019Y-2.4606
M15
G01X9.019Y-2.3976
M16
G05
G00X9.019Y-4.9409
M15
G01X9.019Y-4.878
M16
G05
G00X9.019Y-7.4213
M15
G01X9.019Y-7.3583
M16
G05
G00X9.019Y-9.9016
M15
G01X9.019Y-9.8386
M16
G05
T0
M30
