M48
; DRILL file {KiCad (6.0.5)} date Thu Jun  9 01:52:49 2022
; FORMAT={-:-/ absolute / inch / decimal}
; #@! TF.CreationDate,2022-06-09T01:52:49-04:00
; #@! TF.GenerationSoftware,Kicad,Pcbnew,(6.0.5)
; #@! TF.FileFunction,NonPlated,1,2,NPTH
FMAT,2
INCH
; #@! TA.AperFunction,NonPlated,NPTH,ComponentDrill
T1C0.0197
; #@! TA.AperFunction,NonPlated,NPTH,ComponentDrill
T2C0.1260
%
G90
G05
T1
X0.874Y-1.7323
X0.874Y-1.7717
X0.874Y-1.811
X0.874Y-1.8504
X0.874Y-4.2126
X0.874Y-4.252
X0.874Y-4.2913
X0.874Y-4.3307
X0.874Y-6.6929
X0.874Y-6.7323
X0.874Y-6.7717
X0.874Y-6.811
X0.874Y-9.1732
X0.874Y-9.2126
X0.874Y-9.252
X0.874Y-9.2913
X1.6142Y-2.9843
X1.6142Y-3.0787
X1.6142Y-5.4646
X1.6142Y-5.5591
X1.6142Y-7.9449
X1.6142Y-8.0394
X1.6535Y-2.9843
X1.6535Y-3.0787
X1.6535Y-5.4646
X1.6535Y-5.5591
X1.6535Y-7.9449
X1.6535Y-8.0394
X1.6929Y-2.9843
X1.6929Y-3.0787
X1.6929Y-5.4646
X1.6929Y-5.5591
X1.6929Y-7.9449
X1.6929Y-8.0394
X1.7323Y-2.9843
X1.7323Y-3.0787
X1.7323Y-5.4646
X1.7323Y-5.5591
X1.7323Y-7.9449
X1.7323Y-8.0394
X2.4724Y-1.7323
X2.4724Y-1.7717
X2.4724Y-1.811
X2.4724Y-1.8504
X2.4724Y-4.2126
X2.4724Y-4.252
X2.4724Y-4.2913
X2.4724Y-4.3307
X2.4724Y-6.6929
X2.4724Y-6.7323
X2.4724Y-6.7717
X2.4724Y-6.811
X2.4724Y-9.1732
X2.4724Y-9.2126
X2.4724Y-9.252
X2.4724Y-9.2913
X2.5669Y-1.7323
X2.5669Y-1.7717
X2.5669Y-1.811
X2.5669Y-1.8504
X2.5669Y-4.2126
X2.5669Y-4.252
X2.5669Y-4.2913
X2.5669Y-4.3307
X2.5669Y-6.6929
X2.5669Y-6.7323
X2.5669Y-6.7717
X2.5669Y-6.811
X2.5669Y-9.1732
X2.5669Y-9.2126
X2.5669Y-9.252
X2.5669Y-9.2913
X3.3071Y-2.9843
X3.3071Y-3.0787
X3.3071Y-5.4646
X3.3071Y-5.5591
X3.3071Y-7.9449
X3.3071Y-8.0394
X3.3465Y-2.9843
X3.3465Y-3.0787
X3.3465Y-5.4646
X3.3465Y-5.5591
X3.3465Y-7.9449
X3.3465Y-8.0394
X3.3858Y-2.9843
X3.3858Y-3.0787
X3.3858Y-5.4646
X3.3858Y-5.5591
X3.3858Y-7.9449
X3.3858Y-8.0394
X3.4252Y-2.9843
X3.4252Y-3.0787
X3.4252Y-5.4646
X3.4252Y-5.5591
X3.4252Y-7.9449
X3.4252Y-8.0394
X4.1654Y-1.7323
X4.1654Y-1.7717
X4.1654Y-1.811
X4.1654Y-1.8504
X4.1654Y-4.2126
X4.1654Y-4.252
X4.1654Y-4.2913
X4.1654Y-4.3307
X4.1654Y-6.6929
X4.1654Y-6.7323
X4.1654Y-6.7717
X4.1654Y-6.811
X4.1654Y-9.1732
X4.1654Y-9.2126
X4.1654Y-9.252
X4.1654Y-9.2913
X4.2598Y-1.7323
X4.2598Y-1.7717
X4.2598Y-1.811
X4.2598Y-1.8504
X4.2598Y-4.2126
X4.2598Y-4.252
X4.2598Y-4.2913
X4.2598Y-4.3307
X4.2598Y-6.6929
X4.2598Y-6.7323
X4.2598Y-6.7717
X4.2598Y-6.811
X4.2598Y-9.1732
X4.2598Y-9.2126
X4.2598Y-9.252
X4.2598Y-9.2913
X5.0Y-2.9843
X5.0Y-3.0787
X5.0Y-5.4646
X5.0Y-5.5591
X5.0Y-7.9449
X5.0Y-8.0394
X5.0394Y-2.9843
X5.0394Y-3.0787
X5.0394Y-5.4646
X5.0394Y-5.5591
X5.0394Y-7.9449
X5.0394Y-8.0394
X5.0787Y-2.9843
X5.0787Y-3.0787
X5.0787Y-5.4646
X5.0787Y-5.5591
X5.0787Y-7.9449
X5.0787Y-8.0394
X5.1181Y-2.9843
X5.1181Y-3.0787
X5.1181Y-5.4646
X5.1181Y-5.5591
X5.1181Y-7.9449
X5.1181Y-8.0394
X5.8583Y-1.7323
X5.8583Y-1.7717
X5.8583Y-1.811
X5.8583Y-1.8504
X5.8583Y-4.2126
X5.8583Y-4.252
X5.8583Y-4.2913
X5.8583Y-4.3307
X5.8583Y-6.6929
X5.8583Y-6.7323
X5.8583Y-6.7717
X5.8583Y-6.811
X5.8583Y-9.1732
X5.8583Y-9.2126
X5.8583Y-9.252
X5.8583Y-9.2913
X5.9528Y-1.7323
X5.9528Y-1.7717
X5.9528Y-1.811
X5.9528Y-1.8504
X5.9528Y-4.2126
X5.9528Y-4.252
X5.9528Y-4.2913
X5.9528Y-4.3307
X5.9528Y-6.6929
X5.9528Y-6.7323
X5.9528Y-6.7717
X5.9528Y-6.811
X5.9528Y-9.1732
X5.9528Y-9.2126
X5.9528Y-9.252
X5.9528Y-9.2913
X6.6929Y-2.9843
X6.6929Y-3.0787
X6.6929Y-5.4646
X6.6929Y-5.5591
X6.6929Y-7.9449
X6.6929Y-8.0394
X6.7323Y-2.9843
X6.7323Y-3.0787
X6.7323Y-5.4646
X6.7323Y-5.5591
X6.7323Y-7.9449
X6.7323Y-8.0394
X6.7717Y-2.9843
X6.7717Y-3.0787
X6.7717Y-5.4646
X6.7717Y-5.5591
X6.7717Y-7.9449
X6.7717Y-8.0394
X6.811Y-2.9843
X6.811Y-3.0787
X6.811Y-5.4646
X6.811Y-5.5591
X6.811Y-7.9449
X6.811Y-8.0394
X7.5512Y-1.7323
X7.5512Y-1.7717
X7.5512Y-1.811
X7.5512Y-1.8504
X7.5512Y-4.2126
X7.5512Y-4.252
X7.5512Y-4.2913
X7.5512Y-4.3307
X7.5512Y-6.6929
X7.5512Y-6.7323
X7.5512Y-6.7717
X7.5512Y-6.811
X7.5512Y-9.1732
X7.5512Y-9.2126
X7.5512Y-9.252
X7.5512Y-9.2913
X7.6457Y-1.7323
X7.6457Y-1.7717
X7.6457Y-1.811
X7.6457Y-1.8504
X7.6457Y-4.2126
X7.6457Y-4.252
X7.6457Y-4.2913
X7.6457Y-4.3307
X7.6457Y-6.6929
X7.6457Y-6.7323
X7.6457Y-6.7717
X7.6457Y-6.811
X7.6457Y-9.1732
X7.6457Y-9.2126
X7.6457Y-9.252
X7.6457Y-9.2913
X8.3858Y-2.9843
X8.3858Y-3.0787
X8.3858Y-5.4646
X8.3858Y-5.5591
X8.3858Y-7.9449
X8.3858Y-8.0394
X8.4252Y-2.9843
X8.4252Y-3.0787
X8.4252Y-5.4646
X8.4252Y-5.5591
X8.4252Y-7.9449
X8.4252Y-8.0394
X8.4646Y-2.9843
X8.4646Y-3.0787
X8.4646Y-5.4646
X8.4646Y-5.5591
X8.4646Y-7.9449
X8.4646Y-8.0394
X8.5039Y-2.9843
X8.5039Y-3.0787
X8.5039Y-5.4646
X8.5039Y-5.5591
X8.5039Y-7.9449
X8.5039Y-8.0394
X9.2441Y-1.7323
X9.2441Y-1.7717
X9.2441Y-1.811
X9.2441Y-1.8504
X9.2441Y-4.2126
X9.2441Y-4.252
X9.2441Y-4.2913
X9.2441Y-4.3307
X9.2441Y-6.6929
X9.2441Y-6.7323
X9.2441Y-6.7717
X9.2441Y-6.811
X9.2441Y-9.1732
X9.2441Y-9.2126
X9.2441Y-9.252
X9.2441Y-9.2913
T2
X1.0039Y-2.4409
X1.0039Y-4.9213
X1.0039Y-7.4016
X1.0039Y-9.8819
X1.2598Y-1.1417
X1.2598Y-3.622
X1.2598Y-6.1024
X1.2598Y-8.5827
X2.3425Y-0.7283
X2.3425Y-3.2087
X2.3425Y-5.689
X2.3425Y-8.1693
X2.6969Y-2.4409
X2.6969Y-4.9213
X2.6969Y-7.4016
X2.6969Y-9.8819
X2.9528Y-1.1417
X2.9528Y-3.622
X2.9528Y-6.1024
X2.9528Y-8.5827
X4.0354Y-0.7283
X4.0354Y-3.2087
X4.0354Y-5.689
X4.0354Y-8.1693
X4.3898Y-2.4409
X4.3898Y-4.9213
X4.3898Y-7.4016
X4.3898Y-9.8819
X4.6457Y-1.1417
X4.6457Y-3.622
X4.6457Y-6.1024
X4.6457Y-8.5827
X5.7283Y-0.7283
X5.7283Y-3.2087
X5.7283Y-5.689
X5.7283Y-8.1693
X6.0827Y-2.4409
X6.0827Y-4.9213
X6.0827Y-7.4016
X6.0827Y-9.8819
X6.3386Y-1.1417
X6.3386Y-3.622
X6.3386Y-6.1024
X6.3386Y-8.5827
X7.4213Y-0.7283
X7.4213Y-3.2087
X7.4213Y-5.689
X7.4213Y-8.1693
X7.7756Y-2.4409
X7.7756Y-4.9213
X7.7756Y-7.4016
X7.7756Y-9.8819
X8.0315Y-1.1417
X8.0315Y-3.622
X8.0315Y-6.1024
X8.0315Y-8.5827
X9.1142Y-0.7283
X9.1142Y-3.2087
X9.1142Y-5.689
X9.1142Y-8.1693
T0
M30
